<svg xmlns="http://www.w3.org/2000/svg" xmlns:xlink="http://www.w3.org/1999/xlink" viewBox="0 0 812.99 821.67"><defs><style>.cls-1,.cls-6{fill:none;}.cls-2{fill:#025098;}.cls-3{clip-path:url(#clip-path);}.cls-4{fill:#001c58;}.cls-5{font-size:608.05px;fill:#fff;font-family:BritannicBold, Britannic Bold;}.cls-6{stroke:#000;stroke-width:0.3px;}</style><clipPath id="clip-path"><polygon class="cls-1" points="704.99 713.67 728.33 585.39 718.66 491.06 717.59 448.8 481.99 212.72 441.66 342.39 427.33 555.39 368.91 618.12 464.46 713.67 704.99 713.67"/></clipPath></defs><title>1</title><g id="图层_2" data-name="图层 2"><g id="图层_1-2" data-name="图层 1"><path class="cls-2" d="M668.6,557.28c0,76.37-40.29,116.67-90,116.67h-332c-49.71,0-90-40.29-90-116.67v-332c0-23,40.29-63.33,90-63.33h332c49.71,0,90,40.29,90,63.33Z"/><g class="cls-3"><path class="cls-4" d="M668.6,557.28c0,76.37-40.29,116.67-90,116.67h-332c-49.71,0-90-40.29-90-116.67v-332c0-23,40.29-63.33,90-63.33h332c49.71,0,90,40.29,90,63.33Z"/></g><text class="cls-5" transform="translate(225.84 618.12)">1</text><line class="cls-6" x1="108" y1="54" x2="108" y2="90"/><line class="cls-6" x1="54" y1="108" x2="90" y2="108"/><line class="cls-6" x1="54" y1="713.67" x2="90" y2="713.67"/><line class="cls-6" x1="108" y1="767.67" x2="108" y2="731.67"/><line class="cls-6" x1="704.99" y1="54" x2="704.99" y2="90"/><line class="cls-6" x1="758.99" y1="108" x2="722.99" y2="108"/><line class="cls-6" x1="758.99" y1="713.67" x2="722.99" y2="713.67"/><line class="cls-6" x1="704.99" y1="767.67" x2="704.99" y2="731.67"/><line class="cls-6" x1="54" x2="54" y2="36"/><line class="cls-6" y1="54" x2="36" y2="54"/><line class="cls-6" y1="767.67" x2="36" y2="767.67"/><line class="cls-6" x1="54" y1="821.67" x2="54" y2="785.67"/><line class="cls-6" x1="758.99" x2="758.99" y2="36"/><line class="cls-6" x1="812.99" y1="54" x2="776.99" y2="54"/><line class="cls-6" x1="812.99" y1="767.67" x2="776.99" y2="767.67"/><line class="cls-6" x1="758.99" y1="821.67" x2="758.99" y2="785.67"/></g></g></svg>