<svg xmlns="http://www.w3.org/2000/svg" viewBox="0 0 708 708"><defs><style>.cls-1,.cls-7{fill:none;}.cls-2{fill:#a0a0a0;}.cls-3{fill:#863c0b;}.cls-4{fill:#cc6a33;}.cls-5{fill:#ddd;}.cls-6{fill:#fff;}.cls-7{stroke:#000;stroke-width:0.3px;}</style></defs><title>104</title><g id="图层_2" data-name="图层 2"><g id="图层_1-2" data-name="图层 1"><path class="cls-1" d="M476.61,508.19l10.27-269.71L463.13,508.2h13.48Z"/><path class="cls-2" d="M476.61,508.19l10.27-269.71L463.13,508.2h13.48Z"/><path class="cls-3" d="M228.92,508.51,322.34,610H454.17l9-101.8Z"/><path class="cls-4" d="M610,355.68V188a90,90,0,0,0-90-90H188a90,90,0,0,0-90,90V520a90,90,0,0,0,90,90H322.34L228.92,508.51l234-.31,24-278.94Z"/><path class="cls-3" d="M476.61,508.19l10.27-269.71L463.13,508.2h13.48Z"/><path class="cls-3" d="M486.87,238.48,476.61,508.19H463.13l-9,101.8H520a90,90,0,0,0,90-90V355.68L486.87,229.25l-24,278.94h.24Z"/><polygon class="cls-3" points="304.55 527.19 304.55 404.61 404.55 395.52 404.55 575.58 304.55 527.19"/><polygon class="cls-5" points="452.94 386.87 449.71 386.87 449.71 386.87 452.94 386.87 452.94 386.87"/><path class="cls-6" d="M476.6,355.69l-123.78-110-131.35,110V500.54s-.26,8,7.46,8c9.7,0,89.69-.12,89.69-.12h1.89V426.44h58.86v81.76h87.77c9.91,0,9.46-9.91,9.46-9.91Z"/><path class="cls-6" d="M353.91,193.26,173.11,352.53s11.13,20.58,35.49,0L353.91,229.58,490.23,351.75c28.16,20.31,38.7,0,38.7,0Z"/><polygon class="cls-6" points="486.87 301.4 486.87 229.25 451.85 229.25 451.96 271.77 486.87 301.4"/><line class="cls-7" x1="54" x2="54" y2="36"/><line class="cls-7" y1="54" x2="36" y2="54"/><line class="cls-7" y1="654" x2="36" y2="654"/><line class="cls-7" x1="54" y1="708" x2="54" y2="672"/><line class="cls-7" x1="654" x2="654" y2="36"/><line class="cls-7" x1="708" y1="54" x2="672" y2="54"/><line class="cls-7" x1="708" y1="654" x2="672" y2="654"/><line class="cls-7" x1="654" y1="708" x2="654" y2="672"/></g></g></svg>