<svg xmlns="http://www.w3.org/2000/svg" viewBox="0 0 719.34 719.34"><defs><style>.cls-1{fill:#a0a0a0;}.cls-2{fill:#6c3;}.cls-3{fill:#54773e;}.cls-4{fill:#fff;}.cls-5,.cls-6{fill:none;}.cls-5{stroke:#fff;stroke-miterlimit:10;stroke-width:6px;}.cls-6{stroke:#000;stroke-width:0.3px;}</style></defs><title>108</title><g id="图层_2" data-name="图层 2"><g id="图层_1-2" data-name="图层 1"><polygon class="cls-1" points="297.16 351.85 335.91 387.83 302.57 412.21 286.18 427.66 291.78 351.85 297.16 351.85"/><path class="cls-2" d="M474.54,173.82,610,308.25V194.67a90,90,0,0,0-90-90H188a90,90,0,0,0-90,90v332a90,90,0,0,0,90,90H329.92L220.78,507Z"/><path class="cls-3" d="M610,526.67V308.25L474.54,173.82,220.78,507l109.14,109.7H520A90,90,0,0,0,610,526.67Z"/><polygon class="cls-3" points="222.16 301.16 411.46 490.96 523.49 242.41 497.58 210.9 477.98 187.8 461.18 179.4 222.16 301.16"/><polygon class="cls-3" points="299.28 366.3 275.18 392.37 292.89 418.93 325.36 397.56 299.28 366.3"/><rect class="cls-4" x="220.78" y="348.35" width="76.38" height="158.62" rx="5" ry="5"/><rect class="cls-4" x="316.1" y="288.15" width="76.38" height="218.81" rx="5" ry="5"/><rect class="cls-4" x="410.84" y="237.45" width="76.38" height="269.51" rx="5" ry="5"/><line class="cls-4" x1="220.78" y1="298.7" x2="474.54" y2="173.82"/><line class="cls-5" x1="220.78" y1="298.7" x2="449.79" y2="186"/><polygon class="cls-4" points="445.71 207.08 444.67 188.52 430.6 176.38 474.54 173.82 445.71 207.08"/><line class="cls-6" x1="54" x2="54" y2="36"/><line class="cls-6" y1="54" x2="36" y2="54"/><line class="cls-6" y1="665.34" x2="36" y2="665.34"/><line class="cls-6" x1="54" y1="719.34" x2="54" y2="683.34"/><line class="cls-6" x1="665.34" x2="665.34" y2="36"/><line class="cls-6" x1="719.34" y1="54" x2="683.34" y2="54"/><line class="cls-6" x1="719.34" y1="665.34" x2="683.34" y2="665.34"/><line class="cls-6" x1="665.34" y1="719.34" x2="665.34" y2="683.34"/></g></g></svg>