<svg xmlns="http://www.w3.org/2000/svg" viewBox="0 0 713.67 713.67"><defs><style>.cls-1{fill:#3ab5c0;}.cls-2{fill:#2f9098;}.cls-3{fill:#fff;}.cls-4{fill:none;stroke:#000;stroke-width:0.3px;}</style></defs><title>109</title><g id="图层_2" data-name="图层 2"><g id="图层_1-2" data-name="图层 1"><path class="cls-1" d="M523.54,114.44h-332c-49.71,0-90,40.29-90,63.33v332c0,76.37,40.29,116.67,90,116.67h81.54l-3.21-3.2-.05-.05-90.64-90.36,54.22-190L371.4,213l148-20.18L612,286l1.45,1.46V509.82c0,42.94-12.74,74.47-32.72,93.85,20-19.38,32.77-50.93,32.77-93.9v-332C613.54,154.73,573.25,114.44,523.54,114.44Z"/><path class="cls-2" d="M613.49,509.82V287.49L612,286V506.52c0,54.95-20.86,91.22-51.07,107.25a82.44,82.44,0,0,1-39,9.47H269.88l3.21,3.2.05.05H523.49c21.76,0,41.72-7.72,57.28-22.81C600.76,584.29,613.49,552.76,613.49,509.82Z"/><path class="cls-2" d="M561,613.77A82.45,82.45,0,0,1,522,623.19H269.83l.05.05H521.95A82.44,82.44,0,0,0,561,613.77Z"/><path class="cls-2" d="M561,613.77c30.22-16,51.07-52.3,51.07-107.25V286l-92.62-93.17L371.4,213l-138,129.79-54.22,190,90.64,90.36H522A82.45,82.45,0,0,0,561,613.77Z"/><path class="cls-3" d="M545.89,397S551,336.1,524.44,289.73c3.63-8,6.37-22.06,10.12-39.13,4.64-21.13,1.57-60.81-39.17-68-32.3-5.72-86.62,13.5-105.85,20.91-6.07-.54-12.34-.82-18.86-.82-58.23,0-105.13,37.62-126.78,61.33-14.43,15.81-27.71,43.09-35,75.7,14.49-14.38,52.32-51.56,64.73-60.24,0,0-47.25,50.61-69.69,93.2,0,.24,0,.48-.05.72-11.73,22-42.44,84.5-37.84,127.16,4.76,44.14,40.71,50,57.2,50,11.06,0,51.34-7.42,74.12-22.25l1.12.6c24.82,12.82,82.46,31.44,145.8,3.87,70.21-30.56,92.81-101.27,92.81-101.27l-94.31-1s-18.55,43.29-72.66,38.65c-53.27-4.57-66.48-51.54-65.45-72.15ZM520.64,213.5c16.5,21.38,5.71,52.56-1.38,68a105.51,105.51,0,0,0-8.92-11.28c-23.26-25.53-45.59-43.39-70.67-54.31C474.34,195.84,508.74,198.08,520.64,213.5ZM375.57,285.64c64.68,1.55,69.83,62.87,69.83,62.87H305.74S310.89,284.1,375.57,285.64ZM203.18,531c-22.46-19.1-6.33-67.68,7.69-99.32,14.07,37.62,45.55,72,78,91.78C267.43,533.25,224.6,549.17,203.18,531Z"/><line class="cls-4" x1="54" x2="54" y2="36"/><line class="cls-4" y1="54" x2="36" y2="54"/><line class="cls-4" y1="659.67" x2="36" y2="659.67"/><line class="cls-4" x1="54" y1="713.67" x2="54" y2="677.67"/><line class="cls-4" x1="659.67" x2="659.67" y2="36"/><line class="cls-4" x1="713.67" y1="54" x2="677.67" y2="54"/><line class="cls-4" x1="713.67" y1="659.67" x2="677.67" y2="659.67"/><line class="cls-4" x1="659.67" y1="713.67" x2="659.67" y2="677.67"/></g></g></svg>