<svg xmlns="http://www.w3.org/2000/svg" viewBox="0 0 708 708"><defs><style>.cls-1{fill:#d9b76d;}.cls-2{fill:#c5941e;}.cls-3,.cls-4,.cls-6,.cls-7,.cls-8,.cls-9{fill:none;}.cls-4{stroke:#be9224;stroke-width:4px;}.cls-4,.cls-6,.cls-7,.cls-8{stroke-miterlimit:10;}.cls-5{fill:#fff;}.cls-6{stroke:#b28146;}.cls-6,.cls-7,.cls-8{stroke-width:2px;}.cls-7{stroke:#d9b76d;}.cls-8{stroke:#c4951f;}.cls-9{stroke:#000;stroke-width:0.3px;}</style></defs><title>111</title><g id="图层_2" data-name="图层 2"><g id="图层_1-2" data-name="图层 1"><path class="cls-1" d="M222.33,550.7,347.5,481.53l24.5-95L495.69,168.64,605.44,260.3V166.84c3.82-22.88-36.48-63.17-86.18-63.17h-332c-49.71,0-90,40.29-90,63.33V499c0,76.37,40.29,116.67,90,116.67h134Z"/><path class="cls-1" d="M515.44,615.67h3.82c49.71,0,90-40.29,86.18-116.83V499C605.44,575.37,565.15,615.67,515.44,615.67Z"/><path class="cls-2" d="M372,386.53l-24.5,95L222.33,550.7l98.9,65H515.44c49.71,0,90-40.29,90-116.67V260.3L495.69,168.64Z"/><line class="cls-3" x1="358.69" y1="315.79" x2="358.69" y2="510.13"/><rect class="cls-1" x="229.17" y="170.42" width="263.17" height="10.99"/><line class="cls-4" x1="497.3" y1="227.46" x2="497.3" y2="297.96"/><rect class="cls-5" x="222.33" y="168.64" width="274" height="382.06"/><path class="cls-1" d="M498.78,252.93c.2.82.33.29-.16,1.37.13-.29-.7,1.07-1,1.32C496,257,493.56,257,491.56,257H232.65c-3.92,0-11.82,1.18-12.15-4.5-.56-9.59-15.56-9.66-15,0,.75,12.8,11,19.5,22.93,19.5H489.74a37,37,0,0,0,9.5-.82c9.8-2.57,16.44-12.13,14-22.2-2.27-9.38-16.74-5.41-14.46,4Z"/><path class="cls-3" d="M496.67,169.07"/><path class="cls-3" d="M222.67,169.07"/><line class="cls-3" x1="563" y1="334.13" x2="659.67" y2="336.13"/><line class="cls-3" x1="441.67" y1="408.79" x2="420.34" y2="536.57"/><line class="cls-3" x1="222.67" y1="551.13" x2="222.67" y2="551.13"/><path class="cls-6" d="M496.67,551.13"/><path class="cls-6" d="M222.67,551.13"/><path class="cls-6" d="M496.67,551.13"/><path class="cls-6" d="M497.3,257.77"/><line class="cls-7" x1="355.09" y1="240.46" x2="357.09" y2="295.46"/><line class="cls-7" x1="349.44" y1="243.96" x2="349.44" y2="291.96"/><ellipse class="cls-1" cx="352.01" cy="233.29" rx="13.83" ry="13.83"/><ellipse class="cls-1" cx="353.59" cy="305.46" rx="14.36" ry="14.5"/><ellipse class="cls-5" cx="353.13" cy="305.46" rx="6.75" ry="7.23"/><ellipse class="cls-5" cx="352.01" cy="233.29" rx="6.09" ry="6.61"/><path class="cls-7" d="M348.35,319c-1,5.83-1.76,12.46,2.47,17,3,3.17,7.84,4.66,10.43,8.08,3.36,4.43,1.55,10.76-2.52,14.7s-9.86,6-15.47,8"/><path class="cls-6" d="M222.67,462.74"/><path class="cls-6" d="M222.67,169.07"/><path class="cls-3" d="M506.67,311.46"/><path class="cls-3" d="M495.69,213.46"/><line class="cls-3" x1="495.69" y1="213.46" x2="495.69" y2="213.46"/><line class="cls-3" x1="506.67" y1="311.46" x2="497.3" y2="311.46"/><line class="cls-8" x1="497.3" y1="221.29" x2="497.3" y2="276.77"/><path class="cls-2" d="M498.16,248.25a7.81,7.81,0,0,0,0,5.47,2.51,2.51,0,0,0,4.91-.66l.26-3.75c.19-2.79-4.36-3.43-4.91-.66A89.61,89.61,0,0,0,496.73,268c.06,3.21,5.06,3.22,5,0a83.32,83.32,0,0,1,1.55-18l-4.91-.66-.26,3.75,4.91-.66a2.77,2.77,0,0,1,0-2.82c1-3.05-3.79-4.36-4.82-1.33Z"/><path class="cls-2" d="M500.13,232.7a51.3,51.3,0,0,0-1.82,21.4c.53,4,3.07,7.5,7.5,7.5,3.64,0,8-3.46,7.5-7.5a40.73,40.73,0,0,1,1.28-17.42c2.77-9.27-11.7-13.23-14.46-4Z"/><path class="cls-2" d="M504.68,242.79l-2,40.67c-.47,9.65,14.53,9.62,15,0l2-40.67c.47-9.65-14.53-9.62-15,0Z"/><path class="cls-2" d="M500.46,258.14l-3.92,9.37c-1.52,3.63,1.63,8.4,5.24,9.23,4.38,1,7.6-1.35,9.23-5.24l3.92-9.37c1.52-3.63-1.63-8.4-5.24-9.23-4.38-1-7.6,1.35-9.23,5.24Z"/><line class="cls-9" x1="54" x2="54" y2="36"/><line class="cls-9" y1="54" x2="36" y2="54"/><line class="cls-9" y1="654" x2="36" y2="654"/><line class="cls-9" x1="54" y1="708" x2="54" y2="672"/><line class="cls-9" x1="654" x2="654" y2="36"/><line class="cls-9" x1="708" y1="54" x2="672" y2="54"/><line class="cls-9" x1="708" y1="654" x2="672" y2="654"/><line class="cls-9" x1="654" y1="708" x2="654" y2="672"/></g></g></svg>