<svg xmlns="http://www.w3.org/2000/svg" viewBox="0 0 719.34 719.34"><defs><style>.cls-1{fill:#f47e41;}.cls-2{fill:#c66133;}.cls-3{fill:#fff;}.cls-4{fill:#be5f34;}.cls-5{fill:none;stroke:#000;stroke-width:0.3px;}</style></defs><title>112</title><g id="图层_2" data-name="图层 2"><g id="图层_1-2" data-name="图层 1"><path class="cls-1" d="M525.67,610c49.71,0,90-40.29,90-116.67v-.17c0,76.37-40.29,116.67-90,116.67H269.05l-95.94-95.64V247.72a174.1,174.1,0,0,1,21.64-12.47V221.31c75.25-55,149.32-12.27,164.91-2.06,15.59-10.21,89.66-52.9,164.91,2.06v1.07L615.67,314V161.33c0-23-40.29-63.33-90-63.33h-332c-49.71,0-90,40.29-90,63.33v332c0,76.37,40.29,116.67,90,116.67Z"/><path class="cls-2" d="M524.58,235.25a174.09,174.09,0,0,1,21.64,12.47V514.19s-128-79.14-186.55,0c-66.47-82.94-186.55,0-186.55,0l95.94,95.64H525.67c49.71,0,90-40.29,90-116.67V314l-91.09-91.62Z"/><path class="cls-3" d="M359.67,514.19c58.56-79.14,186.55,0,186.55,0V247.72a174.09,174.09,0,0,0-21.64-12.47V481.12s-81.71-62.33-163.46-3.33a17.56,17.56,0,0,1-2.17,1.2l-2.28-2.31h0c-81.23-57.1-161.91,4.44-161.91,4.44V235.25a174.1,174.1,0,0,0-21.64,12.47V514.19S293.2,431.25,359.67,514.19Z"/><path class="cls-3" d="M203.76,226c22.39-15.36,46.65-23.15,72.18-23.15,31.85,0,58.33,12.13,71.73,19.69V460.44a134,134,0,0,0-65.52-17c-33.9,0-62.24,12.37-78.4,21.38Z"/><path class="cls-4" d="M275.93,211.81c26.6,0,49.23,9.06,62.74,16V446a141.88,141.88,0,0,0-56.52-11.62c-27.7,0-51.92,7.83-69.4,15.79V230.79c19.77-12.6,41-19,63.18-19h0m0-18c-24.88,0-52.94,6.87-81.18,27.49V481.12s37.65-28.71,87.4-28.72c23.08,0,48.77,6.18,74.51,24.28h0V221.31s1-.77,3-2.06c-9.74-6.38-42.32-25.44-83.73-25.44Z"/><path class="cls-3" d="M515.58,464.78c-16.15-9-44.5-21.37-78.4-21.37-25.29,0-49.3,6.9-71.52,20.54V226.09c9.88-6.29,40.05-23.28,77.73-23.28,25.53,0,49.79,7.78,72.18,23.15Z"/><path class="cls-4" d="M443.4,211.81c22.2,0,43.41,6.38,63.18,19v219.4c-17.48-8-41.7-15.79-69.4-15.79a142.15,142.15,0,0,0-62.52,14.36V231.15c12-7,37.68-19.34,68.73-19.34m0-18c-41.43,0-74,19.06-83.73,25.44-2,1.28-3,2.06-3,2.06V476.68h0l2.28,2.31a17.58,17.58,0,0,0,2.17-1.2c26.26-19,52.52-25.38,76.07-25.38,49.75,0,87.4,28.72,87.4,28.72V221.31c-28.23-20.62-56.3-27.49-81.18-27.49Z"/><line class="cls-5" x1="54" x2="54" y2="36"/><line class="cls-5" y1="54" x2="36" y2="54"/><line class="cls-5" y1="665.34" x2="36" y2="665.34"/><line class="cls-5" x1="54" y1="719.34" x2="54" y2="683.34"/><line class="cls-5" x1="665.34" x2="665.34" y2="36"/><line class="cls-5" x1="719.34" y1="54" x2="683.34" y2="54"/><line class="cls-5" x1="719.34" y1="665.34" x2="683.34" y2="665.34"/><line class="cls-5" x1="665.34" y1="719.34" x2="665.34" y2="683.34"/></g></g></svg>