<svg xmlns="http://www.w3.org/2000/svg" xmlns:xlink="http://www.w3.org/1999/xlink" viewBox="0 0 713.67 713.67"><defs><style>.cls-1,.cls-7{fill:none;}.cls-2{fill:#025098;}.cls-3{clip-path:url(#clip-path);}.cls-4{fill:#001c58;}.cls-5{clip-path:url(#clip-path-2);}.cls-6{font-size:435.59px;fill:#fff;font-family:BritannicBold, Britannic Bold;letter-spacing:-0.08em;}.cls-7{stroke:#000;stroke-width:0.3px;}</style><clipPath id="clip-path"><polygon class="cls-1" points="653.3 661.49 645.17 621.77 672.49 572.2 316.6 226.56 315.33 278.21 216.17 427.34 135.62 504.46 315.17 684.34 653.3 661.49"/></clipPath><clipPath id="clip-path-2"><polygon class="cls-1" points="657.95 635.91 704.19 510.73 688.17 365.77 555.07 232.68 417.17 226.56 408.55 313.34 370.62 504.46 466.17 600.01 657.95 635.91"/></clipPath></defs><title>20</title><g id="图层_2" data-name="图层 2"><g id="图层_1-2" data-name="图层 1"><path class="cls-2" d="M616.9,505.1c0,76.37-40.29,116.67-90,116.67h-332c-49.71,0-90-40.29-90-116.67v-332c0-23,40.29-63.33,90-63.33h332c49.71,0,90,40.29,90,63.33Z"/><g class="cls-3"><path class="cls-4" d="M616.9,505.1c0,76.37-40.29,116.67-90,116.67h-332c-49.71,0-90-40.29-90-116.67v-332c0-23,40.29-63.33,90-63.33h332c49.71,0,90,40.29,90,63.33Z"/></g><g class="cls-5"><path class="cls-4" d="M616.9,505.1c0,76.37-40.29,116.67-90,116.67h-332c-49.71,0-90-40.29-90-116.67v-332c0-23,40.29-63.33,90-63.33h332c49.71,0,90,40.29,90,63.33Z"/></g><text class="cls-6" transform="translate(112.24 502.85)">20</text><rect class="cls-1" x="54" y="54" width="617.01" height="617.01"/><line class="cls-7" x1="54" x2="54" y2="36"/><line class="cls-7" y1="54" x2="36" y2="54"/><line class="cls-7" y1="659.67" x2="36" y2="659.67"/><line class="cls-7" x1="54" y1="713.67" x2="54" y2="677.67"/><line class="cls-7" x1="659.67" x2="659.67" y2="36"/><line class="cls-7" x1="713.67" y1="54" x2="677.67" y2="54"/><line class="cls-7" x1="713.67" y1="659.67" x2="677.67" y2="659.67"/><line class="cls-7" x1="659.67" y1="713.67" x2="659.67" y2="677.67"/></g></g></svg>