<svg xmlns="http://www.w3.org/2000/svg" xmlns:xlink="http://www.w3.org/1999/xlink" viewBox="0 0 700.91 715.09"><defs><style>.cls-1,.cls-7{fill:none;}.cls-2{fill:#025098;}.cls-3{clip-path:url(#clip-path);}.cls-4{fill:#001c58;}.cls-5{clip-path:url(#clip-path-2);}.cls-6{font-size:482.51px;fill:#fff;font-family:BritannicBold, Britannic Bold;letter-spacing:-0.12em;}.cls-7{stroke:#000;stroke-width:0.3px;}</style><clipPath id="clip-path"><polygon class="cls-1" points="646.91 661.09 670.25 532.81 715.28 520.81 347.71 225.13 308.94 277.81 236.28 453.81 139.73 529.93 235.28 625.48 646.91 661.09"/></clipPath><clipPath id="clip-path-2"><polygon class="cls-1" points="651.57 635.51 697.81 510.33 692.54 340.81 559.44 207.72 517.45 274.81 435.28 290.81 466.73 529.93 562.28 625.48 651.57 635.51"/></clipPath></defs><title>21</title><g id="图层_2" data-name="图层 2"><g id="图层_1-2" data-name="图层 1"><path class="cls-2" d="M610.51,504.7c0,76.37-40.29,116.67-90,116.67h-332c-49.71,0-90-40.29-90-116.67v-332c0-23,40.29-63.33,90-63.33h332c49.71,0,90,40.29,90,63.33Z"/><g class="cls-3"><path class="cls-4" d="M610.51,504.7c0,76.37-40.29,116.67-90,116.67h-332c-49.71,0-90-40.29-90-116.67v-332c0-23,40.29-63.33,90-63.33h332c49.71,0,90,40.29,90,63.33Z"/></g><g class="cls-5"><path class="cls-4" d="M610.51,504.7c0,76.37-40.29,116.67-90,116.67h-332c-49.71,0-90-40.29-90-116.67v-332c0-23,40.29-63.33,90-63.33h332c49.71,0,90,40.29,90,63.33Z"/></g><text class="cls-6" transform="translate(118.66 529.93)">21</text><line class="cls-7" x1="54" x2="54" y2="36"/><line class="cls-7" y1="54" x2="36" y2="54"/><line class="cls-7" y1="661.09" x2="36" y2="661.09"/><line class="cls-7" x1="54" y1="715.09" x2="54" y2="679.09"/><line class="cls-7" x1="646.91" x2="646.91" y2="36"/><line class="cls-7" x1="700.91" y1="54" x2="664.91" y2="54"/><line class="cls-7" x1="700.91" y1="661.09" x2="664.91" y2="661.09"/><line class="cls-7" x1="646.91" y1="715.09" x2="646.91" y2="679.09"/></g></g></svg>