<svg xmlns="http://www.w3.org/2000/svg" xmlns:xlink="http://www.w3.org/1999/xlink" viewBox="0 0 708.09 714.12"><defs><style>.cls-1,.cls-7{fill:none;}.cls-2{fill:#025098;}.cls-3{clip-path:url(#clip-path);}.cls-4{fill:#001c58;}.cls-5{clip-path:url(#clip-path-2);}.cls-6{font-size:441.1px;fill:#fff;font-family:BritannicBold, Britannic Bold;letter-spacing:-0.08em;}.cls-7{stroke:#000;stroke-width:0.3px;}</style><clipPath id="clip-path"><polygon class="cls-1" points="654.09 660.12 645.96 620.39 682.28 570.82 326.39 225.19 316.12 276.84 216.96 425.96 136.41 503.08 315.96 682.97 654.09 660.12"/></clipPath><clipPath id="clip-path-2"><polygon class="cls-1" points="658.74 634.53 704.98 509.36 700.96 364.39 567.86 231.3 495.96 216.97 400.96 244.3 371.41 503.08 466.96 598.63 658.74 634.53"/></clipPath></defs><title>23</title><g id="图层_2" data-name="图层 2"><g id="图层_1-2" data-name="图层 1"><path class="cls-2" d="M617.69,503.73c0,76.37-40.29,116.67-90,116.67h-332c-49.71,0-90-40.29-90-116.67v-332c0-23,40.29-63.33,90-63.33h332c49.71,0,90,40.29,90,63.33Z"/><g class="cls-3"><path class="cls-4" d="M617.69,503.73c0,76.37-40.29,116.67-90,116.67h-332c-49.71,0-90-40.29-90-116.67v-332c0-23,40.29-63.33,90-63.33h332c49.71,0,90,40.29,90,63.33Z"/></g><g class="cls-5"><path class="cls-4" d="M617.69,503.73c0,76.37-40.29,116.67-90,116.67h-332c-49.71,0-90-40.29-90-116.67v-332c0-23,40.29-63.33,90-63.33h332c49.71,0,90,40.29,90,63.33Z"/></g><text class="cls-6" transform="translate(114.96 503.08)">23</text><line class="cls-7" x1="54" x2="54" y2="36"/><line class="cls-7" y1="54" x2="36" y2="54"/><line class="cls-7" y1="660.12" x2="36" y2="660.12"/><line class="cls-7" x1="54" y1="714.12" x2="54" y2="678.12"/><line class="cls-7" x1="654.09" x2="654.09" y2="36"/><line class="cls-7" x1="708.09" y1="54" x2="672.09" y2="54"/><line class="cls-7" x1="708.09" y1="660.12" x2="672.09" y2="660.12"/><line class="cls-7" x1="654.09" y1="714.12" x2="654.09" y2="678.12"/></g></g></svg>