<svg xmlns="http://www.w3.org/2000/svg" xmlns:xlink="http://www.w3.org/1999/xlink" viewBox="0 0 707.45 717.16"><defs><style>.cls-1,.cls-7{fill:none;}.cls-2{fill:#025098;}.cls-3{clip-path:url(#clip-path);}.cls-4{fill:#001c58;}.cls-5{clip-path:url(#clip-path-2);}.cls-6{font-size:441.1px;fill:#fff;font-family:BritannicBold, Britannic Bold;letter-spacing:-0.08em;}.cls-7{stroke:#000;stroke-width:0.3px;}</style><clipPath id="clip-path"><polygon class="cls-1" points="653.45 663.16 645.32 623.43 681.64 573.86 325.75 228.23 315.48 279.88 216.32 429.01 135.77 506.13 315.32 686.01 653.45 663.16"/></clipPath><clipPath id="clip-path-2"><polygon class="cls-1" points="658.1 637.58 704.35 512.4 709.32 346.01 576.22 212.91 523.99 276.88 425.32 245.01 370.77 506.13 466.32 601.68 658.1 637.58"/></clipPath></defs><title>25</title><g id="图层_2" data-name="图层 2"><g id="图层_1-2" data-name="图层 1"><path class="cls-2" d="M617.05,506.77c0,76.37-40.29,116.67-90,116.67h-332c-49.71,0-90-40.29-90-116.67v-332c0-23,40.29-63.33,90-63.33h332c49.71,0,90,40.29,90,63.33Z"/><g class="cls-3"><path class="cls-4" d="M617.05,506.77c0,76.37-40.29,116.67-90,116.67h-332c-49.71,0-90-40.29-90-116.67v-332c0-23,40.29-63.33,90-63.33h332c49.71,0,90,40.29,90,63.33Z"/></g><g class="cls-5"><path class="cls-4" d="M617.05,506.77c0,76.37-40.29,116.67-90,116.67h-332c-49.71,0-90-40.29-90-116.67v-332c0-23,40.29-63.33,90-63.33h332c49.71,0,90,40.29,90,63.33Z"/></g><text class="cls-6" transform="translate(114.32 506.13)">25</text><line class="cls-7" x1="54" x2="54" y2="36"/><line class="cls-7" y1="54" x2="36" y2="54"/><line class="cls-7" y1="663.16" x2="36" y2="663.16"/><line class="cls-7" x1="54" y1="717.16" x2="54" y2="681.16"/><line class="cls-7" x1="653.45" x2="653.45" y2="36"/><line class="cls-7" x1="707.45" y1="54" x2="671.45" y2="54"/><line class="cls-7" x1="707.45" y1="663.16" x2="671.45" y2="663.16"/><line class="cls-7" x1="653.45" y1="717.16" x2="653.45" y2="681.16"/></g></g></svg>