<svg xmlns="http://www.w3.org/2000/svg" xmlns:xlink="http://www.w3.org/1999/xlink" viewBox="0 0 706.67 706.67"><defs><style>.cls-1,.cls-8{fill:none;}.cls-2{fill:#025098;}.cls-3{clip-path:url(#clip-path);}.cls-4{fill:#001c58;}.cls-5{clip-path:url(#clip-path-2);}.cls-6{font-size:441.1px;fill:#fff;font-family:BritannicBold, Britannic Bold;letter-spacing:-0.1em;}.cls-7{letter-spacing:-0.08em;}.cls-8{stroke:#000;stroke-width:0.3px;}</style><clipPath id="clip-path"><polygon class="cls-1" points="648.01 651.82 639.88 612.1 676.2 562.52 320.32 216.89 310.05 268.54 210.88 417.67 130.33 494.79 309.88 674.67 648.01 651.82"/></clipPath><clipPath id="clip-path-2"><polygon class="cls-1" points="652.67 626.24 698.91 501.06 685.88 345.67 552.78 212.58 477.88 216.89 419.88 233.67 365.33 494.79 460.88 590.34 652.67 626.24"/></clipPath></defs><title>26</title><g id="图层_2" data-name="图层 2"><g id="图层_1-2" data-name="图层 1"><path class="cls-2" d="M611.61,495.43c0,76.37-40.29,116.67-90,116.67h-332c-49.71,0-90-40.29-90-116.67v-332c0-23,40.29-63.33,90-63.33h332c49.71,0,90,40.29,90,63.33Z"/><g class="cls-3"><path class="cls-4" d="M611.61,495.43c0,76.37-40.29,116.67-90,116.67h-332c-49.71,0-90-40.29-90-116.67v-332c0-23,40.29-63.33,90-63.33h332c49.71,0,90,40.29,90,63.33Z"/></g><g class="cls-5"><path class="cls-4" d="M611.61,495.43c0,76.37-40.29,116.67-90,116.67h-332c-49.71,0-90-40.29-90-116.67v-332c0-23,40.29-63.33,90-63.33h332c49.71,0,90,40.29,90,63.33Z"/></g><text class="cls-6" transform="translate(108.88 494.79)">2<tspan class="cls-7" x="225.11" y="0">6</tspan></text><line class="cls-8" x1="54" x2="54" y2="36"/><line class="cls-8" y1="54" x2="36" y2="54"/><line class="cls-8" y1="652.67" x2="36" y2="652.67"/><line class="cls-8" x1="54" y1="706.67" x2="54" y2="670.67"/><line class="cls-8" x1="652.67" x2="652.67" y2="36"/><line class="cls-8" x1="706.67" y1="54" x2="670.67" y2="54"/><line class="cls-8" x1="706.67" y1="652.67" x2="670.67" y2="652.67"/><line class="cls-8" x1="652.67" y1="706.67" x2="652.67" y2="670.67"/></g></g></svg>