<svg xmlns="http://www.w3.org/2000/svg" xmlns:xlink="http://www.w3.org/1999/xlink" viewBox="0 0 715.66 715.66"><defs><style>.cls-1,.cls-8{fill:none;}.cls-2{fill:#025098;}.cls-3{clip-path:url(#clip-path);}.cls-4{fill:#001c58;}.cls-5{clip-path:url(#clip-path-2);}.cls-6{font-size:441.1px;fill:#fff;font-family:BritannicBold, Britannic Bold;letter-spacing:-0.08em;}.cls-7{letter-spacing:0.08em;}.cls-8{stroke:#000;stroke-width:0.3px;}</style><clipPath id="clip-path"><polygon class="cls-1" points="653.01 663.16 644.88 623.43 681.2 573.86 325.31 228.23 315.04 279.88 215.88 429.01 135.32 506.13 314.88 686.01 653.01 663.16"/></clipPath><clipPath id="clip-path-2"><polygon class="cls-1" points="661.66 637.58 707.9 512.4 721.32 345.18 588.22 212.09 486.88 228.23 374.32 259.18 374.32 506.13 469.88 601.68 661.66 637.58"/></clipPath></defs><title>27</title><g id="图层_2" data-name="图层 2"><g id="图层_1-2" data-name="图层 1"><path class="cls-2" d="M620.61,506.77c0,76.37-40.29,116.67-90,116.67h-332c-49.71,0-90-40.29-90-116.67v-332c0-23,40.29-63.33,90-63.33h332c49.71,0,90,40.29,90,63.33Z"/><g class="cls-3"><path class="cls-4" d="M616.61,506.77c0,76.37-40.29,116.67-90,116.67h-332c-49.71,0-90-40.29-90-116.67v-332c0-23,40.29-63.33,90-63.33h332c49.71,0,90,40.29,90,63.33Z"/></g><g class="cls-5"><path class="cls-4" d="M620.61,506.77c0,76.37-40.29,116.67-90,116.67h-332c-49.71,0-90-40.29-90-116.67v-332c0-23,40.29-63.33,90-63.33h332c49.71,0,90,40.29,90,63.33Z"/></g><text class="cls-6" transform="translate(113.88 506.13)">2<tspan class="cls-7" x="233.94" y="0">7</tspan></text><line class="cls-8" x1="54" x2="54" y2="36"/><line class="cls-8" y1="54" x2="36" y2="54"/><line class="cls-8" y1="661.66" x2="36" y2="661.66"/><line class="cls-8" x1="54" y1="715.66" x2="54" y2="679.66"/><line class="cls-8" x1="661.66" x2="661.66" y2="36"/><line class="cls-8" x1="715.66" y1="54" x2="679.66" y2="54"/><line class="cls-8" x1="715.66" y1="661.66" x2="679.66" y2="661.66"/><line class="cls-8" x1="661.66" y1="715.66" x2="661.66" y2="679.66"/></g></g></svg>