<svg xmlns="http://www.w3.org/2000/svg" xmlns:xlink="http://www.w3.org/1999/xlink" viewBox="0 0 705.82 705.82"><defs><style>.cls-1,.cls-8{fill:none;}.cls-2{fill:#025098;}.cls-3{clip-path:url(#clip-path);}.cls-4{fill:#001c58;}.cls-5{clip-path:url(#clip-path-2);}.cls-6{font-size:441.1px;fill:#fff;font-family:BritannicBold, Britannic Bold;letter-spacing:-0.08em;}.cls-7{letter-spacing:-0.06em;}.cls-8{stroke:#000;stroke-width:0.3px;}</style><clipPath id="clip-path"><polygon class="cls-1" points="649.51 651.82 641.39 612.1 677.7 562.52 321.82 216.89 311.55 268.54 212.39 417.67 131.83 494.79 311.39 674.67 649.51 651.82"/></clipPath><clipPath id="clip-path-2"><polygon class="cls-1" points="658.17 626.24 704.41 501.06 694.83 360.1 561.73 227 458.83 212.84 388.83 253.84 370.83 494.79 466.39 590.34 658.17 626.24"/></clipPath></defs><title>28</title><g id="图层_2" data-name="图层 2"><g id="图层_1-2" data-name="图层 1"><path class="cls-2" d="M617.12,495.43c0,76.37-40.29,116.67-90,116.67h-332c-49.71,0-90-40.29-90-116.67v-332c0-23,40.29-63.33,90-63.33h332c49.71,0,90,40.29,90,63.33Z"/><g class="cls-3"><path class="cls-4" d="M613.12,495.43c0,76.37-40.29,116.67-90,116.67h-332c-49.71,0-90-40.29-90-116.67v-332c0-23,40.29-63.33,90-63.33h332c49.71,0,90,40.29,90,63.33Z"/></g><g class="cls-5"><path class="cls-4" d="M617.12,495.43c0,76.37-40.29,116.67-90,116.67h-332c-49.71,0-90-40.29-90-116.67v-332c0-23,40.29-63.33,90-63.33h332c49.71,0,90,40.29,90,63.33Z"/></g><text class="cls-6" transform="translate(110.39 494.79)">2<tspan class="cls-7" x="233.94" y="0">8</tspan></text><line class="cls-8" x1="54" x2="54" y2="36"/><line class="cls-8" y1="54" x2="36" y2="54"/><line class="cls-8" y1="651.82" x2="36" y2="651.82"/><line class="cls-8" x1="54" y1="705.82" x2="54" y2="669.82"/><line class="cls-8" x1="651.82" x2="651.82" y2="36"/><line class="cls-8" x1="705.82" y1="54" x2="669.82" y2="54"/><line class="cls-8" x1="705.82" y1="651.82" x2="669.82" y2="651.82"/><line class="cls-8" x1="651.82" y1="705.82" x2="651.82" y2="669.82"/></g></g></svg>