<svg xmlns="http://www.w3.org/2000/svg" xmlns:xlink="http://www.w3.org/1999/xlink" viewBox="0 0 713.67 713.67"><defs><style>.cls-1,.cls-8{fill:none;}.cls-2{fill:#025098;}.cls-3{clip-path:url(#clip-path);}.cls-4{fill:#001c58;}.cls-5{clip-path:url(#clip-path-2);}.cls-6{font-size:441.1px;fill:#fff;font-family:BritannicBold, Britannic Bold;letter-spacing:-0.08em;}.cls-7{letter-spacing:-0.06em;}.cls-8{stroke:#000;stroke-width:0.3px;}</style><clipPath id="clip-path"><polygon class="cls-1" points="667.65 663.16 659.52 623.43 695.84 573.86 339.95 228.23 329.68 279.88 230.52 429.01 149.97 506.13 329.52 686.01 667.65 663.16"/></clipPath><clipPath id="clip-path-2"><polygon class="cls-1" points="676.3 637.58 722.54 512.4 709.96 371.44 576.86 238.34 476.96 224.18 406.96 265.18 388.97 506.13 484.52 601.68 676.3 637.58"/></clipPath></defs><title>29</title><g id="图层_2" data-name="图层 2"><g id="图层_1-2" data-name="图层 1"><path class="cls-2" d="M635.25,506.77c0,76.37-40.29,116.67-90,116.67h-332c-49.71,0-90-40.29-90-116.67v-332c0-23,40.29-63.33,90-63.33h332c49.71,0,90,40.29,90,63.33Z"/><g class="cls-3"><path class="cls-4" d="M631.25,506.77c0,76.37-40.29,116.67-90,116.67h-332c-49.71,0-90-40.29-90-116.67v-332c0-23,40.29-63.33,90-63.33h332c49.71,0,90,40.29,90,63.33Z"/></g><g class="cls-5"><path class="cls-4" d="M635.25,506.77c0,76.37-40.29,116.67-90,116.67h-332c-49.71,0-90-40.29-90-116.67v-332c0-23,40.29-63.33,90-63.33h332c49.71,0,90,40.29,90,63.33Z"/></g><text class="cls-6" transform="translate(128.52 506.12)">2<tspan class="cls-7" x="233.94" y="0">9</tspan></text><line class="cls-8" x1="54" x2="54" y2="36"/><line class="cls-8" y1="54" x2="36" y2="54"/><line class="cls-8" y1="659.67" x2="36" y2="659.67"/><line class="cls-8" x1="54" y1="713.67" x2="54" y2="677.67"/><line class="cls-8" x1="659.67" x2="659.67" y2="36"/><line class="cls-8" x1="713.67" y1="54" x2="677.67" y2="54"/><line class="cls-8" x1="713.67" y1="659.67" x2="677.67" y2="659.67"/><line class="cls-8" x1="659.67" y1="713.67" x2="659.67" y2="677.67"/></g></g></svg>