<svg xmlns="http://www.w3.org/2000/svg" viewBox="0 0 708 708"><defs><style>.cls-1{fill:#025098;}.cls-2{fill:#021e56;}.cls-3{font-size:532.63px;fill:#fff;font-family:BritannicBold, Britannic Bold;}.cls-4{fill:none;stroke:#000;stroke-width:0.3px;}</style></defs><title>3</title><g id="图层_2" data-name="图层 2"><g id="图层_1-2" data-name="图层 1"><g id="_编组_" data-name="&lt;编组&gt;"><path id="_路径_" data-name="&lt;路径&gt;" class="cls-1" d="M333.05,520.47l91.78-16.54,11.42-64.42L382.18,322l90.53-115.77L612,334.08V164.84c0-23-40.29-63.33-90-63.33H190c-49.71,0-90,40.29-90,63.33v332c0,76.37,40.29,116.67,90,116.67H354.3L238.55,492.62Z"/><path id="_路径_2" data-name="&lt;路径&gt;" class="cls-2" d="M612,496.84V334.08L472.71,206.23,382.18,322l54.07,117.51-11.42,64.42-91.78,16.54-94.5-27.86L354.3,613.5H522C571.71,613.5,612,573.21,612,496.84Z"/></g><text class="cls-3" transform="translate(201.02 524.5)">3</text><line class="cls-4" x1="54" x2="54" y2="36"/><line class="cls-4" y1="54" x2="36" y2="54"/><line class="cls-4" y1="654" x2="36" y2="654"/><line class="cls-4" x1="54" y1="708" x2="54" y2="672"/><line class="cls-4" x1="654" x2="654" y2="36"/><line class="cls-4" x1="708" y1="54" x2="672" y2="54"/><line class="cls-4" x1="708" y1="654" x2="672" y2="654"/><line class="cls-4" x1="654" y1="708" x2="654" y2="672"/></g></g></svg>