<svg xmlns="http://www.w3.org/2000/svg" xmlns:xlink="http://www.w3.org/1999/xlink" viewBox="0 0 719.34 719.34"><defs><style>.cls-1,.cls-7{fill:none;}.cls-2{fill:#025098;}.cls-3{clip-path:url(#clip-path);}.cls-4{fill:#001c58;}.cls-5{clip-path:url(#clip-path-2);}.cls-6{font-size:441.1px;fill:#fff;font-family:BritannicBold, Britannic Bold;letter-spacing:-0.08em;}.cls-7{stroke:#000;stroke-width:0.3px;}</style><clipPath id="clip-path"><polygon class="cls-1" points="657.24 663.16 649.11 623.43 685.43 573.86 329.54 233.23 280.13 355.18 276.13 495.18 148.58 485.29 328.13 671.18 657.24 663.16"/></clipPath><clipPath id="clip-path-2"><polygon class="cls-1" points="665.89 637.58 712.13 512.4 692.13 361.32 559.03 228.23 466.55 224.18 396.55 265.18 378.56 506.13 474.11 601.68 665.89 637.58"/></clipPath></defs><title>30</title><g id="图层_2" data-name="图层 2"><g id="图层_1-2" data-name="图层 1"><path class="cls-2" d="M624.84,506.77c0,76.37-40.29,116.67-90,116.67h-332c-49.71,0-90-40.29-90-116.67v-332c0-23,40.29-63.33,90-63.33h332c49.71,0,90,40.29,90,63.33Z"/><g class="cls-3"><path class="cls-4" d="M620.84,506.77c0,76.37-40.29,116.67-90,116.67h-332c-49.71,0-90-40.29-90-116.67v-332c0-23,40.29-63.33,90-63.33h332c49.71,0,90,40.29,90,63.33Z"/></g><g class="cls-5"><path class="cls-4" d="M624.84,506.77c0,76.37-40.29,116.67-90,116.67h-332c-49.71,0-90-40.29-90-116.67v-332c0-23,40.29-63.33,90-63.33h332c49.71,0,90,40.29,90,63.33Z"/></g><text class="cls-6" transform="translate(113.11 506.12)">30</text><line class="cls-7" x1="54" x2="54" y2="36"/><line class="cls-7" y1="54" x2="36" y2="54"/><line class="cls-7" y1="665.34" x2="36" y2="665.34"/><line class="cls-7" x1="54" y1="719.34" x2="54" y2="683.34"/><line class="cls-7" x1="665.34" x2="665.34" y2="36"/><line class="cls-7" x1="719.34" y1="54" x2="683.34" y2="54"/><line class="cls-7" x1="719.34" y1="665.34" x2="683.34" y2="665.34"/><line class="cls-7" x1="665.34" y1="719.34" x2="665.34" y2="683.34"/></g></g></svg>