<svg xmlns="http://www.w3.org/2000/svg" viewBox="0 0 713.67 713.67"><defs><style>.cls-1,.cls-5{fill:none;}.cls-2{fill:#025098;}.cls-3{fill:#021e56;}.cls-4{fill:#fdfeff;}.cls-5{stroke:#000;stroke-width:0.3px;}</style></defs><title>4</title><g id="图层_2" data-name="图层 2"><g id="图层_1-2" data-name="图层 1"><g id="_编组_" data-name="&lt;编组&gt;"><g id="_编组_2" data-name="&lt;编组&gt;"><path id="_路径_" data-name="&lt;路径&gt;" class="cls-1" d="M620.11,494V347.25l-175-172.94-107.37,95.6L217.51,448.32,372.28,610.67H530.11C579.81,610.67,620.11,570.37,620.11,494Z"/><path id="_路径_2" data-name="&lt;路径&gt;" class="cls-2" d="M337.73,269.91l107.37-95.6,175,172.94V162c0-23-40.29-63.33-90-63.33h-332c-49.71,0-90,40.29-90,63.33V494c0,76.37,40.29,116.67,90,116.67H372.28L217.51,448.32Z"/></g><path id="_路径_3" data-name="&lt;路径&gt;" class="cls-3" d="M620.11,494V347.25l-175-172.94-107.37,95.6L217.51,448.32,372.28,610.67H530.11C579.81,610.67,620.11,570.37,620.11,494Z"/></g><g id="_编组_3" data-name="&lt;编组&gt;"><path id="_复合路径_" data-name="&lt;复合路径&gt;" class="cls-4" d="M484.4,449.45H445.93v72.63H347.05V449.45H217.6V406.39L379.67,174.24h66.26v236H484.4ZM262.7,410.21h85.88v-133Z"/></g><line class="cls-5" x1="54" x2="54" y2="36"/><line class="cls-5" y1="54" x2="36" y2="54"/><line class="cls-5" y1="659.67" x2="36" y2="659.67"/><line class="cls-5" x1="54" y1="713.67" x2="54" y2="677.67"/><line class="cls-5" x1="659.67" x2="659.67" y2="36"/><line class="cls-5" x1="713.67" y1="54" x2="677.67" y2="54"/><line class="cls-5" x1="713.67" y1="659.67" x2="677.67" y2="659.67"/><line class="cls-5" x1="659.67" y1="713.67" x2="659.67" y2="677.67"/></g></g></svg>