<svg xmlns="http://www.w3.org/2000/svg" viewBox="0 0 709.84 709.84"><defs><style>.cls-1{fill:#025098;}.cls-2{fill:#021e56;}.cls-3{font-size:537.28px;fill:#fdfeff;font-family:BritannicBold, Britannic Bold;}.cls-4{fill:none;stroke:#000;stroke-width:0.3px;}</style></defs><title>5</title><g id="图层_2" data-name="图层 2"><g id="图层_1-2" data-name="图层 1"><g id="_编组_" data-name="&lt;编组&gt;"><path id="_路径_" data-name="&lt;路径&gt;" class="cls-1" d="M324.55,538.74l87.78-8.53L431.84,462l8.53-79.35-40.23-48.77L338,330.25,264.8,366l14.63-80.86L302.6,225.4l178-37.8L617.22,321.32v-148c0-23-40.29-63.33-90-63.33h-332c-49.71,0-90,40.29-90,63.33v332c0,76.37,40.29,116.67,90,116.67H344.34l-99-104Z"/><path id="_路径_2" data-name="&lt;路径&gt;" class="cls-2" d="M617.22,505.33v-184L480.6,187.6l-178,37.8-23.17,59.74L264.8,366,338,330.25l62.18,3.66,40.23,48.77L431.84,462,412.33,530.2l-87.78,8.53L245.3,518l99,104H527.22C576.92,622,617.22,581.71,617.22,505.33Z"/></g><text class="cls-3" transform="translate(203.54 545.28)">5</text><line class="cls-4" x1="54" x2="54" y2="36"/><line class="cls-4" y1="54" x2="36" y2="54"/><line class="cls-4" y1="655.84" x2="36" y2="655.84"/><line class="cls-4" x1="54" y1="709.84" x2="54" y2="673.84"/><line class="cls-4" x1="655.84" x2="655.84" y2="36"/><line class="cls-4" x1="709.84" y1="54" x2="673.84" y2="54"/><line class="cls-4" x1="709.84" y1="655.84" x2="673.84" y2="655.84"/><line class="cls-4" x1="655.84" y1="709.84" x2="655.84" y2="673.84"/></g></g></svg>