<svg xmlns="http://www.w3.org/2000/svg" xmlns:xlink="http://www.w3.org/1999/xlink" viewBox="0 0 712.46 712.46"><defs><style>.cls-1,.cls-6{fill:none;}.cls-2{fill:#025098;}.cls-3{clip-path:url(#clip-path);}.cls-4{fill:#001c58;}.cls-5{font-size:308.56px;fill:#fff;font-family:STLiti, STLiti;letter-spacing:-0.34em;}.cls-6{stroke:#000;stroke-width:0.3px;}</style><clipPath id="clip-path"><polygon class="cls-1" points="763.12 669.55 754.99 629.83 684.39 382.97 470.82 175.55 378.39 190.97 342.73 205.47 320.39 212.97 246.39 223.63 287.73 264.97 258.39 290.97 237.85 320.63 301.06 376.97 289.06 439.67 247.72 471.63 297.06 520.97 252.17 551.08 431.73 730.97 763.12 669.55"/></clipPath></defs><title>72</title><g id="图层_2" data-name="图层 2"><g id="图层_1-2" data-name="图层 1"><path class="cls-2" d="M621.72,504.16c0,76.37-40.29,116.67-90,116.67h-332c-49.71,0-90-40.29-90-116.67v-332c0-23,40.29-63.33,90-63.33h332c49.71,0,90,40.29,90,63.33Z"/><g class="cls-3"><path class="cls-4" d="M621.72,504.16c0,76.37-40.29,116.67-90,116.67h-332c-49.71,0-90-40.29-90-116.67v-332c0-23,40.29-63.33,90-63.33h332c49.71,0,90,40.29,90,63.33Z"/></g><text class="cls-5" transform="translate(211.47 362.83)">冯<tspan x="0" y="192.2">如</tspan></text><line class="cls-6" x1="54" x2="54" y2="36"/><line class="cls-6" y1="54" x2="36" y2="54"/><line class="cls-6" y1="658.46" x2="36" y2="658.46"/><line class="cls-6" x1="54" y1="712.46" x2="54" y2="676.46"/><line class="cls-6" x1="658.46" x2="658.46" y2="36"/><line class="cls-6" x1="712.46" y1="54" x2="676.46" y2="54"/><line class="cls-6" x1="712.46" y1="658.46" x2="676.46" y2="658.46"/><line class="cls-6" x1="658.46" y1="712.46" x2="658.46" y2="676.46"/></g></g></svg>