<svg xmlns="http://www.w3.org/2000/svg" xmlns:xlink="http://www.w3.org/1999/xlink" viewBox="0 0 710.87 710.87"><defs><style>.cls-1,.cls-6{fill:none;}.cls-2{fill:#025098;}.cls-3{clip-path:url(#clip-path);}.cls-4{fill:#001c58;}.cls-5{font-size:308.56px;fill:#fff;font-family:STLiti, STLiti;letter-spacing:-0.34em;}.cls-6{stroke:#000;stroke-width:0.3px;}</style><clipPath id="clip-path"><polygon class="cls-1" points="767.22 673.22 759.09 633.5 713.16 441.5 499.59 234.09 429.46 246.17 375.46 201.5 343.46 212.84 295.46 171.5 238.79 233.5 271.9 278 239.46 290.17 275.46 342.17 242.79 374.17 268.13 407.17 247.46 414.83 284.13 457.5 230.79 485.5 288.13 544.17 259.91 555.62 439.46 735.5 767.22 673.22"/></clipPath></defs><title>79</title><g id="图层_2" data-name="图层 2"><g id="图层_1-2" data-name="图层 1"><path class="cls-2" d="M625.82,507.83c0,76.37-40.29,116.67-90,116.67h-332c-49.71,0-90-40.29-90-116.67v-332c0-23,40.29-63.33,90-63.33h332c49.71,0,90,40.29,90,63.33Z"/><g class="cls-3"><path class="cls-4" d="M625.82,507.83c0,76.37-40.29,116.67-90,116.67h-332c-49.71,0-90-40.29-90-116.67v-332c0-23,40.29-63.33,90-63.33h332c49.71,0,90,40.29,90,63.33Z"/></g><text class="cls-5" transform="translate(212.57 367.99)">知<tspan x="0" y="182.2">行</tspan></text><line class="cls-6" x1="54" x2="54" y2="36"/><line class="cls-6" y1="54" x2="36" y2="54"/><line class="cls-6" y1="656.87" x2="36" y2="656.87"/><line class="cls-6" x1="54" y1="710.87" x2="54" y2="674.87"/><line class="cls-6" x1="656.87" x2="656.87" y2="36"/><line class="cls-6" x1="710.87" y1="54" x2="674.87" y2="54"/><line class="cls-6" x1="710.87" y1="656.87" x2="674.87" y2="656.87"/><line class="cls-6" x1="656.87" y1="710.87" x2="656.87" y2="674.87"/></g></g></svg>