<svg xmlns="http://www.w3.org/2000/svg" viewBox="0 0 40 40"><defs><style>.cls-1{fill:none;}.cls-2{fill:#00b0ed;opacity:0.5;}</style></defs><title>icon_search_blue</title><g id="图层_2" data-name="图层 2"><g id="Layouts"><path class="cls-1" d="M0,0V40H40V0ZM31.67,34.15l-8.33-8.32V24.52l-.46-.46A11,11,0,1,1,24,22.88l.46.46h1.33l8.32,8.33Z"/><circle class="cls-1" cx="15.83" cy="15.83" r="7.5"/><path class="cls-2" d="M24.51,23.33,24,22.88a10.76,10.76,0,1,0-1.17,1.18l.46.46v1.32l8.33,8.32,2.48-2.48-8.32-8.33Zm-8.67,0a7.5,7.5,0,1,1,7.5-7.5A7.5,7.5,0,0,1,15.83,23.33Z"/></g></g></svg>