<svg xmlns="http://www.w3.org/2000/svg" viewBox="0 0 25.5 25.5"><defs><style>.cls-1{fill:none;}.cls-2{fill:#fff;opacity:0.5;}</style></defs><title>icon_search_white</title><g id="图层_2" data-name="图层 2"><g id="Layouts"><path class="cls-1" d="M0,0V25.5H25.5V0ZM20.19,21.77l-5.31-5.3v-.84l-.29-.29a7,7,0,1,1,.75-.75l.29.29h.84l5.3,5.31Z"/><circle class="cls-1" cx="10.09" cy="10.09" r="4.78"/><path class="cls-2" d="M15,14.77l-.28-.28a6.56,6.56,0,1,0-.72.72l.28.28v.8l5.09,5.08,1.52-1.52-5.08-5.09Zm-5.29,0a4.58,4.58,0,1,1,4.58-4.58A4.58,4.58,0,0,1,9.71,14.77Z"/></g></g></svg>