<svg xmlns="http://www.w3.org/2000/svg" viewBox="0 0 40 40"><defs><style>.cls-1{fill:none;}.cls-2{fill:#757575;}</style></defs><title>icon_service_blue</title><g id="图层_2" data-name="图层 2"><g id="Layouts"><path class="cls-1" d="M0,0V40H40V0ZM13.33,33.33H6.67V26.67h6.67Zm0-10H6.67V16.67h6.67Zm0-10H6.67V6.67h6.67Zm10,20H16.67V26.67h6.67Zm0-10H16.67V16.67h6.67Zm0-10H16.67V6.67h6.67Zm10,20H26.67V26.67h6.67Zm0-10H26.67V16.67h6.67Zm0-10H26.67V6.67h6.67Z"/><rect class="cls-2" x="6.67" y="16.67" width="6.67" height="6.67"/><rect class="cls-2" x="6.67" y="6.67" width="6.67" height="6.67"/><rect class="cls-2" x="6.67" y="26.67" width="6.67" height="6.67"/><rect class="cls-2" x="16.67" y="26.67" width="6.67" height="6.67"/><rect class="cls-2" x="26.67" y="16.67" width="6.67" height="6.67"/><rect class="cls-2" x="26.67" y="6.67" width="6.67" height="6.67"/><rect class="cls-2" x="26.67" y="26.67" width="6.67" height="6.67"/><rect class="cls-2" x="16.67" y="16.67" width="6.67" height="6.67"/><rect class="cls-2" x="16.67" y="6.67" width="6.67" height="6.67"/></g></g></svg>