<svg xmlns="http://www.w3.org/2000/svg" viewBox="0 0 24 24"><defs><style>.cls-1{fill:none;}.cls-2{fill:#fff;}</style></defs><title>icon_question_answer_white</title><g id="图层_2" data-name="图层 2"><g id="Vert_Keylines" data-name="Vert Keylines"><path class="cls-1" d="M0,0V24H24V0ZM2,3A1,1,0,0,1,3,2H16a1,1,0,0,1,1,1v9a1,1,0,0,1-1,1H6L2,17ZM22,22l-4-4H7a1,1,0,0,1-1-1V15H19V6h2a1,1,0,0,1,1,1Z"/><path class="cls-2" d="M21,6H19v9H6v2a1,1,0,0,0,1,1H18l4,4V7A1,1,0,0,0,21,6Z"/><path class="cls-2" d="M16,13a1,1,0,0,0,1-1V3a1,1,0,0,0-1-1H3A1,1,0,0,0,2,3V17l4-4Z"/></g></g></svg>