<svg xmlns="http://www.w3.org/2000/svg" viewBox="0 0 24 24"><defs><style>.cls-1{fill:none;}.cls-2{fill:#fff;}</style></defs><title>icon_setting_white</title><g id="图层_2" data-name="图层 2"><g id="Layouts"><circle class="cls-1" cx="12" cy="12" r="3.5"/><path class="cls-1" d="M0,0V24H24V0ZM19.5,12a7.85,7.85,0,0,1-.07,1l2.11,1.65a.5.5,0,0,1,.12.64l-2,3.46A.5.5,0,0,1,19,19l-2.49-1a7.4,7.4,0,0,1-1.69,1l-.37,2.65A.5.5,0,0,1,14,22H10a.5.5,0,0,1-.49-.42l-.37-2.65a7.59,7.59,0,0,1-1.69-1L5,19a.49.49,0,0,1-.61-.22l-2-3.46a.5.5,0,0,1,.12-.64L4.57,13a7.85,7.85,0,0,1-.07-1,7.85,7.85,0,0,1,.07-1L2.46,9.37a.5.5,0,0,1-.12-.64l2-3.46A.5.5,0,0,1,5,5l2.49,1a7.4,7.4,0,0,1,1.69-1l.38-2.65A.5.5,0,0,1,10,2h4a.51.51,0,0,1,.5.42l.38,2.65a7.59,7.59,0,0,1,1.69,1l2.49-1a.49.49,0,0,1,.61.21l2,3.47a.5.5,0,0,1-.12.64L19.43,11A7.85,7.85,0,0,1,19.5,12Z"/><path class="cls-2" d="M21.67,8.73l-2-3.47A.49.49,0,0,0,19.05,5l-2.49,1a7.59,7.59,0,0,0-1.69-1L14.5,2.42A.51.51,0,0,0,14,2H10a.5.5,0,0,0-.49.42L9.13,5.07a7.4,7.4,0,0,0-1.69,1L5,5a.5.5,0,0,0-.61.22l-2,3.46a.5.5,0,0,0,.12.64L4.57,11a7.85,7.85,0,0,0-.07,1,7.85,7.85,0,0,0,.07,1L2.46,14.63a.5.5,0,0,0-.12.64l2,3.46A.49.49,0,0,0,5,19l2.49-1a7.59,7.59,0,0,0,1.69,1l.38,2.65A.5.5,0,0,0,10,22h4a.5.5,0,0,0,.49-.42l.38-2.65a7.4,7.4,0,0,0,1.69-1L19,19a.5.5,0,0,0,.61-.22l2-3.46a.5.5,0,0,0-.12-.64L19.43,13a7.85,7.85,0,0,0,.07-1,7.85,7.85,0,0,0-.07-1l2.12-1.65A.5.5,0,0,0,21.67,8.73ZM12,15.5A3.5,3.5,0,1,1,15.5,12,3.5,3.5,0,0,1,12,15.5Z"/></g></g></svg>