<svg xmlns="http://www.w3.org/2000/svg" viewBox="0 0 40 40"><defs><style>.cls-1{fill:none;}.cls-2{fill:#00b0ed;opacity:0.5;}</style></defs><title>icon_notice_blue</title><g id="图层_2" data-name="图层 2"><g id="Layouts"><rect class="cls-1" x="10" y="20" width="20" height="3.33"/><rect class="cls-1" x="10" y="15" width="20" height="3.33"/><path class="cls-1" d="M0,0V40H40V0ZM36.67,26.67A3.33,3.33,0,0,1,33.33,30H10L3.33,36.67l0-30A3.32,3.32,0,0,1,6.67,3.33H33.33a3.33,3.33,0,0,1,3.33,3.33Z"/><rect class="cls-1" x="10" y="10" width="20" height="3.33"/><path class="cls-2" d="M33.33,3.33H6.67A3.32,3.32,0,0,0,3.35,6.67l0,30L10,30H33.33a3.33,3.33,0,0,0,3.33-3.33v-20A3.33,3.33,0,0,0,33.33,3.33ZM30,23.33H10V20H30Zm0-5H10V15H30Zm0-5H10V10H30Z"/></g></g></svg>