<svg xmlns="http://www.w3.org/2000/svg" viewBox="0 0 713.67 713.67"><defs><style>.cls-1{fill:#025098;}.cls-2{fill:#001c58;}.cls-3{font-size:531.84px;fill:#fff;font-family:BritannicBold, Britannic Bold;letter-spacing:-0.2em;}.cls-4{fill:none;stroke:#000;stroke-width:0.3px;}</style></defs><title>10</title><g id="图层_2" data-name="图层 2"><g id="图层_1-2" data-name="图层 1"><path class="cls-1" d="M201.24,546.07l47.05-74.38,22-191L299.35,192l90.73,80,73.71-80,63.34,149.4,6-66.65,11-64.69,82,82V172.67c0-23-40.29-63.33-90-63.33h-332c-49.71,0-90,40.29-90,63.33v332c0,76.37,40.29,116.67,90,116.67h72.27Z"/><polygon class="cls-2" points="514.67 478.78 527.13 341.43 463.79 192.03 390.08 272 299.35 192.03 270.29 280.69 248.29 471.69 201.24 546.07 276.51 621.34 523.58 621.34 454.12 551.88 514.67 478.78"/><path class="cls-2" d="M533.17,274.78l-6,66.65L514.67,478.78l-60.55,73.1,69.46,69.46h12.66c49.71,0,90-40.29,90-116.67V292.14l-82-82Z"/><text class="cls-3" transform="translate(75.24 546.07)">10</text><line class="cls-4" x1="54" x2="54" y2="36"/><line class="cls-4" y1="54" x2="36" y2="54"/><line class="cls-4" y1="659.67" x2="36" y2="659.67"/><line class="cls-4" x1="54" y1="713.67" x2="54" y2="677.67"/><line class="cls-4" x1="659.67" x2="659.67" y2="36"/><line class="cls-4" x1="713.67" y1="54" x2="677.67" y2="54"/><line class="cls-4" x1="713.67" y1="659.67" x2="677.67" y2="659.67"/><line class="cls-4" x1="659.67" y1="713.67" x2="659.67" y2="677.67"/></g></g></svg>