<svg xmlns="http://www.w3.org/2000/svg" viewBox="0 0 708 708"><defs><style>.cls-1{fill:#f74f34;}.cls-2{fill:#c30;}.cls-3,.cls-4{fill:#fffdfd;}.cls-4{opacity:0.53;}.cls-5{fill:none;stroke:#000;stroke-width:0.3px;}</style></defs><title>101</title><g id="图层_2" data-name="图层 2"><g id="图层_1-2" data-name="图层 1"><path class="cls-1" d="M325.11,584.26,219.33,491.08,380.17,184.42l5.15-9.82L610,394.09V197.9a90,90,0,0,0-90-90H188a90,90,0,0,0-90,90v332a90,90,0,0,0,90,90H366.88L326.42,585Z"/><path class="cls-2" d="M380.17,184.42,219.33,491.08l105.78,93.17,1.31.74-22.53-19.43,88.24,54.33H520a90,90,0,0,0,90-90V394.09L385.32,174.6Z"/><polygon class="cls-2" points="326.67 585 366.75 619.9 387.66 619.9 326.67 585"/><polygon class="cls-2" points="326.67 585 387.66 619.9 391.78 619.9 304.36 565.57 326.67 585"/><path class="cls-3" d="M394.29,465.64c-7.05,0-8.77-33.81,1-66.54-.7-22.22-1-42.26-1.09-57.63C383.08,326,368.58,315,349.12,314.19c-20.61,1.68-35.24,15-46.16,32.68,1.63,19,2.15,31.73,1.85,45.87,6.92,21.69,8.92,44.69,7.67,57.58-.69,7.14-3.41,10.36-4.77,10.2-2.1-.86-4-5.6-6-12.5-.24,3.63-.49,7.44-.76,11.49-.64,9.89-1.15,20.83-1.52,32.35H399.76c-.37-10.32-.83-20.18-1.39-29.23C397.09,464.56,395.76,465.64,394.29,465.64Z"/><path class="cls-4" d="M394.29,465.64c-7.05,0-8.77-33.81,1-66.54-.7-22.22-1-42.26-1.09-57.63C383.08,326,368.58,315,349.12,314.19c-20.61,1.68-35.24,15-46.16,32.68,1.63,19,2.15,31.73,1.85,45.87,6.92,21.69,8.92,44.69,7.67,57.58-.69,7.14-3.41,10.36-4.77,10.2-2.1-.86-4-5.6-6-12.5-.24,3.63-.49,7.44-.76,11.49-.64,9.89-1.15,20.83-1.52,32.35H399.76c-.37-10.32-.83-20.18-1.39-29.23C397.09,464.56,395.76,465.64,394.29,465.64Z"/><path class="cls-3" d="M293,366.3a154.57,154.57,0,0,1,10-19.43c-.86-10-2-21.67-3.52-36.25.37-11.14,50.78-20,50.78-20s43.66,8.85,44,20c0,0-.15,11.86,0,30.85a146.29,146.29,0,0,1,14.86,26.72c6.33-9.84,14.32-18.13,24.22-23.4-14.52-38-40.78-71.75-83.54-71.75h-1c-29.56,0-51.14,15.56-66.4,37.47a36.91,36.91,0,0,1-9.06,15.09,170.17,170.17,0,0,0-7.51,16.69C277.13,346.42,286.06,355.24,293,366.3Z"/><path class="cls-4" d="M293,366.3a154.57,154.57,0,0,1,10-19.43c-.86-10-2-21.67-3.52-36.25.37-11.14,50.78-20,50.78-20s43.66,8.85,44,20c0,0-.15,11.86,0,30.85a146.29,146.29,0,0,1,14.86,26.72c6.33-9.84,14.32-18.13,24.22-23.4-14.52-38-40.78-71.75-83.54-71.75h-1c-29.56,0-51.14,15.56-66.4,37.47a36.91,36.91,0,0,1-9.06,15.09,170.17,170.17,0,0,0-7.51,16.69C277.13,346.42,286.06,355.24,293,366.3Z"/><path class="cls-3" d="M420.86,400.22c2.27,7.17,4.29,14,6.17,20.28.06-8.69-.36-17.14-1.38-29C423.93,394.25,422.34,397.18,420.86,400.22Z"/><path class="cls-4" d="M420.86,400.22c2.27,7.17,4.29,14,6.17,20.28.06-8.69-.36-17.14-1.38-29C423.93,394.25,422.34,397.18,420.86,400.22Z"/><path class="cls-3" d="M279.21,405.33c1.18-3.93,2.43-8,3.75-12.08-1.25-2.34-2.56-4.59-4-6.72C279,392,279.09,398.37,279.21,405.33Z"/><path class="cls-4" d="M279.21,405.33c1.18-3.93,2.43-8,3.75-12.08-1.25-2.34-2.56-4.59-4-6.72C279,392,279.09,398.37,279.21,405.33Z"/><path class="cls-3" d="M394.25,310.63c-.37-11.14-44-20-44-20s-50.42,8.85-50.78,20c1.51,14.57,2.67,26.28,3.52,36.25,10.92-17.69,25.55-31,46.16-32.68,19.46.82,34,11.85,45.11,27.28C394.1,322.49,394.25,310.63,394.25,310.63Z"/><path class="cls-4" d="M394.25,310.63c-.37-11.14-44-20-44-20s-50.42,8.85-50.78,20c1.51,14.57,2.67,26.28,3.52,36.25,10.92-17.69,25.55-31,46.16-32.68,19.46.82,34,11.85,45.11,27.28C394.1,322.49,394.25,310.63,394.25,310.63Z"/><ellipse class="cls-3" cx="349.7" cy="212.9" rx="52.81" ry="53.26"/><ellipse class="cls-4" cx="349.7" cy="212.9" rx="52.81" ry="53.26"/><path class="cls-3" d="M490.93,387.6c-8-11-18.35-18.93-32.27-19.52a35.57,35.57,0,0,0-16.58,5.63c5.6,24,7.06,46.76,5.55,61-1.1,10.44-5.43,15.14-7.6,14.92-4.45-1.67-8.25-13.35-13-29.2-.08,12.73-1.17,26-2.84,51.54-.4,6.12-.72,12.8-1,19.83h71.55c-.27-7-.61-13.71-1-19.83C491.66,440,491.07,408,490.93,387.6Z"/><path class="cls-4" d="M490.93,387.6c-8-11-18.35-18.93-32.27-19.52a35.57,35.57,0,0,0-16.58,5.63c5.6,24,7.06,46.76,5.55,61-1.1,10.44-5.43,15.14-7.6,14.92-4.45-1.67-8.25-13.35-13-29.2-.08,12.73-1.17,26-2.84,51.54-.4,6.12-.72,12.8-1,19.83h71.55c-.27-7-.61-13.71-1-19.83C491.66,440,491.07,408,490.93,387.6Z"/><path class="cls-3" d="M425.65,391.46c1,11.89,1.43,20.34,1.38,29,4.76,15.85,8.56,27.52,13,29.2,2.17.23,6.5-4.48,7.6-14.92,1.51-14.29,0-37.06-5.55-61C435.52,377.94,430.14,384.18,425.65,391.46Z"/><path class="cls-4" d="M425.65,391.46c1,11.89,1.43,20.34,1.38,29,4.76,15.85,8.56,27.52,13,29.2,2.17.23,6.5-4.48,7.6-14.92,1.51-14.29,0-37.06-5.55-61C435.52,377.94,430.14,384.18,425.65,391.46Z"/><path class="cls-3" d="M395.32,399.11c.6,19.07,1.5,39.73,2.85,60.41.07,1,.13,2.07.2,3.11,6.2-9.37,11-38.82,22.49-62.42a320,320,0,0,0-11.77-32A122.53,122.53,0,0,0,395.32,399.11Z"/><path class="cls-4" d="M395.32,399.11c.6,19.07,1.5,39.73,2.85,60.41.07,1,.13,2.07.2,3.11,6.2-9.37,11-38.82,22.49-62.42a320,320,0,0,0-11.77-32A122.53,122.53,0,0,0,395.32,399.11Z"/><path class="cls-3" d="M459.45,351.24s31.23,6.33,31.49,14.3c0,0-.11,8.49,0,22.07C510.76,415.05,515.8,462,523.69,465c1.55.16,4.65-3.2,5.44-10.67,3.24-30.62-12.59-115.68-70-115.68h-.72a52.61,52.61,0,0,0-25.1,6.14c1.49,3.9,2.85,7.85,4.1,11.81A192.45,192.45,0,0,1,459.45,351.24Z"/><path class="cls-4" d="M459.45,351.24s31.23,6.33,31.49,14.3c0,0-.11,8.49,0,22.07C510.76,415.05,515.8,462,523.69,465c1.55.16,4.65-3.2,5.44-10.67,3.24-30.62-12.59-115.68-70-115.68h-.72a52.61,52.61,0,0,0-25.1,6.14c1.49,3.9,2.85,7.85,4.1,11.81A192.45,192.45,0,0,1,459.45,351.24Z"/><path class="cls-3" d="M395.32,399.11c-9.8,32.73-8.08,66.54-1,66.54,1.47,0,2.8-1.08,4.08-3-.06-1-.13-2.09-.2-3.11C396.82,438.83,395.92,418.17,395.32,399.11Z"/><path class="cls-4" d="M395.32,399.11c-9.8,32.73-8.08,66.54-1,66.54,1.47,0,2.8-1.08,4.08-3-.06-1-.13-2.09-.2-3.11C396.82,438.83,395.92,418.17,395.32,399.11Z"/><path class="cls-3" d="M409.09,368.19a320,320,0,0,1,11.77,32c1.48-3,3.07-6,4.79-8.75-.61-7.13-1.44-15.5-2.52-25.93.11-3.39,6.73-6.49,14.28-8.93-1.25-4-2.61-7.91-4.1-11.81C423.41,350.07,415.41,358.35,409.09,368.19Z"/><path class="cls-4" d="M409.09,368.19a320,320,0,0,1,11.77,32c1.48-3,3.07-6,4.79-8.75-.61-7.13-1.44-15.5-2.52-25.93.11-3.39,6.73-6.49,14.28-8.93-1.25-4-2.61-7.91-4.1-11.81C423.41,350.07,415.41,358.35,409.09,368.19Z"/><path class="cls-3" d="M490.94,365.54c-.26-8-31.49-14.3-31.49-14.3a192.45,192.45,0,0,0-22,5.37c1.8,5.71,3.35,11.44,4.68,17.11a35.57,35.57,0,0,1,16.58-5.63c13.92.59,24.29,8.47,32.27,19.52C490.84,374,490.94,365.54,490.94,365.54Z"/><path class="cls-4" d="M490.94,365.54c-.26-8-31.49-14.3-31.49-14.3a192.45,192.45,0,0,0-22,5.37c1.8,5.71,3.35,11.44,4.68,17.11a35.57,35.57,0,0,1,16.58-5.63c13.92.59,24.29,8.47,32.27,19.52C490.84,374,490.94,365.54,490.94,365.54Z"/><path class="cls-3" d="M423.13,365.54c1.08,10.43,1.91,18.79,2.52,25.93,4.5-7.29,9.87-13.53,16.44-17.74-1.32-5.67-2.88-11.4-4.68-17.11C429.86,359,423.24,362.14,423.13,365.54Z"/><path class="cls-4" d="M423.13,365.54c1.08,10.43,1.91,18.79,2.52,25.93,4.5-7.29,9.87-13.53,16.44-17.74-1.32-5.67-2.88-11.4-4.68-17.11C429.86,359,423.24,362.14,423.13,365.54Z"/><ellipse class="cls-3" cx="459.08" cy="295.64" rx="37.78" ry="38.1"/><ellipse class="cls-4" cx="459.08" cy="295.64" rx="37.78" ry="38.1"/><path class="cls-4" d="M251.39,490.51c-.18.07-.39.55-.62,1.36H252C251.78,491.05,251.57,490.58,251.39,490.51Z"/><path class="cls-3" d="M279.21,405.33c-7.5,24.95-12.56,45.25-20.09,45.25-9,0-11.8-39.73-1.64-81.61a29.74,29.74,0,0,0-6.78-1.1c-12.93,1.15-22.1,10.25-28.95,22.35,2.21,28,1.18,36-1.28,77-.45,7.48-.79,15.82-1,24.61h31.32c.23-.81.44-1.29.62-1.36s.39.55.62,1.36h30.52c-.26-8.79-.63-17.14-1.07-24.61C280.15,445.2,279.51,423.22,279.21,405.33Z"/><path class="cls-4" d="M279.21,405.33c-7.5,24.95-12.56,45.25-20.09,45.25-9,0-11.8-39.73-1.64-81.61a29.74,29.74,0,0,0-6.78-1.1c-12.93,1.15-22.1,10.25-28.95,22.35,2.21,28,1.18,36-1.28,77-.45,7.48-.79,15.82-1,24.61h31.32c.23-.81.44-1.29.62-1.36s.39.55.62,1.36h30.52c-.26-8.79-.63-17.14-1.07-24.61C280.15,445.2,279.51,423.22,279.21,405.33Z"/><path class="cls-3" d="M257.49,369c-10.16,41.87-7.4,81.61,1.64,81.61,7.53,0,12.58-20.3,20.09-45.25-.12-7-.18-13.33-.22-18.8C273.36,378,266.37,371.5,257.49,369Z"/><path class="cls-4" d="M257.49,369c-10.16,41.87-7.4,81.61,1.64,81.61,7.53,0,12.58-20.3,20.09-45.25-.12-7-.18-13.33-.22-18.8C273.36,378,266.37,371.5,257.49,369Z"/><path class="cls-3" d="M283,393.25C292.44,411,297.48,434,301.68,448c1.68-25.25,2.83-41,3.13-55.28A118.34,118.34,0,0,0,293,366.3C289.11,375.12,285.84,384.31,283,393.25Z"/><path class="cls-4" d="M283,393.25C292.44,411,297.48,434,301.68,448c1.68-25.25,2.83-41,3.13-55.28A118.34,118.34,0,0,0,293,366.3C289.11,375.12,285.84,384.31,283,393.25Z"/><path class="cls-3" d="M251.39,351.77s4.64,1,10.11,2.76c1.3-4.11,2.73-8.2,4.3-12.24a42.56,42.56,0,0,0-14.7-2.55h-.63c-62.61,0-68.2,121.4-56.21,121.4,8.33,0,11.85-43.28,27.49-70.91-.54-6.82-1.26-14.82-2.21-24.79C219.78,357.83,251.39,351.77,251.39,351.77Z"/><path class="cls-4" d="M251.39,351.77s4.64,1,10.11,2.76c1.3-4.11,2.73-8.2,4.3-12.24a42.56,42.56,0,0,0-14.7-2.55h-.63c-62.61,0-68.2,121.4-56.21,121.4,8.33,0,11.85-43.28,27.49-70.91-.54-6.82-1.26-14.82-2.21-24.79C219.78,357.83,251.39,351.77,251.39,351.77Z"/><path class="cls-3" d="M307.72,460.53c1.36.15,4.08-3.06,4.77-10.2,1.25-12.9-.75-35.89-7.67-57.58-.31,14.27-1.45,30-3.13,55.28C303.75,454.93,305.62,459.67,307.72,460.53Z"/><path class="cls-4" d="M307.72,460.53c1.36.15,4.08-3.06,4.77-10.2,1.25-12.9-.75-35.89-7.67-57.58-.31,14.27-1.45,30-3.13,55.28C303.75,454.93,305.62,459.67,307.72,460.53Z"/><path class="cls-3" d="M279,365.44s-.09,8.12,0,21.09c1.41,2.12,2.72,4.38,4,6.72,2.88-8.94,6.15-18.13,10-27-6.89-11.06-15.82-19.87-27.15-24-1.57,4-3,8.13-4.3,12.24C269.33,357,278.87,361,279,365.44Z"/><path class="cls-4" d="M279,365.44s-.09,8.12,0,21.09c1.41,2.12,2.72,4.38,4,6.72,2.88-8.94,6.15-18.13,10-27-6.89-11.06-15.82-19.87-27.15-24-1.57,4-3,8.13-4.3,12.24C269.33,357,278.87,361,279,365.44Z"/><path class="cls-3" d="M250.7,367.88a29.74,29.74,0,0,1,6.78,1.1c1.17-4.81,2.5-9.64,4-14.44-5.47-1.74-10.11-2.76-10.11-2.76s-31.62,6.05-31.85,13.67c.95,10,1.67,18,2.21,24.79C228.61,378.13,237.78,369,250.7,367.88Z"/><path class="cls-4" d="M250.7,367.88a29.74,29.74,0,0,1,6.78,1.1c1.17-4.81,2.5-9.64,4-14.44-5.47-1.74-10.11-2.76-10.11-2.76s-31.62,6.05-31.85,13.67c.95,10,1.67,18,2.21,24.79C228.61,378.13,237.78,369,250.7,367.88Z"/><path class="cls-3" d="M279,386.53c-.08-13,0-21.09,0-21.09-.13-4.48-9.67-8.42-17.5-10.91-1.52,4.81-2.85,9.64-4,14.44C266.37,371.5,273.36,378,279,386.53Z"/><path class="cls-4" d="M279,386.53c-.08-13,0-21.09,0-21.09-.13-4.48-9.67-8.42-17.5-10.91-1.52,4.81-2.85,9.64-4,14.44C266.37,371.5,273.36,378,279,386.53Z"/><path class="cls-3" d="M284.19,298.62c0-20.11-14.83-36.42-33.12-36.42s-33.12,16.31-33.12,36.42S232.78,335,251.07,335a31.4,31.4,0,0,0,22.24-9.43,136.19,136.19,0,0,1,9.06-15.09A39.64,39.64,0,0,0,284.19,298.62Z"/><path class="cls-4" d="M284.19,298.62c0-20.11-14.83-36.42-33.12-36.42s-33.12,16.31-33.12,36.42S232.78,335,251.07,335a31.4,31.4,0,0,0,22.24-9.43,136.19,136.19,0,0,1,9.06-15.09A39.64,39.64,0,0,0,284.19,298.62Z"/><path class="cls-3" d="M273.31,325.6a36.91,36.91,0,0,0,9.06-15.09A136.19,136.19,0,0,0,273.31,325.6Z"/><path class="cls-4" d="M273.31,325.6a36.91,36.91,0,0,0,9.06-15.09A136.19,136.19,0,0,0,273.31,325.6Z"/><line class="cls-5" x1="54" x2="54" y2="36"/><line class="cls-5" y1="54" x2="36" y2="54"/><line class="cls-5" y1="654" x2="36" y2="654"/><line class="cls-5" x1="54" y1="708" x2="54" y2="672"/><line class="cls-5" x1="654" x2="654" y2="36"/><line class="cls-5" x1="708" y1="54" x2="672" y2="54"/><line class="cls-5" x1="708" y1="654" x2="672" y2="654"/><line class="cls-5" x1="654" y1="708" x2="654" y2="672"/></g></g></svg>