<svg xmlns="http://www.w3.org/2000/svg" viewBox="0 0 713.67 713.67"><defs><style>.cls-1{fill:#45744c;}.cls-2{fill:#375c3c;}.cls-3{fill:#fff;}.cls-4{fill:none;stroke:#000;stroke-width:0.3px;}</style></defs><title>102</title><g id="图层_2" data-name="图层 2"><g id="图层_1-2" data-name="图层 1"><path class="cls-1" d="M257.52,513.19l90.72-34.76,24.5-95,151.45-197.8L610,271.94v-108c0-23-40.29-63.33-90-63.33H188c-49.71,0-90,40.29-90,63.33v332c0,76.37,40.29,116.67,90,116.67H357.2Z"/><path class="cls-2" d="M372.74,383.43l-24.5,95-90.72,34.76,99.68,99.37H520c49.71,0,90-40.29,90-116.67v-224l-85.81-86.32Z"/><path class="cls-3" d="M524.19,185.63c-105.31,44.59-164.42-35.75-166.07-38v-.05l0,0,0,0v.05c-1.65,2.28-60.75,82.62-166.07,38,0,0-35.79,164.24,16,260s114.83,109.49,130.86,116c15.59,6.37,18,9.36,19.14,12.26,0,.2,0,.29.05.24l0-.05,0,.05c0,.05,0,0,.05-.24,1.1-2.9,3.54-5.89,19.14-12.26,16-6.55,79-20.23,130.86-116S524.19,185.63,524.19,185.63Z"/><path class="cls-2" d="M504.15,210.05c-92.56,39.07-144.5-31.33-145.95-33.32v0l0,0,0,0v0c-1.45,2-53.39,72.39-145.95,33.32,0,0-31.45,143.9,14.08,227.84s100.92,95.93,115,101.67c13.71,5.58,15.85,8.2,16.82,10.74,0,.18,0,.25,0,.21l0,0,0,0s0,0,0-.21c1-2.54,3.11-5.16,16.82-10.74,14.08-5.74,69.47-17.73,115-101.67S504.15,210.05,504.15,210.05Z"/><path class="cls-3" d="M521.53,372.57s-5.28,7.37-168.23,7.37-161.75-7.37-161.75-7.37V349.2s-7.28,7.37,160.75,7.37,169.23-7.37,169.23-7.37Z"/><rect class="cls-3" x="346.49" y="168.2" width="23.37" height="394.29"/><line class="cls-4" x1="54" x2="54" y2="36"/><line class="cls-4" y1="54" x2="36" y2="54"/><line class="cls-4" y1="659.67" x2="36" y2="659.67"/><line class="cls-4" x1="54" y1="713.67" x2="54" y2="677.67"/><line class="cls-4" x1="659.67" x2="659.67" y2="36"/><line class="cls-4" x1="713.67" y1="54" x2="677.67" y2="54"/><line class="cls-4" x1="713.67" y1="659.67" x2="677.67" y2="659.67"/><line class="cls-4" x1="659.67" y1="713.67" x2="659.67" y2="677.67"/></g></g></svg>