<svg xmlns="http://www.w3.org/2000/svg" xmlns:xlink="http://www.w3.org/1999/xlink" viewBox="0 0 708 708"><defs><style>.cls-1{fill:#465a58;}.cls-2{fill:#384848;}.cls-3{fill:#fff;}.cls-4{fill:url(#radial-gradient);}.cls-5{fill:none;stroke:#000;stroke-width:0.3px;}</style><radialGradient id="radial-gradient" cx="351.46" cy="301.53" r="26.62" gradientUnits="userSpaceOnUse"><stop offset="0" stop-color="#b4b4b5"/><stop offset="1" stop-color="#888"/></radialGradient></defs><title>103</title><g id="图层_2" data-name="图层 2"><g id="图层_1-2" data-name="图层 1"><path class="cls-1" d="M223.21,450.13c-7.23-4.22-11.11-7.06-11.11-7.06V331.61l149,49.52.47-6.12-236.93-78.1V292.8l230.23-83.68,239.76,67.34,21,21.13h0V161.33c0-23-40.29-63.33-90-63.33h-332c-49.71,0-90,40.29-90,63.33v332c0,76.37,40.29,116.67,90,116.67h189Z"/><polygon class="cls-1" points="124.67 292.8 124.67 296.91 361.6 375.01 361.86 371.63 124.67 292.8"/><path class="cls-1" d="M615.67,493.33c0,76.37-40.29,116.67-90,116.67h0c49.71,0,90-40.29,90-116.67V297.58h0Z"/><path class="cls-2" d="M615.67,493.33V297.58l-21-21.13L475.36,326.22h0V336.7l31.88-13.07-.14,119s-56.91,43.91-147.43,43.85c-65.82,0-115.4-24.09-136.46-36.39L382.69,610h143C575.37,610,615.67,569.71,615.67,493.33Z"/><polygon class="cls-2" points="471.53 338.27 471.46 327.87 471.43 327.86 364.44 372.49 361.86 371.63 361.6 375.01 361.13 381.12 364.39 382.2 471.53 338.27"/><path class="cls-3" d="M358.36,302c-7.16-.22-13.39-2.21-17.05-5.13C344.11,299.37,349.19,301.76,358.36,302Z"/><path class="cls-3" d="M378,296.86c-3.69,2.93-10,4.93-17.2,5.12C370.08,301.79,375.2,299.39,378,296.86Z"/><path class="cls-3" d="M364.44,372.49l107-44.63L380.69,294c-1.61,3.47-6.45,8.54-21,8.54-22.13,0-21.82-10.72-21.82-10.72v-1c0-6.18,9.77-11.19,21.82-11.19s21.82,5,21.82,11.19c0,0,0,.14,0,.37a5.9,5.9,0,0,1-.07.62l94,34.42,119.31-49.77L354.91,209.11,124.67,292.8l237.19,78.84Z"/><path class="cls-3" d="M507.1,442.67l.14-119L475.36,336.7v27a4.59,4.59,0,0,1,.2,8.23L486,423.27H462.22l9.39-51.14a4.61,4.61,0,0,1,.11-8.54l-.19-25.32L364.39,382.21l-3.25-1.08-149-49.52V443.07s3.87,2.84,11.11,7.06c21.06,12.29,70.64,36.34,136.46,36.39C450.18,486.58,507.1,442.67,507.1,442.67Z"/><path class="cls-2" d="M381.4,291.8a5.9,5.9,0,0,0,.07-.62c0,.16,0,.37-.08.62Z"/><path class="cls-2" d="M341.31,296.85c3.66,2.92,9.89,4.91,17.05,5.13l1.31,0,1.15,0c7.22-.19,13.51-2.19,17.2-5.12a10.65,10.65,0,0,0,3.29-5.09,5.37,5.37,0,0,0,.18-1c0-6.18-9.77-11.19-21.82-11.19s-21.82,5-21.82,11.19A9.76,9.76,0,0,0,341.31,296.85Z"/><path class="cls-3" d="M381.49,290.8c0,.13,0,.25,0,.37C381.49,290.94,381.49,290.8,381.49,290.8Z"/><path class="cls-4" d="M381.49,290.8c0,.13,0,.25,0,.37C381.49,290.94,381.49,290.8,381.49,290.8Z"/><path class="cls-3" d="M380.78,293.64a10,10,0,0,1-2.76,3.22c-2.82,2.53-7.94,4.94-17.2,5.12l-1.15,0-1.31,0c-9.17-.21-14.25-2.6-17.05-5.13-2.19-1.74-3.46-3.82-3.46-6v1s-.3,10.72,21.82,10.72c14.57,0,19.41-5.07,21-8.54h0Z"/><path class="cls-4" d="M380.78,293.64a10,10,0,0,1-2.76,3.22c-2.82,2.53-7.94,4.94-17.2,5.12l-1.15,0-1.31,0c-9.17-.21-14.25-2.6-17.05-5.13-2.19-1.74-3.46-3.82-3.46-6v1s-.3,10.72,21.82,10.72c14.57,0,19.41-5.07,21-8.54h0Z"/><path class="cls-2" d="M359.67,302l-1.31,0Z"/><path class="cls-4" d="M359.67,302l-1.31,0Z"/><path class="cls-2" d="M378,296.86a10,10,0,0,0,2.76-3.22l.53-1.87A10.65,10.65,0,0,1,378,296.86Z"/><path class="cls-4" d="M378,296.86a10,10,0,0,0,2.76-3.22l.53-1.87A10.65,10.65,0,0,1,378,296.86Z"/><path class="cls-2" d="M341.31,296.85a9.76,9.76,0,0,1-3.46-6C337.85,293,339.12,295.1,341.31,296.85Z"/><path class="cls-4" d="M341.31,296.85a9.76,9.76,0,0,1-3.46-6C337.85,293,339.12,295.1,341.31,296.85Z"/><path class="cls-2" d="M360.82,302l-1.15,0Z"/><path class="cls-4" d="M360.82,302l-1.15,0Z"/><path class="cls-2" d="M381.39,291.79c0-.25.07-.46.08-.62s0-.25,0-.37a5.37,5.37,0,0,1-.18,1Z"/><path class="cls-4" d="M381.39,291.79c0-.25.07-.46.08-.62s0-.25,0-.37a5.37,5.37,0,0,1-.18,1Z"/><polygon class="cls-1" points="381.4 291.8 381.39 291.79 381.31 291.76 380.78 293.64 380.69 293.97 380.69 293.97 471.43 327.86 471.46 327.87 475.36 326.22 475.36 326.22 381.4 291.8"/><path class="cls-1" d="M471.53,338.27l.19,25.32a4.49,4.49,0,0,1,3.63.12V326.22l-3.9,1.65Z"/><path class="cls-2" d="M471.61,372.13l-9.39,51.14H486l-10.44-51.33a4.53,4.53,0,0,1-3.95.19Z"/><path class="cls-2" d="M471.72,363.59a4.49,4.49,0,1,0,1.68-.33A4.61,4.61,0,0,0,471.72,363.59Z"/><line class="cls-5" x1="54" x2="54" y2="36"/><line class="cls-5" y1="54" x2="36" y2="54"/><line class="cls-5" y1="654" x2="36" y2="654"/><line class="cls-5" x1="54" y1="708" x2="54" y2="672"/><line class="cls-5" x1="654" x2="654" y2="36"/><line class="cls-5" x1="708" y1="54" x2="672" y2="54"/><line class="cls-5" x1="708" y1="654" x2="672" y2="654"/><line class="cls-5" x1="654" y1="708" x2="654" y2="672"/></g></g></svg>