<svg xmlns="http://www.w3.org/2000/svg" viewBox="0 0 708 708"><defs><style>.cls-1{fill:#1c9981;}.cls-2{fill:#137b66;}.cls-3{fill:#fff;}.cls-4{fill:none;stroke:#000;stroke-width:0.3px;}</style></defs><title>105</title><g id="图层_2" data-name="图层 2"><g id="图层_1-2" data-name="图层 1"><path class="cls-1" d="M520,98H188c-49.71,0-90,40.29-90,63.33v332C98,569.71,138.29,610,188,610H339.07l-74.27-60.1L153.74,256.65,338.6,192.59l250.26,24.18L610,233.53V161.33C610,138.29,569.71,98,520,98Z"/><path class="cls-2" d="M338.6,192.59,153.74,256.65,264.81,549.9,339.07,610H520c49.71,0,90-40.29,90-116.67V233.53l-21.14-16.75Z"/><path class="cls-3" d="M336.74,197.29h-3a2.5,2.5,0,0,0,0,5h3a2.5,2.5,0,0,0,0-5Z"/><path class="cls-1" d="M338.48,188.81c3.4-3-2.78,3.59,0,0,7.9-10.2,24.5-16.57,37-19.89,29.62-7.9,60.95-4.17,91.37-.39l103.93,12.91c8.58,1.07,19.37,4.32,20,12.94.28,3.84-1.76,7.41-3.55,10.82-11.11,21.25-48.52,26.56-64.46,44.47-14.44,16.22-2.55,43.39-23.34,49.66-4.61,1.39-9.39,2.8-14.17,2.17-6.09-.8,11.4-34.53,17.29-32.77,58.84,17.57-115.93-59.27-164-79.91"/><path class="cls-3" d="M522.6,389.51a8.65,8.65,0,0,0,10,1.61c-7.34,10.92-15,23.8-11.31,36.42a56.23,56.23,0,0,0-18.12,2.36,18.94,18.94,0,0,0-.42-15.69c-.93-1.88,1.22-3.73,3-4.89A32.45,32.45,0,0,0,519,390.51a.73.73,0,0,1,.69-.53"/><path class="cls-3" d="M541.64,461.15l-23.52,4c-1.8.3-3.78.72-4.83,2.21a6.86,6.86,0,0,0-.89,3.69c-.33,7-.37,14.14-2.45,20.84s-6.6,13.07-13.22,15.39c4.92,2.21,10.58,1.36,16,1.4s11.56,1.59,13.9,6.45c1.58,3.29.93,7.16.45,10.78-.16,1.23-.25,2.63.59,3.54a4.28,4.28,0,0,0,2.41,1c6,1.16,12.61,1.61,17.66-1.77s7.23-10,8.93-16L569.81,466c-4.38.44-8.23-4.75-6.54-8.81,1.1-2.66,3.93-5.71,1.95-7.8l-13.34,14a4.79,4.79,0,0,1-2,1.46c-1.44.42-2.86-.55-4.23-1.16A9.56,9.56,0,0,0,535,466"/><path class="cls-3" d="M541,458.74c-7.51,1.26-15,2.47-22.54,3.79-4.58.81-7.7,2.27-8.44,7.18-1.87,12.35.54,29.34-13.93,35.11a2.53,2.53,0,0,0,0,4.82c10.22,3.93,30.74-3.7,28.79,13.87-.5,4.52-.53,8.08,4.54,9.35a29.7,29.7,0,0,0,14.94.1c10.47-3,13.17-14.1,15.78-23.35l12.11-42.93a2.53,2.53,0,0,0-2.41-3.16c-6.88-.08-3.23-6.4-2-9.74a5.93,5.93,0,0,0-.41-5.63,2.53,2.53,0,0,0-3.93-.51l-8,8.41c-1.23,1.29-2.51,3.18-4,4.2q-1.47,2.58-4.52,1.32a11.7,11.7,0,0,0-1.2-.47c-4.83-1-8.78-.42-12.5,3.1-2.34,2.21,1.2,5.74,3.54,3.54,5.4-5.1,10.08,1.95,15.48-1.28,2.5-1.5,4.76-4.77,6.75-6.87l8-8.41-3.93-.51c1,1.67-2.18,5.21-2.53,7a8.84,8.84,0,0,0,.57,5,9.34,9.34,0,0,0,8.71,5.79l-2.41-3.16-10.53,37.33c-3.06,10.85-4.92,26.05-19.17,26.12-2,0-7.26.34-8.26-1.68-.78-1.58.71-5.7.65-7.56a12.55,12.55,0,0,0-4.38-9.5c-8.11-6.77-19.25-1.75-28.32-5.25v4.82c10.07-4,14.93-13.68,16.46-24,.79-5.34-.91-16.14,4.94-18.17,3.6-1.25,8-1.34,11.76-2l11.76-2c3.17-.53,1.82-5.35-1.33-4.82Z"/><path class="cls-3" d="M189.66,225.36l-28.24-4.3a8.46,8.46,0,0,0-4.75.19c-2.2,1-3.09,3.57-4.19,5.72a19.48,19.48,0,0,1-12.69,10,13.9,13.9,0,0,1-14.62,21.28,38.33,38.33,0,0,1,18.42-2.37,18,18,0,0,1-1.81,16c8.62-1.95,17.56,5.15,19.47,13.77s-2,17.76-8.23,24.05c-5.87,5.95-14.16,10.61-16,18.77-1.62,7.34,2.92,14.75,8.61,19.67s12.62,8.24,18.29,13.17a42.08,42.08,0,0,1,14.22,29c.24,4.26,0,9.08,3,12.11s10.06.33,8.29-3.55a13.27,13.27,0,0,0,16.71,7.09A275.25,275.25,0,0,0,171.3,351.7a12.64,12.64,0,0,1-2.74-4.44c-1.47-5.29,4.25-9.73,9.43-11.53,6.61-2.29-5.82,3.67.76,6.06s31.87,1.7,32.12,8.69c5.68-4.88-.16-15.93,5.33-21,4.79-4.43,14.6-.55,17.85-6.21,1.39-2.42.71-5.42.36-8.19a31.69,31.69,0,0,1,17.66-31.84c1.46-.67,3.06-1.31,4-2.65,1.95-2.93-.87-6.82-4-8.37s-7-2.18-9.26-4.83c-3.71-4.28-3.28-13.16-8.95-13.36-3.54-.12-5.64,3.79-7,7.06-3.47,8.25-8.17,16.64-16.07,20.83s-19.65,2.09-23-6.22c-3.14-7.84,2.44-16.61,9.22-21.65s15-8.18,20.85-14.29a19.12,19.12,0,0,0-9.58-2.7,91.76,91.76,0,0,1,23.91-10.16c.78-2.85-3-5.14-5.83-4.46s-5,3-7.35,4.79a21.66,21.66,0,0,1-18,3.68c-4.9-1.22-9.24-4.13-14.14-5.35s-11.13,0-13.08,4.67"/><path class="cls-3" d="M190.32,223l-16.94-2.58c-4.83-.74-10.63-2.62-15.51-2-3.44.46-5.19,2.8-6.73,5.65-2.83,5.24-6.06,8.82-12,10.49a2.53,2.53,0,0,0-1.49,3.67c5.09,8.71-1.56,19.33-11.79,17.6v4.82a39.57,39.57,0,0,1,17.75-2.28l-2.41-1.84a16.3,16.3,0,0,1-1.55,14.06c-1.21,2,.78,4,2.82,3.67,7.66-1.31,14.72,4.77,16.39,12,1.74,7.56-2,15.62-7.05,21-7.26,7.74-18.85,13.81-17.41,26.17,1.63,14,15.42,20.09,25.36,27.59a40.05,40.05,0,0,1,13.39,17.55c2.48,6.47,1.76,12.95,3.26,19.51,1.06,4.61,4.27,8.56,9.36,7.94,4.07-.49,7.42-3.69,6.17-7.93l-4.57,1.93a15.9,15.9,0,0,0,19.54,8.24,2.54,2.54,0,0,0,1.49-3.67,281.33,281.33,0,0,0-21.88-37.08c-3.9-5.57-8.06-10.95-12.3-16.26-2.62-3.29-4.78-6.29-1.16-9.85,1.3-1.28,5.18-3.91,6.91-3.74l-2.41-1.84c-.6-2.06,1-2.28-.73-.88a7.85,7.85,0,0,0-1.39,1.63,5.1,5.1,0,0,0-1,4.13c.83,3.27,5,3.88,7.77,4.32,4.76.76,9.58,1.05,14.36,1.72,1.69.23,11.53,1.11,11.85,3.66.26,2,2.61,3.46,4.27,1.77A12.17,12.17,0,0,0,216,344.4c.33-3.49-1-8.76,1-11.87,3.71-6,14-1.2,18.6-7.09,2.42-3.12,1.7-6.93,1.34-10.56a29.1,29.1,0,0,1,2.48-15.32A29.75,29.75,0,0,1,247.53,289c3-2.47,7.88-3.55,10.26-6.67,4.73-6.21-2.89-11.67-7.94-13.72s-6.3-4.35-8-9.06c-1-2.62-2-5.46-4.51-7-6.94-4.32-11.32,4.3-13.57,9.32-3.69,8.24-9.42,17.95-19.2,19.42-4.59.69-9.92-.37-13-4.11-4.14-5-1.67-11.77,1.94-16.32,6.81-8.59,18.36-11.68,26.09-19.36a2.52,2.52,0,0,0-.51-3.93,24.92,24.92,0,0,0-10.85-3l1.26,4.66a95,95,0,0,1,23.32-9.91,2.58,2.58,0,0,0,1.84-2.41c.4-4.57-4.08-7.54-8.33-7-2.67.36-4.75,2-6.8,3.65-4,3.12-7.89,5.28-13.05,5.41-10.42.27-27.28-14.48-34.86,0-1.49,2.85,2.82,5.38,4.32,2.52,5.16-9.83,20,1.47,27.39,2.34A24,24,0,0,0,220.72,229c1.1-.84,9.37-7.33,8.91-2.1l1.84-2.41A100.16,100.16,0,0,0,207,234.89a2.52,2.52,0,0,0,1.26,4.66,18.84,18.84,0,0,1,8.32,2.36L216,238c-10.32,10.25-36.45,17.46-31.17,37,1.78,6.58,7.88,10.55,14.39,11.35,7.26.89,14-1.95,19.11-7a42.45,42.45,0,0,0,7.36-10.15c1-1.77,1.81-3.6,2.63-5.44.38-.87.72-1.77,1.14-2.62.63-1.29,2.81-4.91,4.64-4.52,2.72.57,3.71,7.13,4.74,9.27a12.87,12.87,0,0,0,6.83,6.48c2.37,1.06,6.08,1.61,7.42,4,1.89,3.37-1.29,4.15-3.6,5.37a32.44,32.44,0,0,0-9.39,7.57,34.77,34.77,0,0,0-8.42,21.49c-.06,2.61.52,5.1.63,7.69.19,4.48-2.37,5.38-6,5.82s-7.36.32-10.48,2.34-4.23,5.1-4.6,8.48c-.46,4.28,1.18,10.24-2.14,13.62l4.27,1.77c-1-8.09-14-8.35-20-9.05-4.48-.52-9-.76-13.43-1.88-1.11-.28-.93.57,0-.56.35-.43.83-.75,1.19-1.17.83-1,1.67-1.79,1.24-3.25a2.59,2.59,0,0,0-2.41-1.84c-4.53-.44-10.94,4.61-12.92,8.33-3.54,6.64,2,11.73,5.89,16.6a276.77,276.77,0,0,1,31.16,49.53l1.49-3.67a11,11,0,0,1-13.89-5.94c-1.2-2.59-5.36-.75-4.57,1.93a2.1,2.1,0,0,1-2.33,1.69,3.3,3.3,0,0,1-3.21-3c-.79-2-.68-4.35-.81-6.47a51.59,51.59,0,0,0-1.38-9.89,45,45,0,0,0-10.27-19c-8.8-9.68-37.83-20.11-28.16-37.51,3.46-6.22,10.25-9.81,14.91-15a31.55,31.55,0,0,0,8.31-18.55c.88-12.83-9.91-24.57-23.06-22.32l2.82,3.67A21.21,21.21,0,0,0,146,255.2a2.61,2.61,0,0,0-2.41-1.84,42.84,42.84,0,0,0-19.08,2.45c-2.07.76-2.67,4.37,0,4.82,14.37,2.42,24.92-12.16,17.44-24.95l-1.49,3.67a23.26,23.26,0,0,0,9.12-4.74,21.9,21.9,0,0,0,3.48-3.82c1.13-1.58,1.72-3.91,3-5.33,3.45-3.92,12.28-.86,17-.14l16,2.44c3.15.48,4.5-4.34,1.33-4.82Z"/><path class="cls-3" d="M297.07,201.5l.52-.31-17.36,8.46,10.1,5.46a2.91,2.91,0,0,1,1.72,3.87l-2.21,15c-.42,2.89-1.08,6.16-3.57,7.68-3.1,1.9-7.83.29-10.24,3-2,2.3-.81,5.89.52,8.67l5.7,11.92c2.76-15,16.82-27.07,32-27.57,3.11-.1,6.37.2,9.21-1.07,3.14-1.41,5.25-4.54,8.39-5.95,3.39-1.52,7.66-.89,10.55-3.22,3.12-2.52,3.13-7.18,2.86-11.18l-1.45-21.48c-.07-1.06-.22-2.27-1.1-2.88a2.93,2.93,0,0,0-2.06-.32c-6.93.93-11.81,10.61-18.43,8.37-1.78-.6-3.16-2-4.86-2.8-8.43-3.95-17.06,8.56-26.16,6.6"/><path class="cls-3" d="M298.34,203.66l.52-.31c2.79-1.68.35-5.72-2.52-4.32L279,207.49a2.52,2.52,0,0,0,0,4.32l5.05,2.73c.9.49,4.49,1.9,5.05,2.73,1.59,2.37-.7,9.72-1.09,12.33s-.37,6.24-1.94,8.55c-1.91,2.81-5.3,1.89-8.21,2.74-11.76,3.44-.62,19.66,2.25,25.67.91,1.91,4.14,1.44,4.57-.6a32.63,32.63,0,0,1,25.51-25.28c6-1.11,11.86.38,17.08-3.42,2.9-2.11,5-4.36,8.67-5.09,2.72-.54,5.47-.83,7.78-2.53,4-2.92,4.35-8.15,4.13-12.67-.36-7.56-.08-16.17-1.65-23.57-2.61-12.29-17,4.33-21.78,4.42-3,.05-5.5-3.13-8.45-3.71a13.1,13.1,0,0,0-6.65.64c-5.6,1.89-11.16,7.57-17.39,6.62-3.15-.48-4.51,4.34-1.33,4.82,5.74.87,10.34-1.64,15.25-4.29,2.94-1.59,6.38-3.72,9.85-2.71,2.79.81,4.62,3.25,7.67,3.57,5.89.62,9.66-4.64,14.25-7.29a10.11,10.11,0,0,1,2.62-1.2q2,.36,1.26,2.51c.66,2.31.36,5.41.53,7.81.31,4.57.8,9.18.88,13.76,0,1.89.12,4.25-1,5.91-1.57,2.42-4.14,2.47-6.64,3a17.57,17.57,0,0,0-8.23,3.73c-1.8,1.45-3.38,3.11-5.68,3.8s-4.76.36-7.09.47a35.54,35.54,0,0,0-9.45,1.67,37.66,37.66,0,0,0-25,27.73l4.57-.6c-1.76-3.69-3.6-7.35-5.29-11.07-1.12-2.47-2-3.42-.47-5.76s2.11-1.65,4.46-2c4.77-.76,7.49-3.27,8.69-8a98.36,98.36,0,0,0,1.56-10c.45-3.07,1.53-6.54,1.31-9.63-.41-5.54-9.16-7.88-13.17-10v4.32l17.36-8.46L296.33,199l-.52.31c-2.75,1.66-.24,6,2.52,4.32Z"/><path class="cls-3" d="M200.61,407.56c3.54,7.26,9.2,15.73,17.2,14.63a12.67,12.67,0,0,0-.7,7.53,13.38,13.38,0,0,0,7-1.49,27.48,27.48,0,0,1-18.41,12.43l4.35,18L223.55,463c2.13.69,4.49,1.57,5.42,3.6s0,4.51-.47,6.76c-2,8.85,3.3,18.25,11.06,23s17.38,5.4,26.37,4.11a75.69,75.69,0,0,1-38.46-16.87,57.52,57.52,0,0,0,20.36,40.26c3.73,3.1,8,5.95,10,10.39,2.38,5.44,1.52,13.37,7,15.66-.84-12.43-13.23-22.28-12.55-34.72.39-7.07,5-13.15,9.81-18.35s10.15-10.26,12.64-16.89,1-15.45-5.36-18.63c-3.5-1.76-9.12-3.8-7.4-7.33.59-1.2,1.92-1.8,3.12-2.39a35.55,35.55,0,0,0,18.63-23c-7.36-1.33-14.86,1.53-22.34,1.24-10.9-.42-20.32-7.37-29-14-2.67,5.41-8.44,11.78-13.44,8.41l-1.05,5.55"/><path class="cls-3" d="M198.45,408.82c3.82,7.64,9.69,16.58,19.36,15.87l-2.41-3.16a17.36,17.36,0,0,0-.7,8.86,2.51,2.51,0,0,0,2.41,1.84,18.61,18.61,0,0,0,8.25-1.83L221.93,427A25.93,25.93,0,0,1,205,438.25a2.54,2.54,0,0,0-1.75,3.08l3.7,15.3c1.15,4.74,2.82,4.58,7.47,6.08,2.25.73,4.51,1.44,6.76,2.19a14.76,14.76,0,0,1,3.65,1.27c3,2.11,1.55,4.85,1.11,7.25a21.63,21.63,0,0,0,.65,10.37C231.9,500.51,250.4,505,265.93,503c2.48-.32,3.74-4.47.66-4.91a75.42,75.42,0,0,1-37.36-16.23c-1.51-1.23-4.44-.6-4.27,1.77a60.9,60.9,0,0,0,17.11,38.36c5.24,5.32,12.48,8.72,14.42,16.45,1.31,5.22,1.74,10.88,7,13.66,1.52.8,4-.15,3.76-2.16-.58-5.65-2.76-10.58-5.46-15.52-3-5.53-7-11.3-7.11-17.83-.28-15.2,18.13-23,22.59-36.54a19.8,19.8,0,0,0-.62-14.27,14.15,14.15,0,0,0-4-5.24c-2-1.6-5.88-2.17-7.36-4.18-1.62-2.2,4.16-4.21,6-5.55a37.9,37.9,0,0,0,6.4-5.76,39.29,39.29,0,0,0,8.4-15.72,2.51,2.51,0,0,0-1.75-3.08c-9.11-1.27-18.13,2.5-27.15.63s-16.48-7.73-23.56-13.16a2.51,2.51,0,0,0-3.42.9c-1.63,3.08-5.54,9.86-10,7.52-1.32-.69-3.36-.17-3.67,1.49l-1.05,5.55c-.6,3.14,4.22,4.49,4.82,1.33l1.05-5.55-3.67,1.49c7.45,3.89,13.62-3.2,16.86-9.31l-3.42.9c7,5.4,14.47,11,23.2,13.29,9.7,2.57,19-1.61,28.71-.26L281.3,428a33.92,33.92,0,0,1-10.73,17.08c-3.24,2.75-11.22,4.83-11.41,9.95-.19,4.94,5.6,6.49,8.94,8.47,6.75,4,6.11,12.82,2.72,18.86-6.48,11.54-20.8,18.87-21.07,33.52-.24,12.77,11.3,21.7,12.56,34l3.76-2.16c-4.82-2.52-4-10.33-6.1-14.77-2.54-5.43-7.83-8.53-12.11-12.42a55.52,55.52,0,0,1-17.88-37l-4.27,1.77a80,80,0,0,0,39.56,17.51l.66-4.91c-13.74,1.79-32.63-1.68-35.17-18.23-.88-5.74,3.73-12.36-1.72-16.81-1.83-1.5-4.31-2.12-6.52-2.84-3.94-1.29-7.89-2.55-11.83-3.82l1.75,1.75-4.35-18-1.75,3.08a31,31,0,0,0,19.9-13.57c1.51-2.29-1.35-4.36-3.42-3.42a12.85,12.85,0,0,1-5.72,1.15l2.41,1.84a12.18,12.18,0,0,1,.7-6.2,2.51,2.51,0,0,0-2.41-3.16c-7.76.57-12-7.41-15-13.4-1.44-2.88-5.75-.35-4.32,2.52Z"/><path class="cls-3" d="M433,235.17l-32.43,8.66c-1.8.48-3.72,1-4.9,2.48a8.28,8.28,0,0,0-1.44,4.5c-.45,4.5-.32,9.12-1.79,13.39s-5.14,8.23-9.66,8.25c3,4.4,6.2,9,10.85,11.57s11.22,2.65,14.71-1.39l2,6.44-22.9,10.6c-2.38,1.1-5,2.39-6.05,4.77-.93,2-.59,4.35-.23,6.53l4.42,27-18.41,4.56L372,376c1.42,9.82,3.34,20.57,11,26.88,6.75,5.56,16.73,6.11,24.81,2.78s14.4-10,18.88-17.54c3.65,5.7-1.31,13.34-7.31,16.48s-13.14,4-18.57,8.08c-7.89,5.88-10,16.63-11.21,26.4a397,397,0,0,0-2.88,49.66c13.84,1.44,29.56-1.18,38-12.24,7.48-9.8,7.18-23.21,9.58-35.3a75.52,75.52,0,0,1,34-48.93,12,12,0,0,0-14.47,3.43,358.29,358.29,0,0,1-25.11-28.57c1.15-2,4.36-1.63,6.13-.09s2.79,3.79,4.57,5.32c5.85,5.05,14.62-.46,20.23-5.79l-13-20c6.51-5.66,16.08,1.11,24.61,2.45,3.15.5,6.36.19,9.54.39a30.44,30.44,0,0,1,24.42,15.67c4.86,1.4,10-2.48,11.77-7.21s1.16-10,.49-15l4.41.43a228.49,228.49,0,0,0,23.31-35.88c3.51-6.7,6.75-13.86,6.72-21.42s-4.18-15.6-11.38-17.89c5.32-3.69,10.9-7.67,13.49-13.6s.73-14.31-5.4-16.4a24,24,0,0,1,17.94-7.5l1.42-5.88a28.18,28.18,0,0,1,21.4,2.84c4-2.57-.87-8.34-5.2-10.25L561.3,207.25c-3.12-1.38-6.37-2.78-9.78-2.65-2.87.11-5.58,1.31-8.17,2.54-19.27,9.12-39.88,21.5-60.41,15.74-5-1.41-9.85-3.89-15-3.76s-10.83,4.4-9.83,9.5a38.75,38.75,0,0,0-35.93,15.45"/><path class="cls-3" d="M432.3,232.76l-19.08,5.09c-5.45,1.45-12.32,2.2-17.24,5-9.26,5.34.36,25.82-13.24,27.07-1.72.16-3.33,2.06-2.16,3.76,3.71,5.39,7.79,11.19,14.17,13.56,5.36,2,11.21,1.2,15.31-2.88l-4.18-1.1,2,6.44,1.15-2.82-18.49,8.56c-4,1.83-9.26,3.48-11.35,7.7s-.25,9.9.47,14.25l3.48,21.23,1.75-3.08-18.41,4.56a2.57,2.57,0,0,0-1.75,3.08c1.83,12.65,3.38,25.37,5.53,38,1.55,9.06,4.34,18.6,12,24.35,16.94,12.66,37.27-1.08,46.53-16.1H424.5c2.79,5.26-2.05,10.59-6.41,13.06-4.07,2.31-8.87,3.22-13.15,5.09-7.78,3.39-12.57,9.59-15.14,17.57-2.89,9-3.41,18.91-4.2,28.26-1,11.77-1.44,23.57-1.41,35.38a2.56,2.56,0,0,0,2.5,2.5c10.82,1,22.63,0,32-6,9.65-6.13,13.69-16.31,15.51-27.18,2.09-12.48,3.4-24.35,9.44-35.74a73.88,73.88,0,0,1,25.95-27.91c2-1.25,1.33-3.76-.6-4.57A14.64,14.64,0,0,0,452.08,394h3.54a375.9,375.9,0,0,1-25.11-28.57v3.54c2.2-2.48,6,4.28,7.67,5.62a10.91,10.91,0,0,0,7.42,2.31c6.1-.3,11.54-4.54,15.84-8.49a2.52,2.52,0,0,0,.39-3l-13-20-.9,3.42c7-5.19,17.57,2.41,25.24,3,5.06.39,9.83-.05,14.72,1.68a28.35,28.35,0,0,1,11.41,7.59c2.19,2.41,3.13,6.22,6.6,6.74a11.51,11.51,0,0,0,8.45-2.41c7.15-5.29,6.67-14.58,5.65-22.47l-2.5,2.5c4.75.46,5.6.5,8.57-3.37s5.81-7.81,8.53-11.85A193.49,193.49,0,0,0,549.75,304c6-13,7.82-32.17-8.5-38.28l.6,4.57c6.61-4.6,14.26-10.1,15.63-18.63,1.09-6.72-1.77-13.25-8.14-15.94l1.1,4.18a22.38,22.38,0,0,1,16.18-6.77,2.54,2.54,0,0,0,2.41-1.84l1.42-5.88-1.75,1.75a26.61,26.61,0,0,1,19.47,2.59,2.59,2.59,0,0,0,3-.39C602,220.09,576,211,571.38,209c-6.52-2.87-14.15-7.74-21.57-6.69-6.8,1-13.53,5.52-19.61,8.46-14.58,7-31,14.35-47.44,9.46-6.24-1.86-12.84-5.17-19.4-2.68-4.7,1.78-8.28,5.9-7.8,11.09l2.5-2.5A41.69,41.69,0,0,0,420,242.8c-1.93,2.57,2.41,5.07,4.32,2.52a36.79,36.79,0,0,1,33.77-14.21,2.5,2.5,0,0,0,2.5-2.5c-.78-8.38,10.1-7.1,15.08-5.52,5.19,1.65,10.12,3.34,15.61,3.67,10.61.65,21-2.67,30.67-6.75,5-2.12,9.9-4.51,14.79-6.9,6-2.94,12.23-7.2,19.13-5.35,6.23,1.67,12.41,5.26,18.3,7.86,1.41.62,17.46,6.81,13.52,10.21l3-.39a32,32,0,0,0-23.33-3.09,2.48,2.48,0,0,0-1.75,1.75L564.21,230l2.41-1.84a27.52,27.52,0,0,0-19.71,8.24c-1.46,1.46-.56,3.48,1.1,4.18,5.34,2.25,5.63,9.59,3.25,14.06-2.62,4.93-7.48,8.26-11.95,11.37a2.54,2.54,0,0,0,.6,4.57c16.07,6,7.88,26.81,2.33,37.22q-5,9.45-11,18.4-2.71,4.1-5.59,8.07a58.79,58.79,0,0,1-3.54,4.75c-1.69,1.89-2.09,1.65-4.64,1.4a2.5,2.5,0,0,0-2.5,2.5c.63,4.81,1.59,10.47-.72,15-1,2-3.3,4.61-5.75,4.85s-2.63-1.45-3.86-3a33.42,33.42,0,0,0-16.14-11.32A39.22,39.22,0,0,0,477,346.89a40.41,40.41,0,0,1-12.31-2.21c-6.38-2.11-13.31-4.66-19.28-.2a2.55,2.55,0,0,0-.9,3.42l13,20,.39-3c-2.94,2.7-6.35,5.49-10.28,6.61-4.7,1.34-6.71-1.29-9.56-4.6s-7.75-5.21-11.09-1.46a2.59,2.59,0,0,0,0,3.54,375.9,375.9,0,0,0,25.11,28.57,2.52,2.52,0,0,0,3.54,0,9.92,9.92,0,0,1,12-2.79l-.6-4.57a78.89,78.89,0,0,0-35.87,54.24c-1.84,11.51-2.07,24.95-11.11,33.55-8.73,8.31-22,9.41-33.39,8.34l2.5,2.5c0-12.13.44-24.25,1.49-36.33.9-10.35,1.11-22.52,6.45-31.77,5.62-9.75,16.81-9.2,25.24-15,6.12-4.18,10.19-11.78,6.45-18.82a2.52,2.52,0,0,0-4.32,0c-4.71,7.65-11.26,14.75-20.14,17.36-8.69,2.55-18.34.25-23.57-7.47-4.59-6.78-5.54-15.47-6.68-23.37q-2.29-15.76-4.56-31.53L367.79,345l18.41-4.56a2.57,2.57,0,0,0,1.75-3.08l-2.53-15.44c-.74-4.51-4.08-13.92-.78-17.73,2.7-3.12,9.18-4.72,12.82-6.4l14.09-6.52a2.51,2.51,0,0,0,1.15-2.82l-2-6.44a2.53,2.53,0,0,0-4.18-1.1c-8.12,8.06-17.42-3.55-21.63-9.67L382.74,275c10.36-1,13-11.1,13.63-19.91.1-1.39-.08-4.08.45-5.17a8,8,0,0,1,5.33-3.89c3.49-1,7-1.87,10.49-2.8l21-5.6c3.11-.83,1.79-5.65-1.33-4.82Z"/><path class="cls-3" d="M377.84,396.32c9.86,5.76,14.51,16.54,18.64,26.68a2.53,2.53,0,0,0,4.82,0,29.15,29.15,0,0,0-.1-22.43,2.51,2.51,0,0,0-4.91.66A30.88,30.88,0,0,0,397,411l4.82-1.33A9.27,9.27,0,0,0,398,404.9a2.51,2.51,0,0,0-3.76,2.16,21.14,21.14,0,0,0,2.13,7.74c1.15,2.36,4.56,1,4.66-1.26l.31-7.47-3.76,2.16c5.28,2.3,10.86.21,14-4.61,4.12-6.38,2-16.59,8.65-21.26l-3.76-2.16,1.18,13.29a2.51,2.51,0,0,0,4.91.66l.87-2.78c1-3.09-3.8-4.36-4.82-1.33l-3.07,9.16c-.75,2.22,1.85,3.71,3.67,2.82a13.44,13.44,0,0,0,6.55-6.65c1.35-2.88-2.87-5.43-4.32-2.52l-5.2,10.44c-1,2,1.25,5.09,3.42,3.42a22.38,22.38,0,0,0,8.12-11.42c.72-2.27-1.83-3.66-3.67-2.82a16.59,16.59,0,0,0-8.16,7.82c-1.46,2.85,2.67,5.31,4.32,2.52l1.63-2.76c1.64-2.78-2.68-5.3-4.32-2.52L416,400.29l4.32,2.52a12.45,12.45,0,0,1,6.37-6L423,394a16.5,16.5,0,0,1-5.82,8.43l3.42,3.42,5.2-10.44-4.32-2.52a9.38,9.38,0,0,1-4.75,4.86l3.67,2.82,3.07-9.16L418.61,390l-.87,2.78,4.91.66-1.18-13.29c-.15-1.71-2.07-3.35-3.76-2.16-3.7,2.61-5.67,6.21-6.83,10.55-1.23,4.58-2.5,18.91-10.74,15.32a2.54,2.54,0,0,0-3.76,2.16l-.31,7.47,4.66-1.26a11.52,11.52,0,0,1-1.45-5.22l-3.76,2.16L397,411c1.18,2.92,5.55,1.89,4.82-1.33a26.69,26.69,0,0,1-.53-8.44l-4.91.66a25.13,25.13,0,0,1,.1,19.78h4.82c-4.64-11.41-9.85-23.2-20.94-29.67-2.78-1.63-5.3,2.69-2.52,4.32Z"/><path class="cls-3" d="M574,240.82,565.73,254a2.52,2.52,0,0,0,.39,3,33,33,0,0,1,10,14.77c.88,2.62,4.88,2.25,4.91-.66l.13-12.91c0-2.11-.43-4.78.5-6.72.76-1.59,2-1.92,3-3.32,4.06-5.44-1.69-10.77-3.26-15.76-.88-2.81-4.63-2.08-4.91.66a24.87,24.87,0,0,1-6.81,14.78c-2.2,2.34,1.33,5.89,3.54,3.54A30.32,30.32,0,0,0,581.57,233l-4.91.66c.9,2.85,4.25,6.39,4.28,9.24s-3.32,3.77-4.28,6.46-.43,6-.46,8.77l-.13,12.91,4.91-.66a37.84,37.84,0,0,0-11.32-17l.39,3,8.3-13.14c1.72-2.73-2.6-5.24-4.32-2.52Z"/><path class="cls-3" d="M576.09,241l-2.68,7.89,4.82,1.33a9.92,9.92,0,0,1,2.1-5l-4.27-1.77c.29,3.23-3.38,5.45-4.74,8.16-1.23,2.44-1.45,5.18.16,7.47,1.83,2.62,6.17.12,4.32-2.52-1.67-2.39,1.94-5.16,3.24-6.94a8.8,8.8,0,0,0,2-6.17c-.17-1.91-2.76-3.6-4.27-1.77a14.72,14.72,0,0,0-3.39,7.18,2.5,2.5,0,0,0,4.82,1.33l2.68-7.89c1-3.05-3.79-4.36-4.82-1.33Z"/><path class="cls-3" d="M572.24,252.79l0,6.47c0,3.28,4.68,3.14,5,0a24.66,24.66,0,0,0-.6-8.27c-.75-3.13-5.57-1.8-4.82,1.33a20.52,20.52,0,0,1,.43,6.95h5l0-6.47c0-3.22-5-3.22-5,0Z"/><path class="cls-3" d="M529.87,346.71a11,11,0,0,0-1.43,8.35c.28,1.2.8,2.91,1.94,3.58a4.33,4.33,0,0,0,3.87,0,6.16,6.16,0,0,0,3.35-6.13c-.29-2.86-2.39-5-4.47-6.74-2.44-2.07-6,1.45-3.54,3.54a9.65,9.65,0,0,1,2.82,3c.16.36.23,1.87-.1,1.81l1.49,1.15a5.91,5.91,0,0,1,.39-6c1.72-2.73-2.6-5.24-4.32-2.52Z"/><path class="cls-3" d="M406.17,220.67c.47-4.25-3.86-5-7-3.78-7.42,2.86-14.57,7.19-21.7,10.74a2.51,2.51,0,0,0-.9,3.42c2.44,3.6,1.91,8.3-1.82,10.84-1.89,1.29-1.4,4.83,1.26,4.66l3.49-.22-2.41-1.84,2.29,5.84c.68,1.72,3.63,2.8,4.57.6,1.29-3,3.08-7.32,7-6.94,2.8.27,3.41-4.34.66-4.91s-3.47-3.8-2.33-6.17,3.66-3.86,5.76-5.08c3.67-2.13,7.31-3.87,10.2-7.06,1.19-1.31.84-3.76-1.1-4.18-2.85-.61-5.2.24-6.5,3-1.38,2.89,2.93,5.43,4.32,2.52l.85-.66-1.1-4.18c-5.09,5.63-14.64,6.89-17.44,14.71-1.75,4.9.69,10.86,6,12L391,239c-5.89-.57-9.26,4.61-11.31,9.42l4.57.6-2.29-5.84a2.58,2.58,0,0,0-2.41-1.84l-3.49.22,1.26,4.66a12.65,12.65,0,0,0,3.62-17.68l-.9,3.42,11.41-5.67c1.83-.91,9.52-3.66,9.73-5.61-.35,3.19,4.65,3.17,5,0Z"/><path class="cls-3" d="M383.24,231.79v-.68h-5l0,8.16c0,2.73,4.38,3.51,4.91.66L385,229.85l-4.91-.66a18.42,18.42,0,0,1-1.42,7c-1,2.36,1.9,5.4,3.93,3a10.5,10.5,0,0,0,2.5-8.82c-.41-2.83-4.92-2.09-4.91.66l0,6.44h5a10.46,10.46,0,0,1,1.76-7.41c1.8-2.68-2.53-5.18-4.32-2.52a14.68,14.68,0,0,0-2.44,9.93c.37,3.11,5,3.31,5,0l0-6.44-4.91.66a5.06,5.06,0,0,1-1.22,4l3.93,3a24.74,24.74,0,0,0,2.1-9.56c0-2.75-4.39-3.49-4.91-.66l-1.86,10.09,4.91.66,0-8.16c0-3.22-5-3.22-5,0v.68c0,3.22,5,3.22,5,0Z"/><path class="cls-3" d="M382.24,236.79l-.15,5.85,2.5-2.5c-1.65.15-4-.06-5.41.94a3.3,3.3,0,0,0-1.29,3.56,2.61,2.61,0,0,0,2.41,1.84c2.7,0,2.38-2.81,3.54-4.46a2.52,2.52,0,0,0-.9-3.42,2.55,2.55,0,0,0-3.42.9,9.12,9.12,0,0,0-1.53,4.37l.73-1.77-.12.12,1.77-.73h-.08l2.41,1.84a2.26,2.26,0,0,1-.25,1.5l-1.1.64a16.93,16.93,0,0,1,3.23-.32,2.56,2.56,0,0,0,2.5-2.5l.15-5.85c.08-3.22-4.92-3.22-5,0Z"/><path class="cls-3" d="M374.21,244.15a1.21,1.21,0,0,1,2.11.89L372,246.81l6,4.7a2.58,2.58,0,0,0,3.54,0,2.52,2.52,0,0,0,0-3.54l-6-4.7a2.55,2.55,0,0,0-2.73-.52,2.48,2.48,0,0,0-1.54,2.28,3.83,3.83,0,0,0,6.43,2.64c2.39-2.16-1.15-5.69-3.54-3.54Z"/><path class="cls-3" d="M385.29,226.8a28.64,28.64,0,0,0,1.09,11.64c.93,3.07,5.76,1.76,4.82-1.33a25,25,0,0,1-.91-10.31c.36-3.19-4.64-3.17-5,0Z"/><path class="cls-3" d="M243.78,213.77a5.89,5.89,0,0,1-4,4.93,2.55,2.55,0,0,0-1.49,3.67,17.54,17.54,0,0,0,8.21,8.22,2.61,2.61,0,0,0,3-.39,22.18,22.18,0,0,0,5.79-8.55c.63-1.6-.95-3.1-2.41-3.16l-8.86-.41,1.26,4.66a10.15,10.15,0,0,0,4.23-11c-.58-2.45-4.17-2.31-4.82,0l-3.15,11.13,4.91.66-.19-2.76c-.22-3.19-5.22-3.22-5,0l.19,2.76c.19,2.74,4.11,3.49,4.91.66l3.15-11.13h-4.82a4.94,4.94,0,0,1-1.93,5.33,2.52,2.52,0,0,0,1.26,4.66l8.86.41-2.41-3.16a16.71,16.71,0,0,1-4.5,6.34l3-.39a13.31,13.31,0,0,1-6.41-6.42l-1.49,3.67a11.15,11.15,0,0,0,7.71-9.76c.36-3.19-4.64-3.17-5,0Z"/><path class="cls-3" d="M246.76,214.71a1.73,1.73,0,0,1,2.56,1.91c-.24,1.59-2.24,2.42-3.62,2.52-3.19.24-3.21,5.25,0,5,4.46-.34,9.06-3.52,8.58-8.48a7.13,7.13,0,0,0-3.16-5.32c-2.25-1.39-4.58-.93-6.88.05a2.52,2.52,0,0,0-.9,3.42,2.56,2.56,0,0,0,3.42.9Z"/><path class="cls-3" d="M243.24,221.79v3.7c0,2.76,4.3,3.48,4.91.66l1.24-5.65a2.56,2.56,0,0,0-1.75-3.08,2.53,2.53,0,0,0-3.08,1.75l-1.24,5.65,4.91.66v-3.7c0-3.22-5-3.22-5,0Z"/><path class="cls-3" d="M261.51,221.05a7.49,7.49,0,0,1,9,1.8l2.43-4.18q-5.15-1.09-10.32-2.1c-3.14-.62-4.49,4.2-1.33,4.82q5.17,1,10.32,2.1a2.52,2.52,0,0,0,2.43-4.18,12.58,12.58,0,0,0-15-2.58c-2.87,1.46-.34,5.77,2.52,4.32Z"/><path class="cls-3" d="M198.32,338.37c-5.36,3.06-11,6.24-15.74,10.2-4,3.32-4.46,6.7-4.42,11.71,0,3,.07,6,.1,9,0,2.17-.64,5.89.17,7.9,1.45,3.62,14.43,4.52,12,9.23-1.46,2.86,2.85,5.39,4.32,2.52a7.35,7.35,0,0,0-1.15-8.67c-3-3.47-7.81-3.62-11.52-5.91l1.24,2.16-.11-10c0-3.05-.61-6.65-.09-9.66,1.11-6.43,12.51-11.31,17.7-14.27,2.79-1.59.28-5.92-2.52-4.32Z"/><path class="cls-3" d="M173,335.88l-5.66,21.82,4.91.66a66.52,66.52,0,0,1,1.45-18.66c.7-3.13-3.9-4.43-4.82-1.33l-3.63,12.26,4.91.66a26.59,26.59,0,0,1,2.73-9.85l-4.66-1.26.23,12.26c.05,3,3.92,3.21,4.91.66a73,73,0,0,1,7.22-13.87L176,337.33,171,352c-.93,2.67,3.25,4.43,4.57,1.93a89.13,89.13,0,0,1,7.89-12.41l-4.57-1.93a40.35,40.35,0,0,1-8.38,15.68l4.18,2.43A31.56,31.56,0,0,1,185.5,342l-3.93-3a108.23,108.23,0,0,1-10.31,15.87c-2,2.48,1.46,6,3.54,3.54a161.69,161.69,0,0,0,10.26-13.83L180.74,342a90.82,90.82,0,0,1-6.68,12.32l4.57,1.93a28.59,28.59,0,0,1,8.11-11.43l-4.18-2.43a26.88,26.88,0,0,1-5.51,9.35l3.93,3,11.1-15.61c1.87-2.63-2.47-5.13-4.32-2.52l-11.1,15.61c-1.64,2.31,2,5.14,3.93,3a33.37,33.37,0,0,0,6.8-11.56c.88-2.53-2.45-3.95-4.18-2.43a33.71,33.71,0,0,0-9.39,13.63c-1.06,2.75,3.1,4.2,4.57,1.93a90.82,90.82,0,0,0,6.68-12.32,2.5,2.5,0,0,0-4.32-2.52,149.63,149.63,0,0,1-9.47,12.81l3.54,3.54a115.34,115.34,0,0,0,11.09-16.88c1.41-2.64-1.77-4.74-3.93-3a36.1,36.1,0,0,0-12.12,17.87c-.72,2.31,2.53,4.34,4.18,2.43a46.11,46.11,0,0,0,9.66-17.88c.82-2.92-3-4.06-4.57-1.93a89.13,89.13,0,0,0-7.89,12.41l4.57,1.93,5.07-14.63c1-2.79-3.08-4.19-4.57-1.93a79,79,0,0,0-7.72,15.07l4.91.66-.23-12.26c0-2.35-3.52-3.58-4.66-1.26a33.4,33.4,0,0,0-3.41,12.37c-.23,2.88,4.13,3.29,4.91.66l3.63-12.26-4.82-1.33a71.5,71.5,0,0,0-1.63,20c.16,2.72,4.17,3.51,4.91.66l5.66-21.82c.81-3.12-4-4.45-4.82-1.33Z"/><path class="cls-3" d="M192,342.68c-4.49,6.51-10.84,13.53-12.38,21.51a28,28,0,0,0,3.59,19.16c2.44,3.78,6.94,6.27,11.29,4,4.58-2.42,5.47-8.63,5.67-13.23L197,376.5c2.8.6-.57,5.91-1.07,7.25a9.69,9.69,0,0,0-.59,5.7,11.79,11.79,0,0,0,2.54,4.63c.46.55,2,1.65,2.31,2.36l.81.76a3.14,3.14,0,0,1-3.47-1.16c-2.5-2-6.06,1.54-3.54,3.54,2.84,2.24,6.56,4.49,10,2,2.75-1.94,2.65-5,.84-7.52-2.22-3-5.45-4.06-4.17-8.71.61-2.22,2.17-4,2.39-6.34.32-3.39-1.33-6.64-4.77-7.38a2.54,2.54,0,0,0-3.16,2.41c-.13,3-1.21,12-6.45,8.18-3.11-2.28-4.11-8.64-4.41-12-.83-9.56,6.93-17.67,12-25,1.83-2.66-2.5-5.16-4.32-2.52Z"/><path class="cls-3" d="M185.35,343.4c-6.78,12.8-9.38,28.26.59,40.16,1.46,1.74,4.23.25,4.27-1.77.25-11.69-7.86-22.43-5.92-34.08l-4.91-.66a50.72,50.72,0,0,0,5.55,27.76c1.08,2.11,5,1.23,4.66-1.26a161.83,161.83,0,0,1-.61-32.18c.23-2.87-4.16-3.31-4.91-.66a118.42,118.42,0,0,0-4.52,33.73h5c-1.36-12.57-2.62-29.34,11-35.73l-3.42-3.42a85.34,85.34,0,0,0-8.32,14.82c-1.26,2.88,2.85,5.45,4.32,2.52a39,39,0,0,1,13.16-15.13l-3-3.93a53.06,53.06,0,0,0-12.09,34.62c.13,5,.54,11.46,4.41,15.16a8.34,8.34,0,0,0,11.3.46c2.52-2-1-5.52-3.54-3.54-5.09,4.06-6.84-6.86-7.07-9.72a46.05,46.05,0,0,1,.61-11.9,48,48,0,0,1,9.9-21.54c1.63-2-.48-5.65-3-3.93a44.06,44.06,0,0,0-15,16.92l4.32,2.52a85.34,85.34,0,0,1,8.32-14.82c1.57-2.25-1.39-4.37-3.42-3.42-15.38,7.2-15.07,25.68-13.52,40.05.34,3.12,5,3.29,5,0a113.55,113.55,0,0,1,4.34-32.4l-4.91-.66a161.83,161.83,0,0,0,.61,32.18l4.66-1.26A45.81,45.81,0,0,1,184.38,347c.24-2.78-4.45-3.45-4.91-.66-2.08,12.48,6,23.14,5.74,35.41l4.27-1.77c-8.41-10-5.42-23.51.19-34.1,1.51-2.84-2.81-5.37-4.32-2.52Z"/><path class="cls-3" d="M202,358.36a7.46,7.46,0,0,0,1.39,6.23c1.88,2.32,4.94,1.7,6.91,3.61,1.7,1.65,2.26,3.63,4.54,4.87a11.1,11.1,0,0,0,7.38,1,2.53,2.53,0,0,0,1.84-2.41l.24-3.75-2.5,2.5,3.9-.12c3.21-.1,3.22-5.1,0-5l-3.9.12a2.56,2.56,0,0,0-2.5,2.5l-.24,3.75,1.84-2.41c-4.33.72-5-2.43-7.16-4.92-1.58-1.78-7.33-1.83-6.91-4.62.48-3.15-4.33-4.5-4.82-1.33Z"/><path class="cls-3" d="M205.05,362.65c2.4-.45,5.15,4.65,7.18,5.84a6.28,6.28,0,0,0,6.54.14l-3.42-.9,1.7,2.57c1.32,2,4.68,1.32,4.66-1.26a2.51,2.51,0,0,1,.51-2.38l.9-3.42a5.21,5.21,0,0,0-2.75,4.58c-.31,3.2,4.69,3.18,5,0l.28-.27a2.55,2.55,0,0,0,.9-3.42,4.92,4.92,0,0,0-6-2.25c-3,1.05-3.81,4.33-3.79,7.16l4.66-1.26-1.7-2.57a2.56,2.56,0,0,0-3.42-.9c-2,1-5.09-4.07-6.59-5.16a7,7,0,0,0-5.93-1.32c-3.16.59-1.82,5.41,1.33,4.82Z"/><path class="cls-3" d="M266.32,488l.18.17a2.56,2.56,0,0,0,3,.39c3.79-2.24,0-7.58-3.44-4.81-1.72,1.37-2.49,4-3.31,6a66.11,66.11,0,0,0-2.81,8.1l4.57-.6a2.44,2.44,0,0,1-.34-1.73c.47-3.15-4.34-4.51-4.82-1.33a8.6,8.6,0,0,0,.84,5.59c1,2,4,1.39,4.57-.6a63.19,63.19,0,0,1,2-6.1c.68-1.76,1.41-4.5,2.84-5.74l-1.77.73.58-.07-1.77-.73.22.21-.73-1.77.85-1.42,3,.39-.18-.17c-2.34-2.2-5.89,1.33-3.54,3.54Z"/><path class="cls-3" d="M264.13,481.8a21.84,21.84,0,0,1-16.9,23.36c-3.14.71-1.81,5.53,1.33,4.82a26.78,26.78,0,0,0,20.57-28.19c-.29-3.18-5.29-3.21-5,0Z"/><path class="cls-3" d="M260.65,486.44a15.38,15.38,0,0,1-13.81,22.21l2.41,3.16.29-.58c3.05-1,1.75-5.81-1.33-4.82-2.17.7-3.37,1.78-3.78,4.07a2.54,2.54,0,0,0,2.41,3.16c15.51-.29,24.76-15.87,18.13-29.74-1.39-2.9-5.7-.37-4.32,2.52Z"/><path class="cls-3" d="M264.33,487.78a20.61,20.61,0,0,1-17.23,22.68l3.08,3.08,1.32-1.19c3.05-1,1.75-5.81-1.33-4.82a6.91,6.91,0,0,0-4.81,4.69c-.73,2,1.39,3.34,3.08,3.08a25.46,25.46,0,0,0,20.9-27.51c-.36-3.16-5.36-3.2-5,0Z"/><path class="cls-3" d="M572.89,423.89,560.69,416c-2.57-1.65-5.32-3.84-8.52-3.94-2.76-.09-4.19,1.23-5.53,3.45-1.61,2.67-2,3.64-5.15,4a19.92,19.92,0,0,1-5.72-.43c-1.72-.31-3.76,1.12-3.08,3.08,1.34,3.85,2.2,9.23,4.51,12.61,1.73,2.53,4.38,2.19,7.15,2,4.53-.24,9.06-.51,13.59-.71,5.16-.23,12.36-.65,14.13,5.59.63,2.23,3.34,2.26,4.57.6l3.42-4.62,1.14-1.54q1.82-1,.78-2.19-.78-1.39.14.17l1.49,2.46,3,4.91a2.52,2.52,0,0,0,4.66-1.26c.25-5.48-.49-11.08-6.09-13.44C578.57,424,569.73,424,562.7,424c-3.22,0-3.22,5,0,5a86,86,0,0,1,16.19,1.34c2.73.51,5.72.71,7,3.74.77,1.85.5,4.22.41,6.16l4.66-1.26c-1.73-2.84-4.46-10.89-8.85-10.45-1.34.13-2.11,1.09-2.92,2-2.48,2.85-4.59,6.19-6.84,9.24l4.57.6c-2-7.12-8.83-9.38-15.62-9.39-4.72,0-9.49.45-14.2.7-3.72.19-5.12,0-7-3.45-1.18-2.18-1.76-5-2.58-7.38l-3.08,3.08c4.93.88,11.47,1.52,15-2.91,1.35-1.69,1.18-3.73,4.54-3.29,1.31.17,3.12,1.95,4.18,2.62l12.2,7.86c2.71,1.75,5.22-2.58,2.52-4.32Z"/><path class="cls-3" d="M551.61,421.81a15.14,15.14,0,0,1-7.62,1.54v5l7.1-.26a2.51,2.51,0,0,0,.66-4.91,17.71,17.71,0,0,0-8-.85,2.54,2.54,0,0,0-1.77,4.27,4.26,4.26,0,0,0,4.92,1.48,2.52,2.52,0,0,0,1.1-4.18,7.87,7.87,0,0,0-6-2.43c-2.42,0-3.48,3.47-1.26,4.66a9.05,9.05,0,0,0,5.29,1.22c2.74-.17,3.48-4.12.66-4.91l-5.38-1.51a2.53,2.53,0,0,0-2.82,1.15,9.65,9.65,0,0,0-1.23,5.4l1.84-2.41-.28.1,2.43.64-.25-.32.64,2.43.09-.37-2.41,1.84c.44-.06,2.48,1.52,2.84,1.76l1.26-4.66-3.26-.11c-2.65-.09-3.16,3.33-1.26,4.66a11.47,11.47,0,0,0,13.35.06,2.52,2.52,0,0,0-1.26-4.66l-7.67-.26c-2.35-.08-3.58,3.63-1.26,4.66a15.44,15.44,0,0,0,14.08-.33c1.8-.92,1.54-4.24-.6-4.57a53.51,53.51,0,0,0-15.46-.12c-2.57.35-2.17,4.2,0,4.82,4.14,1.18,12.42,4,15.75-.41,3.07-4-1.16-8.25-4.46-10.28l-1.26,4.66a7,7,0,0,1,4.19,1.85c1.35,1,3.25-.1,3.67-1.49,2.16-7.14-7.6-10.29-8.42-2.95l4.91-.66-.67-2.72L549.62,421a35,35,0,0,0,10.71,8l.6-4.57-3.1,1.14c-1.82.67-2.7,3.56-.6,4.57a19.77,19.77,0,0,0,10,2.08c3.19-.18,3.24-5,0-5H556v5l6.29-.19c1.47,0,3-1.59,2.41-3.16a14.86,14.86,0,0,0-7.79-8.56c-2.37-1.11-5.37,2-3,3.93l6.3,5.29a2.52,2.52,0,0,0,4.18-2.43c-.27-1.35-1.81-4.16-3.39-4.37q-1.27-1.27-1.12,1.87,1.4.9,2.76,1.85c2.1,1.47,4.1,3,6.06,4.7l3-3.93-13.49-9.54c-2.29-1.62-5.26,2.17-3,3.93,1.21,1,14.58,10.93,13.19,12.07l3.54,3.54,5.43-6.31h-3.54l.46.39-.64-2.43c.51-1.73-3.15.36-3.69,1.36s.21,4.82.36,4.67c-1.94,2,.62,5.57,3,3.93l3.49-2.38-3.42-3.42-1.66,2.24,4.32,2.52,2.89-4.78c1.67-2.76-2.65-5.28-4.32-2.52l-2.89,4.78c-1.71,2.82,2.45,5,4.32,2.52l1.66-2.24c1.49-2-1.42-4.79-3.42-3.42l-3.49,2.38,3,3.93a4,4,0,0,0,1.25-2.25c.18-.89-.71-2.79-.44-3.4.46-1-.28.85.8.45a9.33,9.33,0,0,0,1.28-.53,3.61,3.61,0,0,0,1.73-2.51,2.46,2.46,0,0,0-.64-2.43l-.46-.39a2.54,2.54,0,0,0-3.54,0l-5.43,6.31a2.5,2.5,0,0,0,3.54,3.54c7.69-6.28-9.51-16.24-13.19-19.14l-3,3.93,13.49,9.54c2.3,1.63,5.21-2.1,3-3.93-3.05-2.57-10.73-10.89-15.28-7.64a3.57,3.57,0,0,0-1.42,3.87c.56,2.11,3.64,2.63,4,4.59l4.18-2.43-6.3-5.29-3,3.93a9.88,9.88,0,0,1,5.49,5.57l2.41-3.16-6.29.19c-3.21.1-3.23,5,0,5h11.29v-5a14.4,14.4,0,0,1-7.51-1.4l-.6,4.57,3.1-1.14c1.83-.67,2.69-3.55.6-4.57a31.29,31.29,0,0,1-9.69-7.25c-1.74-1.91-4.75.11-4.18,2.43l.67,2.72c.72,2.93,4.62,2,4.91-.66l-1.41,1.62,3.67-1.49a12.79,12.79,0,0,0-6.71-2.53c-2.61-.32-3.19,3.47-1.26,4.66a2.31,2.31,0,0,1,1.77,3.23,15.07,15.07,0,0,1-2.66-.24,43.57,43.57,0,0,1-6.55-1.43v4.82a44.74,44.74,0,0,1,12.8.12l-.6-4.57a10,10,0,0,1-9,.33l-1.26,4.66,7.67.26-1.26-4.66a6.82,6.82,0,0,1-8.3-.06l-1.26,4.66,3.26.11c2.61.09,3.23-3.36,1.26-4.66-1.6-1.06-3.31-2.71-5.36-2.44a2.61,2.61,0,0,0-2.41,1.84,3.16,3.16,0,0,0,.8,3.12,2.42,2.42,0,0,0,2.43.64l.28-.1a2.57,2.57,0,0,0,1.84-2.41l.55-2.87L540,425.74l5.38,1.51.66-4.91-2.77-.54L542,426.46l2.44,1,1.1-4.18-.05-.2-1.77,4.27a14.55,14.55,0,0,1,6.71.68l.66-4.91-7.1.26a2.5,2.5,0,0,0,0,5,20.43,20.43,0,0,0,10.14-2.22c2.88-1.44.35-5.75-2.52-4.32Z"/><path class="cls-3" d="M574.66,430.24l-17.72-10.11c-2.52-1.44-4.91,1.84-3,3.93a12.59,12.59,0,0,0,9.83,4.25c3.21,0,3.22-5,0-5a7.74,7.74,0,0,1-6.29-2.78l-3,3.93,17.72,10.11c2.8,1.6,5.32-2.72,2.52-4.32Z"/><path class="cls-3" d="M292.88,261a17.58,17.58,0,0,0-.18,8.78,2.49,2.49,0,0,0,1.75,1.75c5.74,1.63,12.37,3.28,17.89,0A11,11,0,0,0,318,259.89a2.51,2.51,0,0,0-3.67-1.49,8.24,8.24,0,0,1-9.12.76c-2.21-1.29-3.39-4.15-6.13-4.59a4.2,4.2,0,0,0-4.51,2.36,18.08,18.08,0,0,0-.09,5.25l3.67,2.82,1-7.28c.3-2.1-2.43-4.67-4.18-2.43-2.75,3.53-2.24,7.89,1.53,10.45l-1.15-2.82-1.14,3.26a2.54,2.54,0,0,0,1.15,2.82,7.59,7.59,0,0,0,8.49.08,2.57,2.57,0,0,0,.9-3.42,9.63,9.63,0,0,0-5.53-5c-2.18-.91-3.71,1.95-2.82,3.67a4.65,4.65,0,0,0,8.18.1l-3.42.9,4.11,2-1.15-2.82-.55.79,1.93,4.57a11.19,11.19,0,0,0,5.59-7.38c.76-3.13-4.06-4.46-4.82-1.33a6.32,6.32,0,0,1-3.29,4.39c-2.43,1.38-.81,5.42,1.93,4.57a5.37,5.37,0,0,0,4-4.28,2.56,2.56,0,0,0-1.15-2.82l-4.11-2a2.56,2.56,0,0,0-3.42.9l.45-.1-2.82,3.67a4.32,4.32,0,0,1,2.54,2.71l.9-3.42a2.49,2.49,0,0,1-3.44-.08l1.15,2.82,1.14-3.26a2.54,2.54,0,0,0-1.15-2.82q-1.51-1.4-.52-2.6l-4.18-2.43-1,7.28c-.28,1.93,1.66,4.18,3.67,2.82a4.9,4.9,0,0,0,2.27-4.43c0-.53-.18-1.09-.13-1.61.12-1.3-.38-.33,0-.1,1.14.78,1.93,2.07,3.15,2.85a13.11,13.11,0,0,0,14.59-.48l-3.67-1.49c.68,3.92-3.17,6.46-6.51,7-3.67.59-7.36-.57-10.86-1.56l1.75,1.75a12,12,0,0,1,.18-6.12c.85-3.11-4-4.43-4.82-1.33Z"/><path class="cls-3" d="M305.94,269.59l2.63-1.22a2.52,2.52,0,0,0,1.15-2.82,2.63,2.63,0,0,0-2.41-1.84,5.55,5.55,0,0,0-5.8,4.09c-.38,1.41.76,3.37,2.41,3.16a8.36,8.36,0,0,0,7.1-5.56,2.52,2.52,0,0,0-1.75-3.08,2.55,2.55,0,0,0-3.08,1.75c.11-.3-.07.15-.12.24a4.72,4.72,0,0,1-.28.45h0l-.18.19s-.47.45-.33.33a6.37,6.37,0,0,1-.86.5c.32-.14-.91.2-.5.15l2.41,3.16q.13-.43,0-.1l.13-.21q-.21.27.09-.06-.23.16,0,0t0,0a2.25,2.25,0,0,1,.36-.1h-.05a2.61,2.61,0,0,1,.49,0L306,264.05l-2.63,1.22a2.52,2.52,0,0,0-.9,3.42,2.56,2.56,0,0,0,3.42.9Z"/><path class="cls-3" d="M307.64,266.87c-1.18,2.4,3.49.17,3.8,0l-3-3.93c-3.52,3.15-8.39.46-8.27-4,.06-2.3-2.71-3.12-4.27-1.77a7,7,0,0,0-1.39,9c1.6,2.79,5.93.27,4.32-2.52a2.1,2.1,0,0,1,.61-2.9l-4.27-1.77a10,10,0,0,0,16.81,7.57c2.27-2-.62-5-3-3.93s-5.19,3.87-3.33,6.74c1.45,2.23,5.08,2.7,6.37.07,1.42-2.88-2.89-5.41-4.32-2.52Z"/><path class="cls-2" d="M213.14,398.63a4.83,4.83,0,0,0-4.4-3.36,2.51,2.51,0,0,0-2.5,2.5,2.56,2.56,0,0,0,2.5,2.5q-.65-.11-.25,0t-.2-.11a1.36,1.36,0,0,0,.36.21q-.44-.36-.24-.16l.14.15q-.36-.49-.15-.16-.22-.58-.09-.21a2.5,2.5,0,1,0,4.82-1.33Z"/><path class="cls-2" d="M194,379.23a40.36,40.36,0,0,1-.15-22.27.63.63,0,0,0-1.21-.33,41.7,41.7,0,0,0,.15,22.93.63.63,0,0,0,1.21-.33Z"/><path class="cls-2" d="M194.09,379.87a77.54,77.54,0,0,0,2.84-11.9c.12-.79-1.08-1.13-1.21-.33a77.54,77.54,0,0,1-2.84,11.9c-.25.77,1,1.1,1.21.33Z"/><path class="cls-2" d="M193.93,376.78a111.42,111.42,0,0,1,1.32-13.93l-1.23-.17-.42,7.08h1.25l0-8.28a.63.63,0,0,0-1.25,0l-.59,9.65h1.25a82.07,82.07,0,0,1,.66-9.61c.09-.69-1.1-.86-1.23-.17a39.51,39.51,0,0,0-.6,8.54.63.63,0,0,0,1.25,0V363a.63.63,0,0,0-1.25,0l-.54,7.67h1.25l.12-7c0-.69-1.11-.87-1.23-.17L191.59,370c-.14.79,1.07,1.12,1.21.33l1.44-8.3-1.23-.17.09,5.52c0,.67,1.13.89,1.23.17a62,62,0,0,0,.58-8.91.63.63,0,0,0-1.25,0L193,369.38c-.05.81,1.19.8,1.25,0l.6-7.68c.05-.69-1.1-.86-1.23-.17a60.6,60.6,0,0,0-.93,11.53c0,.68,1.09.88,1.23.17l1.69-9-1.23-.17-1.12,9.53c-.08.71,1.06.84,1.23.17l1.84-7.15a.63.63,0,0,0-1.21-.33,30.74,30.74,0,0,0-1,7,.63.63,0,0,0,1.23.17l1.56-6.33a.63.63,0,0,0-1.21-.33,40.39,40.39,0,0,0-1.6,7.75h1.25a15.29,15.29,0,0,1,2.29-6.74c.38-.62-.47-1.22-1-.76a14,14,0,0,0-2.58,3.1l1.14.48a52.13,52.13,0,0,1,2.34-5.07c.38-.71-.7-1.34-1.08-.63a55.34,55.34,0,0,0-2.47,5.37c-.27.68.78,1.06,1.14.48a13.17,13.17,0,0,1,2.39-2.85l-1-.76a16.93,16.93,0,0,0-2.46,7.37c-.08.8,1.16.79,1.25,0a38.7,38.7,0,0,1,1.55-7.42l-1.21-.33L194.12,373l1.23.17a29.45,29.45,0,0,1,1-6.63l-1.21-.33-1.84,7.15,1.23.17,1.12-9.53c.08-.7-1.1-.86-1.23-.17l-1.69,9,1.23.17a58.74,58.74,0,0,1,.88-11.2l-1.23-.17-.6,7.68h1.25l.67-10.72h-1.25a59.57,59.57,0,0,1-.54,8.58l1.23.17-.09-5.52c0-.68-1.1-.88-1.23-.17l-1.44,8.3,1.21.33,1.12-6.47-1.23-.17-.12,7c0,.81,1.19.79,1.25,0l.54-7.67h-1.25v6.92h1.25a37.74,37.74,0,0,1,.55-8.21l-1.23-.17a82.07,82.07,0,0,0-.66,9.61.63.63,0,0,0,1.25,0l.59-9.65h-1.25l0,8.28a.63.63,0,0,0,1.25,0l.42-7.08c0-.69-1.12-.87-1.23-.17a114.11,114.11,0,0,0-1.37,14.26c0,.8,1.22.8,1.25,0Z"/><path class="cls-2" d="M203.76,382.62c-.52,2.33-4,3.27-3.09,6,.4,1.25,1.62,2.05,2.48,3a20.16,20.16,0,0,1,3.95,6.32c.3.74,1.51.41,1.21-.33a22.23,22.23,0,0,0-4.58-7.2c-1-1-1.32-1-1.24-2.65s.17-1.41,1-2.33A5,5,0,0,0,205,383c.17-.78-1-1.12-1.21-.33Z"/><path class="cls-2" d="M202,385.47a17.74,17.74,0,0,0,2.26,6.34.63.63,0,0,0,1.14-.48l-1.14-3.73a.63.63,0,0,0-1.21,0c-.59,1.6-.6,1.15,0,2.73a.63.63,0,0,0,1.23-.17,4.37,4.37,0,0,0-.91-3.48c-.27-.39-1-.43-1.14.15a4.15,4.15,0,0,0,.67,3.48.63.63,0,0,0,1.16-.32l.17-10.06a.63.63,0,0,0-1.23-.17c-1.09,3.92-3.18,7.77-.43,11.35a18.6,18.6,0,0,0,1.76,1.78c2.57,2.54,1.38,1.31,2.62,6.53.69,2.9,1.12,8.76-1.87,9.89a.63.63,0,0,0-.28,1,19.68,19.68,0,0,1,3.29,4.54c.38.71,1.46.08,1.08-.63s-2.59-3.29-2.53-4,1.59-1.46,2-2.09c1.3-1.86,1-3.52.61-5.56-.54-2.52,0-5.56-1.49-7.9-.89-1.43-2.33-2.39-3.47-3.59-3-3.2-1.14-7.38-.12-11.07l-1.23-.17L202.84,390l1.16-.32-.54-2.52-1.14.15.74,2.85,1.23-.17,0-2.07h-1.21l1.14,3.73,1.14-.48a17.56,17.56,0,0,1-2.13-6c-.13-.79-1.33-.46-1.21.33Z"/><path class="cls-2" d="M204.24,410.8c3.28,3.31,6.83,7.86,11.46,9.13,1.4.38,2.17.14,3.54,1,.1.06.06.39.25.49a2.7,2.7,0,0,0,2.62.34,2.66,2.66,0,0,0,1.13-4.29c-1.35-1.77-3.9-2.84-5.58-4.29a37.18,37.18,0,0,1-6.41-7.35.63.63,0,0,0-1.14.15,7.17,7.17,0,0,0,.08,5.07c.22.62,1.28.58,1.23-.17a18.82,18.82,0,0,0-.74-4.2.63.63,0,0,0-1.21,0,8.22,8.22,0,0,0-.33,3.33c.07.79,1.27.82,1.25,0l-.09-4c0-.59-.88-.9-1.16-.32a8.72,8.72,0,0,0-1,4.61.63.63,0,0,0,1.07.44l.17-.18a.64.64,0,0,0,.1-.76,1,1,0,0,0-1-.65.61.61,0,0,0-.54.31c-.37.73-.24,1.24-1.06.13l-1,.76a3.15,3.15,0,0,0,1.64,1c.36.08,1.69-.27,1.92-.19,1,.37,2.32,2.27,3.58,2.91.45.23,1.1-.16.92-.71a5.71,5.71,0,0,0-3.75-3.88c-.46-.17-.89.34-.77.77a10.23,10.23,0,0,0,1.87,3.7c.41.53,1.17-.06,1-.61-.68-2.9-4.22-1.37-4.84-3.35l-.92.71a16,16,0,0,1,4.22,3.43c.47.53,1.35-.16,1-.76a9.65,9.65,0,0,0-2.41-2.76c-.5-.4-1.44.13-1,.76a11,11,0,0,0,5.65,4.14.63.63,0,0,0,.71-.92,8.65,8.65,0,0,0-6.08-3.81c-.48-.07-1,.42-.71.92a10.85,10.85,0,0,0,4.9,4.12c.54.24,1.19-.27.86-.86a7.46,7.46,0,0,0-4.72-3.69.63.63,0,0,0-.61,1,11.15,11.15,0,0,0,4.27,3.32c.37.17,1,0,.94-.54a2.61,2.61,0,0,0-2.87-2.63.63.63,0,0,0-.32,1.16l4.08,2.84.32-1.16-1.91-.19a.63.63,0,0,0-.6.79,2.87,2.87,0,0,0,1.61,2.15.63.63,0,0,0,.92-.37,2.38,2.38,0,0,0-1.81-3,.63.63,0,0,0-.77.77,2.79,2.79,0,0,0,2,2.06c.56.22.91-.48.71-.92l-3.68-7.9c-.33-.7-1.23-.15-1.14.48a4.87,4.87,0,0,0,.66,2.22c.26.58,1.18.27,1.16-.32a7.61,7.61,0,0,0-.34-2.64l-1.14.48a13.41,13.41,0,0,0,1.79,2.64.63.63,0,0,0,1.07-.44v-3c0-.58-.9-.91-1.16-.32a3,3,0,0,0-.1,2.83l1.14-.48-1.91-3.71a.63.63,0,0,0-1-.13,6.2,6.2,0,0,0-2,4.23l1.07-.44c-1-.85-1.1-1-.35-2.11l-1.14-.48c-.85,2.44,2.44,2.13,3.1-.27l-1.14.15c2.3,3,1.63,9.39,6.8,9.33.83,0,.77-1.15,0-1.25a2.08,2.08,0,0,0-2.29,3c.11.28.43.57.77.44,1.33-.54,1.81-1.1,1.7-2.59a.65.65,0,0,0-.62-.62c-2.61-.31-2.72,3.21-.06,3.08a.64.64,0,0,0,.6-.46,1.85,1.85,0,0,0-2-2.52.63.63,0,0,0-.17,1.23,2,2,0,0,0,2.76-2.15.64.64,0,0,0-.62-.62c-2-.11-2.09-1.09.08-3.44.55-.59-.34-1.48-.88-.88a5.83,5.83,0,0,0-1.71,4.84.64.64,0,0,0,.63.63q1.84-.11.09.42L214.7,417l1.92-.27v-1.25c-3.82,0-4-6.44-5.72-8.71a.63.63,0,0,0-1.14.15l-.69.94c.25-.71-.76-1-1.14-.48L206.83,409a.63.63,0,0,0,.1.76l1.54,1.29a.63.63,0,0,0,1.07-.44l1.59-3.35-1-.13,1.91,3.71c.32.62,1.41.18,1.14-.48l0-1.87-1.16-.32v3l1.07-.44a8.48,8.48,0,0,1-1.6-2.39c-.34-.65-1.3-.19-1.14.48l.3,2.31,1.16-.32-.53-1.92-1.14.48,3.68,7.9.71-.92-1.12-1.19-.77.77.94,1.42.92-.37-1-1.4-.6.79,1.91.19c.67.07.77-.85.32-1.16L211,412.56l-.32,1.16,1.62,1.38.94-.54a10.59,10.59,0,0,1-4-3.13l-.61,1a6.11,6.11,0,0,1,4,3.11l.86-.86a9.77,9.77,0,0,1-4.45-3.67l-.71.92a7.43,7.43,0,0,1,5.34,3.24l.71-.92a9.37,9.37,0,0,1-4.9-3.56l-1,.76a6.43,6.43,0,0,1,2.22,2.5l1-.76a16.83,16.83,0,0,0-4.48-3.63.63.63,0,0,0-.92.71,3,3,0,0,0,1.45,1.95c1,.68,2.92-.59,3.39,1.4l1-.61a6.85,6.85,0,0,1-1.55-3.15l-.77.77,2.88,3,.92-.71a7.24,7.24,0,0,1-3.19-3.23.63.63,0,0,0-.86-.22l-2.83,0c-.5-.44-1.43.15-1,.76l.83,1.13a.63.63,0,0,0,.54.31l1.13-.15c.3,0,.67-.26.63-.62l-.56-1,1.07.44a6.23,6.23,0,0,1,.84-4l-1.16-.32.09,4h1.25a5.38,5.38,0,0,1,.28-3h-1.21a12,12,0,0,1,.69,3.87l1.23-.17a5.06,5.06,0,0,1-.08-4.41l-1.14.15a39.52,39.52,0,0,0,5.68,6.77,37.11,37.11,0,0,0,3,2.5c.39.3,1.86,1,2,1.43.26.67-.69,2.77-.49,2.74-.1,0-.69-.82-.9-1-1-.68-2.76-.45-3.89-.66-3.92-.73-7.69-5.63-10.45-8.42a.63.63,0,0,0-.88.88Z"/><path class="cls-2" d="M209.88,411.79l-1.31-.41-.17,1.23a2.29,2.29,0,0,1,1.8,1.34.63.63,0,0,0,1.16-.32,3.55,3.55,0,0,0-3.49-3.48.63.63,0,0,0-.54.94,14,14,0,0,0,2.47,2.88.63.63,0,0,0,1-.28,1.44,1.44,0,0,0-2.08-1.65.63.63,0,0,0-.13,1l1.85,2.14a.63.63,0,0,0,1-.61,2.53,2.53,0,0,0-1.95-1.75.63.63,0,0,0-.71.92,6.66,6.66,0,0,0,2.32,2.61c.55.37,1.12-.34.86-.86l-1.22-2.4a.63.63,0,0,0-1.16.32,3,3,0,0,0,1.6,2.79.63.63,0,0,0,.76-1,5.24,5.24,0,0,1-1-1.84l-1.14.48,1,1.31.86-.86-3.44-2.24.29.71a2,2,0,0,1,2.78-1.41c.74.3,1.07-.91.33-1.21a3.27,3.27,0,0,0-4.32,2.28.65.65,0,0,0,.29.71l3.44,2.24c.5.33,1.24-.35.86-.86l-1-1.31c-.39-.52-1.38-.25-1.14.48a6.85,6.85,0,0,0,1.33,2.39l.76-1a1.76,1.76,0,0,1-1-1.71l-1.16.32,1.22,2.4.86-.86A5.42,5.42,0,0,1,210,413.1l-.71.92a1.29,1.29,0,0,1,1.07.88l1-.61-1.85-2.14-.13,1q.3,0,.25.23l1-.28a12.78,12.78,0,0,1-2.27-2.63l-.54.94a2.28,2.28,0,0,1,2.24,2.23l1.16-.32a3.55,3.55,0,0,0-2.88-2c-.72-.09-.81,1-.17,1.23l1.31.41c.77.24,1.1-1,.33-1.21Z"/><line class="cls-4" x1="54" x2="54" y2="36"/><line class="cls-4" y1="54" x2="36" y2="54"/><line class="cls-4" y1="654" x2="36" y2="654"/><line class="cls-4" x1="54" y1="708" x2="54" y2="672"/><line class="cls-4" x1="654" x2="654" y2="36"/><line class="cls-4" x1="708" y1="54" x2="672" y2="54"/><line class="cls-4" x1="708" y1="654" x2="672" y2="654"/><line class="cls-4" x1="654" y1="708" x2="654" y2="672"/></g></g></svg>