<svg xmlns="http://www.w3.org/2000/svg" viewBox="0 0 816 816"><defs><style>.cls-1{fill:#ffc658;}.cls-2{fill:#cc9e46;}.cls-3{fill:#fff;}.cls-4{fill:#fffdff;}.cls-5{fill:none;stroke:#000;stroke-width:0.3px;}</style></defs><title>107</title><g id="图层_2" data-name="图层 2"><g id="图层_1-2" data-name="图层 1"><path class="cls-1" d="M273.23,549.52l132-19.66,24.5-95L568.29,211.73,667,311h0V215.33c0-23-40.29-63.33-90-63.33H245c-49.71,0-90,40.29-90,63.33v332C155,623.71,195.29,664,245,664H388.07Z"/><path class="cls-2" d="M667,547.33C667,623.71,626.7,664,577,664h0c49.71,0,90-40.29,90-116.67V311h0Z"/><path class="cls-2" d="M667,547.33V311l-98.71-99.29L429.74,434.86l-24.5,95-132,19.66L388.07,664H577C626.7,664,667,623.71,667,547.33Z"/><polygon class="cls-3" points="453.98 455.59 557.73 455.59 557.73 390.88 483.04 390.88 568.29 211.93 491.09 211.93 414.81 372.15 338.53 211.93 261.99 211.93 347.24 390.88 272.14 390.88 272.14 455.59 374.58 455.59 374.58 485.01 273.23 485.01 273.23 549.72 374.58 549.72 374.58 625.66 453.98 625.66 453.98 549.72 558.82 549.72 558.82 485.01 453.98 485.01 453.98 455.59"/><polygon class="cls-4" points="453.98 452.39 557.73 452.39 557.73 387.68 482.04 387.68 566.29 211.73 490.09 211.73 414.81 368.95 339.53 211.73 263.34 211.73 347.59 387.68 272.14 387.68 272.14 452.39 374.58 452.39 374.58 481.81 273.23 481.81 273.23 546.52 374.58 546.52 374.58 622.46 453.98 622.46 453.98 546.52 558.82 546.52 558.82 481.81 453.98 481.81 453.98 452.39"/><line class="cls-5" x1="108" y1="54" x2="108" y2="90"/><line class="cls-5" x1="54" y1="108" x2="90" y2="108"/><line class="cls-5" x1="54" y1="708" x2="90" y2="708"/><line class="cls-5" x1="108" y1="762" x2="108" y2="726"/><line class="cls-5" x1="708" y1="54" x2="708" y2="90"/><line class="cls-5" x1="762" y1="108" x2="726" y2="108"/><line class="cls-5" x1="762" y1="708" x2="726" y2="708"/><line class="cls-5" x1="708" y1="762" x2="708" y2="726"/><line class="cls-5" x1="54" x2="54" y2="36"/><line class="cls-5" y1="54" x2="36" y2="54"/><line class="cls-5" y1="762" x2="36" y2="762"/><line class="cls-5" x1="54" y1="816" x2="54" y2="780"/><line class="cls-5" x1="762" x2="762" y2="36"/><line class="cls-5" x1="816" y1="54" x2="780" y2="54"/><line class="cls-5" x1="816" y1="762" x2="780" y2="762"/><line class="cls-5" x1="762" y1="816" x2="762" y2="780"/></g></g></svg>