<svg xmlns="http://www.w3.org/2000/svg" viewBox="0 0 719.34 719.34"><defs><style>.cls-1{fill:#025098;}.cls-2,.cls-6{fill:none;}.cls-2{stroke:#001c58;stroke-miterlimit:10;stroke-width:4px;}.cls-3{fill:#001c58;}.cls-4{font-size:506.94px;}.cls-4,.cls-5{fill:#fff;font-family:BritannicBold, Britannic Bold;}.cls-5{font-size:504.17px;}.cls-6{stroke:#000;stroke-width:0.3px;}</style></defs><title>11</title><g id="图层_2" data-name="图层 2"><g id="图层_1-2" data-name="图层 1"><path class="cls-1" d="M621.78,499c0,76.37-40.29,116.67-90,116.67h-332c-49.71,0-90-40.29-90-116.67V167c0-23,40.29-63.33,90-63.33h332c49.71,0,90,40.29,90,63.33Z"/><line class="cls-2" x1="332.84" y1="189.78" x2="397.51" y2="249.11"/><line class="cls-2" x1="332.84" y1="189.78" x2="332.84" y2="265.78"/><line class="cls-2" x1="332.84" y1="265.78" x2="352.18" y2="256.45"/><line class="cls-2" x1="352.18" y1="256.45" x2="352.18" y2="241.78"/><path class="cls-3" d="M345.48,221.12q-1.75,10.35-2.9,20.78c-.35,3.22,4.58,3.12,5,0a117.24,117.24,0,0,0,1-18.42c-.07-2.69-4.43-3.55-4.91-.66Q342,233.06,341.1,243.4c-.24,2.79,4.38,3.43,4.91.66,1.48-7.7,1.49-15.42,1.32-23.23-.06-2.69-4.44-3.55-4.91-.66a194.43,194.43,0,0,0-2.31,22.32h5q.43-12.14.18-24.29c-.07-3.27-4.69-3.15-5,0q-1.18,11.86-2.06,23.73h5l.36-25.92c0-3.23-4.86-3.21-5,0a251.39,251.39,0,0,1-2.85,26.08c-.46,3.14,4.32,4.51,4.82,1.33,1.36-8.74,1.28-17.46,1-26.27-.09-3.21-5-3.23-5,0l.28,20.55c0,3.22,5,3.22,5,0l.21-19.92c0-3.22-5-3.22-5,0l-.21,19.92h5l-.28-20.55h-5c.24,8.33.43,16.68-.85,24.94l4.82,1.33a264.28,264.28,0,0,0,3-27.41h-5l-.36,25.92c0,3.25,4.76,3.17,5,0q.88-11.88,2.06-23.73h-5q.24,12.15-.18,24.29c-.11,3.22,4.86,3.21,5,0a182.75,182.75,0,0,1,2.14-21l-4.91-.66c.16,7.35.25,14.65-1.14,21.9l4.91.66q.82-9.68,2.39-19.25l-4.91-.66a117.24,117.24,0,0,1-1,18.42h5q1.07-9.77,2.72-19.45c.53-3.15-4.28-4.5-4.82-1.33Z"/><path class="cls-3" d="M332.66,195.45a18.67,18.67,0,0,0,.78,5.33,2.5,2.5,0,1,0,4.82-1.33,13.66,13.66,0,0,1-.6-4c0-3.22-5-3.22-5,0Z"/><path class="cls-3" d="M334.64,198.76a229.74,229.74,0,0,0-2.58,34.62c.16,11.43,2.81,23.26-1,34.35l4.91.66.3-1.28c1-3.08-3.87-4.4-4.82-1.33a11.42,11.42,0,0,0-.48,2.61c-.27,2.95,4,3.18,4.91.66,3.58-10.37,1.72-21.1,1.3-31.79a211.25,211.25,0,0,1,2.29-37.18c.43-3.15-4.38-4.51-4.82-1.33Z"/><path class="cls-3" d="M334.51,202.43q2.86,17.76,6.43,35.39a2.52,2.52,0,0,0,4.18,1.1c4.09-4.28,3.29-10.44,2.67-15.89a77.78,77.78,0,0,0-5.39-20.82c-.82-2-4.31-2.71-4.82,0a89.16,89.16,0,0,0-.59,29.73c.25,1.71,2.4,2.14,3.67,1.49,3.64-1.83,3.93-5.78,4-9.44a88.27,88.27,0,0,0-1.92-18.34c-.65-3.22-5.24-1.76-4.82,1.33,1.28,9.43,2.82,18.74,7.39,27.21a2.53,2.53,0,0,0,3.93.51c3.08-3,1.44-6.9.42-10.53l-5.12-18.29-4.82,1.33c3.87,12.14,8.07,24.34,17,33.74,1.68,1.76,5,0,4.18-2.43a91.24,91.24,0,0,0-12.2-24.16c-1.54-2.17-5.49-1-4.57,1.93a57.15,57.15,0,0,0,16.11,25.15,2.51,2.51,0,0,0,3.93-3,104.27,104.27,0,0,0-14.39-21.69c-2-2.34-5,.65-3.93,3A67.23,67.23,0,0,0,361,241.48a2.51,2.51,0,0,0,3.93-3l-16.84-30-3.93,3,9.17,10.22c1.86,2.07,5.67-.75,3.93-3A51.76,51.76,0,0,0,346,207.8c-2.42-1.73-4.81,1.91-3,3.93l24.55,27.71c2.15,2.43,5.58-1.1,3.54-3.54L360.26,223c-1.58-1.88-5,.13-4.18,2.43a37.6,37.6,0,0,0,10.37,15.33,2.51,2.51,0,0,0,3.93-3,29.84,29.84,0,0,0-7.12-8.76,2.51,2.51,0,0,0-3.93,3l6.48,12.84,2.82-3.67a91.1,91.1,0,0,0-10.81-2.29c-3.1-.46-4.5,3.88-1.33,4.82a17.6,17.6,0,0,0,13.1-1.07c2.44-1.13,1-4.5-1.26-4.66a12.29,12.29,0,0,0-8.64,2.45c-1.75,1.26-1.48,5,1.26,4.66a53.09,53.09,0,0,0,13.1-3.22l-2.43-4.18-3.53,4.19a2.52,2.52,0,0,0,2.43,4.18,10.88,10.88,0,0,0,5.08-2.63c1.49-1.28.57-3.66-1.1-4.18A65.88,65.88,0,0,0,350,236.48l2.16,3.76a4.37,4.37,0,0,1,3-3L352,234.86a136.77,136.77,0,0,1-1.43,16.46c-.38,2.52,3.3,4.76,4.57,1.93a35.79,35.79,0,0,0,2-24.33c-.67-2.52-4-2.22-4.82,0a69.84,69.84,0,0,0-4.12,24.63c0,2,2.81,3.48,4.27,1.77,6.12-7.16,5.89-16.26,4.56-25.1-.4-2.67-4.09-2.06-4.82,0a70.07,70.07,0,0,0-4.09,20.16c-.2,4-.26,8.57,4.54,9.13a2.49,2.49,0,0,0,2.41-1.84,43.15,43.15,0,0,0-1-18.16c-1-3.57-3.12-11.56-7.44-12.31-4.85-.85-4.54,6.22-4.86,9.28a111.71,111.71,0,0,0,.3,24.79c.29,2.4,3.22,3.48,4.66,1.26,2.7-4.16,3.22-8.79,3.38-13.66.23-6.86.33-13.73.5-20.59.07-2.75-4.45-3.5-4.91-.66l-3.42,21.26c-.7,4.32-2.91,10.28-.25,14.28,1.14,1.71,4,1.6,4.57-.6a248.54,248.54,0,0,0,4.76-28.61c.35-2.83-4.23-3.34-4.91-.66a285.13,285.13,0,0,0-6.2,31.73,2.5,2.5,0,0,0,4.82,1.33,49.85,49.85,0,0,0,1.1-31.69,2.53,2.53,0,0,0-4.57-.6,42.5,42.5,0,0,0-7.19,29.46,2.55,2.55,0,0,0,2.5,2.5c4.75-.25,5.45-4.94,6-8.85a102,102,0,0,0,1-20.49c-.16-3.3-4.6-3.12-5,0q-1.55,11.93-2.26,23.94h5a133,133,0,0,1,1-16.08h-5a126.62,126.62,0,0,0,0,17.74,2.52,2.52,0,0,0,4.66,1.26c4.47-6.27,3.29-13.88,1.74-21a2.53,2.53,0,0,0-4.57-.6c-1.87,3.55-5.42,11.51.23,13.6s13.92-1.48,18.57-4.59h-2.52a9.78,9.78,0,0,0,6.12,1.2,2.55,2.55,0,0,0,2.41-3.16l-.59-3.18-3.08,3.08,2.43.74,1.93-4.57a25.11,25.11,0,0,0-6.86-1.09c-3.22-.08-3.22,4.92,0,5a20.21,20.21,0,0,1,5.53.91c2.67.81,4.48-3.27,1.93-4.57a9,9,0,0,0-3.62-1.25,2.54,2.54,0,0,0-3.08,3.08l.59,3.18,2.41-3.16a4.64,4.64,0,0,1-3.6-.52,2.52,2.52,0,0,0-2.52,0,24.34,24.34,0,0,1-9.74,4l-2.54.23q-2.41.81-1.57-1.55c-.26-1.45,1.26-3.68,1.89-4.88l-4.57-.6c1.27,5.79,2.44,11.94-1.23,17.1l4.66,1.26a126.62,126.62,0,0,1,0-17.74c.23-3.26-4.62-3.11-5,0a133,133,0,0,0-1,16.08c0,3.24,4.81,3.19,5,0q.71-12,2.26-23.94h-5a101.62,101.62,0,0,1-.09,12.65c-.12,1.66-.63,11.63-1.94,11.7l2.5,2.5a38.29,38.29,0,0,1,6.5-26.94l-4.57-.6a45.21,45.21,0,0,1-1.1,29l4.82,1.33a285.13,285.13,0,0,1,6.2-31.73l-4.91-.66a236.92,236.92,0,0,1-4.58,27.28l4.57-.6c-1.45-2.18.06-6.13.44-8.5l1.24-7.73,2.49-15.46-4.91-.66-.41,16.85c-.12,5.14.1,10.4-2.79,14.88l4.66,1.26a115.63,115.63,0,0,1-.87-13.34q0-3.82.25-7.64c.15-2.18,1.07-5.14.76-7.27q.85-3.29-1.12.22.79,1.41,1.46,2.89a36.46,36.46,0,0,1,2.11,6.28,36.88,36.88,0,0,1,.61,13.94l2.41-1.84c.11,0,1.23-11.25,1.28-11.58a68.93,68.93,0,0,1,3.09-11.38h-4.82c1,6.84,1.52,14.64-3.27,20.24l4.27,1.77a65.91,65.91,0,0,1,3.94-23.3h-4.82a30.2,30.2,0,0,1-1.55,20.48l4.57,1.93A147.86,147.86,0,0,0,357,234.86a2.52,2.52,0,0,0-3.16-2.41,9.48,9.48,0,0,0-6,5.28c-.71,1.57.09,3.92,2.16,3.76a62.11,62.11,0,0,1,23.16,2.58l-1.1-4.18-2.87,1.35,2.43,4.18,3.53-4.19c1.43-1.69.13-5.18-2.43-4.18a47.92,47.92,0,0,1-11.77,3l1.26,4.66a9,9,0,0,1,6.12-1.77l-1.26-4.66a12.29,12.29,0,0,1-9.25.56l-1.33,4.82A91.1,91.1,0,0,1,367.3,246a2.53,2.53,0,0,0,2.82-3.67l-6.48-12.84-3.93,3a26.28,26.28,0,0,1,6.34,7.75l3.93-3a32.45,32.45,0,0,1-9.09-13.12l-4.18,2.43,10.84,12.88,3.54-3.54-24.55-27.71-3,3.93a43.67,43.67,0,0,1,9.43,9.1l3.93-3L347.7,208c-1.93-2.15-5.29.6-3.93,3l16.84,30,3.93-3a63.58,63.58,0,0,1-14.37-20.74l-3.93,3a99.05,99.05,0,0,1,13.61,20.68l3.93-3a52,52,0,0,1-14.83-22.94l-4.57,1.93a86.68,86.68,0,0,1,11.7,23l4.18-2.43c-8.35-8.75-12.15-20.23-15.76-31.53-1-3-5.69-1.79-4.82,1.33L343,219.08c.49,1.75,4.08,10.69,2.65,12.06l3.93.51c-4.36-8.07-5.67-17-6.89-26L337.87,207a84.61,84.61,0,0,1,1.59,11.68c.14,2.25,1.29,9.15-1.33,10.47l3.67,1.49a81.55,81.55,0,0,1,.59-27.07h-4.82a77.19,77.19,0,0,1,4.48,14.77c.83,4.35,3,13.41-.47,17.08l4.18,1.1q-3.57-17.63-6.43-35.39c-.51-3.17-5.33-1.82-4.82,1.33Z"/><path class="cls-3" d="M352.9,221.61a43.14,43.14,0,0,0,12.83,15.21c2.4,1.82,4.75-1.91,3-3.93l-11.38-13.34-3,3.93,11.68,7c2.09,1.25,4.81-1.29,3.42-3.42a58.57,58.57,0,0,0-13.79-14.73c-2.22-1.69-4.32,1.45-3.42,3.42a30.88,30.88,0,0,0,8.92,11.5c2,1.62,5.74-.53,3.93-3a169.27,169.27,0,0,0-12.48-15.31c-1.92-2.09-5.43.62-3.93,3l4.65,7.45,3.93-3c-3.8-4.79-7.4-9.86-11.47-14.43-2.57-2.89-5.38-4.64-9.27-3.79A2.52,2.52,0,0,0,335,201.8,98,98,0,0,0,350.41,220c2,1.88,5.46-.53,3.93-3l-3.56-5.82-3.93,3a227.89,227.89,0,0,0,17.83,17.08c2.41,2.07,5.88-1.27,3.54-3.54l-4.2-4.06c-2.32-2.24-5.75,1.2-3.54,3.54a53.67,53.67,0,0,0,13.34,10.31c2.38,1.3,5.31-2.06,3-3.93a52,52,0,0,0-9.91-6.47c-1.49-.74-4,.12-3.76,2.16a20.7,20.7,0,0,0,9.07,15c2.18,1.51,4.51-1.37,3.42-3.42l-3.28-6.18c-1.51-2.85-5.78-.33-4.32,2.52a36.68,36.68,0,0,0,4.57,6.85c1.82,2.18,5.45-.66,3.93-3a35.69,35.69,0,0,0-6.29-7.43,2.5,2.5,0,0,0-3.54,3.54,36.69,36.69,0,0,0,7,6.21c1.7,1.16,4.5-.81,3.67-2.82A35.49,35.49,0,0,0,368.92,228c-2.36-2.24-5.63,1.12-3.54,3.54l8.56,9.85c1.84,2.11,5.62-.73,3.93-3l-8.24-11.2-3.93,3a64.28,64.28,0,0,1,10.57,10.4l3.54-3.54-8-9.64-3.54,3.54,11.46,11.86c1.94,2,5.52-.62,3.93-3A55.44,55.44,0,0,1,378.5,230l-4.18,2.43a44.5,44.5,0,0,1,5.56,7.94l3.93-3L382,235.23l-3.54,3.54a4.78,4.78,0,0,1,1.86,2.16c1.58,2.8,5.9.29,4.32-2.52a10.29,10.29,0,0,0-2.64-3.17,2.5,2.5,0,0,0-3.54,3.54l1.85,2.16c1.89,2.21,5.26-.62,3.93-3a50.42,50.42,0,0,0-6.34-9c-1.58-1.8-5.13.11-4.18,2.43a61.9,61.9,0,0,0,5.69,10.87l3.93-3-11.46-11.86c-2.28-2.36-5.55,1.1-3.54,3.54l8,9.64c2.06,2.49,5.53-1.06,3.54-3.54a64.28,64.28,0,0,0-10.57-10.4c-2-1.56-5.77.52-3.93,3l8.24,11.2,3.93-3L368.92,228l-3.54,3.54a29.51,29.51,0,0,1,7.25,10.41l3.67-2.82a31.74,31.74,0,0,1-6-5.43l-3.54,3.54a30.91,30.91,0,0,1,5.51,6.42l3.93-3a30.74,30.74,0,0,1-3.79-5.84l-4.32,2.52,3.28,6.18,3.42-3.42a15.2,15.2,0,0,1-6.6-10.73l-3.76,2.16a46.32,46.32,0,0,1,8.9,5.68l3-3.93A49.49,49.49,0,0,1,364,223.68l-3.54,3.54,4.2,4.06,3.54-3.54a227.89,227.89,0,0,1-17.83-17.08c-1.94-2.07-5.41.6-3.93,3l3.56,5.82,3.93-3a92.66,92.66,0,0,1-14.6-17.2l-1.49,3.67c3.45-.75,6.78,5.45,8.56,7.7l7.31,9.23c1.77,2.24,5.41-.65,3.93-3L353,209.4l-3.93,3a158.22,158.22,0,0,1,11.69,14.3l3.93-3a27.87,27.87,0,0,1-8.13-10.49l-3.42,3.42a51.53,51.53,0,0,1,12,12.94l3.42-3.42-11.68-7c-2.55-1.52-4.81,1.84-3,3.93l11.38,13.34,3-3.93a37.91,37.91,0,0,1-11-13.42c-1.45-2.87-5.76-.35-4.32,2.52Z"/><path class="cls-3" d="M371.41,229a1.8,1.8,0,0,1-1.3-1.42l-4.18,2.43,1.69,1.91a2.52,2.52,0,0,0,4.18-1.1,8.42,8.42,0,0,0-.63-5.67c-.85-1.87-4.25-1.48-4.57.6a6.57,6.57,0,0,0,.92,5l3.93-3a1.64,1.64,0,0,1-.26-2.29l-4.57-.6a28.36,28.36,0,0,1,1.72,9.61c0,3.22,5,3.22,5,0a32.57,32.57,0,0,0-1.9-10.94,2.54,2.54,0,0,0-4.57-.6,6.65,6.65,0,0,0,1,8.35c2,1.91,5.54-.59,3.93-3a1.3,1.3,0,0,1-.42-1.11l-4.57.6a2.68,2.68,0,0,1,.12,1.82l4.18-1.1-1.69-1.91c-1.72-2-4.75.13-4.18,2.43a6.36,6.36,0,0,0,3.6,4.4c2.92,1.28,5.47-3,2.52-4.32Z"/><path class="cls-3" d="M551.84,185.11,317.1,269,306.84,471.11l-87,53.78,94.6,90.78H531.78c49.71,0,90-40.29,90-116.67V252.13Z"/><text class="cls-4" transform="translate(295.02 522.12) scale(1.2 1)">1</text><text class="cls-5" transform="translate(77.02 524.89) scale(1.21 1)">1</text><line class="cls-6" x1="54" x2="54" y2="36"/><line class="cls-6" y1="54" x2="36" y2="54"/><line class="cls-6" y1="665.34" x2="36" y2="665.34"/><line class="cls-6" x1="54" y1="719.34" x2="54" y2="683.34"/><line class="cls-6" x1="665.34" x2="665.34" y2="36"/><line class="cls-6" x1="719.34" y1="54" x2="683.34" y2="54"/><line class="cls-6" x1="719.34" y1="665.34" x2="683.34" y2="665.34"/><line class="cls-6" x1="665.34" y1="719.34" x2="665.34" y2="683.34"/></g></g></svg>