<svg xmlns="http://www.w3.org/2000/svg" viewBox="0 0 708 708"><defs><style>.cls-1{fill:#ffe200;}.cls-2{fill:#eac00f;}.cls-3,.cls-4{fill:none;}.cls-3{stroke:#fff;stroke-miterlimit:10;stroke-width:40px;}.cls-4{stroke:#000;stroke-width:0.3px;}</style></defs><title>110</title><g id="图层_2" data-name="图层 2"><g id="图层_1-2" data-name="图层 1"><path class="cls-1" d="M486.45,212.75,610,336.56V188a90,90,0,0,0-90-90H188a90,90,0,0,0-90,90V520a90,90,0,0,0,90,90H336.53L224.76,499.73Z"/><path class="cls-2" d="M610,520V336.56L486.45,212.75l-261.69,287L336.53,610H520A90,90,0,0,0,610,520Z"/><path class="cls-1" d="M283.53,426.57v29.71L350.66,421l38.77,20h20.73s13.33-21.11,13.33-31.1-8.33-41.66-8.33-41.66l60-58.32,21.66-15,6.66-13.33-17-55h-42S283.53,396.86,283.53,426.57Z"/><circle class="cls-3" cx="351" cy="352" r="173.18"/><polygon class="cls-3" points="351 207.17 392.86 291.98 486.45 305.58 418.73 371.6 434.71 464.82 351 420.81 267.29 464.82 283.27 371.6 215.55 305.58 309.14 291.98 351 207.17"/><line class="cls-4" x1="54" x2="54" y2="36"/><line class="cls-4" y1="54" x2="36" y2="54"/><line class="cls-4" y1="654" x2="36" y2="654"/><line class="cls-4" x1="54" y1="708" x2="54" y2="672"/><line class="cls-4" x1="654" x2="654" y2="36"/><line class="cls-4" x1="708" y1="54" x2="672" y2="54"/><line class="cls-4" x1="708" y1="654" x2="672" y2="654"/><line class="cls-4" x1="654" y1="708" x2="654" y2="672"/></g></g></svg>