<svg xmlns="http://www.w3.org/2000/svg" viewBox="0 0 719.34 719.34"><defs><style>.cls-1{fill:#e50012;}.cls-2{fill:#c30d23;}.cls-3,.cls-5,.cls-6,.cls-7{fill:none;}.cls-3,.cls-5{stroke:#c30d23;stroke-miterlimit:10;}.cls-3{stroke-width:3px;}.cls-4{fill:#fff;}.cls-5{stroke-width:4px;}.cls-7{stroke:#000;stroke-width:0.3px;}</style></defs><title>113</title><g id="图层_2" data-name="图层 2"><g id="图层_1-2" data-name="图层 1"><path class="cls-1" d="M313.41,382.65l64.38-.79,55.62-212.07,174,172.67,7.47,7.21V493.33a182.23,182.23,0,0,1-3.4,36.07h.79a182.23,182.23,0,0,0,3.4-36.07v-332c0-23-40.29-63.33-90-63.33h-332c-49.71,0-90,40.29-90,63.33v332c0,76.37,40.29,116.67,90,116.67h183.9L181.41,419Z"/><path class="cls-2" d="M611.48,529.41a182.23,182.23,0,0,0,3.4-36.07V349.67l-7.47-7.21-174-172.67L377.79,381.86l-64.38.79L181.41,419,377.57,610h86.6V529.41Z"/><path class="cls-2" d="M577,591.77,506.74,610h18.92c41.19,0,75.91-27.66,86.6-80.59h-.79C605.83,557.36,593.48,578.27,577,591.77Z"/><path class="cls-2" d="M577,591.77c16.46-13.51,28.82-34.41,34.46-62.37H464.17V610h42.57Z"/><line class="cls-3" x1="433.41" y1="417.01" x2="433.41" y2="539.08"/><rect class="cls-4" x="305.41" y="169.79" width="128" height="369.29"/><polyline class="cls-4" points="181.41 419.01 181.41 292.99 557.41 292.99 557.41 419.01"/><line class="cls-5" x1="435.22" y1="174.3" x2="436.27" y2="290.99"/><line class="cls-6" x1="305.41" y1="169.79" x2="305.41" y2="290.99"/><path class="cls-3" d="M305.41,291"/><path class="cls-3" d="M305.41,169.79"/><line class="cls-5" x1="433.41" y1="417.01" x2="557.41" y2="417.01"/><path class="cls-5" d="M305.41,417"/><path class="cls-5" d="M181.41,417"/><path class="cls-5" d="M433.41,539.08"/><path class="cls-5" d="M557.41,419"/><path class="cls-5" d="M557.41,293"/><path class="cls-5" d="M433.41,539.08"/><line class="cls-7" x1="54" x2="54" y2="36"/><line class="cls-7" y1="54" x2="36" y2="54"/><line class="cls-7" y1="665.34" x2="36" y2="665.34"/><line class="cls-7" x1="54" y1="719.34" x2="54" y2="683.34"/><line class="cls-7" x1="665.34" x2="665.34" y2="36"/><line class="cls-7" x1="719.34" y1="54" x2="683.34" y2="54"/><line class="cls-7" x1="719.34" y1="665.34" x2="683.34" y2="665.34"/><line class="cls-7" x1="665.34" y1="719.34" x2="665.34" y2="683.34"/></g></g></svg>