<svg xmlns="http://www.w3.org/2000/svg" viewBox="0 0 719.34 719.34"><defs><style>.cls-1{fill:#025098;}.cls-2{fill:#001c58;}.cls-10,.cls-3,.cls-4,.cls-5,.cls-6,.cls-7{fill:none;}.cls-3,.cls-4,.cls-6{stroke:#001c58;}.cls-3,.cls-4,.cls-6,.cls-7{stroke-miterlimit:10;}.cls-3{stroke-width:4px;}.cls-4{stroke-width:6px;}.cls-6{stroke-width:18px;}.cls-7{stroke:#025098;stroke-width:16px;}.cls-8{font-size:504.17px;}.cls-8,.cls-9{fill:#fff;font-family:BritannicBold, Britannic Bold;}.cls-9{font-size:502.86px;}.cls-10{stroke:#000;stroke-width:0.3px;}</style></defs><title>12</title><g id="图层_2" data-name="图层 2"><g id="图层_1-2" data-name="图层 1"><path class="cls-1" d="M622.09,499c0,76.37-40.29,116.67-90,116.67h-332c-49.71,0-90-40.29-90-116.67V167c0-23,40.29-63.33,90-63.33h332c49.71,0,90,40.29,90,63.33Z"/><path class="cls-2" d="M546.68,202.61l-177.6,21.12a13.38,13.38,0,0,0-10.12,6.8L275.82,380.45l-66,143.62,100.81,91.6H532.09c49.71,0,90-40.29,90-116.67V280.17Z"/><path class="cls-3" d="M377.16,241.78"/><path class="cls-3" d="M333.16,189.78"/><path class="cls-3" d="M333.16,265.78"/><path class="cls-3" d="M333.16,189.78"/><line class="cls-3" x1="333.16" y1="265.78" x2="352.49" y2="256.45"/><line class="cls-3" x1="352.49" y1="256.45" x2="352.49" y2="241.78"/><line class="cls-4" x1="309.31" y1="189.69" x2="367.61" y2="242.34"/><line class="cls-5" x1="312.49" y1="196.45" x2="312.49" y2="195.11"/><line class="cls-6" x1="312.49" y1="196.45" x2="312.49" y2="323.78"/><path class="cls-2" d="M332.57,252.39c-2,6-3.87,12.11-5.57,18.24-1.09,3.9-3.12,8.31-.85,12.1.76,1.27,2.88,1.78,3.93.51,3.78-4.6,4.84-10.1,5.6-15.89a91.31,91.31,0,0,0-.09-23.77c-.33-2.52-4.28-3.7-4.91-.66a94.58,94.58,0,0,0-2.07,21.75c.11,4.15-.41,10.7,4.08,12.86a2.58,2.58,0,0,0,3-.39c3.61-3.87,3.59-9.57,3.76-14.59a86.8,86.8,0,0,0-1.85-20.27c-.49-2.42-4.29-2.35-4.82,0a129.65,129.65,0,0,0-3.14,34.79c.12,2.69,4.3,3.55,4.91.66a81.64,81.64,0,0,0-1.3-39.36c-.46-1.63-3-2.65-4.18-1.1-3.3,4.26-3.46,9.53-4.14,14.73a151,151,0,0,0-1.56,22.41c0,2.73,4.31,3.51,4.91.66a113.46,113.46,0,0,0,1.06-41.35c-.39-2.51-4.25-2.25-4.82,0a89.09,89.09,0,0,0-.61,41.63,2.52,2.52,0,0,0,4.18,1.1c3.91-4.58,2.84-11.61,2.82-17.24,0-8.16-.47-16.31-1.25-24.43-.3-3.15-5-3.28-5,0q-.23,19.37-1.75,38.69h5q.34-21.82-1.2-43.6c-.23-3.18-4.93-3.25-5,0-.3,13.29-.51,26.58,1.24,39.8.41,3.12,4.79,3.3,5,0q1.38-21.85,1-43.75c0-2.72-4.33-3.51-4.91-.66q-2.5,12.27-4.19,24.68c-.75,5.58-2.84,12.78.87,17.71,1.15,1.53,4.11,1.74,4.57-.6a87.5,87.5,0,0,0-.72-37.34,2.53,2.53,0,0,0-4.57-.6c-2.85,4.81-2.67,10.18-2.29,15.6a109.56,109.56,0,0,0,3.21,19.5c.7,2.75,4.89,2.15,4.91-.66l.2-30.61h-5l1.6,16.47h5Q326,236.7,325,224c-.26-3.16-5-3.26-5,0a34.72,34.72,0,0,0,3.7,15.93c1.06,2.15,4.92,1.2,4.66-1.26l-2.43-22.8c-.33-3.14-4.91-3.29-5,0a52.55,52.55,0,0,0,1.15,12.47c.57,2.71,5.22,2.16,4.91-.66a75.07,75.07,0,0,0-3.49-16c-.86-2.55-5-2.29-4.91.66A19.34,19.34,0,0,0,322.1,223a2.52,2.52,0,0,0,4.66-1.26,28,28,0,0,0-2.57-13.87c-1-2.23-4.88-1.15-4.66,1.26a11.07,11.07,0,0,0,1.44,4.8c1.35,2.4,5.66.75,4.57-1.93a13.93,13.93,0,0,1-1.21-5.8l-4.91.66a15,15,0,0,0,3.84,6.5c1.85,1.89,4.62-.09,4.18-2.43a11.49,11.49,0,0,0-3.33-6.27c-2.26-2.33-5.66,1.14-3.54,3.54l18,20.31c1.87,2.1,5.51-.66,3.93-3l-6.64-9.93c-1.24-1.86-4.95-1.41-4.66,1.26a37.26,37.26,0,0,0,7,18.42c1.86,2.54,6,.29,4.32-2.52a98.87,98.87,0,0,0-14.09-18.15c-1.71-1.75-4.93,0-4.18,2.43A72.85,72.85,0,0,0,335,238.32c1.53,2.1,5.62,1,4.57-1.93a122.56,122.56,0,0,0-11.63-23.81,2.52,2.52,0,0,0-4.66,1.26A35.78,35.78,0,0,0,330,236.69c1.53,2.12,5.58,1,4.57-1.93q-2.56-7.28-5.83-14.25c-1.21-2.6-5.33-.75-4.57,1.93,2.57,9,5.43,17.95,11.9,25,1.72,1.87,4.83-.09,4.18-2.43l-4.57-16.48c-.73-2.62-5.18-2.22-4.91.66a93,93,0,0,0,3.82,19.6c1.25,3.93,2.26,8.49,7,9,1.42.14,2.4-1.26,2.5-2.5a94.73,94.73,0,0,0-.39-18.86c-.31-2.54-4.31-3.69-4.91-.66a55.61,55.61,0,0,0,.34,23.71c.57,2.49,4.13,2.26,4.82,0a41.22,41.22,0,0,0,.94-20.63c-.48-2.36-4.38-2.41-4.82,0a122.2,122.2,0,0,0-2,22.82c0,2.71,4.52,3.54,4.91.66a20.86,20.86,0,0,0-2.68-14.08,2.53,2.53,0,0,0-4.57.6,40.85,40.85,0,0,0-1.77,21.55A2.52,2.52,0,0,0,337,272.1c2.71-.77,3.81-2.78,4.26-5.45.84-5,.74-10.22,1.08-15.23.19-2.79-4.35-3.43-4.91-.66-1.55,7.71-3,15.4-3.2,23.28-.08,2.9,4.06,3.29,4.91.66a44.86,44.86,0,0,0,1.36-22.36c-.37-2-3.71-2.54-4.57-.6a110.15,110.15,0,0,0-8.57,30.93h5a143.72,143.72,0,0,0,.39-23.56c-.18-2.69-4.22-3.55-4.91-.66A190.91,190.91,0,0,0,323,289.39c-.23,3.21,4.75,3.19,5,0a224.92,224.92,0,0,0,.52-26.16c-.1-2.73-4.23-3.51-4.91-.66a159,159,0,0,0-4.33,33.16,2.53,2.53,0,0,0,2.5,2.5c4.11-.07,4.55-3.95,4.65-7.29.22-7.31.29-14.62.44-21.93.06-2.76-4.34-3.47-4.91-.66a103.31,103.31,0,0,0-1.75,29.87c.2,2.28,3.41,3.64,4.66,1.26,2.41-4.59,1.6-9.69,1.37-14.7l-.89-19.69c-.12-2.75-4.15-3.47-4.91-.66a70.52,70.52,0,0,0-2.23,25c.2,2.25,3.45,3.68,4.66,1.26,2.28-4.54,3.22-9.29,4-14.28.69-4.61,1.1-13.65,5.74-16.2l-3.42-.9c3.38,5.78-.18,12.76,4.5,18.3,1.13,1.34,3.92.72,4.18-1.1a125.94,125.94,0,0,0,1.24-20.91h-5c.3,6.47.75,12.83,2.77,19,.71,2.16,4.35,2.59,4.82,0a129.25,129.25,0,0,0,2.15-23.68c0-3.24-4.81-3.19-5,0-.39,6.46-.55,12.8,1.48,19,.68,2.1,4.47,2.64,4.82,0a63.1,63.1,0,0,0-1.47-25c-.83-3.13-5.49-1.8-4.82,1.33a49,49,0,0,0,5,13.36c1.42,2.6,5.1.75,4.57-1.93l-4-20c-.54-2.73-5.16-2.16-4.91.66a31.55,31.55,0,0,0,7.31,17.82c1.72,2.09,4.62-.23,4.18-2.43a71.61,71.61,0,0,0-4.62-14.53c-1.12-2.58-5.49-.74-4.57,1.93a43,43,0,0,0,6.88,12.59c1.5,1.92,5.12-.17,4.18-2.43a67.32,67.32,0,0,0-9.26-15.8c-1.74-2.22-5.55.7-3.93,3a31.7,31.7,0,0,0,13,11c2.41,1.11,5.27-1.87,3-3.93l-13.35-12.24c-2.19-2-5.06.49-3.93,3a29.25,29.25,0,0,0,13.74,14.41c2.45,1.24,5.15-1.87,3-3.93a91.09,91.09,0,0,1-14.39-18l-3.93,3a68.53,68.53,0,0,0,19.64,13.85c2,.94,5-1.18,3.42-3.42a64.77,64.77,0,0,0-16.37-15.89c-2.43-1.65-4.88,1.91-3,3.93,4.71,5.11,9.49,10,15.6,13.43,2.59,1.45,4.78-1.8,3-3.93L345.4,223.22c-1.95-2.36-5,.65-3.93,3a42.54,42.54,0,0,0,11.11,14.92,2.5,2.5,0,0,0,3.54-3.54,170.91,170.91,0,0,0-13-13.75l-3.54,3.54a155,155,0,0,0,12,9.84c2.27,1.68,5.2-2.1,3-3.93A78.5,78.5,0,0,1,342,220l-4.32,2.52,6.68,8.86,3.93-3-7.74-9.69c-1.7-2.13-4.61.25-4.18,2.43.87,4.44,3.85,7.56,6.77,10.85q5.94,6.71,12.17,13.15c1.92,2,5.62-.68,3.93-3l-4.87-6.72-4.32,2.52a42.67,42.67,0,0,0,4.71,5.44c2.1,2,5.16-.52,3.93-3-3.48-7-12.68-7.08-16.45-.3-1.57,2.81,2.75,5.34,4.32,2.52,2-3.64,6-3.34,7.81.3l3.93-3a34.41,34.41,0,0,1-3.93-4.43c-1.88-2.56-6.21-.1-4.32,2.52l4.87,6.72,3.93-3q-4.91-5.1-9.65-10.34c-3-3.37-7.09-6.85-8-11.46L337,222.18l7.74,9.69c1.75,2.19,5.64-.76,3.93-3L342,220c-1.91-2.53-6.24-.07-4.32,2.52a83.75,83.75,0,0,0,13.43,14.37l3-3.93a142.08,142.08,0,0,1-11-9.06c-2.37-2.15-5.88,1.31-3.54,3.54a170.91,170.91,0,0,1,13,13.75l3.54-3.54a39.37,39.37,0,0,1-10.33-13.9l-3.93,3,13.78,16.69,3-3.93c-5.74-3.21-10.17-7.86-14.59-12.65l-3,3.93a57.84,57.84,0,0,1,14.58,14.1l3.42-3.42a64.7,64.7,0,0,1-18.63-13.07c-2-2-5.43.57-3.93,3a96.3,96.3,0,0,0,15.17,19l3-3.93a25.11,25.11,0,0,1-11.94-12.62l-3.93,3,13.35,12.24,3-3.93A26.9,26.9,0,0,1,344,236l-3.93,3a58.51,58.51,0,0,1,8,13.59l4.18-2.43a35.53,35.53,0,0,1-5.59-10.39l-4.57,1.93a65.5,65.5,0,0,1,4.12,13.34l4.18-2.43a25.69,25.69,0,0,1-5.84-14.28l-4.91.66,4,20,4.57-1.93a44.19,44.19,0,0,1-4.49-12.16l-4.82,1.33a56.75,56.75,0,0,1,1.47,22.3h4.82c-1.89-5.81-1.66-11.67-1.3-17.69h-5a121.82,121.82,0,0,1-2,22.35h4.82c-1.88-5.76-2.31-11.67-2.6-17.69-.15-3.2-5.08-3.23-5,0a118.09,118.09,0,0,1-1.06,19.58l4.18-1.1c-3.71-4.38-.71-12.13-3.72-17.29a2.55,2.55,0,0,0-3.42-.9c-10,5.52-7,23.25-11.5,32.28l4.66,1.26a66.57,66.57,0,0,1,2.05-23.63l-4.91-.66.71,15.75c.21,4.77,1.8,11.71-.51,16.12l4.66,1.26a98.45,98.45,0,0,1,1.57-28.54l-4.91-.66c-.05,2.67-.68,24.23-.09,24.22l2.5,2.5a152.42,152.42,0,0,1,4.15-31.83l-4.91-.66a224.92,224.92,0,0,1-.52,26.16h5a182.49,182.49,0,0,1,4.63-29.6l-4.91-.66a143.72,143.72,0,0,1-.39,23.56c-.32,3.23,4.6,3.13,5,0a101.82,101.82,0,0,1,7.89-28.4l-4.57-.6a39.49,39.49,0,0,1-1.36,19.7l4.91.66c.2-7.44,1.56-14.68,3-22l-4.91-.66c-.12,1.86.18,15.33-1.67,15.86l3.08,1.75a36,36,0,0,1,1.77-18.89l-4.57.6A15.28,15.28,0,0,1,338.13,261l4.91.66a114.91,114.91,0,0,1,1.86-21.49h-4.82a35.89,35.89,0,0,1-.94,18H344a49.38,49.38,0,0,1-.34-21.06l-4.91-.66a94.73,94.73,0,0,1,.39,18.86l2.5-2.5c-1.45-.14-3.38-9.53-3.65-10.6a87.1,87.1,0,0,1-2.14-13l-4.91.66,4.57,16.48,4.18-2.43c-5.87-6.4-8.3-14.63-10.62-22.8L324.46,223c2,4.27,3.76,8.61,5.32,13.06l4.57-1.93a31.43,31.43,0,0,1-6.09-20.33l-4.66,1.26a116.45,116.45,0,0,1,11.13,22.62l4.57-1.93a68.79,68.79,0,0,1-10.21-20.13l-4.18,2.43a93.23,93.23,0,0,1,13.31,17.14l4.32-2.52a32.51,32.51,0,0,1-6.31-15.9l-4.66,1.26,6.64,9.93,3.93-3-18-20.31-3.54,3.54a5.76,5.76,0,0,1,2,4.07l4.18-2.43a7.59,7.59,0,0,1-2.56-4.29c-.81-2.65-4.94-2.22-4.91.66a18.7,18.7,0,0,0,1.39,7.13l4.57-1.93-.76-2.27-4.66,1.26a22.85,22.85,0,0,1,1.89,11.35l4.66-1.26a14.34,14.34,0,0,1-2.83-8.15l-4.91.66A69,69,0,0,1,322,227.65l4.91-.66a46.71,46.71,0,0,1-1-11.14h-5l2.43,22.8,4.66-1.26A28.93,28.93,0,0,1,325,224h-5q1,12.74,2.66,25.41c.4,3.12,5.32,3.24,5,0l-1.6-16.47c-.31-3.14-5-3.28-5,0l-.2,30.61,4.91-.66a102.86,102.86,0,0,1-2.88-16.26c-.44-4.95-1.18-10.53,1.46-15l-4.57-.6a81.33,81.33,0,0,1,.72,34.69l4.57-.6c-3.46-4.59-.33-14.41.44-19.58,1-6.35,2.1-12.67,3.38-19l-4.91-.66q.36,21.89-1,43.75h5c-1.75-13.21-1.54-26.5-1.24-39.8h-5q1.54,21.77,1.2,43.6c-.05,3.25,4.75,3.17,5,0q1.52-19.32,1.75-38.69h-5c.6,6.25,1,12.51,1.17,18.79q.11,4.23.07,8.47c0,2.92.67,8.51-1.35,10.88l4.18,1.1a83.33,83.33,0,0,1,.61-39h-4.82a106.53,106.53,0,0,1-1.06,38.69l4.91.66a130.57,130.57,0,0,1,.87-16.82c.54-4.83.23-12.74,3.37-16.78l-4.18-1.1a76.06,76.06,0,0,1,1.3,36.71l4.91.66a124.53,124.53,0,0,1,3-33.46h-4.82a81.21,81.21,0,0,1,1.7,15.18c.06,4.27.81,11.44-2.33,14.81l3-.39c-2.81-1.35-1.67-11.47-1.58-14.08a89.07,89.07,0,0,1,1.86-14.88l-4.91-.66a91.15,91.15,0,0,1,.65,18.3c-.4,5.77-.84,13.15-4.69,17.82l3.93.51c-1.64-2.73,2.05-10.78,2.93-13.75,1.26-4.27,2.6-8.51,4-12.74,1-3.06-3.82-4.38-4.82-1.33Z"/><line class="cls-7" x1="356.68" y1="215.66" x2="381.68" y2="240.23"/><path class="cls-1" d="M350.31,203.07c2.3,10.31,10.4,16.82,18.52,22.71,3.28,2.38,8.36.56,10.26-2.69,2.22-3.79.6-7.88-2.69-10.26-5-3.61-10.23-7.44-11.63-13.74-2.1-9.42-16.56-5.43-14.46,4Z"/><path class="cls-1" d="M356.19,223.07a26.68,26.68,0,0,0,9.87,9.61c2.11,1.18,4-2.06,1.89-3.24a22.84,22.84,0,0,1-8.53-8.26c-1.24-2.07-4.48-.18-3.24,1.89Z"/><path class="cls-1" d="M356.71,227.11c1.39,3,4.21,4.83,6.86,6.71,3.58,2.54,7.25,4.92,11,7.2,2.07,1.26,4-2,1.89-3.24-3-1.82-5.95-3.71-8.84-5.7s-6.24-3.72-7.67-6.87c-1-2.19-4.23-.29-3.24,1.89Z"/><path class="cls-1" d="M360.39,229.92l12.86,15.72c1.53,1.87,4.17-.8,2.65-2.65L363,227.27c-1.53-1.87-4.17.8-2.65,2.65Z"/><path class="cls-1" d="M359.3,230.34a26.48,26.48,0,0,0,14.37,9.23c2.34.59,3.34-3,1-3.62a23.21,23.21,0,0,1-12.71-8.27c-1.5-1.89-4.14.78-2.65,2.65Z"/><text class="cls-8" transform="translate(77.34 524.07) scale(1.11 1)">1</text><text class="cls-9" transform="translate(325.16 524.07) scale(0.95 1)">2</text><line class="cls-10" x1="54" x2="54" y2="36"/><line class="cls-10" y1="54" x2="36" y2="54"/><line class="cls-10" y1="665.34" x2="36" y2="665.34"/><line class="cls-10" x1="54" y1="719.34" x2="54" y2="683.34"/><line class="cls-10" x1="665.34" x2="665.34" y2="36"/><line class="cls-10" x1="719.34" y1="54" x2="683.34" y2="54"/><line class="cls-10" x1="719.34" y1="665.34" x2="683.34" y2="665.34"/><line class="cls-10" x1="665.34" y1="719.34" x2="665.34" y2="683.34"/></g></g></svg>