<svg xmlns="http://www.w3.org/2000/svg" viewBox="0 0 719.54 719.54"><defs><style>.cls-1,.cls-10,.cls-4,.cls-5,.cls-6,.cls-7{fill:none;}.cls-1{stroke:#fff;}.cls-1,.cls-4,.cls-6,.cls-7{stroke-miterlimit:10;}.cls-2{fill:#025098;}.cls-3{fill:#001c58;}.cls-4,.cls-7{stroke:#001c58;}.cls-4{stroke-width:4px;}.cls-6{stroke:#025098;stroke-width:16px;}.cls-7{stroke-width:9px;}.cls-8{font-size:502.86px;}.cls-8,.cls-9{fill:#fff;font-family:BritannicBold, Britannic Bold;}.cls-9{font-size:504.17px;}.cls-10{stroke:#000;stroke-width:0.3px;}</style></defs><title>16</title><g id="图层_2" data-name="图层 2"><g id="图层_1-2" data-name="图层 1"><path id="_路径_" data-name="&lt;路径&gt;" class="cls-1" d="M533,471.32"/><path class="cls-2" d="M615.88,507.51c0,76.37-40.29,116.67-90,116.67h-332c-49.71,0-90-40.29-90-116.67v-332c0-23,40.29-63.33,90-63.33h332c49.71,0,90,40.29,90,63.33Z"/><path class="cls-3" d="M548.94,209.58,426.44,224c1.49,8.11-3.46,52.22-34.49,36.72L269.61,389l-66,143.62,100.81,91.6H524.87c49.71,0,90-40.29,90-116.67V275.35Z"/><path class="cls-3" d="M424.94,224.16l1.49-.18C426.14,222.37,425.59,222.18,424.94,224.16Z"/><path class="cls-4" d="M370.94,250.28"/><path class="cls-4" d="M326.94,198.28"/><path class="cls-4" d="M326.94,274.28"/><path class="cls-4" d="M326.94,198.28"/><line class="cls-4" x1="326.94" y1="274.28" x2="346.28" y2="264.95"/><line class="cls-4" x1="346.28" y1="264.95" x2="346.28" y2="250.28"/><line class="cls-5" x1="306.28" y1="204.95" x2="306.28" y2="203.62"/><path class="cls-3" d="M326.35,260.9c-2,6-3.87,12.11-5.57,18.24-1.09,3.9-3.12,8.31-.85,12.1.76,1.27,2.88,1.78,3.93.51,3.78-4.6,4.84-10.1,5.6-15.89a91.31,91.31,0,0,0-.09-23.77c-.33-2.52-4.28-3.7-4.91-.66a94.58,94.58,0,0,0-2.07,21.75c.11,4.15-.41,10.7,4.08,12.86a2.58,2.58,0,0,0,3-.39c3.61-3.87,3.59-9.57,3.76-14.59a86.8,86.8,0,0,0-1.85-20.27c-.49-2.42-4.29-2.35-4.82,0a129.65,129.65,0,0,0-3.14,34.79c.12,2.69,4.3,3.55,4.91.66a81.64,81.64,0,0,0-1.3-39.36c-.46-1.63-3-2.65-4.18-1.1-3.3,4.26-3.46,9.53-4.14,14.73a151,151,0,0,0-1.56,22.41c0,2.73,4.31,3.51,4.91.66a113.46,113.46,0,0,0,1.06-41.35c-.39-2.51-4.25-2.25-4.82,0a89.09,89.09,0,0,0-.61,41.63,2.52,2.52,0,0,0,4.18,1.1c3.91-4.58,2.84-11.61,2.82-17.24,0-8.16-.47-16.31-1.25-24.43-.3-3.15-5-3.28-5,0q-.23,19.37-1.75,38.69h5q.34-21.82-1.2-43.6c-.23-3.18-4.93-3.25-5,0-.3,13.29-.51,26.58,1.24,39.8.41,3.12,4.79,3.3,5,0q1.38-21.85,1-43.75c0-2.72-4.33-3.51-4.91-.66q-2.5,12.27-4.19,24.68c-.75,5.58-2.84,12.78.87,17.71,1.15,1.53,4.11,1.74,4.57-.6a87.5,87.5,0,0,0-.72-37.34,2.53,2.53,0,0,0-4.57-.6c-2.85,4.81-2.67,10.18-2.29,15.6a109.56,109.56,0,0,0,3.21,19.5c.7,2.75,4.89,2.15,4.91-.66l.2-30.61h-5l1.6,16.47h5q-1.63-12.68-2.66-25.41c-.26-3.16-5-3.26-5,0a34.72,34.72,0,0,0,3.7,15.93c1.06,2.15,4.92,1.2,4.66-1.26l-2.43-22.8c-.33-3.14-4.91-3.29-5,0a52.55,52.55,0,0,0,1.15,12.47c.57,2.71,5.22,2.16,4.91-.66a75.07,75.07,0,0,0-3.49-16c-.86-2.55-5-2.29-4.91.66a19.34,19.34,0,0,0,3.51,10.68,2.52,2.52,0,0,0,4.66-1.26A28,28,0,0,0,318,216.38c-1-2.23-4.88-1.15-4.66,1.26a11.07,11.07,0,0,0,1.44,4.8c1.35,2.4,5.66.75,4.57-1.93a13.93,13.93,0,0,1-1.21-5.8l-4.91.66a15,15,0,0,0,3.84,6.5c1.85,1.89,4.62-.09,4.18-2.43a11.49,11.49,0,0,0-3.33-6.27c-2.26-2.33-5.66,1.14-3.54,3.54l18,20.31c1.87,2.1,5.51-.66,3.93-3l-6.64-9.93c-1.24-1.86-4.95-1.41-4.66,1.26a37.26,37.26,0,0,0,7,18.42c1.86,2.54,6,.29,4.32-2.52a98.87,98.87,0,0,0-14.09-18.15c-1.71-1.75-4.93,0-4.18,2.43a72.85,72.85,0,0,0,10.72,21.32c1.53,2.1,5.62,1,4.57-1.93a122.56,122.56,0,0,0-11.63-23.81,2.52,2.52,0,0,0-4.66,1.26,35.78,35.78,0,0,0,6.77,22.85c1.53,2.12,5.58,1,4.57-1.93Q325.83,236,322.56,229c-1.21-2.6-5.33-.75-4.57,1.93,2.57,9,5.43,17.95,11.9,25,1.72,1.87,4.83-.09,4.18-2.43L329.51,237c-.73-2.62-5.18-2.22-4.91.66a93,93,0,0,0,3.82,19.6c1.25,3.93,2.26,8.49,7,9,1.42.14,2.4-1.26,2.5-2.5a94.73,94.73,0,0,0-.39-18.86c-.31-2.54-4.31-3.69-4.91-.66a55.61,55.61,0,0,0,.34,23.71c.57,2.49,4.13,2.26,4.82,0a41.22,41.22,0,0,0,.94-20.63c-.48-2.36-4.38-2.41-4.82,0a122.2,122.2,0,0,0-2,22.82c0,2.71,4.52,3.54,4.91.66A20.86,20.86,0,0,0,334,256.71a2.53,2.53,0,0,0-4.57.6,40.85,40.85,0,0,0-1.77,21.55,2.52,2.52,0,0,0,3.08,1.75c2.71-.77,3.81-2.78,4.26-5.45.84-5,.74-10.22,1.08-15.23.19-2.79-4.35-3.43-4.91-.66-1.55,7.71-3,15.4-3.2,23.28-.08,2.9,4.06,3.29,4.91.66a44.86,44.86,0,0,0,1.36-22.36c-.37-2-3.71-2.54-4.57-.6a110.15,110.15,0,0,0-8.57,30.93h5a143.72,143.72,0,0,0,.39-23.56c-.18-2.69-4.22-3.55-4.91-.66a190.91,190.91,0,0,0-4.81,30.93c-.23,3.21,4.75,3.19,5,0a224.92,224.92,0,0,0,.52-26.16c-.1-2.73-4.23-3.51-4.91-.66a159,159,0,0,0-4.33,33.16,2.53,2.53,0,0,0,2.5,2.5c4.11-.07,4.55-3.95,4.65-7.29.22-7.31.29-14.62.44-21.93.06-2.76-4.34-3.47-4.91-.66A103.31,103.31,0,0,0,314,306.7c.2,2.28,3.41,3.64,4.66,1.26,2.41-4.59,1.6-9.69,1.37-14.7l-.89-19.69c-.12-2.75-4.15-3.47-4.91-.66a70.52,70.52,0,0,0-2.23,25c.2,2.25,3.45,3.68,4.66,1.26,2.28-4.54,3.22-9.29,4-14.28.69-4.61,1.1-13.65,5.74-16.2l-3.42-.9c3.38,5.78-.18,12.76,4.5,18.3,1.13,1.34,3.92.72,4.18-1.1A125.94,125.94,0,0,0,332.92,264h-5c.3,6.47.75,12.83,2.77,19,.71,2.16,4.35,2.59,4.82,0a129.25,129.25,0,0,0,2.15-23.68c0-3.24-4.81-3.19-5,0-.39,6.46-.55,12.8,1.48,19,.68,2.1,4.47,2.64,4.82,0a63.1,63.1,0,0,0-1.47-25c-.83-3.13-5.49-1.8-4.82,1.33a49,49,0,0,0,5,13.36c1.42,2.6,5.1.75,4.57-1.93l-4-20c-.54-2.73-5.16-2.16-4.91.66a31.55,31.55,0,0,0,7.31,17.82c1.72,2.09,4.62-.23,4.18-2.43a71.61,71.61,0,0,0-4.62-14.53c-1.12-2.58-5.49-.74-4.57,1.93a43,43,0,0,0,6.88,12.59c1.5,1.92,5.12-.17,4.18-2.43a67.32,67.32,0,0,0-9.26-15.8c-1.74-2.22-5.55.7-3.93,3a31.7,31.7,0,0,0,13,11c2.41,1.11,5.27-1.87,3-3.93l-13.35-12.24c-2.19-2-5.06.49-3.93,3A29.25,29.25,0,0,0,346,259.33c2.45,1.24,5.15-1.87,3-3.93a91.09,91.09,0,0,1-14.39-18l-3.93,3a68.53,68.53,0,0,0,19.64,13.85c2,.94,5-1.18,3.42-3.42A64.77,64.77,0,0,0,337.36,235c-2.43-1.65-4.88,1.91-3,3.93,4.71,5.11,9.49,10,15.6,13.43,2.59,1.45,4.78-1.8,3-3.93l-13.78-16.69c-1.95-2.36-5,.65-3.93,3a42.54,42.54,0,0,0,11.11,14.92,2.5,2.5,0,0,0,3.54-3.54,170.91,170.91,0,0,0-13-13.75l-3.54,3.54a155,155,0,0,0,12,9.84c2.27,1.68,5.2-2.1,3-3.93a78.5,78.5,0,0,1-12.65-13.36L331.5,231l6.68,8.86,3.93-3-7.74-9.69c-1.7-2.13-4.61.25-4.18,2.43.87,4.44,3.85,7.56,6.77,10.85q5.94,6.71,12.17,13.15c1.92,2,5.62-.68,3.93-3l-4.87-6.72-4.32,2.52a42.67,42.67,0,0,0,4.71,5.44c2.1,2,5.16-.52,3.93-3-3.48-7-12.68-7.08-16.45-.3-1.57,2.81,2.75,5.34,4.32,2.52,2-3.64,6-3.34,7.81.3l3.93-3a34.41,34.41,0,0,1-3.93-4.43c-1.88-2.56-6.21-.1-4.32,2.52l4.87,6.72,3.93-3q-4.91-5.1-9.65-10.34c-3-3.37-7.09-6.85-8-11.46l-4.18,2.43,7.74,9.69c1.75,2.19,5.64-.76,3.93-3l-6.68-8.86c-1.91-2.53-6.24-.07-4.32,2.52a83.75,83.75,0,0,0,13.43,14.37l3-3.93a142.08,142.08,0,0,1-11-9.06c-2.37-2.15-5.88,1.31-3.54,3.54a170.91,170.91,0,0,1,13,13.75l3.54-3.54a39.37,39.37,0,0,1-10.33-13.9l-3.93,3,13.78,16.69,3-3.93c-5.74-3.21-10.17-7.86-14.59-12.65l-3,3.93a57.84,57.84,0,0,1,14.58,14.1l3.42-3.42a64.7,64.7,0,0,1-18.63-13.07c-2-2-5.43.57-3.93,3a96.3,96.3,0,0,0,15.17,19l3-3.93a25.11,25.11,0,0,1-11.94-12.62l-3.93,3L346,257.67l3-3.93a26.9,26.9,0,0,1-11.16-9.21l-3.93,3a58.51,58.51,0,0,1,8,13.59l4.18-2.43a35.53,35.53,0,0,1-5.59-10.39l-4.57,1.93A65.5,65.5,0,0,1,340,263.6l4.18-2.43a25.69,25.69,0,0,1-5.84-14.28l-4.91.66,4,20,4.57-1.93a44.19,44.19,0,0,1-4.49-12.16l-4.82,1.33a56.75,56.75,0,0,1,1.47,22.3H339c-1.89-5.81-1.66-11.67-1.3-17.69h-5a121.82,121.82,0,0,1-2,22.35h4.82c-1.88-5.76-2.31-11.67-2.6-17.69-.15-3.2-5.08-3.23-5,0a118.09,118.09,0,0,1-1.06,19.58l4.18-1.1c-3.71-4.38-.71-12.13-3.72-17.29a2.55,2.55,0,0,0-3.42-.9c-10,5.52-7,23.25-11.5,32.28l4.66,1.26a66.57,66.57,0,0,1,2.05-23.63l-4.91-.66.71,15.75c.21,4.77,1.8,11.71-.51,16.12L319,306.7a98.45,98.45,0,0,1,1.57-28.54l-4.91-.66c-.05,2.67-.68,24.23-.09,24.22l2.5,2.5a152.42,152.42,0,0,1,4.15-31.83l-4.91-.66a224.92,224.92,0,0,1-.52,26.16h5a182.49,182.49,0,0,1,4.63-29.6l-4.91-.66a143.72,143.72,0,0,1-.39,23.56c-.32,3.23,4.6,3.13,5,0a101.82,101.82,0,0,1,7.89-28.4l-4.57-.6a39.49,39.49,0,0,1-1.36,19.7l4.91.66c.2-7.44,1.56-14.68,3-22l-4.91-.66c-.12,1.86.18,15.33-1.67,15.86l3.08,1.75a36,36,0,0,1,1.77-18.89l-4.57.6a15.28,15.28,0,0,1,2.18,10.23l4.91.66a114.91,114.91,0,0,1,1.86-21.49h-4.82a35.89,35.89,0,0,1-.94,18h4.82a49.38,49.38,0,0,1-.34-21.06l-4.91-.66a94.73,94.73,0,0,1,.39,18.86l2.5-2.5c-1.45-.14-3.38-9.53-3.65-10.6a87.1,87.1,0,0,1-2.14-13l-4.91.66,4.57,16.48,4.18-2.43c-5.87-6.4-8.3-14.63-10.62-22.8l-4.57,1.93c2,4.27,3.76,8.61,5.32,13.06l4.57-1.93A31.43,31.43,0,0,1,322,222.34l-4.66,1.26a116.45,116.45,0,0,1,11.13,22.62l4.57-1.93a68.79,68.79,0,0,1-10.21-20.13l-4.18,2.43A93.23,93.23,0,0,1,332,243.74l4.32-2.52a32.51,32.51,0,0,1-6.31-15.9l-4.66,1.26,6.64,9.93,3.93-3-18-20.31-3.54,3.54a5.76,5.76,0,0,1,2,4.07l4.18-2.43a7.59,7.59,0,0,1-2.56-4.29c-.81-2.65-4.94-2.22-4.91.66a18.7,18.7,0,0,0,1.39,7.13l4.57-1.93-.76-2.27-4.66,1.26a22.85,22.85,0,0,1,1.89,11.35L320.2,229a14.34,14.34,0,0,1-2.83-8.15l-4.91.66a69,69,0,0,1,3.31,14.65l4.91-.66a46.71,46.71,0,0,1-1-11.14h-5l2.43,22.8,4.66-1.26a28.93,28.93,0,0,1-3-13.41h-5q1,12.74,2.66,25.41c.4,3.12,5.32,3.24,5,0l-1.6-16.47c-.31-3.14-5-3.28-5,0l-.2,30.61,4.91-.66a102.86,102.86,0,0,1-2.88-16.26c-.44-4.95-1.18-10.53,1.46-15l-4.57-.6a81.33,81.33,0,0,1,.72,34.69l4.57-.6c-3.46-4.59-.33-14.41.44-19.58,1-6.35,2.1-12.67,3.38-19l-4.91-.66q.36,21.89-1,43.75h5c-1.75-13.21-1.54-26.5-1.24-39.8h-5q1.54,21.77,1.2,43.6c-.05,3.25,4.75,3.17,5,0q1.52-19.32,1.75-38.69h-5c.6,6.25,1,12.51,1.17,18.79q.11,4.23.07,8.47c0,2.92.67,8.51-1.35,10.88l4.18,1.1a83.33,83.33,0,0,1,.61-39h-4.82a106.53,106.53,0,0,1-1.06,38.69l4.91.66a130.57,130.57,0,0,1,.87-16.82c.54-4.83.23-12.74,3.37-16.78l-4.18-1.1a76.06,76.06,0,0,1,1.3,36.71l4.91.66a124.53,124.53,0,0,1,3-33.46h-4.82a81.21,81.21,0,0,1,1.7,15.18c.06,4.27.81,11.44-2.33,14.81l3-.39c-2.81-1.35-1.67-11.47-1.58-14.08a89.07,89.07,0,0,1,1.86-14.88l-4.91-.66a91.15,91.15,0,0,1,.65,18.3c-.4,5.77-.84,13.15-4.69,17.82l3.93.51c-1.64-2.73,2.05-10.78,2.93-13.75,1.26-4.27,2.6-8.51,4-12.74,1-3.06-3.82-4.38-4.82-1.33Z"/><line class="cls-6" x1="350.47" y1="224.16" x2="375.46" y2="248.73"/><path class="cls-2" d="M344.1,211.57c2.3,10.31,10.4,16.82,18.52,22.71,3.28,2.38,8.36.56,10.26-2.69,2.22-3.79.6-7.88-2.69-10.26-5-3.61-10.23-7.44-11.63-13.74-2.1-9.42-16.56-5.43-14.46,4Z"/><path class="cls-2" d="M350,231.57a26.68,26.68,0,0,0,9.87,9.61c2.11,1.18,4-2.06,1.89-3.24a22.84,22.84,0,0,1-8.53-8.26c-1.24-2.07-4.48-.18-3.24,1.89Z"/><path class="cls-2" d="M350.5,235.62c1.39,3,4.21,4.83,6.86,6.71,3.58,2.54,7.25,4.92,11,7.2,2.07,1.26,4-2,1.89-3.24-3-1.82-5.95-3.71-8.84-5.7s-6.24-3.72-7.67-6.87c-1-2.19-4.23-.29-3.24,1.89Z"/><path class="cls-2" d="M354.17,238.43,367,254.14c1.53,1.87,4.17-.8,2.65-2.65l-12.86-15.72c-1.53-1.87-4.17.8-2.65,2.65Z"/><path class="cls-3" d="M299,239.66q1.72,59.86,9.2,119.33l14-3.79c-4.46-6.36-4-14.37-4.29-21.82q-.52-14.22-.52-28.46,0-28,2-55.91h-15a602.31,602.31,0,0,1-4.08,98c-1,8.34,13.17,10.28,14.73,2,5.62-29.72,11.28-59.72,11.7-90.06a217,217,0,0,0-.75-22.36c-.49-5.48-1.39-11.27-5.57-15.26a11.84,11.84,0,0,0-15.93-.47c-4.23,3.72-5.23,9.76-4.87,15.13.55,8.24,12.3,10.43,14.73,2a44,44,0,0,0-1.42-29.13l-12.54,7.3c2.57,3.31,3,7.33,2.56,11.34s3.74,7.5,7.5,7.5c4.4,0,7.09-3.45,7.5-7.5.84-8.25-2-15.51-7-22-4.49-5.79-15.35.52-12.54,7.3A30.82,30.82,0,0,1,299.84,234l14.73,2c0-.73.41-3.74.14-4.16,0,.06-4.14-.26-4.56.46-.13.22.39,1.19.36,1.4-.27,1.58.54,4.16.66,5.82q.28,3.89.41,7.78a270.42,270.42,0,0,1-1,33.05c-1.9,21.76-6,43.25-10,64.69l14.73,2a602.31,602.31,0,0,0,4.08-98c-.39-9.71-14.32-9.59-15,0q-2.12,29.87-2,59.83.07,14.72.71,29.44c.37,8.53,1.1,17.29,6.15,24.49,3.75,5.34,15,4.36,14-3.79q-7.47-59.41-9.2-119.33c-.28-9.63-15.28-9.67-15,0Z"/><path class="cls-3" d="M325.25,256.64a690.47,690.47,0,0,1-3.34,92.19c-.42,4,3.75,7.5,7.5,7.5,4.45,0,7-3.46,7.5-7.5L347,263.52c.86-7.29-11-10.38-14-3.79-5.74,12.59-8,25.8-9.76,39.42q-2.87,21.71-5.37,43.46h15a257.47,257.47,0,0,0-2.46-60.44c-1.17-7.52-12.76-6.77-14.46,0a246,246,0,0,0-6.07,34.28q-.86,8.16-1.12,16.37c-.17,5.27-.53,11,3.87,14.79,3.72,3.17,9.07,2.82,11.78-1.52,4.93-7.88,5.89-17.06,7.24-26.06q2.28-15.26,4.25-30.57h-15l-4.71,46.71c-.84,8.32,13.45,10.36,14.73,2l3.63-23.71,1.74-11.38c.29-1.9.56-3.8.87-5.69q.14-1,.36-2.08.33-1.83-2,1.27L326,289.35l.55,28.34c.14,7.25-.2,15.72,6,20.76,5.32,4.3,12,1.37,12.8-5.3l5.45-46.93h-15c-.05,13.47.15,27,3.74,40.09,1.81,6.58,13.43,7.68,14.46,0l5.16-38.25-14.73-2a335.14,335.14,0,0,1-2.15,36.32h15q.87-15.25.61-30.51H343a41.72,41.72,0,0,0,6.47,21.49c4.49,7.06,16,2.64,13.71-5.78q-4.45-16.44-10.26-32.45l-13.71,5.78a192.62,192.62,0,0,0,19.29,22.58c6.46,6.43,15-1.68,11.78-9.09a103.18,103.18,0,0,0-23-33.21c-6.08-5.89-16.1,1.62-11.78,9.09a63.43,63.43,0,0,0,23.9,23.64c6.42,3.61,14.22-3.72,10.26-10.26a87.93,87.93,0,0,0-26.28-27.5c-6.15-4.15-14.4,4.12-10.26,10.26a48.31,48.31,0,0,0,27.81,20.1c6.13,1.64,12-5.38,8.47-11a83.39,83.39,0,0,0-25.5-25.7c-6-3.88-14.82,4.15-10.26,10.26a65.75,65.75,0,0,0,28.08,21.87c7.56,3.16,11.63-7.54,7.3-12.54a123.59,123.59,0,0,0-23.3-20.65c-7.11-4.9-15,5.89-9.09,11.78A82.53,82.53,0,0,0,358.09,276c6.56,3.24,14.12-3.44,10.26-10.26a74.09,74.09,0,0,0-16.72-20.25c-6.09-5.13-16.78,1.49-11.78,9.09a40.69,40.69,0,0,0,17.31,15.15c3.09,1.39,6.56,1.36,9.09-1.17,2.16-2.16,3.15-6.47,1.17-9.09A118.6,118.6,0,0,0,351.52,242c-7.41-6.57-16.4,3.12-10.61,10.61a62.38,62.38,0,0,0,15.14,13.83c6.23,4.13,14.27-4.05,10.26-10.26L358.44,244c-4.71-7.3-15.34-2.55-13.71,5.78a15.18,15.18,0,0,0,15.12,12l-6.48-11.29-.94,1.36c-5.49,8,7.51,15.48,13,7.57l.94-1.36c3.31-4.8-1.12-11.27-6.48-11.29-.81,0-.3.8-.66-1l-13.71,5.78,7.87,12.19,10.26-10.26A50.67,50.67,0,0,1,351.52,242l-10.61,10.61A100.1,100.1,0,0,1,354.48,267l10.26-10.26A26.77,26.77,0,0,1,352.81,247L341,256.09A62.22,62.22,0,0,1,355.4,273.3L365.66,263a69.67,69.67,0,0,1-18.51-13.12l-9.09,11.78A108.39,108.39,0,0,1,358.33,280l7.3-12.54a46.78,46.78,0,0,1-19.11-15l-10.26,10.26a66,66,0,0,1,20.12,20.32l8.47-11A32.38,32.38,0,0,1,346,258.86l-10.26,10.26a70.54,70.54,0,0,1,20.9,22.12L366.9,281a48.43,48.43,0,0,1-18.52-18.26L336.6,271.8A92.53,92.53,0,0,1,357.29,302l11.78-9.09a167.94,167.94,0,0,1-16.95-19.55c-2.24-3-5.68-4.62-9.37-3.07-3.2,1.35-5.62,5.32-4.34,8.85q5.81,16,10.26,32.45l13.71-5.78A26.62,26.62,0,0,1,358,291.87c-.29-9.62-15.17-9.68-15,0q.26,15.27-.61,30.51c-.23,4,3.61,7.5,7.5,7.5,4.44,0,7-3.46,7.5-7.5a335.14,335.14,0,0,0,2.15-36.32c0-8.16-13.57-10.58-14.73-2l-5.16,38.25h14.46c-3.24-11.81-3.25-23.94-3.2-36.1,0-9.89-13.91-9.35-15,0l-5.45,46.93,12.8-5.3c-3.18-2.57-1.68-12-1.76-16L341,289.35a7.58,7.58,0,0,0-9.49-7.23c-9.45,2.64-9.2,13.78-10.42,21.72l-4.64,30.35,14.73,2,4.71-46.71c.41-4-3.74-7.5-7.5-7.5-4.49,0-7,3.46-7.5,7.5q-1.72,13.31-3.71,26.58c-1.13,7.54-1.6,15.86-5.73,22.48L323.26,337q.94,1.84.45-1.29,0-1.93.11-3.86.11-2.89.29-5.79c.28-4.5.68-9,1.25-13.46a221.43,221.43,0,0,1,5.1-26.45H316a241.22,241.22,0,0,1,1.92,56.45c-.32,4,3.68,7.5,7.5,7.5,4.44,0,7-3.46,7.5-7.5q2.32-19.93,4.89-39.82c1.55-12,3.13-24.38,8.19-35.48l-14-3.79-10.11,85.31h15a690.47,690.47,0,0,0,3.34-92.19c-.29-9.63-15.3-9.67-15,0Z"/><line class="cls-7" x1="306.03" y1="199.81" x2="442.98" y2="314.86"/><text class="cls-8" transform="translate(299.71 532.9) scale(1.01 1)">6</text><text class="cls-9" transform="translate(72.12 532.9) scale(1.11 1)">1</text><line class="cls-10" x1="54" x2="54" y2="36"/><line class="cls-10" y1="54" x2="36" y2="54"/><line class="cls-10" y1="665.54" x2="36" y2="665.54"/><line class="cls-10" x1="54" y1="719.54" x2="54" y2="683.54"/><line class="cls-10" x1="665.54" x2="665.54" y2="36"/><line class="cls-10" x1="719.54" y1="54" x2="683.54" y2="54"/><line class="cls-10" x1="719.54" y1="665.54" x2="683.54" y2="665.54"/><line class="cls-10" x1="665.54" y1="719.54" x2="665.54" y2="683.54"/></g></g></svg>