<svg xmlns="http://www.w3.org/2000/svg" viewBox="0 0 717.92 717.92"><defs><style>.cls-1{fill:#025098;}.cls-2{fill:#001c58;}.cls-3,.cls-6{fill:none;}.cls-3{stroke:#001c58;stroke-miterlimit:10;stroke-width:4px;}.cls-4{font-size:502.8px;}.cls-4,.cls-5{fill:#fff;font-family:BritannicBold, Britannic Bold;}.cls-5{font-size:504.17px;}.cls-6{stroke:#000;stroke-width:0.3px;}</style></defs><title>18</title><g id="图层_2" data-name="图层 2"><g id="图层_1-2" data-name="图层 1"><path class="cls-1" d="M613.55,512.34c0,76.37-40.29,116.67-90,116.67h-332c-49.71,0-90-40.29-90-116.67v-332c0-23,40.29-63.33,90-63.33h332c49.71,0,90,40.29,90,63.33Z"/><path class="cls-2" d="M535.83,214.95l-101.22,6.84-110,48-113,268.44L307.27,629H523.55c49.71,0,90-40.29,90-116.67V297.63Z"/><line class="cls-3" x1="323.07" y1="203.29" x2="372.34" y2="250.32"/><line class="cls-3" x1="325.22" y1="205.79" x2="325.22" y2="281.79"/><line class="cls-3" x1="324.61" y1="279.12" x2="343.94" y2="269.78"/><line class="cls-3" x1="343.94" y1="269.78" x2="343.94" y2="255.12"/><path class="cls-2" d="M337.25,234.46q-1.75,10.35-2.9,20.78c-.35,3.22,4.58,3.12,5,0a117.24,117.24,0,0,0,1-18.42c-.07-2.69-4.43-3.55-4.91-.66q-1.69,10.24-2.57,20.58c-.24,2.79,4.38,3.43,4.91.66,1.48-7.7,1.49-15.42,1.32-23.23-.06-2.69-4.44-3.55-4.91-.66a194.43,194.43,0,0,0-2.31,22.32h5q.43-12.14.18-24.29c-.07-3.27-4.69-3.15-5,0q-1.18,11.86-2.06,23.73h5l.36-25.92c0-3.23-4.86-3.21-5,0a251.39,251.39,0,0,1-2.85,26.08c-.46,3.14,4.32,4.51,4.82,1.33,1.36-8.74,1.28-17.46,1-26.27-.09-3.21-5-3.23-5,0l.28,20.55c0,3.22,5,3.22,5,0l.21-19.92c0-3.22-5-3.22-5,0L328.63,251h5l-.28-20.55h-5c.24,8.33.43,16.68-.85,24.94l4.82,1.33a264.28,264.28,0,0,0,3-27.41h-5L330,255.27c0,3.25,4.76,3.17,5,0q.88-11.88,2.06-23.73h-5q.24,12.15-.18,24.29c-.11,3.22,4.86,3.21,5,0a182.75,182.75,0,0,1,2.14-21l-4.91-.66c.16,7.35.25,14.65-1.14,21.9l4.91.66q.82-9.68,2.39-19.25l-4.91-.66a117.24,117.24,0,0,1-1,18.42h5q1.07-9.77,2.72-19.45c.53-3.15-4.28-4.5-4.82-1.33Z"/><path class="cls-2" d="M327.41,224.08l.07-.55,1.15-1.49h0l3,.39c1,1.14.51,1.12.39.33-.07-.42-.21-.83-.3-1.24-.28-1.19-.53-2.39-.77-3.59s-.46-2.25-.67-3.37c-.07-.4-.14-.8-.22-1.2-.14-.72,0,0,0,0l-3.16,2.41h0l-1.49-1.15-.21-.49c1,3,5.86,1.73,4.82-1.33a2.75,2.75,0,0,0-1.8-1.86c-1.67-.61-3,.94-3.16,2.41-.21,1.92.76,4.45,1.14,6.3s.54,4.81,1.9,6.33a2.53,2.53,0,0,0,4.3-1.89c.17-3.22-4.83-3.21-5,0Z"/><path class="cls-2" d="M326.41,212.1a229.74,229.74,0,0,0-2.58,34.62c.16,11.43,2.81,23.26-1,34.35l4.91.66.3-1.28c1-3.08-3.87-4.4-4.82-1.33a11.42,11.42,0,0,0-.48,2.61c-.27,2.95,4,3.18,4.91.66,3.58-10.37,1.72-21.1,1.3-31.79a211.25,211.25,0,0,1,2.29-37.18c.43-3.15-4.38-4.51-4.82-1.33Z"/><path class="cls-2" d="M326,216q3,17.73,6.79,35.32a2.52,2.52,0,0,0,4.18,1.1c4.05-4.33,3.2-10.45,2.53-15.91a77.5,77.5,0,0,0-5.6-20.77c-.83-2-4.33-2.74-4.82,0a89.16,89.16,0,0,0-.31,29.73c.26,1.69,2.39,2.16,3.67,1.49,3.62-1.87,3.89-5.79,3.89-9.47a88.29,88.29,0,0,0-2.1-18.33c-.68-3.21-5.27-1.77-4.82,1.33,1.38,9.41,3,18.71,7.66,27.13a2.53,2.53,0,0,0,3.93.51c3.06-3,1.4-6.89.34-10.52L336,219.34l-4.82,1.33c4,12.1,8.31,24.26,17.37,33.57,1.68,1.73,5,0,4.18-2.43a91.21,91.21,0,0,0-12.44-24c-1.54-2.13-5.53-1-4.57,1.93a57.13,57.13,0,0,0,16.36,25,2.51,2.51,0,0,0,3.93-3,104.29,104.29,0,0,0-14.6-21.55c-2-2.3-5,.63-3.93,3a67.25,67.25,0,0,0,15.37,21.61,2.51,2.51,0,0,0,3.93-3l-17.14-29.81-3.93,3L345,235.06c2.23,2.43,5.46-1.07,3.54-3.54a49.88,49.88,0,0,0-10.93-10.29c-2.42-1.7-4.85,1.91-3,3.93l24.83,27.46c2.17,2.41,5.61-1.12,3.54-3.54l-11-12.77c-1.58-1.84-5.07.11-4.18,2.43A37.56,37.56,0,0,0,358.27,254c2.09,1.83,5.36-.46,3.93-3a29.83,29.83,0,0,0-7.21-8.7,2.51,2.51,0,0,0-3.93,3l6.61,12.77,2.82-3.67a91.1,91.1,0,0,0-10.84-2.18c-3.09-.43-4.52,3.91-1.33,4.82a17.61,17.61,0,0,0,13.09-1.18c2.4-1.14,1-4.52-1.26-4.66a12.28,12.28,0,0,0-8.62,2.52c-1.71,1.26-1.5,5,1.26,4.66A53,53,0,0,0,365.86,255l-2.43-4.18-3.48,4.22a2.52,2.52,0,0,0,2.43,4.18,10.88,10.88,0,0,0,5.06-2.67c1.47-1.28.6-3.68-1.1-4.18a65.89,65.89,0,0,0-24.51-2.51l2.16,3.76a4.42,4.42,0,0,1,3-3l-3.16-2.41a136.83,136.83,0,0,1-1.25,16.47c-.35,2.49,3.32,4.79,4.57,1.93a35.78,35.78,0,0,0,1.82-24.35c-.69-2.48-4-2.26-4.82,0a70.2,70.2,0,0,0-3.87,24.67c0,2,2.81,3.51,4.27,1.77,6-7.22,5.75-16.3,4.33-25.14-.42-2.64-4.1-2.09-4.82,0a70.1,70.1,0,0,0-3.89,20.2c-.15,4-.18,8.6,4.61,9.11,1.46.16,2.34-1.28,2.5-2.5a41.77,41.77,0,0,0-1.52-18.26c-1.1-3.44-3.34-11.41-7.81-11.55-4.66-.14-4.11,7.27-4.37,10.31a111.85,111.85,0,0,0,.63,23.83c.31,2.36,3.23,3.53,4.66,1.26,2.65-4.19,3.14-8.82,3.26-13.69.16-6.86.2-13.73.29-20.59,0-2.73-4.48-3.51-4.91-.66l-3.21,21.29c-.65,4.32-2.82,10.32-.12,14.29,1.14,1.68,4,1.63,4.57-.6a248.55,248.55,0,0,0,4.48-28.66c.32-2.82-4.25-3.36-4.91-.66a291,291,0,0,0-6,32.46c-.38,3,4,3.13,4.91.66a49.85,49.85,0,0,0,.79-31.7,2.53,2.53,0,0,0-4.57-.6,43,43,0,0,0-6.81,30.19,2.49,2.49,0,0,0,2.41,1.84c4.76-.3,5.41-4.95,6-8.88a101.22,101.22,0,0,0,.79-20.5c-.2-3.28-4.62-3.15-5,0q-1.43,11.95-2,24h5a133,133,0,0,1,.83-16.09h-5a126.62,126.62,0,0,0,.18,17.74,2.52,2.52,0,0,0,4.66,1.26c4.4-6.32,3.17-13.9,1.54-21a2.53,2.53,0,0,0-4.57-.6c-1.83,3.56-5.33,11.55.33,13.61s13.94-1.62,18.52-4.76h-2.52a10.47,10.47,0,0,0,6.79,1.06c1.41-.19,2-1.9,1.75-3.08l-.62-3.17-3.08,3.08,2.44.71,1.93-4.57a25.11,25.11,0,0,0-6.87-1c-3.22,0-3.22,5,0,5a20.21,20.21,0,0,1,5.54.85c2.67.78,4.5-3.29,1.93-4.57a9,9,0,0,0-3.63-1.22,2.54,2.54,0,0,0-3.08,3.08l.62,3.17,1.75-3.08-2.94-.56a2.52,2.52,0,0,0-2.52,0A24.38,24.38,0,0,1,338,264.1l-2.54.27q-2.37.83-1.62-1.51c-.29-1.43,1.22-3.71,1.83-4.9l-4.57-.6c1.33,5.77,2.58,11.92-1,17.11l4.66,1.26a126.62,126.62,0,0,1-.18-17.74c.2-3.26-4.65-3.13-5,0a133,133,0,0,0-.83,16.09c0,3.23,4.84,3.2,5,0q.59-12,2-24h-5a101.62,101.62,0,0,1,0,12.65c-.12,1.83-.53,11.66-1.8,11.74l2.41,1.84A37.75,37.75,0,0,1,337.73,250l-4.57-.6a45.23,45.23,0,0,1-.79,29l4.91.66A279.26,279.26,0,0,1,343.07,248l-4.91-.66a236.94,236.94,0,0,1-4.3,27.33l4.57-.6c-1.48-2.18,0-6.12.34-8.5l1.17-7.74,2.33-15.48-4.91-.66-.24,16.85c-.07,5.13.22,10.41-2.63,14.91l4.66,1.26a113.82,113.82,0,0,1-1-15.24c0-1.87,0-14.34,1.06-14.57-2.95.61.73,5.87,1.16,7a37.48,37.48,0,0,1,1.39,4.65,38.55,38.55,0,0,1,.48,13.81l2.5-2.5c.09,0,1-10.82,1.13-11.57a68.66,68.66,0,0,1,3-11.41H344c1.09,6.82,1.69,14.63-3,20.28l4.27,1.77a66.24,66.24,0,0,1,3.7-23.34h-4.82a30.21,30.21,0,0,1-1.32,20.49l4.57,1.93a147.82,147.82,0,0,0,1.43-17.8,2.52,2.52,0,0,0-3.16-2.41,9.47,9.47,0,0,0-5.95,5.32c-.69,1.55.07,3.94,2.16,3.76A62.06,62.06,0,0,1,365,257.21L363.9,253l-2.85,1.39,2.43,4.18,3.48-4.22c1.39-1.69.14-5.21-2.43-4.18a48,48,0,0,1-11.73,3.17l1.26,4.66a9,9,0,0,1,6.1-1.84l-1.26-4.66a12.28,12.28,0,0,1-9.24.68L348.33,257a91.1,91.1,0,0,1,10.84,2.18,2.53,2.53,0,0,0,2.82-3.67l-6.61-12.77-3.93,3a26.3,26.3,0,0,1,6.42,7.68l3.93-3a32.51,32.51,0,0,1-9.23-13l-4.18,2.43,11,12.77,3.54-3.54-24.83-27.46-3,3.93a45.61,45.61,0,0,1,9.92,9.5l3.54-3.54-9.27-10.13c-1.94-2.12-5.32.6-3.93,3l17.14,29.81,3.93-3a63.56,63.56,0,0,1-14.58-20.59l-3.93,3a99,99,0,0,1,13.82,20.54l3.93-3a52.08,52.08,0,0,1-15.07-22.79L336,230.29a86.72,86.72,0,0,1,11.93,22.84l4.18-2.43C343.63,242,339.7,230.6,336,219.34c-1-3-5.73-1.79-4.82,1.33l3.45,11.85c.5,1.72,4.18,10.67,2.8,12l3.93.51c-4.44-8-5.84-17-7.15-25.94l-4.82,1.33a84.61,84.61,0,0,1,1.72,11.66c.16,2.22,1.38,9.16-1.21,10.49l3.67,1.49a81.55,81.55,0,0,1,.31-27.07H329a77.19,77.19,0,0,1,4.63,14.72c.87,4.32,3.19,13.4-.27,17.09l4.18,1.1q-3.75-17.59-6.79-35.32c-.54-3.16-5.36-1.82-4.82,1.33Z"/><path class="cls-2" d="M340.56,238.16a26.28,26.28,0,0,0,8.25,9.39c1.77,1.27,4.33-.84,3.67-2.82a25,25,0,0,0-7-10.88c-2.37-2.16-5.85,1.27-3.54,3.54l8.88,8.7c2.14,2.1,5.05-.54,3.93-3,.06.14-2.08-4.4-2.25-4.09l-2.82,1.15c.74.15,3.21,5.45,3.72,6.27l4.16,6.76c1.43,2.33,5.5.85,4.57-1.93a53.1,53.1,0,0,0-6.29-12.88,2.5,2.5,0,0,0-4.32,2.52,31.76,31.76,0,0,0,9.81,11.47c2,1.45,4.93-1.47,3.42-3.42l-7.9-10.24-3.93,3a73.77,73.77,0,0,1,8.8,9.57l3.93-3a22.62,22.62,0,0,1-5.62-7.6l-3.93,3,5.64,6.33c2.16,2.42,5.59-1.11,3.54-3.54a50.81,50.81,0,0,0-8-7.55c-2-1.51-4.85,1.46-3.42,3.42a35.69,35.69,0,0,0,7.38,7.53c2,1.55,4.68-1.42,3.42-3.42a24.13,24.13,0,0,0-4.34-5.2l-3.54,3.54a95.72,95.72,0,0,1,7.19,7l3.54-3.54a55.89,55.89,0,0,1-5.08-4.93c-2-2.22-5.09.6-3.93,3a30.22,30.22,0,0,0,6.41,8.84,2.53,2.53,0,0,0,4.18-1.1,8.36,8.36,0,0,0-.6-7.24l-3.93,3,1.89,2c1.88,2,5.67-.75,3.93-3a53.67,53.67,0,0,0-6.29-7,2.52,2.52,0,0,0-4.18,2.43,18,18,0,0,0,6.46,9.72c1.69,1.31,5.24.19,4.18-2.43a35.66,35.66,0,0,0-7.16-11.31c-2-2.17-5.11.58-3.93,3a5.51,5.51,0,0,0,2.63,2.85c2.51,1.61,4.8-1.87,3-3.93a42.29,42.29,0,0,0-12-9.66l-2.52,4.32a45.4,45.4,0,0,1,7.23,4.35c2.43,1.78,4.75-1.91,3-3.93a33.65,33.65,0,0,0-10.08-8.07,2.52,2.52,0,0,0-3.42,3.42,22.56,22.56,0,0,0,5.05,6.88c2,1.87,5.56-.58,3.93-3a31,31,0,0,0-5.88-6.68c-2-1.74-5.53.48-3.93,3a22.18,22.18,0,0,0,4.92,5.62c2.45,2,5.81-1.16,3.54-3.54a72.22,72.22,0,0,0-8-7.21c-1.69-1.31-5.22-.19-4.18,2.43a9.71,9.71,0,0,0,5.45,5.91c2,.87,5-1.12,3.42-3.42L344.85,223c-1.51-2.16-5.61-.92-4.57,1.93a36,36,0,0,0,3.87,7.74l3.93-3A78,78,0,0,1,339,221.3l-3.54,3.54a22.87,22.87,0,0,0,4.27,3.38c2.29,1.42,4.41-1.3,3.42-3.42a39.67,39.67,0,0,0-5.24-8.28c-1.69-2.09-4.66.22-4.18,2.43a14.19,14.19,0,0,0,.94,3.3l4.18-2.43a12,12,0,0,0-4-2.83c-2.12-.93-4.85,1.09-3.42,3.42a26.75,26.75,0,0,0,3.58,4.64c2.23,2.33,5.76-1.21,3.54-3.54a13.41,13.41,0,0,1-2.8-3.63l-3.42,3.42a6.17,6.17,0,0,1,3,2c1.68,1.72,5,0,4.18-2.43a14.19,14.19,0,0,1-.94-3.3l-4.18,2.43a34.73,34.73,0,0,1,4.46,7.27l3.42-3.42a11.39,11.39,0,0,1-3.26-2.6c-2.28-2.29-5.73,1.19-3.54,3.54a78,78,0,0,0,9.07,8.29c2,1.59,5.65-.44,3.93-3a30.32,30.32,0,0,1-3.36-6.55l-4.57,1.93,6.78,9.72,3.42-3.42a4.69,4.69,0,0,1-3.15-2.92l-4.18,2.43a72.22,72.22,0,0,1,8,7.21l3.54-3.54a18.35,18.35,0,0,1-4.14-4.61l-3.93,3a26.68,26.68,0,0,1,5.1,5.67l3.93-3a19,19,0,0,1-4.27-5.87l-3.42,3.42a29.91,29.91,0,0,1,9.07,7.29l3-3.93a45.4,45.4,0,0,0-7.23-4.35c-2.87-1.38-5.38,2.77-2.52,4.32a38.59,38.59,0,0,1,11,8.88l3-3.93-.84-1.06-3.93,3a28.9,28.9,0,0,1,5.87,9.1l4.18-2.43a13.84,13.84,0,0,1-5.17-7.51l-4.18,2.43a46.38,46.38,0,0,1,5.51,6l3.93-3-1.89-2c-2-2.17-5.16.59-3.93,3l.1,3.39,4.18-1.1a26.52,26.52,0,0,1-5.63-7.82l-3.93,3a55.89,55.89,0,0,0,5.08,4.93c2.43,2.08,5.75-1.15,3.54-3.54a95.72,95.72,0,0,0-7.19-7c-2.41-2.1-5.94,1.37-3.54,3.54a19.57,19.57,0,0,1,3.56,4.18l3.42-3.42a27.18,27.18,0,0,1-5.59-5.74l-3.42,3.42a45.26,45.26,0,0,1,7,6.77l3.54-3.54-5.64-6.33c-2-2.26-5,.61-3.93,3a25.92,25.92,0,0,0,6.41,8.61c2,1.77,5.74-.65,3.93-3a81,81,0,0,0-9.58-10.58c-2-1.81-5.74.68-3.93,3l7.9,10.24,3.42-3.42a26.45,26.45,0,0,1-8-9.67l-4.32,2.52a47.83,47.83,0,0,1,5.78,11.68l4.57-1.93-6.76-11c-1.09-1.77-1.9-3.91-4.11-4.34a2.58,2.58,0,0,0-2.82,1.15c-1.64,3,1,6.44,2.25,9.14l3.93-3-8.88-8.7L342,237.38a19.84,19.84,0,0,1,5.71,8.68l3.67-2.82a21,21,0,0,1-6.46-7.6c-1.49-2.85-5.81-.33-4.32,2.52Z"/><text class="cls-4" transform="translate(324.61 537.48) scale(0.93 1)">8</text><text class="cls-5" transform="translate(68.79 538.23) scale(1.21 1)">1</text><line class="cls-6" x1="54" x2="54" y2="36"/><line class="cls-6" y1="54" x2="36" y2="54"/><line class="cls-6" y1="663.92" x2="36" y2="663.92"/><line class="cls-6" x1="54" y1="717.92" x2="54" y2="681.92"/><line class="cls-6" x1="663.92" x2="663.92" y2="36"/><line class="cls-6" x1="717.92" y1="54" x2="681.92" y2="54"/><line class="cls-6" x1="717.92" y1="663.92" x2="681.92" y2="663.92"/><line class="cls-6" x1="663.92" y1="717.92" x2="663.92" y2="681.92"/></g></g></svg>