<svg xmlns="http://www.w3.org/2000/svg" viewBox="0 0 708 708"><defs><style>.cls-1{fill:#025098;}.cls-2{fill:#021e56;}.cls-3{font-size:504.28px;fill:#fff;font-family:BritannicBold, Britannic Bold;}.cls-4{fill:none;stroke:#000;stroke-width:0.3px;}</style></defs><title>2</title><g id="图层_2" data-name="图层 2"><g id="图层_1-2" data-name="图层 1"><path class="cls-1" d="M522,110H190c-49.71,0-90,40.29-90,63.33v332C100,581.71,140.29,622,190,622H305.55L224.1,532.46l58.58-59.74L457.75,229.31,612,382.6V173.33C612,150.29,571.71,110,522,110Z"/><path class="cls-2" d="M282.68,472.72,224.1,532.46,305.55,622H522c49.71,0,90-40.29,90-116.67V382.6L457.75,229.31Z"/><text class="cls-3" transform="translate(199.28 532.26) scale(1.01 1)">2</text><line class="cls-4" x1="54" x2="54" y2="36"/><line class="cls-4" y1="54" x2="36" y2="54"/><line class="cls-4" y1="654" x2="36" y2="654"/><line class="cls-4" x1="54" y1="708" x2="54" y2="672"/><line class="cls-4" x1="654" x2="654" y2="36"/><line class="cls-4" x1="708" y1="54" x2="672" y2="54"/><line class="cls-4" x1="708" y1="654" x2="672" y2="654"/><line class="cls-4" x1="654" y1="708" x2="654" y2="672"/></g></g></svg>