<svg xmlns="http://www.w3.org/2000/svg" xmlns:xlink="http://www.w3.org/1999/xlink" viewBox="0 0 701.89 706.12"><defs><style>.cls-1,.cls-7{fill:none;}.cls-2{fill:#025098;}.cls-3{clip-path:url(#clip-path);}.cls-4{fill:#001c58;}.cls-5{clip-path:url(#clip-path-2);}.cls-6{font-size:441.1px;fill:#fff;font-family:BritannicBold, Britannic Bold;letter-spacing:-0.08em;}.cls-7{stroke:#000;stroke-width:0.3px;}</style><clipPath id="clip-path"><polygon class="cls-1" points="647.88 652.12 639.76 612.39 676.07 562.82 320.19 217.19 309.92 268.84 210.76 417.96 130.2 495.08 309.76 674.97 647.88 652.12"/></clipPath><clipPath id="clip-path-2"><polygon class="cls-1" points="652.54 626.53 698.78 501.36 694.76 356.39 561.66 223.3 411.76 217.19 403.14 303.96 365.2 495.08 460.76 590.63 652.54 626.53"/></clipPath></defs><title>22</title><g id="图层_2" data-name="图层 2"><g id="图层_1-2" data-name="图层 1"><path class="cls-2" d="M611.49,495.73c0,76.37-40.29,116.67-90,116.67h-332c-49.71,0-90-40.29-90-116.67v-332c0-23,40.29-63.33,90-63.33h332c49.71,0,90,40.29,90,63.33Z"/><g class="cls-3"><path class="cls-4" d="M611.49,495.73c0,76.37-40.29,116.67-90,116.67h-332c-49.71,0-90-40.29-90-116.67v-332c0-23,40.29-63.33,90-63.33h332c49.71,0,90,40.29,90,63.33Z"/></g><g class="cls-5"><path class="cls-4" d="M611.49,495.73c0,76.37-40.29,116.67-90,116.67h-332c-49.71,0-90-40.29-90-116.67v-332c0-23,40.29-63.33,90-63.33h332c49.71,0,90,40.29,90,63.33Z"/></g><text class="cls-6" transform="translate(108.76 495.08)">22</text><line class="cls-7" x1="54" x2="54" y2="36"/><line class="cls-7" y1="54" x2="36" y2="54"/><line class="cls-7" y1="652.12" x2="36" y2="652.12"/><line class="cls-7" x1="54" y1="706.12" x2="54" y2="670.12"/><line class="cls-7" x1="647.89" x2="647.89" y2="36"/><line class="cls-7" x1="701.89" y1="54" x2="665.89" y2="54"/><line class="cls-7" x1="701.89" y1="652.12" x2="665.89" y2="652.12"/><line class="cls-7" x1="647.89" y1="706.12" x2="647.89" y2="670.12"/></g></g></svg>