<svg xmlns="http://www.w3.org/2000/svg" xmlns:xlink="http://www.w3.org/1999/xlink" viewBox="0 0 712.91 714.12"><defs><style>.cls-1,.cls-7{fill:none;}.cls-2{fill:#025098;}.cls-3{clip-path:url(#clip-path);}.cls-4{fill:#001c58;}.cls-5{clip-path:url(#clip-path-2);}.cls-6{font-size:441.1px;fill:#fff;font-family:BritannicBold, Britannic Bold;letter-spacing:-0.08em;}.cls-7{stroke:#000;stroke-width:0.3px;}</style><clipPath id="clip-path"><polygon class="cls-1" points="658.91 660.12 650.78 620.39 687.1 570.82 331.21 225.19 320.94 276.84 221.78 425.96 141.23 503.08 320.78 682.97 658.91 660.12"/></clipPath><clipPath id="clip-path-2"><polygon class="cls-1" points="663.56 634.53 709.8 509.36 697.78 342.96 564.68 209.87 529.44 273.84 489.78 259.96 376.23 503.08 471.78 598.63 663.56 634.53"/></clipPath></defs><title>24</title><g id="图层_2" data-name="图层 2"><g id="图层_1-2" data-name="图层 1"><path class="cls-2" d="M622.51,503.73c0,76.37-40.29,116.67-90,116.67h-332c-49.71,0-90-40.29-90-116.67v-332c0-23,40.29-63.33,90-63.33h332c49.71,0,90,40.29,90,63.33Z"/><g class="cls-3"><path class="cls-4" d="M622.51,503.73c0,76.37-40.29,116.67-90,116.67h-332c-49.71,0-90-40.29-90-116.67v-332c0-23,40.29-63.33,90-63.33h332c49.71,0,90,40.29,90,63.33Z"/></g><g class="cls-5"><path class="cls-4" d="M622.51,503.73c0,76.37-40.29,116.67-90,116.67h-332c-49.71,0-90-40.29-90-116.67v-332c0-23,40.29-63.33,90-63.33h332c49.71,0,90,40.29,90,63.33Z"/></g><text class="cls-6" transform="translate(119.78 503.08)">24</text><line class="cls-7" x1="54" x2="54" y2="36"/><line class="cls-7" y1="54" x2="36" y2="54"/><line class="cls-7" y1="660.12" x2="36" y2="660.12"/><line class="cls-7" x1="54" y1="714.12" x2="54" y2="678.12"/><line class="cls-7" x1="658.91" x2="658.91" y2="36"/><line class="cls-7" x1="712.91" y1="54" x2="676.91" y2="54"/><line class="cls-7" x1="712.91" y1="660.12" x2="676.91" y2="660.12"/><line class="cls-7" x1="658.91" y1="714.12" x2="658.91" y2="678.12"/></g></g></svg>