<svg xmlns="http://www.w3.org/2000/svg" viewBox="0 0 709.84 709.84"><defs><style>.cls-1{fill:#025098;}.cls-2{fill:#021e56;}.cls-3{font-size:537.28px;fill:#fdfeff;font-family:BritannicBold, Britannic Bold;}.cls-4{fill:none;stroke:#000;stroke-width:0.3px;}</style></defs><title>6</title><g id="图层_2" data-name="图层 2"><g id="图层_1-2" data-name="图层 1"><g id="_编组_" data-name="&lt;编组&gt;"><path id="_路径_" data-name="&lt;路径&gt;" class="cls-1" d="M321.07,529.7C404,551.65,441,423.63,441,423.63l-23.6-76.81L390.56,313.9l-98.76,43.89L265,322.44l4.88-62.18,92.66-74.37L454,204.17,612.52,357.68V172.84c0-23-40.29-63.33-90-63.33h-332c-49.71,0-90,40.29-90,63.33v332c0,76.37,40.29,116.67,90,116.67h170.3L255.08,511.79Z"/><path id="_路径_2" data-name="&lt;路径&gt;" class="cls-2" d="M612.52,504.84V357.68L454,204.17l-91.44-18.29-92.66,74.37L265,322.44l26.82,35.36,98.76-43.89,26.82,32.92L441,423.63s-37,128-119.92,106.07l-66-17.91L360.82,621.5h161.7C572.23,621.5,612.52,581.21,612.52,504.84Z"/></g><text class="cls-3" transform="translate(180.56 537.47)">6</text><line class="cls-4" x1="54" x2="54" y2="36"/><line class="cls-4" y1="54" x2="36" y2="54"/><line class="cls-4" y1="655.84" x2="36" y2="655.84"/><line class="cls-4" x1="54" y1="709.84" x2="54" y2="673.84"/><line class="cls-4" x1="655.84" x2="655.84" y2="36"/><line class="cls-4" x1="709.84" y1="54" x2="673.84" y2="54"/><line class="cls-4" x1="709.84" y1="655.84" x2="673.84" y2="655.84"/><line class="cls-4" x1="655.84" y1="709.84" x2="655.84" y2="673.84"/></g></g></svg>