<svg xmlns="http://www.w3.org/2000/svg" viewBox="0 0 719.34 719.34"><defs><style>.cls-1{fill:#025098;}.cls-2{fill:#021e56;}.cls-3{font-size:537.28px;fill:#fdfeff;font-family:BritannicBold, Britannic Bold;}.cls-4{fill:none;stroke:#000;stroke-width:0.3px;}</style></defs><title>7</title><g id="图层_2" data-name="图层 2"><g id="图层_1-2" data-name="图层 1"><g id="_编组_" data-name="&lt;编组&gt;"><path id="_路径_" data-name="&lt;路径&gt;" class="cls-1" d="M491.22,172,615.67,294.21V165c0-23-40.29-63.33-90-63.33h-332c-49.71,0-90,40.29-90,63.33V497c0,76.37,40.29,116.67,90,116.67h169l-80.13-84Z"/><path id="_路径_2" data-name="&lt;路径&gt;" class="cls-2" d="M615.67,497V294.21L491.22,172,282.58,529.64l80.13,84h163C575.37,613.67,615.67,573.37,615.67,497Z"/></g><text class="cls-3" transform="translate(198.63 529.64)">7</text><line class="cls-4" x1="54" x2="54" y2="36"/><line class="cls-4" y1="54" x2="36" y2="54"/><line class="cls-4" y1="665.34" x2="36" y2="665.34"/><line class="cls-4" x1="54" y1="719.34" x2="54" y2="683.34"/><line class="cls-4" x1="665.34" x2="665.34" y2="36"/><line class="cls-4" x1="719.34" y1="54" x2="683.34" y2="54"/><line class="cls-4" x1="719.34" y1="665.34" x2="683.34" y2="665.34"/><line class="cls-4" x1="665.34" y1="719.34" x2="665.34" y2="683.34"/></g></g></svg>