<svg xmlns="http://www.w3.org/2000/svg" xmlns:xlink="http://www.w3.org/1999/xlink" viewBox="0 0 725.21 725.21"><defs><style>.cls-1,.cls-6{fill:none;}.cls-2{fill:#025098;}.cls-3{clip-path:url(#clip-path);}.cls-4{fill:#001c58;}.cls-5{font-size:308.56px;fill:#fff;font-family:STLiti, STLiti;letter-spacing:-0.34em;}.cls-6{stroke:#000;stroke-width:0.3px;}</style><clipPath id="clip-path"><polygon class="cls-1" points="753.51 680.89 745.38 641.17 692.42 405.69 478.86 198.28 454.24 209.91 292.24 214.41 256.24 334.41 228.24 363.17 267.24 396.17 257.24 411.06 239.69 523.86 419.24 703.74 753.51 680.89"/></clipPath></defs><title>71</title><g id="图层_2" data-name="图层 2"><g id="图层_1-2" data-name="图层 1"><path class="cls-2" d="M612.11,515.5c0,76.37-40.29,116.67-90,116.67h-332c-49.71,0-90-40.29-90-116.67v-332c0-23,40.29-63.33,90-63.33h332c49.71,0,90,40.29,90,63.33Z"/><g class="cls-3"><path class="cls-4" d="M612.11,515.5c0,76.37-40.29,116.67-90,116.67h-332c-49.71,0-90-40.29-90-116.67v-332c0-23,40.29-63.33,90-63.33h332c49.71,0,90,40.29,90,63.33Z"/></g><text class="cls-5" transform="translate(198.86 367.66)">启<tspan x="0" y="204.2">明 </tspan></text><line class="cls-6" x1="54" x2="54" y2="36"/><line class="cls-6" y1="54" x2="36" y2="54"/><line class="cls-6" y1="671.21" x2="36" y2="671.21"/><line class="cls-6" x1="54" y1="725.21" x2="54" y2="689.21"/><line class="cls-6" x1="671.21" x2="671.21" y2="36"/><line class="cls-6" x1="725.21" y1="54" x2="689.21" y2="54"/><line class="cls-6" x1="725.21" y1="671.21" x2="689.21" y2="671.21"/><line class="cls-6" x1="671.21" y1="725.21" x2="671.21" y2="689.21"/></g></g></svg>