<svg xmlns="http://www.w3.org/2000/svg" viewBox="0 0 713.67 713.67"><defs><style>.cls-1{fill:#025098;}.cls-2{fill:#021e56;}.cls-3{font-size:537.28px;fill:#fdfeff;font-family:BritannicBold, Britannic Bold;}.cls-4{fill:none;stroke:#000;stroke-width:0.3px;}</style></defs><title>8</title><g id="图层_2" data-name="图层 2"><g id="图层_1-2" data-name="图层 1"><g id="_编组_" data-name="&lt;编组&gt;"><path id="_路径_" data-name="&lt;路径&gt;" class="cls-1" d="M338.57,537.31s82,5,98.08-27,41.22-72.55,19-93.83-20.31-52.24-35.79-63.84-10.64-22.25-10.64-22.25,83.85-28.82,52.56-121.3L614.58,355.67v-183c0-23-40.29-63.33-90-63.33h-332c-49.71,0-90,40.29-90,63.33v332c0,76.37,40.29,116.67,90,116.67H357.5L237,496.79Z"/><path id="_路径_2" data-name="&lt;路径&gt;" class="cls-2" d="M614.58,504.67v-149L461.75,209.12c31.28,92.48-52.56,121.3-52.56,121.3s-4.84,10.64,10.64,22.25,13.54,42.56,35.79,63.84-2.9,61.91-19,93.83-98.08,27-98.08,27L237,496.79,357.5,621.34H524.58C574.28,621.34,614.58,581,614.58,504.67Z"/></g><text class="cls-3" transform="translate(197.54 537.31)">8</text><line class="cls-4" x1="54" x2="54" y2="36"/><line class="cls-4" y1="54" x2="36" y2="54"/><line class="cls-4" y1="659.67" x2="36" y2="659.67"/><line class="cls-4" x1="54" y1="713.67" x2="54" y2="677.67"/><line class="cls-4" x1="659.67" x2="659.67" y2="36"/><line class="cls-4" x1="713.67" y1="54" x2="677.67" y2="54"/><line class="cls-4" x1="713.67" y1="659.67" x2="677.67" y2="659.67"/><line class="cls-4" x1="659.67" y1="713.67" x2="659.67" y2="677.67"/></g></g></svg>