<svg xmlns="http://www.w3.org/2000/svg" viewBox="0 0 713.67 713.67"><defs><style>.cls-1{fill:#025098;}.cls-2{fill:#021e56;}.cls-3{font-size:537.28px;fill:#fdfeff;font-family:BritannicBold, Britannic Bold;}.cls-4{fill:none;stroke:#000;stroke-width:0.3px;}</style></defs><title>9</title><g id="图层_2" data-name="图层 2"><g id="图层_1-2" data-name="图层 1"><g id="_编组_" data-name="&lt;编组&gt;"><path id="_路径_" data-name="&lt;路径&gt;" class="cls-1" d="M265.43,498.2l72.06,28.74a6.27,6.27,0,0,0,2,.44c9.61.44,81.05,2.7,95.86-26.71,15.88-31.55,40.73-71.7,18.75-92.73s-20.08-51.62-35.37-63.09c-8.84-6.63-11-12.95-11.2-17.09a6.3,6.3,0,0,1,3.81-6.14c13.45-5.76,65.26-32.41,54.19-97.69a6.31,6.31,0,0,1,10.58-5.65l139.52,133.8V161.33c0-23-40.29-63.33-90-63.33h-332c-49.71,0-90,40.29-90,63.33v332c0,76.37,40.29,116.67,90,116.67H356.81L258.56,508.45A6.31,6.31,0,0,1,265.43,498.2Z"/><path id="_路径_2" data-name="&lt;路径&gt;" class="cls-2" d="M615.67,493.33V352.08L476.15,218.29a6.31,6.31,0,0,0-10.58,5.65c11.07,65.28-40.74,91.94-54.19,97.69a6.3,6.3,0,0,0-3.81,6.14c.23,4.15,2.36,10.46,11.2,17.09,15.3,11.47,13.38,42.06,35.37,63.09s-2.87,61.18-18.75,92.73c-14.8,29.41-86.25,27.15-95.86,26.71a6.27,6.27,0,0,1-2-.44L265.43,498.2a6.31,6.31,0,0,0-6.87,10.25L356.81,610H525.67C575.37,610,615.67,569.71,615.67,493.33Z"/></g><text class="cls-3" transform="translate(198.63 525.97)">9</text><line class="cls-4" x1="54" x2="54" y2="36"/><line class="cls-4" y1="54" x2="36" y2="54"/><line class="cls-4" y1="659.67" x2="36" y2="659.67"/><line class="cls-4" x1="54" y1="713.67" x2="54" y2="677.67"/><line class="cls-4" x1="659.67" x2="659.67" y2="36"/><line class="cls-4" x1="713.67" y1="54" x2="677.67" y2="54"/><line class="cls-4" x1="713.67" y1="659.67" x2="677.67" y2="659.67"/><line class="cls-4" x1="659.67" y1="713.67" x2="659.67" y2="677.67"/></g></g></svg>