<svg xmlns="http://www.w3.org/2000/svg" viewBox="0 0 713.67 713.67"><defs><style>.cls-1{fill:#036eb7;}.cls-2{fill:#182987;}.cls-3,.cls-4{fill:#fff;}.cls-4,.cls-7,.cls-8{stroke:#ffef00;}.cls-4,.cls-7,.cls-8,.cls-9{stroke-miterlimit:10;}.cls-5{fill:#e40012;}.cls-6{fill:#ffef00;}.cls-10,.cls-7,.cls-8{fill:none;}.cls-7{stroke-width:3px;}.cls-8,.cls-9{stroke-width:0.25px;}.cls-9{font-size:144.21px;fill:#ffe000;stroke:#f29600;font-family:STXinwei, STXinwei;}.cls-10{stroke:#000;stroke-width:0.3px;}</style></defs><title>biaoju</title><g id="图层_2" data-name="图层 2"><g id="图层_1-2" data-name="图层 1"><path class="cls-1" d="M341.66,546l42.08-208.62-79.92-73.43,220-69.82,84.41,55.48V493.33c0,76.37-40.29,116.67-90,116.67H520c49.71,0,90-40.29,90-116.67v-332c0-23-40.29-63.33-90-63.33H188c-49.71,0-90,40.29-90,63.33v332C98,569.71,138.29,610,188,610H379.28Z"/><path class="cls-2" d="M608.24,493.33V249.59l-84.41-55.48-220,69.82,79.92,73.43L341.66,546l37.62,64h139C567.95,610,608.24,569.71,608.24,493.33Z"/><rect class="cls-3" x="172.92" y="195.84" width="350.98" height="12" transform="translate(-1.97 3.44) rotate(-0.56)"/><path class="cls-4" d="M247.67,209.57"/><polygon class="cls-5" points="486.41 215.7 352.44 496.35 210.4 219.7 486.41 215.7"/><path class="cls-6" d="M200.75,227.72c-.2,3.56-2.43,6.51-2.81,10-.32,3,.67,5.56,2.05,8.21,3.93,7.55,8.63,14.79,12.93,22.13,1.34,2.28,4.44,1.09,4.66-1.26.5-5.23-2.12-9.28-4.82-13.54-3.36-5.3-5.17-11-6.81-17l-4.82,1.33,2.83,8.65c.84,2.57,5,2.28,4.91-.66A46.55,46.55,0,0,0,206,231.22l-4.18,2.43c6.7,7.95,6.13,19.16,12.21,27.47a2.51,2.51,0,0,0,4.57-1.93,45.27,45.27,0,0,0-7.44-16.73c-1.84-2.57-6-.27-4.32,2.52l7,11.38c1.45,2.36,5.43.86,4.57-1.93a38.06,38.06,0,0,0-6.06-12A2.5,2.5,0,0,0,208,245l2.35,5c1.28,2.72,5.06.68,4.57-1.93a9.9,9.9,0,0,0-1.19-3.38c-1.13-2.26-4.68-1.13-4.66,1.26,0,3.28,1.21,5.85,2.88,8.62a76.26,76.26,0,0,1,6.14,13c1.11,3,5.95,1.69,4.82-1.33a92.08,92.08,0,0,0-4.15-9.95c-1.7-3.32-4.65-6.51-4.69-10.4l-4.66,1.26.68,2.19,4.57-1.93-2.35-5L208,245a34.06,34.06,0,0,1,5.56,10.76l4.57-1.93-7-11.38L206.85,245a41.82,41.82,0,0,1,6.94,15.53l4.57-1.93c-6.34-8.66-5.9-20.07-13-28.48-1.58-1.87-5,.12-4.18,2.43a41.77,41.77,0,0,1,2.69,13l4.91-.66L206,236.26c-1-3-5.68-1.8-4.82,1.33a75.56,75.56,0,0,0,4.85,14c2.46,4.94,7.16,9.38,6.61,15.26l4.66-1.26q-5.63-9.63-11.26-19.25c-2.17-3.72-3.7-6.4-2.31-10.76.86-2.71,1.91-4.92,2.08-7.82.18-3.21-4.82-3.2-5,0Z"/><path class="cls-6" d="M217.24,271l0,14.68h5l-.37-15.23c-.08-3.25-4.75-3.18-5,0-.28,3.5-.38,7-.32,10.49.06,3.22,4.89,3.21,5,0a73.59,73.59,0,0,0-.31-9.83c-.26-2.68-4.11-3.55-4.91-.66a65.79,65.79,0,0,0-2.08,11.38h5l1-12.41c.25-3-4-3.17-4.91-.66a59,59,0,0,0-2.84,12.06h5l.7-9.82h-5a40.43,40.43,0,0,1-.94,6.23c-.72,3.13,4.06,4.46,4.82,1.33a22.2,22.2,0,0,0,.51-8.52c-.22-1.62-2.05-3.46-3.76-2.16a6.41,6.41,0,0,0-3,5.85c.13,3.25,4.72,3.18,5,0l.54-6.2-4.91.66a3.72,3.72,0,0,1-1.53,4.34,2.53,2.53,0,0,0,0,3.54,4.31,4.31,0,0,1,1.69,4.29l4.18,2.43.78-3.13a2.51,2.51,0,0,0-4.57-1.93c-2.06,3.18-4.88,6.51-6.44,10a3.81,3.81,0,0,0,.11,4.12c1.21,1.72,4,2.35,5.84,3.07l10,4a2.51,2.51,0,0,0,3.08-3.08,130.48,130.48,0,0,0-6-13.27c-1.36-2.58-5.2-.76-4.57,1.93a56.54,56.54,0,0,0,2.62,8.31c.81,2,4.32,2.7,4.82,0a10.33,10.33,0,0,0-2.58-9.42c-1.48-1.67-4.25-.3-4.27,1.77l0,5.12,4.91-.66a8.89,8.89,0,0,0-4.14-6.24c-1.85-1.31-4.2.85-3.67,2.82l1.31-1.06a2.54,2.54,0,0,0-2.5,2.5,4.11,4.11,0,0,0,6.91,3.34c3.94-3.28,4.32-11.09,4.3-15.74l-3.76,2.16c3.44,2.52,2.36,8,6.51,10.51,2.23,1.35,4.53-1.28,3.42-3.42q-3.32-6.39-7.11-12.5c-1.72-2.78-5.66-.36-4.32,2.52a42.15,42.15,0,0,0,7.05,11.33c1.4,1.51,4.46.41,4.27-1.77a19.52,19.52,0,0,0-3-9.37c-2.18-3.28-7.34-5.74-6.83-10.17l-4.66,1.26,7.08,12.85c1.34,2.43,5.54.79,4.57-1.93q-2.87-8-5.47-16.08l-4.57,1.93a78.89,78.89,0,0,1,6.75,12.57c1.21,2.87,5.92,1.77,4.82-1.33a111.06,111.06,0,0,0-6.84-15.45l-4.32,2.52,6,10.67c1.62,2.86,5.6.35,4.32-2.52l-5.44-12.2c-1.14-2.56-5.56-.73-4.57,1.93,3,8,5.35,16.69,9.59,24.1,1.39,2.44,5.39.82,4.57-1.93a22.43,22.43,0,0,0-3.24-6.75c-1.51-2.14-5.63-.92-4.57,1.93a83.66,83.66,0,0,0,5.19,11.38c1.34,2.42,5.58.78,4.57-1.93l-3.31-8.83-4.82,1.33a61.73,61.73,0,0,0,4.87,9.48,2.51,2.51,0,0,0,4.57-1.93,38.37,38.37,0,0,0-7.67-16.53c-1.78-2.28-5.3.64-3.93,3l4.84,8.42c1.36,2.37,5.69.75,4.57-1.93a30.31,30.31,0,0,0-5.78-9.09c-1.6-1.74-5.16.08-4.18,2.43a266.47,266.47,0,0,0,11.55,24.27l4.32-2.52-6.44-11.28c-1.44-2.53-5.17-.79-4.57,1.93a23.84,23.84,0,0,0,5.78,11.12c1.81,2,4.59-.18,4.18-2.43a37.59,37.59,0,0,0-3.46-10.27c-1.34-2.69-5.05-.69-4.57,1.93a26.58,26.58,0,0,0,5.5,11.89c1.51,1.93,5.08-.17,4.18-2.43l-3.31-8.28a2.5,2.5,0,0,0-4.82,1.33,12.22,12.22,0,0,0,3.11,6.37c1.66,1.94,4.84-.13,4.18-2.43a79,79,0,0,0-3.46-9.55l-4.32,2.52,5.87,11.15c1.51,2.86,5.74.34,4.32-2.52a39.7,39.7,0,0,0-3.76-6.11c-1.89-2.54-5.81-.4-4.32,2.52l3.93,7.69,4.32-2.52a51.69,51.69,0,0,0-7.19-8.41c-1.49-1.4-4.39-.49-4.27,1.77a34.8,34.8,0,0,0,2.55,11.52c1.2,2.93,6,1.66,4.82-1.33a35.05,35.05,0,0,0-7.5-11.59c-1.84-1.89-4.64.09-4.18,2.43a30.55,30.55,0,0,0,4.58,11.16c1.81,2.73,5.61.38,4.32-2.52a47.28,47.28,0,0,0-7.73-12c-2-2.28-5,.62-3.93,3,1.77,3.82,3.7,7.53,5.8,11.17,1.62,2.81,5.77.33,4.32-2.52a63,63,0,0,0-8.81-13c-2-2.25-5.13.61-3.93,3l6.73,13.54,4.32-2.52a42.71,42.71,0,0,0-6.09-7.81c-1.65-1.68-5.12,0-4.18,2.43a35.57,35.57,0,0,0,4.7,8.6c1.55,2.07,5.58,1,4.57-1.93a7.78,7.78,0,0,0-2.63-3.93c-1.47-1.19-4.52-.63-4.27,1.77a12.38,12.38,0,0,0,1.49,5l4.32-2.52L225.78,297c-1-3-5.85-1.73-4.82,1.33a18.2,18.2,0,0,0,1.67,3.82c1.57,2.82,5.84.31,4.32-2.52l-.8-2.46L221.88,299l1.34,1.72,4.57-1.93a31,31,0,0,1-4.2-7.41l-4.18,2.43a37.22,37.22,0,0,1,5.3,6.8c1.69,2.77,5.74.34,4.32-2.52l-6.73-13.54-3.93,3a57.63,57.63,0,0,1,8,12l4.32-2.52c-2.1-3.65-4-7.36-5.8-11.17l-3.93,3a42.7,42.7,0,0,1,7,11l4.32-2.52a27.08,27.08,0,0,1-4.08-10L224,289.8a28.7,28.7,0,0,1,6.21,9.39l4.82-1.33a30.65,30.65,0,0,1-2.37-10.19l-4.27,1.77a45.77,45.77,0,0,1,6.41,7.39,2.5,2.5,0,0,0,4.32-2.52l-3.93-7.69-4.32,2.52a39.7,39.7,0,0,1,3.76,6.11l4.32-2.52-5.87-11.15c-1.53-2.91-5.56-.35-4.32,2.52a68.83,68.83,0,0,1,3,8.36L235.9,290a6.43,6.43,0,0,1-1.83-4.16l-4.82,1.33,3.31,8.28,4.18-2.43a21.56,21.56,0,0,1-4.22-9.68L228,285.28a33.17,33.17,0,0,1,3,9.08l4.18-2.43A18.85,18.85,0,0,1,230.6,283L226,284.94l6.44,11.28c1.6,2.8,5.85.31,4.32-2.52a253.8,253.8,0,0,1-11-23.08l-4.18,2.43a23.22,23.22,0,0,1,4.49,6.88l4.57-1.93-4.84-8.42-3.93,3a33.26,33.26,0,0,1,6.38,14.33l4.57-1.93a54.39,54.39,0,0,1-4.37-8.29c-1.2-2.9-6-1.73-4.82,1.33l3.31,8.83L231.5,285a74.8,74.8,0,0,1-4.69-10.18l-4.57,1.93a18.62,18.62,0,0,1,2.73,5.55l4.57-1.93c-4-7-6.27-15.33-9.08-22.91l-4.57,1.93,5.44,12.2,4.32-2.52-6-10.67c-1.59-2.81-5.84-.31-4.32,2.52a102.49,102.49,0,0,1,6.33,14.26l4.82-1.33A85.81,85.81,0,0,0,219.18,260c-1.48-2.27-5.48-.89-4.57,1.93q2.6,8.09,5.47,16.08l4.57-1.93-7.08-12.85c-1.31-2.38-4.39-1-4.66,1.26a9.52,9.52,0,0,0,2.76,7.76c3.37,3.78,6.6,6.31,7.08,11.79L227,282.3c-2.82-3-4.54-6.6-6.27-10.32l-4.32,2.52q3.79,6.12,7.11,12.5l3.42-3.42c-2.09-1.27-2.23-4.3-3.14-6.35a9.57,9.57,0,0,0-3.37-4.16c-1.58-1.15-3.77.41-3.76,2.16a29.58,29.58,0,0,1-.7,7,21.7,21.7,0,0,1-.7,2.47q-2,2,.18,2.94l-2.5,2.5c3.14.23,4.22-2.62,3.51-5.27l-3.67,2.82,1.84,3.25c.5,2.83,4.89,2.08,4.91-.66l0-5.12-4.27,1.77a4.57,4.57,0,0,1,1.29,4.56h4.82a56.54,56.54,0,0,1-2.62-8.31l-4.57,1.93a118.69,118.69,0,0,1,5.54,12.08l3.08-3.08-6.64-2.66c-1.38-.55-5.95-1.58-6.59-3.05v2.52c1.71-3.69,4.54-7.2,6.74-10.61l-4.57-1.93-.78,3.13c-.59,2.35,2.41,4.3,4.18,2.43,3.62-3.82,1.48-8.05-1.69-11.36v3.54a9,9,0,0,0,2.81-9.2c-.65-2.92-4.68-2-4.91.66l-.54,6.2h5l.5-1.53-3.76-2.16a18.72,18.72,0,0,1-.33,7.19l4.82,1.33a49,49,0,0,0,1.12-7.56c.23-3.21-4.77-3.2-5,0l-.7,9.82c-.23,3.28,4.59,3.09,5,0a52.84,52.84,0,0,1,2.66-10.74l-4.91-.66-1,12.41c-.27,3.22,4.69,3.17,5,0a58.23,58.23,0,0,1,1.9-10.05l-4.91-.66a73.59,73.59,0,0,1,.31,9.83h5c-.06-3.51,0-7,.32-10.49h-5l.37,15.23c.08,3.21,5,3.23,5,0l0-14.68c0-3.22-5-3.22-5,0Z"/><path class="cls-6" d="M226.77,299.33a90.4,90.4,0,0,1,3.09,17.54c.24,3.17,5.12,3.25,5,0A88.46,88.46,0,0,0,232.12,298c-.71-2.74-4.9-2.15-4.91.66q0,9.24.8,18.42l4.91-.66L230.7,301.1c-.41-2.86-4.87-2.06-4.91.66l-.21,14h5l-.73-15.64c-.15-3.28-4.65-3.14-5,0a100.07,100.07,0,0,0-.59,14.12c.09,3.21,5,3.23,5,0a88.06,88.06,0,0,0-1.09-13.47c-.45-2.9-4.78-2-4.91.66a31.81,31.81,0,0,0,.43,6.8l4.82-1.33-1.24-5.78c-.63-2.9-4.71-2-4.91.66a144.88,144.88,0,0,1-2,15.47c-.49,2.67,3.08,4.52,4.57,1.93a12.68,12.68,0,0,0,1.79-8.16c-.18-1.65-2.07-3.41-3.76-2.16-11.85,8.8,5.23,22.94,13.38,26.54,2.13.94,4.82-1.08,3.42-3.42l-10.47-17.45c-1.4-2.33-5.62-.81-4.57,1.93a32.9,32.9,0,0,0,7.71,11.91c2.05,2,5.25-.54,3.93-3a30,30,0,0,0-9.23-10.46c-1.56-1.12-3.8.39-3.76,2.16a10.77,10.77,0,0,0,5.89,9.75,2.53,2.53,0,0,0,3.67-2.82,12.29,12.29,0,0,0-6.39-8.94,2.53,2.53,0,0,0-3.67,2.82c1.25,4.22,6.18,11.77,11,6.71,4.29-4.47,1.81-12-1.47-16.17-1.72-2.17-4.56.28-4.18,2.43a35.89,35.89,0,0,0,9.39,18.59,2.52,2.52,0,0,0,4.18-1.1c1.59-6.75-4.69-14.57-8.11-19.9a2.51,2.51,0,0,0-4.57,1.93,44.91,44.91,0,0,0,9.58,19.93,2.52,2.52,0,0,0,3.54,0c2.2-2.19,1.45-4.69.29-7.26a111.3,111.3,0,0,0-8.28-14.66,2.5,2.5,0,0,0-4.32,2.52c2.37,4.63,4.49,9.56,7.22,14,1.6,2.6,3.5,4.53,6.51,5.32,1.4.37,3.38-.74,3.16-2.41a32.88,32.88,0,0,0-9.59-19.68c-1.46-1.45-4.4-.45-4.27,1.77a30.84,30.84,0,0,0,8.52,19.74c1.8,1.91,4.69-.1,4.18-2.43-1.53-7-5.76-13.55-9-19.92-1.25-2.49-5.67-.71-4.57,1.93A128.69,128.69,0,0,0,241,326.6a2.52,2.52,0,0,0,4.66-1.26c.39-6.63-6.09-13.2-9.53-18.36a2.5,2.5,0,0,0-4.32,2.52c3,6.24,6.05,15.72,12.86,18.8,1.58.72,3.89-.09,3.76-2.16-.62-9.68-7.53-19.23-12.09-27.51-1.57-2.85-5.68-.35-4.32,2.52a212.19,212.19,0,0,0,12.33,22.32c1.44,2.27,5.67.82,4.57-1.93a110.93,110.93,0,0,0-13.83-25c-1.56-2.11-5.51-1-4.57,1.93a171.38,171.38,0,0,0,8.41,21.07c1.25,2.62,5.25.74,4.57-1.93a45.26,45.26,0,0,0-6.87-15c-1.33-1.9-4.75-1.4-4.66,1.26a32.47,32.47,0,0,0,2,10.4,2.5,2.5,0,0,0,4.82-1.33,39.74,39.74,0,0,0-3.21-10c-1.23-2.64-5.23-.73-4.57,1.93a17.24,17.24,0,0,0,4.32,8c1.54,1.68,4.16.29,4.27-1.77a34.86,34.86,0,0,0-1.77-13L233.26,300a99.65,99.65,0,0,1,6.34,12.67c1,2.33,5.27,2.41,4.91-.66a36.76,36.76,0,0,0-5.14-15.24c-1.18-1.94-5-1.34-4.66,1.26a30.43,30.43,0,0,0,4.83,13.41c1.48,2.24,5.55.89,4.57-1.93l-5-14.34-4.57,1.93a50.48,50.48,0,0,1,5,9.14l4.57-1.93A46.68,46.68,0,0,1,240,295l-4.57,1.93c5.61,10.61,10,21.76,14.3,32.95,1.13,2.94,5.85,1.77,4.82-1.33a99.49,99.49,0,0,0-8.16-18.25c-1.37-2.39-5.57-.8-4.57,1.93l5.64,15.39a2.5,2.5,0,0,0,4.82-1.33A63.78,63.78,0,0,0,248,312.92l-4.32,2.52c2.22,4.33,4.28,8.73,6.15,13.22,1.22,2.91,6,1.67,4.82-1.33l-4.79-11.84c-1.18-2.91-5.93-1.74-4.82,1.33l3.94,10.9,4.82-1.33-2.1-5.66c-1.11-3-5.6-1.85-4.82,1.33A44.12,44.12,0,0,0,251,332.65c1.14,2.12,4.85,1.23,4.66-1.26a29,29,0,0,0-3.16-11.32c-1.4-2.75-4.92-.64-4.57,1.93a17.61,17.61,0,0,0,2.62,7.15c1.25,2,4.78,1.31,4.66-1.26a23.57,23.57,0,0,0-1.33-7c-1.07-3-5.88-1.73-4.82,1.33l2.29,6.63,4.82-1.33L255,324.21c-1.09-3-5.63-1.84-4.82,1.33l2.11,8.23,4.57-1.93A65.31,65.31,0,0,0,249,321.69c-1.81-1.94-4.65.13-4.18,2.43a50.52,50.52,0,0,0,6,15.54c1.65,2.83,5.62.35,4.32-2.52A32,32,0,0,0,244,323.91c-1.9-1.32-4.13.85-3.67,2.82a26.8,26.8,0,0,0,10.71,16c1.89,1.38,4.11-.89,3.67-2.82-1.51-6.66-6.28-11.11-11.37-15.31a2.52,2.52,0,0,0-4.18,2.43,13.84,13.84,0,0,0,8.12,9.95,2.51,2.51,0,0,0,3-3.93,27.37,27.37,0,0,0-8.58-7c-1.8-1-4.42.65-3.67,2.82A10.71,10.71,0,0,0,243,335c2.53,1.51,4.85-1.85,3-3.93a16.83,16.83,0,0,0-6.63-4.61c-1.59-.66-3.1,1-3.16,2.41-.37,8.38,8.74,7.83,12.88,12.77,1.87,2.24,5.26-.62,3.93-3a20.21,20.21,0,0,0-13.16-10.11,2.52,2.52,0,0,0-3.08,3.08,4.48,4.48,0,0,0,5,3.33c2.32-.25,2.54-1.64,5-.67s2.4,2.88,3.76,4.9a2.54,2.54,0,0,0,4.32,0,4.71,4.71,0,0,0,.07-5.74c-1.68-2.74-6-.23-4.32,2.52l-.07.69h4.32c-1.84-2.74-2.25-6.48-5.4-8.21a5.7,5.7,0,0,0-3.43-.79c-.73.09-4.8,1.54-4.43,2.63l-3.08,3.08a15.25,15.25,0,0,1,10.18,7.81l3.93-3c-2.46-2.94-11.6-5-11.41-9.24L238,331.29a11.58,11.58,0,0,1,4.42,3.32l3-3.93a4.65,4.65,0,0,1-2.61-3.14l-3.67,2.82a24,24,0,0,1,7.56,6.21l3-3.93a9.38,9.38,0,0,1-5.82-7l-4.18,2.43c4.38,3.61,8.78,7.33,10.09,13.1l3.67-2.82a21.7,21.7,0,0,1-8.41-13l-3.67,2.82a27.31,27.31,0,0,1,9.37,11.43l4.32-2.52a46.45,46.45,0,0,1-5.46-14.34l-4.18,2.43a58.7,58.7,0,0,1,7,9.14,2.51,2.51,0,0,0,4.57-1.93L255,324.21l-4.82,1.33,1.22,3.31c1.1,3,5.88,1.74,4.82-1.33l-2.29-6.63-4.82,1.33a17.9,17.9,0,0,1,1.15,5.65l4.66-1.26a14.44,14.44,0,0,1-2.11-6l-4.57,1.93a22,22,0,0,1,2.48,8.8l4.66-1.26a38.91,38.91,0,0,1-3.58-9.39l-4.82,1.33,2.1,5.66c1.11,3,5.92,1.72,4.82-1.33l-3.94-10.9-4.82,1.33,4.79,11.84,4.82-1.33c-2-4.89-4.24-9.69-6.66-14.41-1.49-2.91-5.59-.36-4.32,2.52a57.84,57.84,0,0,1,3.77,12.15l4.82-1.33-5.64-15.39-4.57,1.93a92.87,92.87,0,0,1,7.66,17.06l4.82-1.33c-4.47-11.58-9-23.15-14.8-34.14-1.32-2.49-5.42-.79-4.57,1.93a52.49,52.49,0,0,0,4.6,10.53c1.36,2.38,5.68.75,4.57-1.93a56.6,56.6,0,0,0-5.52-10.33c-1.5-2.2-5.56-.91-4.57,1.93l5,14.34,4.57-1.93A24.92,24.92,0,0,1,239.71,298l-4.66,1.26A30.75,30.75,0,0,1,239.51,312l4.91-.66a108.81,108.81,0,0,0-6.85-13.87c-1.4-2.38-5.48-.83-4.57,1.93a31.11,31.11,0,0,1,1.59,11.7l4.27-1.77a12.14,12.14,0,0,1-3-5.75l-4.57,1.93a35,35,0,0,1,2.71,8.78l4.82-1.33a28.27,28.27,0,0,1-1.83-9.07l-4.66,1.26A41.54,41.54,0,0,1,238.67,319l4.57-1.93a161.46,161.46,0,0,1-7.9-19.87l-4.57,1.93a106,106,0,0,1,13.33,23.77l4.57-1.93a212.19,212.19,0,0,1-12.33-22.32L232,301.16q3.12,5.66,6.1,11.4c2.23,4.3,5,8.65,5.3,13.59l3.76-2.16c-5.64-2.55-8.55-11.78-11.07-17l-4.32,2.52c2.75,4.12,9.14,10.71,8.85,15.84l4.66-1.26A120.37,120.37,0,0,1,237,307.83l-4.57,1.93c3,6,7,12.18,8.45,18.73l4.18-2.43A25.39,25.39,0,0,1,238,309.85l-4.27,1.77a27.37,27.37,0,0,1,8.12,16.15l3.16-2.41c-3.17-.83-4.46-4.73-5.79-7.33l-4.95-9.68-4.32,2.52c.92,1.41,9.87,14.77,8.78,15.87h3.54A39.85,39.85,0,0,1,234,309l-4.57,1.93c2.29,3.57,8.67,11.51,7.6,16l4.18-1.1a31.28,31.28,0,0,1-8.1-16.39l-4.18,2.43c1.44,1.81,2.85,4.78,2,7.17-1.24,3.51-2.65-.69-3.21-2.57L224,319.34a7.62,7.62,0,0,1,4.09,6l3.67-2.82a5.94,5.94,0,0,1-3.41-5.43l-3.76,2.16a24.54,24.54,0,0,1,7.44,8.66l3.93-3a27,27,0,0,1-6.43-9.71L225,317l10.47,17.45,3.42-3.42c-3.82-1.69-20.56-12.57-13.38-17.91L221.71,311a8.32,8.32,0,0,1-1.11,5.64l4.57,1.93a157.4,157.4,0,0,0,2.19-16.8l-4.91.66,1.24,5.78c.69,3.19,5.33,1.79,4.82-1.33a24.88,24.88,0,0,1-.25-5.47l-4.91.66a79.26,79.26,0,0,1,.91,12.14h5a100.07,100.07,0,0,1,.59-14.12h-5l.73,15.64c.15,3.2,5,3.24,5,0l.21-14-4.91.66,2.21,15.37c.4,2.76,5.17,2.14,4.91-.66q-.85-9.2-.8-18.42l-4.91.66a82.13,82.13,0,0,1,2.57,17.5h5A97.28,97.28,0,0,0,231.6,298c-.86-3.1-5.69-1.78-4.82,1.33Z"/><path class="cls-6" d="M248.4,333.51a115,115,0,0,1,16.57,31l4.57-1.93a83.5,83.5,0,0,0-8.28-14.24q-1.89-2.59-4-5c-2.18-2.57-2.09-4-3-7.18L249.72,338a27.38,27.38,0,0,0,5,6,2.53,2.53,0,0,0,4.27-1.77,10.44,10.44,0,0,0-2.92-7.88c-1.91-2.14-5.36.61-3.93,3a37.56,37.56,0,0,0,5,6.69c1.69,1.79,4.94-.06,4.18-2.43a28.83,28.83,0,0,0-4.47-8.74c-1.56-2.07-5.56-1-4.57,1.93a22.52,22.52,0,0,0,4.39,7.69c2,2.33,5-.64,3.93-3l-4.49-10.11c-1.14-2.56-5.67-.69-4.57,1.93A33.51,33.51,0,0,0,258,341.36c1.61,1.73,5.15-.07,4.18-2.43a45,45,0,0,0-6-10.51c-1.9-2.47-5.94-.38-4.32,2.52l5.28,9.46c1.61,2.88,5.58.35,4.32-2.52a24.9,24.9,0,0,0-3.47-5.61c-1.93-2.43-4.92.68-3.93,3a117.23,117.23,0,0,0,10.37,19.25,2.51,2.51,0,0,0,4.57-1.93,16.84,16.84,0,0,0-5.34-8.86c-1.71-1.53-5.09-.08-4.18,2.43a84.19,84.19,0,0,0,6.27,13.48c1.62,2.79,5.85.31,4.32-2.52L259.21,337c-1.54-2.84-5.79-.33-4.32,2.52a128.77,128.77,0,0,1,9.69,24.81c.86,3.1,5.6,1.8,4.82-1.33l-3.8-15.35c-1-3.91-1.8-7.42-4.32-10.63-1.5-1.92-5.12.17-4.18,2.43a28.79,28.79,0,0,0,3.37,6.15,2.5,2.5,0,0,0,4.32-2.52,5.78,5.78,0,0,0-1.59-2.29c-1.7-1.73-5,0-4.18,2.43a23.63,23.63,0,0,0,2.22,4.9,2.51,2.51,0,0,0,4.57-1.93,15,15,0,0,0-2.65-5.43c-1.67-2.18-5.21-1-4.57,1.93a41.69,41.69,0,0,0,3,8.74l3.42-3.42-1.77-1.24c-1.9-1.33-4.13.86-3.67,2.82q2.24,9.68,5.32,19.11l4.57-1.93-7.08-16.71c-1-2.27-4.87-1.12-4.66,1.26a51,51,0,0,0,5.88,19.9c1.4,2.63,5.08.73,4.57-1.93a55.94,55.94,0,0,0-6.93-18.16c-1.18-2-4.92-1.31-4.66,1.26A42,42,0,0,0,261.77,369a2.52,2.52,0,0,0,4.66-1.26,34.89,34.89,0,0,0-7.64-21.85c-1.12-1.44-3.87-.64-4.18,1.1a8.21,8.21,0,0,0,1.25,6.69,2.52,2.52,0,0,0,4.66-1.26l.12-3.29L256,350.42a107.85,107.85,0,0,1,9.68,20.13l4.57-1.93-.23-1.21-4.57-.6A59,59,0,0,0,269,379.9c1.16,2.91,5.8,1.82,4.82-1.33a34.26,34.26,0,0,0-7-12.52c-1.73-2-4.68.17-4.18,2.43a45.41,45.41,0,0,0,6.26,14.94c1.21,1.88,5,1.39,4.66-1.26a29.34,29.34,0,0,0-6.89-15.87c-1.44-1.7-4.27-.28-4.27,1.77a25.41,25.41,0,0,0,4.82,15.12,2.51,2.51,0,0,0,4.57-1.93,51.56,51.56,0,0,0-4.73-14c-1.2-2.38-4.49-1-4.66,1.26a22.85,22.85,0,0,0,3.11,13.39c1.17,2,4.87,1.28,4.66-1.26a40.56,40.56,0,0,0-2.72-11.87c-1-2.54-4.78-2.31-4.91.66a17,17,0,0,0,2.87,10.5c1.29,2,4.76,1.34,4.66-1.26A25.92,25.92,0,0,0,265.75,365c-1.25-1.9-4.89-1.38-4.66,1.26a34.21,34.21,0,0,0,2.52,10.54c1,2.31,5.29,2.42,4.91-.66a28.74,28.74,0,0,0-3.93-11.7,2.51,2.51,0,0,0-4.57,1.93,28.14,28.14,0,0,0,3.14,7.29c1.42,2.34,5.53.84,4.57-1.93l-1.11-3.18c-.77-2.21-4.2-2.54-4.82,0a10.91,10.91,0,0,0,3.77,11.61c1.59,1.27,4.31.58,4.27-1.77a59.67,59.67,0,0,0-3-18l-4.57,1.93a102.36,102.36,0,0,0,9.85,17.14,2.51,2.51,0,0,0,4.57-1.93,30,30,0,0,0-6.9-15c-1.71-2.05-4.67.2-4.18,2.43a39.43,39.43,0,0,0,6.84,15.19c1.52,2.07,5.71.93,4.57-1.93a73.35,73.35,0,0,0-7.46-14.17c-1.79-2.63-6.05-.23-4.32,2.52l7.05,11.18c1.75,2.77,5.62.36,4.32-2.52l-6.67-14.83c-1.32-2.94-5.6-.39-4.32,2.52A106.52,106.52,0,0,0,274,378.4c1.45,2.22,5.72.82,4.57-1.93A95.36,95.36,0,0,0,270.41,361a2.5,2.5,0,0,0-4.32,2.52l6.76,12.53,4.32-2.52q-5.67-9.78-10.54-20l-3.93,3a62.14,62.14,0,0,1,10.09,15l4.32-2.52q-4.32-8.54-9.23-16.74l-3.93,3a48.56,48.56,0,0,1,5.53,8.48c1.49,2.86,5.8.33,4.32-2.52l-3-5.8c-1.48-2.86-5.8-.33-4.32,2.52l9.17,17.69c1.37,2.65,5.08.72,4.57-1.93a4,4,0,0,0-3.5-3.45c-3.15-.52-4.5,4.3-1.33,4.82v0l4.57-1.93-9.17-17.69-4.32,2.52,3,5.8,4.32-2.52a54.57,54.57,0,0,0-6.31-9.49c-1.82-2.22-5.36.64-3.93,3q4.92,8.21,9.23,16.74c1.46,2.88,5.7.35,4.32-2.52a66.7,66.7,0,0,0-10.87-16c-2-2.22-5.09.6-3.93,3q4.87,10.2,10.54,20c1.62,2.79,5.85.31,4.32-2.52L270.41,361l-4.32,2.52a88.58,88.58,0,0,1,7.62,14.23l4.57-1.93a106.52,106.52,0,0,1-8.35-15.38L265.61,363l6.67,14.83,4.32-2.52-7.05-11.18-4.32,2.52a67.52,67.52,0,0,1,7,13l4.57-1.93a36.16,36.16,0,0,1-6.34-14l-4.18,2.43a25.33,25.33,0,0,1,5.61,12.75l4.57-1.93a102.36,102.36,0,0,1-9.85-17.14c-1.17-2.57-5.45-.75-4.57,1.93a55.18,55.18,0,0,1,2.84,16.65l4.27-1.77c-2.22-1.77-3.18-3.89-2.48-6.75H261.8l1.11,3.18,4.57-1.93a23.38,23.38,0,0,1-2.64-6.09L260.27,367a22.74,22.74,0,0,1,3.25,9.17l4.91-.66a29.91,29.91,0,0,1-2.34-9.21l-4.66,1.26a20.94,20.94,0,0,1,3.63,11.16l4.66-1.26a12.62,12.62,0,0,1-2.19-8l-4.91.66a36,36,0,0,1,2.54,10.54l4.66-1.26a18.24,18.24,0,0,1-2.43-10.87l-4.66,1.26A46.62,46.62,0,0,1,267,382.59l4.57-1.93a20.62,20.62,0,0,1-4.13-12.6l-4.27,1.77a23.23,23.23,0,0,1,5.43,12.34l4.66-1.26a41.56,41.56,0,0,1-5.76-13.75l-4.18,2.43A27.91,27.91,0,0,1,269,379.9l4.82-1.33a59,59,0,0,1-3.54-13.08c-.33-2.2-3.58-2.32-4.57-.6a5.33,5.33,0,0,0,.23,6.26c1.54,2.07,5.61,1,4.57-1.93a114.16,114.16,0,0,0-10.19-21.32,2.52,2.52,0,0,0-4.66,1.26l-.12,3.29,4.66-1.26-.75-2.84-4.18,1.1a29.36,29.36,0,0,1,6.17,18.32l4.66-1.26a35.73,35.73,0,0,1-4.5-14.05l-4.66,1.26a52,52,0,0,1,6.42,17l4.57-1.93a44.65,44.65,0,0,1-5.19-17.38l-4.66,1.26,7.08,16.71c1.1,2.6,5.44.75,4.57-1.93q-3.09-9.44-5.32-19.11l-3.67,2.82,1.77,1.24c2.25,1.58,4.36-1.39,3.42-3.42a35.55,35.55,0,0,1-2.49-7.55l-4.57,1.93a11.7,11.7,0,0,1,2.14,4.23l4.57-1.93a11.9,11.9,0,0,1-1.71-3.7l-4.18,2.43.81,1.28,4.32-2.52a23,23,0,0,1-2.87-5l-4.18,2.43c2.48,3.17,3,8.26,3.93,12l2.91,11.74,4.82-1.33a135.21,135.21,0,0,0-10.2-26l-4.32,2.52,10.92,20.12,4.32-2.52a76.65,76.65,0,0,1-5.77-12.29l-4.18,2.43a12.39,12.39,0,0,1,4.05,6.65L268.8,352a117.23,117.23,0,0,1-10.37-19.25l-3.93,3a19.59,19.59,0,0,1,2.69,4.6l4.32-2.52-5.28-9.46-4.32,2.52a40.35,40.35,0,0,1,5.47,9.31l4.18-2.43a26.37,26.37,0,0,1-5.13-7.86l-4.57,1.93L256.35,342l3.93-3a15.19,15.19,0,0,1-3.11-5.49l-4.57,1.93a25,25,0,0,1,4,7.54l4.18-2.43a31.72,31.72,0,0,1-4.26-5.68l-3.93,3a4.73,4.73,0,0,1,1.46,4.35l4.27-1.77a22.85,22.85,0,0,1-4.24-5c-1.48-2.35-5.36-.87-4.57,1.93.61,2.16.45,4.38,1.53,6.31,1.37,2.46,4.24,4.8,5.93,7.11a83.14,83.14,0,0,1,8.28,14.24c1.18,2.55,5.51.75,4.57-1.93A119.21,119.21,0,0,0,252.72,331c-1.91-2.55-6.25-.06-4.32,2.52Z"/><path class="cls-6" d="M263.27,354.05a14.09,14.09,0,0,0,4.37,6c1.69,1.31,4.16.56,4.27-1.77a10.48,10.48,0,0,0-3.41-8.21c-2.37-2.15-5.85,1.27-3.54,3.54l2.42,2.37c2,1.92,5.6-.63,3.93-3a3.55,3.55,0,0,0-3.16-1.73,2.49,2.49,0,0,0-2.16,1.24,6.81,6.81,0,0,0-.75,3.23c.1,3.21,5.1,3.22,5,0a1.51,1.51,0,0,1,.06-.71l-2.16,1.24-.44-.09-.9-.9.17.24,3.93-3-2.42-2.37L265,353.62a5.63,5.63,0,0,1,1.95,4.68l4.27-1.77a9.39,9.39,0,0,1-3.09-3.81A2.58,2.58,0,0,0,265,351a2.52,2.52,0,0,0-1.75,3.08Z"/><path class="cls-6" d="M266.8,377.77l11.59,29.63c.84,2.14,4.17,2.6,4.82,0,2.07-8.29-5.5-18.41-9.69-25-1.46-2.3-5.5-.87-4.57,1.93a195.78,195.78,0,0,0,8.56,21.47,2.51,2.51,0,0,0,4.32,0c1.92-4.24.27-8.09-1.36-12.22A113.49,113.49,0,0,0,273,378.29c-1.47-2.53-5.13-.79-4.57,1.93a145.51,145.51,0,0,0,6,20.93c1.09,3,5.73,1.81,4.82-1.33a117.56,117.56,0,0,0-9.18-22.59c-1.37-2.57-5.2-.77-4.57,1.93l6.24,26.45c.64,2.71,5.09,2.18,4.91-.66-.59-9.52-4.23-18.11-8.13-26.69-1.23-2.71-5.1-.69-4.57,1.93a189,189,0,0,0,6.65,24.25,2.5,2.5,0,0,0,4.82-1.33,90,90,0,0,0-6.25-21.57c-1.12-2.62-5.36-.75-4.57,1.93l3.05,10.3c.78,2.62,5.05,2.24,4.91-.66a32.32,32.32,0,0,0-5.31-16.55,2.53,2.53,0,0,0-3.93-.51c-2.42,2.64-1.88,5.09-.37,8.06,2.52,4.94,1.1,10.69,2.93,16,1.7,4.92,4.18,9.64,6.32,14.38,2,4.36,3.59,8.67,7.71,11.4A2.52,2.52,0,0,0,283.6,423l-7.18-22.52-3.67,2.82c2.12,1.39,3,5.7,3.87,7.94l2.89,7.43a2.53,2.53,0,0,0,4.82,0c2.27-5.8.59-11.52-1.51-17.11-1.11-3-5.9-1.74-4.82,1.33a71.8,71.8,0,0,0,6.95,14.5c1.58,2.52,5,.8,4.57-1.93a51.5,51.5,0,0,0-8.57-21.22,2.51,2.51,0,0,0-4.57,1.93c1.61,7.38,3.4,14.62,7.12,21.26,1.15,2.06,4.9,1.27,4.66-1.26a37,37,0,0,0-6-17.36,2.5,2.5,0,0,0-4.32,2.52c2.36,4.66,4.36,10.56,7.6,14.68,1.79,2.27,3.83,2.9,6.45,1.77A2.5,2.5,0,0,0,293,415a175.64,175.64,0,0,0-10.56-25.67c-1.26-2.48-5.64-.72-4.57,1.93,3.32,8.19,6.7,16.34,11.19,24,1.39,2.36,5.61.8,4.57-1.93A119.42,119.42,0,0,0,281,388.9c-1.54-2.28-5.35-.92-4.57,1.93a82.5,82.5,0,0,0,10.86,24,2.51,2.51,0,0,0,4.57-1.93c-2.28-11-9.89-19.74-12.81-30.49l-4.18,2.43c6.12,6.9,6.87,16.78,12.4,24.11,1.55,2.06,5.59,1,4.57-1.93a329.58,329.58,0,0,0-12.56-30.88c-1.18-2.53-5.63-.71-4.57,1.93l10,25,4.57-1.93q-4.31-9.74-9-19.3c-1.23-2.5-5.61-.73-4.57,1.93l8.56,21.89c1.16,3,5.52,1.87,4.82-1.33a73.54,73.54,0,0,0-7.67-20.17c-1.35-2.41-5.56-.79-4.57,1.93l8.3,22.69c.93,2.54,4.92,2.3,4.91-.66,0-9.64-5.75-19.44-9.24-28.24L276,381.2l10.18,24.44c1,2.51,4.76,2.33,4.91-.66.21-4.17-1.45-7.78-2.94-11.61l-5.3-13.59-4.57,1.93a70.19,70.19,0,0,1,7.4,16.93l4.82-1.33A210,210,0,0,0,280.61,374l-4.32,2.52a393.52,393.52,0,0,1,20.75,42c1.09,2.59,5.54.73,4.57-1.93-1.89-5.16-4.84-9.54-8.1-13.93-1.53-2.06-5.69-1-4.57,1.93L294.21,418c1.15,2.95,5.93,1.73,4.82-1.33a30.36,30.36,0,0,0-4.47-8.32c-1.31-1.72-4.93-1.51-4.66,1.26a24.36,24.36,0,0,0,3.26,10.31c1.38,2.37,5.57.81,4.57-1.93a30.59,30.59,0,0,0-6.08-10.18c-1.65-1.84-5,.09-4.18,2.43q2.31,7,5.11,13.77c1.21,2.93,6,1.66,4.82-1.33a26,26,0,0,0-7.21-10.27c-1.76-1.52-5-.11-4.18,2.43A44.43,44.43,0,0,0,294,429.36c1.53,1.89,5.11-.15,4.18-2.43a34.1,34.1,0,0,0-10.41-14.18c-1.78-1.43-5-.18-4.18,2.43a51.37,51.37,0,0,0,8.82,16.54c1.85,2.35,5.1-.64,3.93-3a55,55,0,0,0-11.17-15.3c-2.32-2.25-5.73,1.18-3.54,3.54L292,428.09c2,2.12,5.28-.59,3.93-3a32.71,32.71,0,0,0-11-11.75c-1.94-1.27-4.1.82-3.67,2.82A21.46,21.46,0,0,0,289,428.76c1.71,1.37,5.17.17,4.18-2.43a19,19,0,0,0-9.51-10.76,2.54,2.54,0,0,0-3.67,2.82,18.06,18.06,0,0,0,6.68,11.35c1.68,1.35,5.25.16,4.18-2.43a17.82,17.82,0,0,0-8.33-9.44,2.53,2.53,0,0,0-3.67,2.82,12.66,12.66,0,0,0,6.07,8.09c2.23,1.34,4.53-1.27,3.42-3.42l-2.46-4.76c-1.48-2.86-5.79-.33-4.32,2.52l2.46,4.76,3.42-3.42a7.46,7.46,0,0,1-3.78-5.1L280,422.19a12.48,12.48,0,0,1,6,6.45l4.18-2.43a14.22,14.22,0,0,1-5.39-9.15l-3.67,2.82a14,14,0,0,1,7.21,7.77l4.18-2.43a17.17,17.17,0,0,1-6.48-10.42l-3.67,2.82a27.29,27.29,0,0,1,9.2,10l3.93-3-10.4-11.16-3.54,3.54A51.07,51.07,0,0,1,292,431.21l3.93-3a44.65,44.65,0,0,1-7.54-14.34l-4.18,2.43a29.37,29.37,0,0,1,9.13,12l4.18-2.43a37.49,37.49,0,0,1-6.66-12.31l-4.18,2.43a20.7,20.7,0,0,1,5.92,8.06l4.82-1.33q-2.8-6.8-5.11-13.77l-4.18,2.43a23.83,23.83,0,0,1,4.8,8l4.57-1.93a18.31,18.31,0,0,1-2.58-7.79l-4.66,1.26a26.11,26.11,0,0,1,4,7.13l4.82-1.33-5.26-13.47-4.57,1.93c3,4,5.87,8,7.6,12.73l4.57-1.93a393.52,393.52,0,0,0-20.75-42c-1.61-2.82-5.74-.34-4.32,2.52a199.18,199.18,0,0,1,9.41,22.16c1.06,3,5.73,1.8,4.82-1.33a75.29,75.29,0,0,0-7.91-18.13c-1.4-2.33-5.63-.8-4.57,1.93L282.69,393c1.49,3.83,3.63,7.79,3.42,12l4.91-.66-10.18-24.44c-1.21-2.91-6-1.69-4.82,1.33l5.43,13.72c1.7,4.3,3.62,8.49,3.63,13.2l4.91-.66-8.3-22.69-4.57,1.93a68.92,68.92,0,0,1,7.17,19l4.82-1.33-8.56-21.89L276,384.37q4.7,9.56,9,19.3c1.13,2.56,5.62.71,4.57-1.93l-10-25L275,378.66A316.67,316.67,0,0,1,287,408.35l4.57-1.93c-5.8-7.69-6.69-17.82-13.18-25.12-1.7-1.92-4.81.12-4.18,2.43,2.92,10.75,10.53,19.54,12.81,30.49l4.57-1.93a78.14,78.14,0,0,1-10.35-22.8l-4.57,1.93a113.8,113.8,0,0,1,12.12,23.19l4.57-1.93A172.15,172.15,0,0,1,282.7,389.9l-4.57,1.93a167.29,167.29,0,0,1,10.06,24.47l1.15-2.82c.16-.07-6.51-13.27-7.21-14.66l-4.32,2.52a31.76,31.76,0,0,1,5.34,14.83l4.66-1.26c-3.5-6.26-5.09-13.12-6.61-20.07l-4.57,1.93a48.33,48.33,0,0,1,8.07,20l4.57-1.93a65.92,65.92,0,0,1-6.45-13.3L278,402.9c1.79,4.77,3.46,9.47,1.51,14.45h4.82c-1.68-4.32-3.22-8.74-5.06-13-1-2.26-1.88-4-4-5.35a2.52,2.52,0,0,0-3.67,2.82l7.18,22.52,3.67-2.82c-3.36-2.23-4.75-7-6.33-10.52-1.82-4-4-8.08-5.41-12.27-1.27-3.68-.83-7.29-1.24-11.08-.13-1.15-3-7.62-2.6-8.09l-3.93-.51a27.27,27.27,0,0,1,4.63,14l4.91-.66-3.05-10.3L264.86,384a85.13,85.13,0,0,1,5.75,20.38l4.82-1.33a189,189,0,0,1-6.65-24.25l-4.57,1.93c3.52,7.76,6.91,15.56,7.45,24.17l4.91-.66-6.24-26.45-4.57,1.93a111.21,111.21,0,0,1,8.67,21.39l4.82-1.33a145.51,145.51,0,0,1-6-20.93l-4.57,1.93a110,110,0,0,1,5.51,10.69c1.27,2.87,4.66,8.67,3.28,11.74h4.32A184.71,184.71,0,0,1,273.77,383l-4.57,1.93c1.88,3,3.67,6,5.3,9.11,1.78,3.41,4.9,8.05,3.89,12.07h4.82l-11.59-29.63c-1.16-3-6-1.67-4.82,1.33Z"/><path class="cls-6" d="M285.39,415.61l-.39-.46a2.47,2.47,0,0,0-2.43-.64c-4.5,1.29-4.28,6.87-2.54,10.39,2.89,5.85,9.68,8,12.71,13.61,1.32,2.44,5.57.77,4.57-1.93a20.82,20.82,0,0,0-8.74-10.85c-1.77-1.12-4.4.76-3.67,2.82a14.4,14.4,0,0,0,4.25,6.43,2.5,2.5,0,0,0,3.54-3.54A28.46,28.46,0,0,0,289,428c-1.78-1.41-5-.19-4.18,2.43a11.56,11.56,0,0,0,5,6.55c2.33,1.54,4.29-1.37,3.42-3.42a7.71,7.71,0,0,0-1.94-2.94l-3.54,3.54a84.72,84.72,0,0,1,16.37,23.4,59.31,59.31,0,0,1,4.2,13.23c.89,4.62,1.35,8.63,4.15,12.55,1.86,2.59,6.2.1,4.32-2.52-3.13-4.38-3.08-9.47-4.35-14.52a67,67,0,0,0-4.69-12.73,90.47,90.47,0,0,0-16.46-22.95c-2.24-2.34-5.68,1.15-3.54,3.54l1.16,1.93,3.42-3.42a5.26,5.26,0,0,1-2.67-3.56l-4.18,2.43a28.46,28.46,0,0,1,3.64,3.43l3.54-3.54a9.45,9.45,0,0,1-3-4.22L286,430a15.28,15.28,0,0,1,6.45,7.86l4.57-1.93a21.33,21.33,0,0,0-5.85-6.57c-1.15-.92-10.19-9.26-7.31-10.09l-2.43-.64.39.46c2.09,2.45,5.62-1.1,3.54-3.54Z"/><path class="cls-6" d="M292.47,417.43a101,101,0,0,0,22.41,34.37c2.09,2.1,5.12-.55,3.93-3A110,110,0,0,0,302,423.52c-1.95-2.2-5.2.6-3.93,3a269.45,269.45,0,0,0,16.18,26.84c1.81,2.63,5.86.34,4.32-2.52a107.25,107.25,0,0,0-19.89-26.32c-1.69-1.64-5.06,0-4.18,2.43a141,141,0,0,0,13.86,28.21c1.5,2.35,5.33.88,4.57-1.93a60,60,0,0,0-15.4-26.74c-1.66-1.68-5.08,0-4.18,2.43a112.79,112.79,0,0,0,14.31,26.85c1.51,2.09,5.74.9,4.57-1.93a84.92,84.92,0,0,0-12-20.47c-1.56-2-5,.16-4.18,2.43,1.82,5.3,3.82,10.43,8.18,14.16,2.25,1.93,5-.44,3.93-3l-10.28-24.3-1.49,3.67c1.33-.25,6.78,11.57,7.56,13,1.38,2.5,5.3.8,4.57-1.93A68.68,68.68,0,0,0,301.11,420l-4.32,2.52a87.44,87.44,0,0,1,7.09,14l4.57-1.93a112,112,0,0,0-8.31-15.93c-1.43-2.28-5.69-.81-4.57,1.93A128.47,128.47,0,0,0,304.25,438c1.5,2.51,5.11.8,4.57-1.93a74.53,74.53,0,0,0-6.33-18.53c-1.43-2.91-5.63-.36-4.32,2.52q4,8.82,8.76,17.25c1.37,2.43,5.46.81,4.57-1.93a45.32,45.32,0,0,0-10.15-17.2c-2-2.1-5.3.58-3.93,3l7.86,14c1.41,2.51,5.24.8,4.57-1.93a34.86,34.86,0,0,0-5.84-12.5c-1.86-2.53-6-.32-4.32,2.52a151.68,151.68,0,0,1,8,15.7c1.13,2.56,5.66.69,4.57-1.93l-.82-2-4.57,1.93,2.85,5.78c1.44,2.92,5.6.36,4.32-2.52l-1.43-3.23-4.32,2.52a11,11,0,0,1,1.48,2.89l4.57-1.93L313,438.07c-1.36-2.45-5.42-.8-4.57,1.93l5.85,18.67c.89,2.83,4.6,2.06,4.91-.66a10.3,10.3,0,0,0-2.1-7.82c-1.6-2.15-5.37-1-4.57,1.93a80.17,80.17,0,0,0,7.71,18.64c1.19,2.1,4.78,1.25,4.66-1.26a21.75,21.75,0,0,0-5.29-13.44c-1.39-1.66-4.36-.31-4.27,1.77a36.53,36.53,0,0,0,6.19,19.06c1.47,2.2,5.65.87,4.57-1.93a83.87,83.87,0,0,0-14-23.76c-1.56-1.86-5.1.13-4.18,2.43a124.87,124.87,0,0,0,10.48,20.56c1.77,2.79,5.56.37,4.32-2.52a104.29,104.29,0,0,0-10.85-19.3c-1.51-2.12-5.66-.92-4.57,1.93q3.71,9.66,8.29,18.93c1.36,2.74,5,.65,4.57-1.93a18.48,18.48,0,0,0-5.62-10.76c-1.74-1.7-4.92,0-4.18,2.43q2.13,7,4.59,13.86c.92,2.56,4.91,2.29,4.91-.66a21.93,21.93,0,0,0-3.46-12.1,2.52,2.52,0,0,0-4.66,1.26,28.62,28.62,0,0,0,2.93,13c1.2,2.52,5.63.71,4.57-1.93l-1-2.48c-1-2.45-4.94-2.37-4.91.66a9.73,9.73,0,0,0,3.22,7.47c1.27,1.2,3.8.82,4.18-1.1a45,45,0,0,0,.28-15.75l-4.82,1.33a38.63,38.63,0,0,0,6.18,12.95c1.3,1.78,4.9,1.47,4.66-1.26a42.54,42.54,0,0,0-5.37-17.56c-1.35-2.4-5.6-.78-4.57,1.93a116.33,116.33,0,0,0,6.59,14.36c1.4,2.57,5.15.76,4.57-1.93a54.4,54.4,0,0,0-6-15.54c-1.37-2.42-5.47-.81-4.57,1.93a70.54,70.54,0,0,0,6.46,14.23,2.51,2.51,0,0,0,4.57-1.93,43,43,0,0,0-5-11.77c-1.42-2.33-5.55-.83-4.57,1.93a46.49,46.49,0,0,0,6.57,12.42c1.53,2.05,5.68,1,4.57-1.93l-2.75-7.14L323,469.12l3.78,7.77c1.32,2.7,5.06.69,4.57-1.93a16.77,16.77,0,0,0-3.19-7.29c-1.65-2.2-5.22-1-4.57,1.93a47.14,47.14,0,0,0,1.52,5.37c1,3,5.84,1.75,4.82-1.33a74.22,74.22,0,0,0-3.57-8.85c-1.41-2.94-5.57-.37-4.32,2.52a45.27,45.27,0,0,0,3.2,6.07c1.76,2.8,5.55.36,4.32-2.52A45.45,45.45,0,0,0,321.2,458c-1.62-1.78-5.06.08-4.18,2.43a20.66,20.66,0,0,0,5.38,8.2c1.67,1.56,5.16,0,4.18-2.43a55.9,55.9,0,0,0-10.26-16.73c-1.87-2.11-5.51.66-3.93,3L320,463.87c1.47,2.2,5.66.87,4.57-1.93a64.3,64.3,0,0,0-5.91-11.65,2.5,2.5,0,0,0-4.32,2.52l7.14,13.29c1.53,2.85,5.76.34,4.32-2.52l-6.09-12.08c-1.45-2.88-5.75-.35-4.32,2.52l6.47,13c1.25,2.51,5.51.76,4.57-1.93a116.4,116.4,0,0,0-7.83-17.62c-1.56-2.85-5.7-.34-4.32,2.52l7.36,15.3,4.32-2.52c-1.49-3-3.1-6-4.83-8.84s-5.84-.31-4.32,2.52l6.74,12.54c1.23,2.29,4.54,1.09,4.66-1.26a6.23,6.23,0,0,0-.84-3.78c-1.39-2.93-5.61-.37-4.32,2.52l1.07,2.4c1.17,2.61,5.35.75,4.57-1.93a4.45,4.45,0,0,0-1.33-2.27,2.57,2.57,0,0,0-3-.39l-.55.3a2.53,2.53,0,0,0-1.15,2.82l.15.48c.94,3.07,5.77,1.76,4.82-1.33l-.15-.48-1.15,2.82.55-.3-3-.39,0,.07,4.57-1.93-1.07-2.4L323,466.42l.16,1.26,4.66-1.26-6.74-12.54-4.32,2.52c1.73,2.89,3.34,5.83,4.83,8.84s5.7.36,4.32-2.52l-7.36-15.3-4.32,2.52a108.55,108.55,0,0,1,7.33,16.43l4.57-1.93-6.47-13L315.4,454l6.09,12.08,4.32-2.52-7.14-13.29-4.32,2.52a57.85,57.85,0,0,1,5.41,10.46l4.57-1.93L316.71,450l-3.93,3a48.86,48.86,0,0,1,9,14.53l4.18-2.43a15,15,0,0,1-4.09-6l-4.18,2.43a41.44,41.44,0,0,1,7.54,11.83l4.32-2.52a45.27,45.27,0,0,1-3.2-6.07L322,467.31a64.14,64.14,0,0,1,3.07,7.66l4.82-1.33a47.14,47.14,0,0,1-1.52-5.37l-4.57,1.93a13.79,13.79,0,0,1,2.69,6.1l4.57-1.93-3.78-7.77c-1.22-2.51-5.59-.73-4.57,1.93l2.75,7.14,4.57-1.93A41.91,41.91,0,0,1,324,462.51l-4.57,1.93A38.45,38.45,0,0,1,323.84,475l4.57-1.93a64.49,64.49,0,0,1-6-13L317.88,462a50,50,0,0,1,5.45,14.35l4.57-1.93a106.74,106.74,0,0,1-6.09-13.16l-4.57,1.93a36.49,36.49,0,0,1,4.69,15l4.66-1.26a34.68,34.68,0,0,1-5.67-11.75c-.86-3.18-5.3-1.77-4.82,1.33a37.53,37.53,0,0,1-.28,13.1l4.18-1.1a4.17,4.17,0,0,1-1.76-3.94l-4.91.66,1,2.48,4.57-1.93a22.77,22.77,0,0,1-2.25-10.47L312,466.59a16.91,16.91,0,0,1,2.78,9.58l4.91-.66q-2.46-6.88-4.59-13.86l-4.18,2.43a14.28,14.28,0,0,1,4.34,8.56l4.57-1.93Q315.52,462,312,453l-4.57,1.93a104.29,104.29,0,0,1,10.85,19.3l4.32-2.52a118,118,0,0,1-10-19.37l-4.18,2.43a76.44,76.44,0,0,1,12.75,21.56l4.57-1.93a31.62,31.62,0,0,1-5.51-16.54L316,459.59a16.14,16.14,0,0,1,3.83,9.91l4.66-1.26a74.87,74.87,0,0,1-7.21-17.45l-4.57,1.93a7.06,7.06,0,0,1,1.42,5.29l4.91-.66-5.85-18.67-4.57,1.93,1.41,2.55c1.34,2.42,5.59.78,4.57-1.93a21.82,21.82,0,0,0-2-4.08c-1.75-2.78-5.6-.37-4.32,2.52l1.43,3.23,4.32-2.52-2.85-5.78c-1.23-2.5-5.67-.71-4.57,1.93l.82,2,4.57-1.93a151.68,151.68,0,0,0-8-15.7l-4.32,2.52A31.07,31.07,0,0,1,305,434.68l4.57-1.93-7.86-14-3.93,3a39.46,39.46,0,0,1,8.87,15l4.57-1.93q-4.75-8.44-8.76-17.25l-4.32,2.52A69.54,69.54,0,0,1,304,437.44l4.57-1.93a120.07,120.07,0,0,1-8.17-16.27l-4.57,1.93a112,112,0,0,1,8.31,15.93c1.09,2.58,5.62.71,4.57-1.93a94.65,94.65,0,0,0-7.6-15.17c-1.69-2.73-6-.26-4.32,2.52a63.77,63.77,0,0,1,6.83,16.2l4.57-1.93c-2.29-4.16-4.27-9.19-7.24-12.89-1.7-2.11-3.34-2.88-6-2.38-1.76.33-2.06,2.33-1.49,3.67l10.28,24.3,3.93-3c-3.73-3.19-5.34-7.42-6.9-12l-4.18,2.43a76.52,76.52,0,0,1,10.75,18.26l4.57-1.93a108,108,0,0,1-13.8-25.65L294,430.06a54.85,54.85,0,0,1,14.11,24.53l4.57-1.93a135.06,135.06,0,0,1-13.35-27l-4.18,2.43a102.84,102.84,0,0,1,19.11,25.31l4.32-2.52A269.45,269.45,0,0,1,302.35,424l-3.93,3a105.27,105.27,0,0,1,16.05,24.25l3.93-3a94.88,94.88,0,0,1-21.12-32.17c-1.17-3-6-1.67-4.82,1.33Z"/><path class="cls-6" d="M318.09,476.78a48.29,48.29,0,0,0,13.38,19.82,2.51,2.51,0,0,0,3.93-3,37.74,37.74,0,0,0-12-13.72c-2-1.43-4.81,1.4-3.42,3.42a69,69,0,0,0,10.39,12,2.51,2.51,0,0,0,3.93-3,32.93,32.93,0,0,0-12.71-14.44c-2.25-1.42-4.46,1.31-3.42,3.42a73.22,73.22,0,0,0,5.26,9c1.8,2.63,5.92.32,4.32-2.52a30.15,30.15,0,0,0-7.61-9,2.54,2.54,0,0,0-4.27,1.77l-.44,3.48,4.66-1.26c-2-4.34-7.44-3.42-8.62.93a2.53,2.53,0,0,0,1.15,2.82c6.4,2.85,12.06,6.93,17.75,11,6.15,4.37,12.43,8.4,15.5,15.57,1,2.27,4.86,1.12,4.66-1.26-.55-6.55-5.8-12.71-9-18.23l-12.72-21.79c-1.49-2.56-5.07-.77-4.57,1.93A46.11,46.11,0,0,0,331,490.55a2.51,2.51,0,0,0,4.57-1.93,22.94,22.94,0,0,0-9.21-13.93c-2-1.5-4.76,1.42-3.42,3.42l7.31,11c1.47,2.2,5.68.86,4.57-1.93A21.67,21.67,0,0,0,326,476.4c-2.22-1.42-4.51,1.32-3.42,3.42a69.54,69.54,0,0,0,13.79,18.36c1.65,1.58,5.18,0,4.18-2.43a28.64,28.64,0,0,0-7.27-10.59c-1.68-1.54-5.14-.06-4.18,2.43a37.76,37.76,0,0,0,6.61,11.1c1.58,1.85,5.07-.12,4.18-2.43a42.28,42.28,0,0,0-6.17-10.93l-3.54,3.54,6.6,6.69c1.9,1.92,4.55-.12,4.18-2.43a13,13,0,0,0-4.78-8.33,2.52,2.52,0,0,0-4.18,2.43,22.17,22.17,0,0,0,5.15,10.51c1.67,2,4.81-.14,4.18-2.43a84.45,84.45,0,0,0-10.18-23,2.51,2.51,0,0,0-4.57,1.93,14.87,14.87,0,0,0,2.57,5.74c1.85,2.56,6,.31,4.32-2.52l-.77-1.32c-1.66-2.82-5.67-.35-4.32,2.52l.88,3.38c.25,3.19,5.25,3.21,5,0a15.79,15.79,0,0,0-1.57-5.91l-4.32,2.52.77,1.32,4.32-2.52a11.7,11.7,0,0,1-2.07-4.55l-4.57,1.93a79.93,79.93,0,0,1,9.68,21.79l4.18-2.43a17.29,17.29,0,0,1-3.86-8.3l-4.18,2.43a9.09,9.09,0,0,1,3.5,6.13L340.3,492l-6.6-6.69c-2.33-2.36-5.44,1.07-3.54,3.54a33.9,33.9,0,0,1,4.89,8.73l4.18-2.43a30.26,30.26,0,0,1-5.33-8.89l-4.18,2.43a23,23,0,0,1,6,8.39l4.18-2.43a65.48,65.48,0,0,1-13-17.35l-3.42,3.42a16,16,0,0,1,6.5,7.77l4.57-1.93-7.31-11L323.79,479A17.67,17.67,0,0,1,330.7,490l4.57-1.93A42.59,42.59,0,0,1,329,472.29l-4.57,1.93,10.76,18.44,4.89,8.38c1.8,3.08,5.1,7,5.41,10.68l4.66-1.26c-2.95-6.89-8.56-11.06-14.47-15.34-6.56-4.75-13.14-9.68-20.57-13l1.15,2.82-.52.26c1.17,2.54,4.39.87,4.66-1.26l.44-3.48-4.27,1.77a26.75,26.75,0,0,1,6.83,8l4.32-2.52a73.22,73.22,0,0,1-5.26-9L319,482.12A28.39,28.39,0,0,1,330,494.77l3.93-3a63.27,63.27,0,0,1-9.61-11l-3.42,3.42a32.54,32.54,0,0,1,10.23,11.92l3.93-3a43.08,43.08,0,0,1-12.09-17.61c-1.1-3-5.93-1.7-4.82,1.33Z"/><polygon class="cls-1" points="318.17 584.29 253.52 532.19 337.13 502.89 354.12 527.19 318.17 584.29"/><line class="cls-7" x1="202.65" y1="221.9" x2="354" y2="514.38"/><line class="cls-7" x1="495.38" y1="215.7" x2="352.72" y2="512.32"/><path class="cls-7" d="M203,221.93c.19,5.33-5.16,9.78-6.14,15-1.22,6.56,4.42,12.69,8.87,18.5s7.78,13.52,2.5,18.71c8,6-10.12,13.42-2,19.38,2.82,2.07,7.37,1.91,10.63,3.55,4.51,2.27,5.09,7.14,4.06,11.1s-3.21,7.87-2.44,11.9c2,10.33,19.93,13.39,29.27,21.19,6.17,5.16,8.3,12.28,10.19,19,6.22,22.26,7.53,49.22,24,68.61,13,15.26,28,31,28.69,49,.09,2.59-.1,5.28,1.3,7.67,1.7,2.91,5.42,4.81,8.86,6.64,11.74,6.27,22.79,14.08,28.1,24.18s3.5,22.8-7.27,29.57"/><path class="cls-7" d="M494.45,215.86,488,239.8l-10.6,39.1a95.29,95.29,0,0,1-4.16,12.88c-1.54,3.57-3.53,7-4.53,10.73-1.94,7.12-.1,14.49.08,21.77.62,25.3-18.51,47.91-37.24,68.25S392.79,434.67,391.3,460c-.24,4,0,8.19-2,11.88-1.72,3.14-4.88,5.58-7.42,8.34-9,9.82-9.68,22.88-12.45,34.9s-10,25.29-24.56,28.52"/><path class="cls-8" d="M496.82,176.37"/><path class="cls-8" d="M493.69,176.37"/><path class="cls-8" d="M492.39,188.79"/><text class="cls-9" transform="translate(297.99 379.73) scale(0.69 1)">镖</text><path class="cls-6" d="M271.71,388l11.75,17.9c1,1.59,4.24,1.7,4.57-.6l.2-1.35c.46-3.15-4.36-4.51-4.82-1.33l-.2,1.35,4.57-.6L276,385.52c-1.76-2.68-6.09-.18-4.32,2.52Z"/><path class="cls-6" d="M486.39,234.64c-5.45,10.61-10.9,21.23-15.71,32.15-.77,1.75,1.51,4.1,2.94,2.27a70.61,70.61,0,0,0,6.49-9.17c1.88-3.39,2.27-8.07,4.68-11l-2.94-2.27A88.6,88.6,0,0,0,473,268.24a1.88,1.88,0,0,0,3.62,1,55,55,0,0,1,4.44-10.13l-3.43-1.44A82.81,82.81,0,0,1,474,268.08c-.93,2.16,2.17,4.1,3.24,1.89l4.72-9.72-3.24-1.89a105.84,105.84,0,0,0-4.35,10.29c-.71,2,2.56,3.39,3.43,1.44l5.06-11.41c1-2.18-2.22-4.1-3.24-1.89a89.26,89.26,0,0,0-4.79,12.76c-.5,1.72,1.89,3.28,3.13,1.82a9.62,9.62,0,0,0,2.08-3.76l-3.68-.5,1.64.71c-.62-2.33-4.24-1.34-3.62,1,1.16,4.38,5.31,1.38,5.72-1.71.29-2.15-3.1-2.45-3.68-.5l-1.11,2.1,3.13,1.82a82.76,82.76,0,0,1,4.41-11.86l-3.24-1.89-5.06,11.41,3.43,1.44a96.77,96.77,0,0,1,4-9.4c1.05-2.16-2.18-4.07-3.24-1.89L474,268.08l3.24,1.89a90.11,90.11,0,0,0,4-11.3,1.88,1.88,0,0,0-3.43-1.44,59.77,59.77,0,0,0-4.82,11l3.62,1a84.88,84.88,0,0,1,8.45-20.77c1-1.78-1.56-4-2.94-2.27-1.93,2.39-2.43,4.92-3.43,7.77-1.63,4.67-4.72,8.61-7.74,12.45l2.94,2.27c4.81-10.93,10.26-21.54,15.71-32.15,1.1-2.14-2.13-4-3.24-1.89Z"/><path class="cls-6" d="M479.22,252.28l-1.69,3.05a1.88,1.88,0,0,0,2.94,2.27,13.81,13.81,0,0,0,2.59-3.54l-3.43-1.44a8.73,8.73,0,0,1-1,3l3.43,1.44,1.26-3.83a1.88,1.88,0,1,0-3.62-1l-1.26,3.83c-.66,2,2.41,3.3,3.43,1.44a11.54,11.54,0,0,0,1.34-3.9,1.91,1.91,0,0,0-1.09-2.21,1.87,1.87,0,0,0-2.34.77,10.54,10.54,0,0,1-2,2.78l2.94,2.27,1.69-3.05c1.17-2.11-2.07-4-3.24-1.89Z"/><path class="cls-6" d="M473.41,267c-4.86,4.45-6.92,12.11-9.56,18l-9.91,22c-1,2.16,2,4,3.24,1.89l13.26-22L467.2,285l-9.3,15.45,3.24,1.89a147.18,147.18,0,0,0,7.38-17.38c.73-2.08-2.32-3.17-3.43-1.44a148.41,148.41,0,0,0-8.86,15.86,1.88,1.88,0,0,0,3.24,1.89c4.16-6.67,5.75-14.6,10.54-20.91l-3.24-1.89a58.44,58.44,0,0,1-3.66,6.94l3.24,1.89,2.86-6.3c1-2.16-2-4-3.24-1.89q-6.85,11.32-12.55,23.26l3.43,1.44.69-2.3-3.62-1-2.2,7.94c-.6,2.15,2.24,3.11,3.43,1.44q8.64-12.09,16.6-24.63l-3.24-1.89-9.14,16.51c-1,1.78,1.54,4,2.94,2.27,5.67-6.89,8.32-15.14,10.75-23.6.58-2-2.41-3.34-3.43-1.44q-4.77,8.91-9.27,18c-.92,1.85,1.37,3.84,2.94,2.27,5.83-5.82,6.67-14.37,11.6-20.77l-3.43-1.44-5,13.86c-.83,2.31,2.72,3.17,3.62,1A162.06,162.06,0,0,0,476,273.09c.58-2-2.5-3.4-3.43-1.44a121.65,121.65,0,0,0-6.21,15.86c-.62,2,2.5,3.38,3.43,1.44a174.08,174.08,0,0,0,6.94-16.62c.82-2.28-2.78-3.23-3.62-1l-4.82,12.9c-.75,2,2.4,3.27,3.43,1.44a75,75,0,0,0,6-13.54l-3.62-1a21.15,21.15,0,0,1-3.46,8.13l3.24,1.89a44.74,44.74,0,0,0,4.14-7.5c.94-2.17-1.9-4-3.24-1.89a76.68,76.68,0,0,0-3.89,6.81,1.88,1.88,0,0,0,3.24,1.89l3.37-5.31-3.43-1.44a76.3,76.3,0,0,1-5.46,10.83L472,286l1.43-2.64L470,281.9a58.1,58.1,0,0,1-4,9.08l3.24,1.89a74.91,74.91,0,0,1,6.38-11.55l-3.43-1.44a26.79,26.79,0,0,1-3.37,7.11c-1.36,2.05,1.83,3.78,3.24,1.89a66.81,66.81,0,0,0,5.06-7.91l-3.24-1.89a36.61,36.61,0,0,1-4.15,7.32l3.49.95.16-.48-2.94-2.27a133.85,133.85,0,0,1-8,13.28c-1.37,2,1.86,3.85,3.24,1.89a46.61,46.61,0,0,0,3.86-6.55,1.88,1.88,0,0,0-3.24-1.89L458.77,303l3.24,1.89a146.52,146.52,0,0,1,8.3-13.37l-3.24-1.89a131.05,131.05,0,0,0-8.58,14.57c-1.08,2.15,2.12,4,3.24,1.89q4.17-8.05,9.09-15.65l-3.24-1.89-7.81,12.61c-1.28,2.06,1.95,3.92,3.24,1.89l10.61-16.71-3.24-1.89a70,70,0,0,1-7.43,13.32l3.24,1.89,7.34-11.22-3.24-1.89-3.39,7.44,3.24,1.89a19.13,19.13,0,0,1,2.6-4.42l-2.94-2.27a38.07,38.07,0,0,1-3.2,5.06l3.43,1.44,1.24-2.2L468,291.56q-3.53,6.56-7.59,12.78c-1.33,2,1.89,3.87,3.24,1.89l3.09-4.52-3.24-1.89c-1.45,2.54-3,5-4.67,7.36l3.24,1.89a112.31,112.31,0,0,1,5.57-9.94l-3.24-1.89-4.32,8.62c-.9,1.79,1.48,4,2.94,2.27a37.92,37.92,0,0,0,5.17-7.69c1.08-2.14-2-4-3.24-1.89a65.52,65.52,0,0,0-4,7.71c-.78,1.76,1.46,4.06,2.94,2.27a21.62,21.62,0,0,0,3.2-5c1-2.16-2.11-4.07-3.24-1.89a33.28,33.28,0,0,0-2.57,6.5c-.47,1.69,1.92,3.35,3.13,1.82a19.57,19.57,0,0,0,3.46-6.36c.65-2-2.53-3.39-3.43-1.44l-2,4.37c-1,2.16,2.16,4.08,3.24,1.89l.79-1.12-3.13-1.82-.75,1.89,3.43,1.44.54-1.6c.78-2.29-2.84-3.27-3.62-1l-.54,1.6c-.68,2,2.47,3.35,3.43,1.44a14.66,14.66,0,0,0,1.13-2.78,1.89,1.89,0,0,0-3.13-1.82,5.38,5.38,0,0,0-1.37,1.88l3.24,1.89,2-4.37-3.43-1.44a11.51,11.51,0,0,1-2.5,4.7l3.13,1.82a28.84,28.84,0,0,1,2.19-5.61l-3.24-1.89a17.41,17.41,0,0,1-2.61,4.25l2.94,2.27a65.52,65.52,0,0,1,4-7.71L465,298.54a33.62,33.62,0,0,1-4.58,6.94l2.94,2.27,4.32-8.62a1.88,1.88,0,0,0-3.24-1.89,112.31,112.31,0,0,0-5.57,9.94,1.88,1.88,0,0,0,3.24,1.89c1.68-2.39,3.23-4.83,4.67-7.36,1.21-2.12-1.89-3.87-3.24-1.89l-3.09,4.52,3.24,1.89q4.07-6.23,7.59-12.78a1.88,1.88,0,0,0-3.24-1.89,10.34,10.34,0,0,0-1.61,3.09c-.84,2.14,2.27,3,3.43,1.44A38.07,38.07,0,0,0,473,291c.94-1.78-1.56-4-2.94-2.27a23.35,23.35,0,0,0-3.18,5.18c-1,2.18,2.23,4.1,3.24,1.89l3.39-7.44a1.88,1.88,0,0,0-3.24-1.89l-7.34,11.22c-1.34,2,1.86,3.83,3.24,1.89a70,70,0,0,0,7.43-13.32c.92-2.17-1.91-4-3.24-1.89l-10.61,16.71L463,303l7.81-12.61c1.28-2.06-1.93-3.91-3.24-1.89q-4.92,7.61-9.09,15.65l3.24,1.89a131.05,131.05,0,0,1,8.58-14.57c1.36-2-1.87-3.85-3.24-1.89a146.52,146.52,0,0,0-8.3,13.37,1.88,1.88,0,0,0,3.24,1.89l7.58-11.62-3.24-1.89a46.61,46.61,0,0,1-3.86,6.55l3.24,1.89a133.85,133.85,0,0,0,8-13.28c1-1.81-1.44-3.9-2.94-2.27a3.61,3.61,0,0,0-1.26,3.13c0,2,2.46,2.37,3.49.95a36.61,36.61,0,0,0,4.15-7.32c.91-2.15-2-4.07-3.24-1.89a66.81,66.81,0,0,1-5.06,7.91l3.24,1.89a30,30,0,0,0,3.75-8c.65-2.11-2.28-3.15-3.43-1.44A74.91,74.91,0,0,0,466,291c-1,2.15,2.06,4.06,3.24,1.89a63.58,63.58,0,0,0,4.38-10c.71-2.08-2.32-3.17-3.43-1.44a16.83,16.83,0,0,0-1.81,3.54c-.84,2,2.36,3.2,3.43,1.44a82.48,82.48,0,0,0,5.84-11.72c.83-2-2.34-3.16-3.43-1.44l-3.37,5.31,3.24,1.89a76.68,76.68,0,0,1,3.89-6.81l-3.24-1.89a44.74,44.74,0,0,1-4.14,7.5c-1.37,2,1.87,3.86,3.24,1.89a23.3,23.3,0,0,0,3.84-9,1.88,1.88,0,0,0-3.62-1,69.76,69.76,0,0,1-5.57,12.65l3.43,1.44,4.82-12.9-3.62-1a164.71,164.71,0,0,1-6.56,15.73L470,288.5a114.66,114.66,0,0,1,5.83-15l-3.43-1.44A162.06,162.06,0,0,1,466.48,289l3.62,1,5-13.86c.79-2.18-2.25-3-3.43-1.44-4.72,6.12-5.48,14.48-11,20l2.94,2.27q4.5-9.05,9.27-18l-3.43-1.44c-2.23,7.77-4.56,15.59-9.78,21.94l2.94,2.27,9.14-16.51a1.88,1.88,0,0,0-3.24-1.89q-8,12.54-16.6,24.63l3.43,1.44,2.2-7.94c.65-2.33-2.93-3.31-3.62-1l-.69,2.3c-.59,2,2.5,3.39,3.43,1.44q5.7-11.94,12.55-23.26L466,279.08l-2.86,6.3c-1,2.16,1.95,4,3.24,1.89a58.44,58.44,0,0,0,3.66-6.94,1.88,1.88,0,0,0-3.24-1.89c-4.8,6.32-6.38,14.23-10.54,20.91l3.24,1.89a148.41,148.41,0,0,1,8.86-15.86l-3.43-1.44a139.64,139.64,0,0,1-7,16.49c-1.08,2.14,2,4,3.24,1.89l9.3-15.45c1.25-2.07-2-4-3.24-1.89l-13.26,22,3.24,1.89,9.11-20.22c2.68-5.94,4.89-14.5,9.76-19,1.78-1.63-.87-4.28-2.65-2.65Z"/><path class="cls-6" d="M457.62,305.17A216.42,216.42,0,0,0,441,344.94c-.71,2.33,2.84,3.26,3.62,1,4-11.55,8.09-23,14.86-33.3l-3.24-1.89-20.81,38.84,3.24,1.89,17.5-36.85-3.24-1.89-14.87,32.48c-1,2.16,1.94,4,3.24,1.89,5.5-8.81,7.24-19.65,14.08-27.64l-2.94-2.27L442,339.52l3.43,1.44,11.78-31.06-3.62-1a57,57,0,0,1-5,11.5l3.43,1.44,3.58-12.48a1.9,1.9,0,0,0-2.75-2.12,10.82,10.82,0,0,0-4.21,5.22c-2,4.33-3.84,8.79-5.76,13.17l-11.14,25.47c-.95,2.16,1.94,4,3.24,1.89l15.45-25L447,326.55l-6.58,23.94c-.54,2,2.55,3.44,3.43,1.44l10.62-24.12c1-2.18-2.24-4.1-3.24-1.89q-5.65,12.55-10.69,25.36c-.61,1.55,1.45,2.93,2.75,2.12,4.16-2.59,5.49-7,7-11.37q3.65-10.32,6.78-20.8c.6-2-2.58-3.43-3.43-1.44-2.6,6.07-5,12.2-7.18,18.44-1.13,3.27-4.2,8.56-.34,11a1.92,1.92,0,0,0,2.57-.67c6.47-9.27,6.13-21,10.06-31.24.75-2-2.59-3.4-3.43-1.44a188.29,188.29,0,0,0-9.77,28.85,1.9,1.9,0,0,0,2.31,2.31c5.17-1,5.86-9.15,7.08-13.16l7.15-23.46c.71-2.33-2.82-3.25-3.62-1a134.93,134.93,0,0,0-5.17,18.89c-.4,2,2.3,3.36,3.43,1.44a52,52,0,0,0,6.88-20.23c.23-1.82-2.75-2.59-3.49-.95a94.5,94.5,0,0,0-6.21,18.5c-.43,2,2.54,3.49,3.43,1.44a107.39,107.39,0,0,0,6.16-18.61l-3.62-1L458,322c-.36,2.33,2.91,3.37,3.62,1l3.16-10.67-3.68-.5a29.81,29.81,0,0,1-.52,7c-.37,1.94,2.46,3.5,3.43,1.44a30.78,30.78,0,0,0,2.75-9.55c.27-2.12-3.18-2.51-3.68-.5l-2,7.91,3.62,1a114.52,114.52,0,0,1,3.17-11.33l-3.68-.5a16.88,16.88,0,0,1-1.35,7.49l3.49.95.58-2.78-3.49-.95a66.88,66.88,0,0,1-2.15,16.06l3.62,1,2-10.26c.47-2.34-3-3.36-3.62-1l-5.44,20.59,3.68.5q.66-8,1.9-15.93c.37-2.34-2.89-3.36-3.62-1l-6.93,22.49,3.62,1q3.46-11.24,6-22.73a1.88,1.88,0,0,0-3.62-1l-9.16,23.77c-.87,2.25,2.75,3.23,3.62,1a115.73,115.73,0,0,0,6-21.7c.34-1.93-2.45-3.52-3.43-1.44a94,94,0,0,0-7.41,22.75c-.37,2,2.35,3.42,3.43,1.44A126.27,126.27,0,0,0,460,329.42l-3.62-1-4.59,15.93c-.6,2.1,2.29,3.19,3.43,1.44a49.1,49.1,0,0,0,7.07-17.4c.47-2.34-3.06-3.37-3.62-1l-3.48,14.71a1.88,1.88,0,0,0,3.43,1.44c3.39-5.89,5.17-12.3,6.81-18.86l-3.62-1-3.67,14.76c-.5,2,2.43,3.4,3.43,1.44A55.64,55.64,0,0,0,467,323.37a1.88,1.88,0,0,0-3.62-1A52.34,52.34,0,0,0,460.71,336c-.14,2.2,3,2.41,3.68.5a47.46,47.46,0,0,0,2.46-13.26c.09-2.13-3.13-2.52-3.68-.5a27.82,27.82,0,0,0-.92,10,1.88,1.88,0,0,0,3.75,0l1.58-14.06h-3.75a50.73,50.73,0,0,1-8.22,30.92l3.24,1.89,5.56-12.15-3.49-.95a31.33,31.33,0,0,1-2.26,8.27l3.62,1a49.2,49.2,0,0,1,3.64-9.36l-3.43-1.44-4.25,10.25,3.62,1,3.46-9.46-3.62-1a27.54,27.54,0,0,1-3.12,7.26l3.24,1.89a39.87,39.87,0,0,1,3.87-5.76l-2.94-2.27-4.35,7.73c-1.22,2.16,1.82,3.77,3.24,1.89l3.25-4.32-3.43-1.44A8.78,8.78,0,0,1,459,346.5l2.94,2.27a50.65,50.65,0,0,0,6.53-21.39c.17-2.1-3.23-2.56-3.68-.5-1.36,6.21-6.47,12.5-9.48,18.09l3.43,1.44,1.06-3.05a1.89,1.89,0,0,0-2.75-2.12,62.46,62.46,0,0,1-10.74,5.15l2.31,2.31.26-1.68c.3-1.95-2.34-3.47-3.43-1.44a118.88,118.88,0,0,1-10,15.55l3.24,1.89,13.85-19.26-3.24-1.89a103.59,103.59,0,0,1-12.51,20c-1.47,1.84,1,4.45,2.65,2.65a167.41,167.41,0,0,0,17.47-22.11l-3.24-1.89-11.46,18.23a1.89,1.89,0,0,0,2.57,2.57,37.13,37.13,0,0,0,15.05-18.91c.64-1.76-1.91-3.18-3.13-1.82a143.68,143.68,0,0,0-15.54,20.78c-1.16,1.88,1.4,3.65,2.94,2.27a72.55,72.55,0,0,0,12.83-15.07c1.31-2-1.9-3.88-3.24-1.89L445,359.56c-1,1.52,1,3.65,2.57,2.57a38.46,38.46,0,0,0,12-13.6,1.88,1.88,0,0,0-2.94-2.27A85,85,0,0,0,446,358.95c-1.31,1.91,1.41,3.48,2.94,2.27a43,43,0,0,0,8.85-9.47l-3.24-1.89-6.5,9.8c-1.16,1.75,1.55,3.9,2.94,2.27l7.81-9.1-2.94-2.27-7.38,9.68c-1.41,1.84,1.43,3.46,2.94,2.27a36,36,0,0,0,9.84-11.83,1.88,1.88,0,0,0-3.24-1.89L451,359c-1.18,1.74,1.63,4,2.94,2.27a76.66,76.66,0,0,0,7.81-12.1l-3.43-1.44c-1.69,4.54-5.09,7.72-7.26,12l3.43,1.44,1.35-3.36c.9-2.24-2.73-3.21-3.62-1l-1.35,3.36c-.79,2,2.47,3.33,3.43,1.44,2.34-4.59,5.8-7.94,7.64-12.89.74-2-2.46-3.32-3.43-1.44a71.5,71.5,0,0,1-7.23,11.34l2.94,2.27,7-10.26L458,348.78a33.7,33.7,0,0,1-9.26,11.08l2.94,2.27,7.38-9.68c1.28-1.68-1.56-3.88-2.94-2.27l-7.81,9.1,2.94,2.27,6.5-9.8c1.34-2-1.88-3.86-3.24-1.89a39.57,39.57,0,0,1-8.27,8.71l2.94,2.27a80,80,0,0,1,10-11.94l-2.94-2.27a34.48,34.48,0,0,1-10.62,12.26l2.57,2.57,8.66-12.92-3.24-1.89a68.9,68.9,0,0,1-12.24,14.31l2.94,2.27a138.36,138.36,0,0,1,15-20l-3.13-1.82A32.9,32.9,0,0,1,442.85,358l2.57,2.57,11.46-18.23c1.29-2.06-1.91-3.89-3.24-1.89a161.54,161.54,0,0,1-16.88,21.36l2.65,2.65a107.57,107.57,0,0,0,13.1-20.72,1.88,1.88,0,0,0-3.24-1.89l-13.85,19.26c-1.42,2,1.81,3.78,3.24,1.89a118.88,118.88,0,0,0,10-15.55L445.23,346l-.26,1.68c-.2,1.27.82,2.85,2.31,2.31a67.75,67.75,0,0,0,11.64-5.53l-2.75-2.12-1.06,3.05c-.7,2,2.43,3.3,3.43,1.44,3.24-6,8.39-12.3,9.86-19l-3.68-.5a46.25,46.25,0,0,1-6,19.49c-1,1.82,1.44,3.84,2.94,2.27a15.77,15.77,0,0,0,3.45-5.49c.83-2.15-2.26-3-3.43-1.44l-3.25,4.32,3.24,1.89L466,340.7c1-1.78-1.56-4-2.94-2.27a45.56,45.56,0,0,0-4.46,6.52,1.88,1.88,0,0,0,3.24,1.89,30.94,30.94,0,0,0,3.49-8.16c.64-2.36-2.8-3.23-3.62-1l-3.46,9.46c-.84,2.3,2.72,3.17,3.62,1l4.25-10.25c.81-2-2.47-3.32-3.43-1.44a54,54,0,0,0-4,10.26c-.67,2.39,2.72,3.16,3.62,1a35.23,35.23,0,0,0,2.39-9.26c.23-1.83-2.74-2.59-3.49-.95l-5.56,12.15a1.88,1.88,0,0,0,3.24,1.89,54.18,54.18,0,0,0,8.73-32.82,1.88,1.88,0,0,0-3.75,0l-1.58,14.06H466a24.91,24.91,0,0,1,.78-9l-3.68-.5a43.74,43.74,0,0,1-2.32,12.26l3.68.5A48.13,48.13,0,0,1,467,323.37l-3.62-1A52.57,52.57,0,0,1,458.32,338l3.43,1.44,3.67-14.76c.58-2.34-3-3.34-3.62-1-1.55,6.24-3.19,12.35-6.43,18l3.43,1.44,3.48-14.71-3.62-1A46.45,46.45,0,0,1,452,343.9l3.43,1.44L460,329.42c.68-2.35-2.82-3.24-3.62-1a120,120,0,0,1-7.74,17.26l3.43,1.44a90.17,90.17,0,0,1,7-21.85l-3.43-1.44a115.73,115.73,0,0,1-6,21.7l3.62,1,9.16-23.77-3.62-1q-2.52,11.49-6,22.73c-.71,2.31,2.91,3.3,3.62,1L463.36,323l-3.62-1q-1.33,8.43-2,16.93c-.17,2.13,3.15,2.51,3.68.5l5.44-20.59-3.62-1-2,10.26c-.47,2.34,3,3.36,3.62,1A71.08,71.08,0,0,0,467.09,312a1.89,1.89,0,0,0-3.49-.95,7.12,7.12,0,0,0-1.09,4.67c.14,1.62,2.68,2.84,3.49.95a21.07,21.07,0,0,0,1.86-9.38,1.88,1.88,0,0,0-3.68-.5A114.52,114.52,0,0,0,461,318.16c-.53,2.35,3,3.35,3.62,1l2-7.91-3.68-.5a23.82,23.82,0,0,1-2.24,7.65l3.43,1.44a35.58,35.58,0,0,0,.66-8,1.88,1.88,0,0,0-3.68-.5L458,322l3.62,1,2-13.12c.35-2.32-3.06-3.4-3.62-1a102.21,102.21,0,0,1-5.79,17.71l3.43,1.44a89.83,89.83,0,0,1,5.83-17.6l-3.49-.95a47.51,47.51,0,0,1-6.37,18.33l3.43,1.44a134.93,134.93,0,0,1,5.17-18.89l-3.62-1-5.15,16.89-2.29,7.51c-.56,1.83-1.74,9.14-4.17,9.6l2.31,2.31a182.36,182.36,0,0,1,9.39-28l-3.43-1.44c-3.8,10-3.42,21.38-9.68,30.34l2.57-.67c-1.44-.9,8.09-22.46,8.87-24.29l-3.43-1.44q-2.33,7.75-4.91,15.41c-1.56,4.59-2.82,11.8-7.19,14.52l2.75,2.12q4.86-12.36,10.31-24.46l-3.24-1.89L440.64,350l3.43,1.44,6.58-23.94a1.88,1.88,0,0,0-3.43-1.44l-15.45,25L435,353l9.6-22,4.61-10.54c1.29-3,2.6-8.23,5.56-10L452,308.37l-3.58,12.48a1.88,1.88,0,0,0,3.43,1.44,61.56,61.56,0,0,0,5.34-12.39c.72-2.34-2.78-3.21-3.62-1L441.82,340c-.75,2,2.53,3.37,3.43,1.44l10.44-22.33c.83-1.78-1.46-4-2.94-2.27-7.11,8.31-9,19.27-14.67,28.4l3.24,1.89,14.87-32.48c1-2.17-2.2-4.08-3.24-1.89l-17.5,36.85c-1,2.15,2.08,4,3.24,1.89l20.81-38.84a1.88,1.88,0,0,0-3.24-1.89c-6.95,10.52-11.16,22.35-15.24,34.19l3.62,1a211.43,211.43,0,0,1,16.22-38.87c1.15-2.12-2.09-4-3.24-1.89Z"/><path class="cls-6" d="M440.38,346,421,385c-.89,1.78,1.52,4,2.94,2.27C433,376,436,361.59,443.73,349.6l-3.24-1.89q-10.64,19.11-20.83,38.46c-.8,1.52.94,3.73,2.57,2.57,5.8-4.17,8.24-11.81,11-18.13,3.29-7.61,6.24-15.36,9.18-23.11.77-2-2.38-3.24-3.43-1.44q-11.73,20.13-22,41c-.74,1.51.92,3.77,2.57,2.57,5.46-4,7.82-10.71,10.52-16.7,3.3-7.3,6.3-14.72,9.08-22.23.75-2-2.37-3.22-3.43-1.44a218.66,218.66,0,0,0-17.58,36.94c-.74,2,2.42,3.29,3.43,1.44,5.54-10.08,8.41-22,12.19-32.86.8-2.3-2.77-3.22-3.62-1l-11.43,30,3.62,1a297.79,297.79,0,0,1,14.27-32.35,1.88,1.88,0,0,0-2.94-2.27c-10.71,9.89-15.05,23.46-20.17,36.7-.76,2,2.49,3.34,3.43,1.44L427,367.51a1.9,1.9,0,0,0-2.12-2.75c-2.71.47-3.74,2.55-3.31,5.12.25,1.48,2.19,1.69,3.13.83a124.41,124.41,0,0,1,17.56-13.42l-2.75-2.12c-.62,4.14-4.89,7.64-7.24,11a65.52,65.52,0,0,0-6.27,11.6c-.78,1.83,1.32,3.9,2.94,2.27a105.1,105.1,0,0,0,16.79-22c1-1.8-1.49-3.89-2.94-2.27a84.39,84.39,0,0,0-15.54,24.84c-.73,1.8,1.91,3.08,3.13,1.82A129,129,0,0,0,449.79,357c1-1.8-1.48-3.88-2.94-2.27A182.23,182.23,0,0,0,427.57,380c-1.32,2.09,1.83,3.77,3.24,1.89l18.93-25.26-3.24-1.89-16.22,23.47c-1,1.5,1.06,3.66,2.57,2.57,4.29-3.12,7.52-7.06,10.73-11.24,1.47-1.91-1.79-3.78-3.24-1.89-2.8,3.65-5.63,7.16-9.38,9.89l2.57,2.57,16.22-23.47c1.39-2-1.82-3.78-3.24-1.89L427.57,380l3.24,1.89a176.68,176.68,0,0,1,18.68-24.57l-2.94-2.27a125,125,0,0,1-18.75,24.8l3.13,1.82a79,79,0,0,1,14.58-23.19l-2.94-2.27a101.21,101.21,0,0,1-16.21,21.19l2.94,2.27a64.83,64.83,0,0,1,7.22-12.95c2.48-3.4,6-6.25,6.66-10.6.22-1.49-1.23-3.08-2.75-2.12a129.84,129.84,0,0,0-18.32,14l3.13.83.69-.51-2.12-2.75L413.59,386.4l3.43,1.44c4.89-12.64,9-25.6,19.21-35l-2.94-2.27a306,306,0,0,0-14.65,33.24c-.84,2.27,2.77,3.23,3.62,1l11.43-30-3.62-1c-3.67,10.49-6.45,22.21-11.81,32l3.43,1.44a213.42,213.42,0,0,1,17.21-36l-3.43-1.44c-2.45,6.62-5.06,13.17-7.93,19.62-2.47,5.56-4.85,13.34-9.94,17.07l2.57,2.57q10.31-20.89,22-41l-3.43-1.44c-2.44,6.43-4.88,12.87-7.53,19.21-2.56,6.13-5.3,15.77-10.9,19.79l2.57,2.57q10.19-19.35,20.83-38.46a1.88,1.88,0,0,0-3.24-1.89c-7.57,11.68-10.35,26-19.22,36.86l2.94,2.27,19.4-38.91c1.07-2.15-2.16-4.06-3.24-1.89Z"/><path class="cls-6" d="M448.66,357.86q-3.61,6.48-7.29,12.92c-1.23,2.16,1.82,3.76,3.24,1.89l9.79-12.88c1.28-1.68-1.57-3.89-2.94-2.27l-14,16.41c-1.55,1.81,1,4.44,2.65,2.65q7-7.56,13.43-15.66c1.46-1.85-1-4.51-2.65-2.65a105.77,105.77,0,0,0-9.45,12.77c-1.17,1.87,1.41,3.65,2.94,2.27a66.52,66.52,0,0,0,13.25-16.39c1.23-2.14-1.84-3.8-3.24-1.89a63.57,63.57,0,0,0-5.81,9.65c-.87,1.77,1.52,4,2.94,2.27A121.16,121.16,0,0,0,460,355c1.29-2.08-1.86-3.83-3.24-1.89l-6.57,9.24,3.24,1.89c1.92-3,3.7-6.1,5.36-9.26a1.9,1.9,0,0,0-1.12-2.75c-5.32-1.64-12.14,7.47-14.84,11l2.57-.67c-2-1.44-4.2-2.92-5.43-5.18-.67-1.23-.77-2.57-1.57-3.73a5.64,5.64,0,0,0-2.16-2c-.4-.2-2.53-.43-2.58-.49a1.91,1.91,0,0,0-3.24,0c-2.86,4.11,3.23,4.64,5.7,4.66.94,0,5.44-.54,6,.05,1.12,1.21-.23,2.23-1,3.67l-6,11c-1.08,2,1.34,3.55,2.94,2.27l6-4.8-2.65-2.65a63.07,63.07,0,0,0-7.2,7.92c-1.13,1.46,1.1,3.67,2.57,2.57a93.6,93.6,0,0,0,7.55-6.31c1.53-1.42-.52-4.2-2.27-2.94a39.54,39.54,0,0,0-7.73,7.16c-1.5,1.83.94,4.42,2.65,2.65a101.91,101.91,0,0,0,10-12.1c1.41-2-1.82-3.8-3.24-1.89l-7.27,9.81c-1.13,1.53,1.06,3.53,2.57,2.57a106.4,106.4,0,0,0,8.87-6.38l-2.65-2.65Q440.06,372,434.6,378a1.88,1.88,0,0,0,2.65,2.65L447,371.8l-2.65-2.65a108.8,108.8,0,0,0-9.83,10.67,1.88,1.88,0,0,0,2.65,2.65,113.59,113.59,0,0,0,14.78-15,1.88,1.88,0,0,0-2.65-2.65c-8.91,7.84-15.53,18.09-25.43,24.83l2.27,2.94a85,85,0,0,0,10.13-13.22,1.88,1.88,0,0,0-2.94-2.27l-8.15,8.16c-1.71,1.72.89,4.29,2.65,2.65a19.06,19.06,0,0,0,4-5.18c.84-1.56-.93-3.66-2.57-2.57a83.07,83.07,0,0,0-8.32,6.35c-1.6,1.38.5,4.14,2.27,2.94a192.2,192.2,0,0,1,16.89-10.18l-2.57-2.57a38.46,38.46,0,0,1-6.83,8.49l2.65,2.65,10-10.44-2.65-2.65-12.42,14.32,2.94,2.27,12.41-22.22c1.18-2.11-2.06-4-3.24-1.89L428,389.46c-1,1.79,1.5,3.93,2.94,2.27l12.42-14.32c1.57-1.8-1-4.41-2.65-2.65l-10,10.44a1.88,1.88,0,0,0,2.65,2.65,41.85,41.85,0,0,0,7.41-9.25,1.89,1.89,0,0,0-2.57-2.57,192.2,192.2,0,0,0-16.89,10.18l2.27,2.94a75.6,75.6,0,0,1,7.56-5.76l-2.57-2.57a16.43,16.43,0,0,1-3.41,4.42l2.65,2.65,8.15-8.16L433,377.47a80.07,80.07,0,0,1-9.55,12.46c-1.39,1.49.44,4.19,2.27,2.94,10.19-6.94,17-17.35,26.19-25.42l-2.65-2.65a113.59,113.59,0,0,1-14.78,15l2.65,2.65A108.8,108.8,0,0,1,447,371.8c1.76-1.67-.87-4.26-2.65-2.65L434.6,378l2.65,2.65q5.47-5.93,10.61-12.14a1.88,1.88,0,0,0-2.65-2.65,97.1,97.1,0,0,1-8.11,5.79l2.57,2.57,7.27-9.81-3.24-1.89a95.64,95.64,0,0,1-9.43,11.34l2.65,2.65a35.82,35.82,0,0,1,7-6.58L441.61,367a84.34,84.34,0,0,1-6.8,5.73l2.57,2.57a57.64,57.64,0,0,1,6.62-7.17c1.81-1.67-.81-4.12-2.65-2.65l-6,4.8,2.94,2.27,6-11c1-1.77,3.12-4.41,2.4-6.7-.49-1.57-2-2.23-3.49-2.52a26,26,0,0,0-4.56-.13l-3.42,0q-2.31-.87-1.6,1h-3.24a6.14,6.14,0,0,0,1.77,1.73c2.22,1.47,3.17,1.43,4.27,3.8,1.46,3.16,4.28,5.21,7.05,7.17a1.92,1.92,0,0,0,2.57-.67c1.31-1.73,8-10.14,10.61-9.33l-1.12-2.75c-1.66,3.16-3.44,6.24-5.36,9.26-1.31,2.07,1.86,3.83,3.24,1.89L460,355l-3.24-1.89a113.09,113.09,0,0,1-7.9,11.2l2.94,2.27a63.57,63.57,0,0,1,5.81-9.65L454.36,355a63.33,63.33,0,0,1-12.66,15.63l2.94,2.27a99.29,99.29,0,0,1,8.87-12l-2.65-2.65q-6.4,8.11-13.43,15.66l2.65,2.65,14-16.41-2.94-2.27-9.79,12.88,3.24,1.89q3.68-6.44,7.29-12.92c1.17-2.11-2.06-4-3.24-1.89Z"/><path class="cls-6" d="M475.75,259.37l-1.57,1.69,2.94,2.27a38.39,38.39,0,0,0,3.74-9.7,1.88,1.88,0,0,0-3.43-1.44,46.1,46.1,0,0,0-4.05,8.2c-.8,2.1,2.3,3.09,3.43,1.44l3.81-5.56c1.37-2-1.88-3.87-3.24-1.89l-3.81,5.56,3.43,1.44a41.24,41.24,0,0,1,3.67-7.31l-3.43-1.44a34.6,34.6,0,0,1-3.36,8.81c-1,1.82,1.45,3.88,2.94,2.27L478.4,262c1.64-1.76-1-4.42-2.65-2.65Z"/><path class="cls-6" d="M419.42,386.29,402.49,410.4c-1.39,2,1.86,3.85,3.24,1.89l15.17-21.58-3.24-1.89-8.07,14.85,3.24,1.89a159.52,159.52,0,0,0,8.3-19.3c.73-2-2.36-3.22-3.43-1.44l-8.46,14.09,3.24,1.89a75.43,75.43,0,0,0,4.67-14.19c.44-2-2.43-3.44-3.43-1.44a120.84,120.84,0,0,0-5.7,13.28c-.71,2,2.6,3.41,3.43,1.44l3.49-8.26c.91-2.15-2-4.06-3.24-1.89l-7.15,12.57c-1,1.79,1.54,4,2.94,2.27a56.54,56.54,0,0,1,5.6-5.81l-2.94-2.27A23.22,23.22,0,0,1,407,402c-1.46,1.86,1.1,4.53,2.65,2.65l15.53-18.84-2.94-2.27q-6.65,10.18-13.94,19.91c-1.32,1.76,1.45,3.66,2.94,2.27a94.12,94.12,0,0,0,15.63-18.84c1.32-2.09-1.83-3.77-3.24-1.89l-12.48,16.55c-1.37,1.82,1.43,3.53,2.94,2.27a72.88,72.88,0,0,0,14.79-16.69c1.33-2.05-1.86-3.83-3.24-1.89A185.47,185.47,0,0,1,413.9,400a1.88,1.88,0,0,0,2.65,2.65,116.78,116.78,0,0,0,13.25-14.24c1.47-1.86-1.1-4.53-2.65-2.65l-9.52,11.57c-1.51,1.83.88,4.36,2.65,2.65l9.57-9.26-2.65-2.65a127.58,127.58,0,0,0-8.64,10.24c-1.37,1.81,1.43,3.53,2.94,2.27a52.88,52.88,0,0,0,6.47-6.4L425,391.93l-4.11,5.4c-1.33,1.74,1.46,3.69,2.94,2.27a73.65,73.65,0,0,0,6.39-6.91l-2.94-2.27-1.2,2c-1.08,1.79,1.5,3.89,2.94,2.27a6.25,6.25,0,0,0,1.8-4.34,1.89,1.89,0,0,0-3.2-1.33l-24.08,25.66,2.65,2.65L418.1,402l-2.94-2.27-10.1,15.1c-1.36,2,1.84,3.8,3.24,1.89a92.72,92.72,0,0,0,7.43-11.94,1.88,1.88,0,0,0-3.24-1.89l-10.41,14.36,3.24,1.89L410.64,408c.85-1.77-1.52-4-2.94-2.27a68,68,0,0,0-8.19,12.85c-1,2.15,2,4,3.24,1.89a71.06,71.06,0,0,0,4.63-9.48c.81-2-2.39-3.24-3.43-1.44l-6.28,10.82,3.24,1.89c1.92-3.71,3.65-7.49,5.23-11.36.84-2.06-2.31-3.11-3.43-1.44a70.5,70.5,0,0,0-6.4,12c-.87,2.06,2.31,3.09,3.43,1.44a102.27,102.27,0,0,1,23.34-24.44l-2.57-2.57-12.12,16.25c-1.27,1.7,1.56,3.88,2.94,2.27l13.45-15.67-3.2-1.33-1.77,3,2.94,2.27,1.6-3.17c.92-1.83-1.41-3.89-2.94-2.27a380.41,380.41,0,0,0-26,30.34,1.8,1.8,0,0,0,0,1.89c1.44,2,5.28,2.37,5.61-.85.31-3-3.58-3.87-5.29-1.91l2.65,2.65a26,26,0,0,0,5.34-10.13c.54-2-2.44-3.38-3.43-1.44a71.59,71.59,0,0,1-6,9.82l3.24,1.89a19.92,19.92,0,0,0,3-7.33,1.88,1.88,0,0,0-3.43-1.44l-4.27,6.86a1.88,1.88,0,0,0,2.94,2.27l3.38-3.6-3.13-1.82a19,19,0,0,1-3.09,7.52c-1.38,2,1.82,3.78,3.24,1.89l8.42-11.18-3.24-1.89a89.85,89.85,0,0,1-6.62,10.6c-1.43,2,1.81,3.78,3.24,1.89,2.26-3,4.65-5.82,7.16-8.58l-2.65-2.65-4.57,5.23,2.94,2.27,3.06-4.28c1.41-2-1.82-3.8-3.24-1.89a117.19,117.19,0,0,0-11.14,18.36c-1,2.15,2,4,3.24,1.89l2.59-4.6c1.21-2.15-1.83-3.79-3.24-1.89a62.93,62.93,0,0,0-9.8,19.58c-.7,2.33,2.85,3.26,3.62,1q3-8.91,6.62-17.59l-3.62-1a52.67,52.67,0,0,1-7,16.13l3.43,1.44L392,438l-3.62-1a38.72,38.72,0,0,1-3.3,8.73l3.43,1.44a40.13,40.13,0,0,1,7.21-14.43l-3.13-1.82q-7.18,20-15.4,39.61l3.62,1a99.85,99.85,0,0,1,6.37-15.76l-3.43-1.44A86.91,86.91,0,0,1,377,469.68l3.43,1.44q2.61-7.93,4.63-16c.5-2-2.4-3.38-3.43-1.44a85.4,85.4,0,0,0-5.4,12.48c-.79,2.32,2.74,3.19,3.62,1l4.55-11.35-3.62-1a92.34,92.34,0,0,1-5.91,14.82c-1.08,2.14,2,4,3.24,1.89q6.56-11.28,12.08-23.08L386.81,447a82.17,82.17,0,0,1-4.67,14.84c-.82,2,2.47,3.32,3.43,1.44a144.18,144.18,0,0,0,7.26-16.85c.82-2.3-2.74-3.2-3.62-1l-4.79,12,3.62,1q3-9,6.7-17.64l-3.43-1.44-8.16,24.51c-.78,2.34,2.73,3.18,3.62,1l1.84-4.52-3.62-1L381.33,471l3.62,1,4.55-16.15-3.62-1-3.05,13a1.88,1.88,0,0,0,3.62,1q2.46-8.39,4.06-17l-3.62-1-2.14,12.78a1.88,1.88,0,0,0,3.62,1,67.4,67.4,0,0,0,3.12-14.48h-3.75a36.79,36.79,0,0,1-7.8,25.21l2.65,2.65a32.33,32.33,0,0,0,4.51-7.72c.82-2-2.45-3.31-3.43-1.44L382,472.18c-.93,1.78,1.56,4,2.94,2.27a12.4,12.4,0,0,1,3.09-3.11l-2.75-2.12a13.5,13.5,0,0,1-2.37,4.7l3.24,1.89a35.75,35.75,0,0,0,4.45-9.43c.73-2.37-2.71-3.15-3.62-1a16.4,16.4,0,0,1-6.61,7.74l2.57,2.57c1.79-2.53,5.72-5.94,4.08-9.24a1.89,1.89,0,0,0-3.24,0l-12,21.3,3.43,1.44L382.52,470c.87-2.27-2.72-3.19-3.62-1q-4.17,10.23-9.25,20l3.43,1.44a229.78,229.78,0,0,0,7.55-22.79c.66-2.39-2.73-3.17-3.62-1q-4.49,11.06-9.45,21.91c-1,2.17,2.17,4.08,3.24,1.89q4.81-9.87,8.83-20.08c.77-2-2.57-3.39-3.43-1.44l-7.9,17.81,3.43,1.44A162.38,162.38,0,0,1,378,469.67c.8-2-2.46-3.32-3.43-1.44a93.32,93.32,0,0,0-6.12,14.89c-.73,2.32,2.84,3.26,3.62,1a119.15,119.15,0,0,1,5.26-12.86c1-2.15-2.12-4.06-3.24-1.89-8.28,16-16.47,32.13-21.94,49.37-.67,2.1,2.3,3.16,3.43,1.44a92.67,92.67,0,0,0,10.68-22.11l-3.62-1L357.16,514c-.76,2.32,2.78,3.22,3.62,1L369,493.1l-3.62-1L360,510.74c-.68,2.32,2.93,3.31,3.62,1l6.34-21.44-3.62-1-4.54,19.23c-.46,2,2.54,3.47,3.43,1.44a94,94,0,0,0,6.33-20.23l-3.68-.5a61.79,61.79,0,0,1-2.62,12.61c-.73,2.31,2.89,3.29,3.62,1a66.89,66.89,0,0,0,2.75-13.6c.21-2.09-3.29-2.57-3.68-.5a89.82,89.82,0,0,1-5.95,19.33l3.43,1.44,4.54-19.23a1.88,1.88,0,0,0-3.62-1L360,510.74l3.62,1L369,493.1c.69-2.36-2.78-3.22-3.62-1L357.16,514l3.62,1,5.51-16.92c.75-2.3-2.86-3.28-3.62-1a88.94,88.94,0,0,1-10.31,21.21l3.43,1.44c5.37-16.94,13.43-32.74,21.56-48.48l-3.24-1.89a127.67,127.67,0,0,0-5.64,13.75l3.62,1a87.67,87.67,0,0,1,5.74-14l-3.43-1.44a162.38,162.38,0,0,0-6.29,18.56c-.54,2,2.54,3.44,3.43,1.44l7.9-17.81L376,469.42q-3.85,9.76-8.45,19.18l3.24,1.89q5.16-11.3,9.83-22.81l-3.62-1a229.78,229.78,0,0,1-7.55,22.79c-.77,2,2.46,3.32,3.43,1.44q5.29-10.25,9.63-20.93l-3.62-1-7.32,19.19c-.77,2,2.4,3.26,3.43,1.44l12-21.3h-3.24c.09.17-3.73,5-4.08,5.46-1.09,1.55,1,3.54,2.57,2.57a20.79,20.79,0,0,0,8.33-10l-3.62-1a32.33,32.33,0,0,1-4.07,8.53c-1.36,2,1.84,3.79,3.24,1.89a17.4,17.4,0,0,0,2.75-5.59c.43-1.44-1.41-3.14-2.75-2.12a20.29,20.29,0,0,0-3.85,3.7l2.94,2.27,1.71-3.27-3.43-1.44a25,25,0,0,1-3.54,6.06c-1.47,1.88,1.16,4.55,2.65,2.65a40.73,40.73,0,0,0,8.89-27.86,1.88,1.88,0,0,0-3.75,0,62.59,62.59,0,0,1-3,13.48l3.62,1,2.14-12.78c.39-2.35-3.17-3.38-3.62-1q-1.61,8.59-4.06,17l3.62,1,3.05-13c.55-2.34-3-3.33-3.62-1L381.33,471c-.66,2.33,2.9,3.29,3.62,1l3.65-11.7c.74-2.36-2.73-3.17-3.62-1l-1.84,4.52,3.62,1,8.16-24.51c.66-2-2.57-3.41-3.43-1.44q-4,9.11-7.08,18.54c-.77,2.34,2.74,3.19,3.62,1l4.79-12-3.62-1a136.54,136.54,0,0,1-6.88,16l3.43,1.44A82.17,82.17,0,0,0,390.42,448c.42-2-2.48-3.47-3.43-1.44q-5.53,11.81-12.08,23.08l3.24,1.89a98,98,0,0,0,6.29-15.72c.72-2.36-2.74-3.18-3.62-1l-4.55,11.35,3.62,1a79.33,79.33,0,0,1,5-11.58l-3.43-1.44q-2,8.1-4.63,16c-.67,2,2.4,3.29,3.43,1.44a92,92,0,0,0,7.09-16.23c.65-2-2.46-3.35-3.43-1.44a105.55,105.55,0,0,0-6.75,16.65c-.73,2.37,2.71,3.15,3.62,1q8.22-19.6,15.4-39.61c.61-1.7-2-3.3-3.13-1.82a44.84,44.84,0,0,0-8.17,16.09c-.55,2,2.42,3.36,3.43,1.44A42.8,42.8,0,0,0,392,438a1.88,1.88,0,0,0-3.62-1l-6.73,18.72c-.75,2.08,2.32,3.15,3.43,1.44a55.69,55.69,0,0,0,7.38-17c.6-2.41-2.72-3.17-3.62-1q-3.59,8.69-6.62,17.59l3.62,1a60,60,0,0,1,9.42-18.68L392,437.18l-2.59,4.6,3.24,1.89a117.19,117.19,0,0,1,11.14-18.36l-3.24-1.89-3.06,4.28c-1.23,1.72,1.55,3.87,2.94,2.27l4.57-5.23c1.58-1.8-1-4.45-2.65-2.65-2.72,3-5.29,6.12-7.74,9.34l3.24,1.89a89.85,89.85,0,0,0,6.62-10.6c1.16-2.18-1.82-3.78-3.24-1.89L392.85,432l3.24,1.89a21.16,21.16,0,0,0,3.47-8.42c.32-1.72-1.75-3.29-3.13-1.82l-3.38,3.6,2.94,2.27,4.27-6.86-3.43-1.44a17.42,17.42,0,0,1-2.57,6.43c-1.33,2.06,1.84,3.8,3.24,1.89a71.59,71.59,0,0,0,6-9.82l-3.43-1.44a21.3,21.3,0,0,1-4.37,8.48c-1.53,1.83,1,4.48,2.65,2.65,8.59-9.81,16.64-20,25.66-29.47l-2.94-2.27-1.6,3.17a1.88,1.88,0,0,0,2.94,2.27,7.59,7.59,0,0,0,2.87-5.66c.17-1.59-2.19-2.51-3.2-1.33l-13.45,15.67,2.94,2.27,12.12-16.25c1.1-1.47-1.09-3.67-2.57-2.57A107.72,107.72,0,0,0,396.5,421l3.43,1.44a65.44,65.44,0,0,1,6-11.1l-3.43-1.44c-1.46,3.57-3.08,7-4.85,10.47-1.11,2.13,2,4,3.24,1.89l6.28-10.82L403.75,410a64.6,64.6,0,0,1-4.25,8.59l3.24,1.89a63.79,63.79,0,0,1,7.6-12.09l-2.94-2.27-5.33,11.11a1.88,1.88,0,0,0,3.24,1.89l10.41-14.36-3.24-1.89a92.72,92.72,0,0,1-7.43,11.94l3.24,1.89,10.1-15.1c1.17-1.74-1.63-4-2.94-2.27l-11.88,15.34c-1.43,1.85,1,4.46,2.65,2.65l24.08-25.66-3.2-1.33-.71,1.69,2.94,2.27,1.2-2c1.07-1.77-1.57-4-2.94-2.27a73.65,73.65,0,0,1-6.39,6.91l2.94,2.27,4.11-5.4c1.28-1.68-1.57-3.89-2.94-2.27a52.88,52.88,0,0,1-6.47,6.4l2.94,2.27a118.42,118.42,0,0,1,8.05-9.48,1.88,1.88,0,0,0-2.65-2.65l-9.57,9.26,2.65,2.65,9.52-11.57-2.65-2.65A116.78,116.78,0,0,1,413.9,400l2.65,2.65a194.93,194.93,0,0,0,12.31-15.58l-3.24-1.89a69.66,69.66,0,0,1-14.2,15.94l2.94,2.27,12.48-16.55L423.6,385a90.38,90.38,0,0,1-15,18.08l2.94,2.27q7.3-9.73,13.94-19.91c1.15-1.75-1.58-3.93-2.94-2.27L407,402l2.65,2.65a27.62,27.62,0,0,0,3.77-6.21,1.88,1.88,0,0,0-2.94-2.27,56.54,56.54,0,0,0-5.6,5.81l2.94,2.27,7.15-12.57-3.24-1.89L408.21,398l3.43,1.44A112.62,112.62,0,0,1,417,387.07l-3.43-1.44a70.41,70.41,0,0,1-4.3,13.29c-.95,2.16,2,4,3.24,1.89l8.46-14.09-3.43-1.44a152.13,152.13,0,0,1-7.92,18.4c-1.09,2.14,2.08,4,3.24,1.89l8.07-14.85a1.88,1.88,0,0,0-3.24-1.89L402.49,410.4l3.24,1.89,16.93-24.12c1.39-2-1.86-3.86-3.24-1.89Z"/><path class="cls-6" d="M368.14,491.15,364,504.33c-.63,2,2.51,3.39,3.43,1.44A114.78,114.78,0,0,0,373.52,490l-3.62-1a115.14,115.14,0,0,1-3.32,11c-.7,2,2.54,3.38,3.43,1.44l4.39-9.61L371,490.44a14,14,0,0,1-2.29,5.38l3.24,1.89a40.75,40.75,0,0,1,3.83-6.88l-3.24-1.89c-5.77,11.6-11.45,23.27-14.54,35.92a1.88,1.88,0,0,0,3.62,1l5.83-16.91c.69-2-2.45-3.33-3.43-1.44a75.78,75.78,0,0,0-6.4,17.1l3.62,1a43.66,43.66,0,0,0,.51-10.89,1.88,1.88,0,0,0-3.68-.5c-1.21,4.06-2.25,8.15-3.11,12.31-.49,2.35,3.06,3.36,3.62,1a26,26,0,0,0,.26-10.92c-.34-1.86-3.18-1.71-3.62,0a40.77,40.77,0,0,0-1.3,11.37c0,2,3.31,2.66,3.68.5a18.61,18.61,0,0,0-.69-9.74c-.55-1.62-3.22-1.94-3.62,0a15.36,15.36,0,0,0,.25,7.7c.57,2,3.75,1.66,3.68-.5a13.84,13.84,0,0,0-2.32-7.58,1.9,1.9,0,0,0-3.43.45,8.33,8.33,0,0,0,1,7.52,1.89,1.89,0,0,0,3.24,0,6.28,6.28,0,0,0-.89-7.58c-1.09-1.29-3.18-.2-3.2,1.33l0,2.21,3.68-.5a17.31,17.31,0,0,0-4.35-8.35c-1.48-1.63-3.9.44-2.94,2.27a14,14,0,0,0,3,3.92c1.09,1,3.34.38,3.2-1.33a14.17,14.17,0,0,0-2.73-7.63c-1.13-1.57-4.27-.69-3.43,1.44l1.61,4.1a1.88,1.88,0,0,0,3.68-.5,8.17,8.17,0,0,0-1.14-4.84l-2.94,2.27a13.25,13.25,0,0,1,4.83,12.7l3.43-.45-.72-1.61c-.77-1.72-3.57-.83-3.49.95l.33,7.37c.11,2.4,3.76,2.43,3.75,0l0-4.86c0-2.09-3.16-2.58-3.68-.5s-1.15,4.24-1.84,6.33l3.68.5.12-3.62h-3.75a15.6,15.6,0,0,1-3.6,10.39l2.65,2.65,4.26-5.25-2.94-2.27-1.59,2.61c-1.08,1.78,1.54,3.92,2.94,2.27a49.9,49.9,0,0,0,11.65-25.75c.32-2.32-3.11-3.41-3.62-1A83.76,83.76,0,0,1,357,528.46l3.62,1a61.66,61.66,0,0,1,3.7-7.7l-3.43-1.44L357.34,531c-.7,2.1,2.3,3.15,3.43,1.44a99.66,99.66,0,0,0,5.38-9.2c1.1-2.14-2.09-4-3.24-1.89L358.22,530a1.88,1.88,0,0,0,2.94,2.27c3.18-3.22,3.92-7.61,5-11.87,1.47-5.87,2.73-11.79,3.84-17.74l-3.68-.5a49.76,49.76,0,0,1-4.71,20.73c-1,2.15,2.11,4.06,3.24,1.89a47.67,47.67,0,0,0,5.44-25.55l-3.68.5a13.13,13.13,0,0,1,.58,5.21c-.14,1.79,2.76,2.65,3.49.95l1.16-2.69c.93-2.16-2.1-4.08-3.24-1.89a79.52,79.52,0,0,0-7.2,19.92c-.51,2.35,3.11,3.36,3.62,1a75.75,75.75,0,0,1,6.82-19l-3.24-1.89L367.43,504l3.49.95a15.54,15.54,0,0,0-.71-6.2c-.61-1.93-3.83-1.7-3.68.5a43.9,43.9,0,0,1-4.93,23.66l3.24,1.89a54.27,54.27,0,0,0,5.22-22.62c0-2.06-3.29-2.62-3.68-.5-.87,4.7-1.84,9.37-2.94,14-1,4.42-1.62,10.58-4.93,13.93l2.94,2.27,4.69-8.69-3.24-1.89a99.66,99.66,0,0,1-5.38,9.2L361,532l3.57-10.64c.68-2-2.39-3.28-3.43-1.44a69,69,0,0,0-4.07,8.59c-.89,2.26,2.71,3.19,3.62,1a83.76,83.76,0,0,0,4.55-14.87l-3.62-1a46.44,46.44,0,0,1-10.69,24.1l2.94,2.27,1.59-2.61c1.08-1.77-1.58-4-2.94-2.27l-4.26,5.25c-1.51,1.86,1.13,4.53,2.65,2.65a19.76,19.76,0,0,0,4.7-13c0-2.42-3.67-2.41-3.75,0l-.12,3.62c-.07,2.19,3,2.44,3.68.5s1.31-4.19,1.84-6.33l-3.68-.5,0,4.86h3.75l-.33-7.37-3.49.95.72,1.61a1.89,1.89,0,0,0,3.43-.45,17,17,0,0,0-5.8-16.34,1.88,1.88,0,0,0-2.94,2.27l.63,3,3.68-.5-1.61-4.1-3.43,1.44a10.68,10.68,0,0,1,2.22,5.73l3.2-1.33a7.63,7.63,0,0,1-2.4-3.16l-2.94,2.27a13.4,13.4,0,0,1,3.38,6.69c.45,2.1,3.66,1.58,3.68-.5l0-2.21-3.2,1.33.31,3h3.24a4.22,4.22,0,0,1-.65-4.63l-3.43.45a10.22,10.22,0,0,1,1.81,5.69l3.68-.5a8.9,8.9,0,0,1-.25-5.71h-3.62a14.82,14.82,0,0,1,.69,7.74l3.68.5a37.45,37.45,0,0,1,1.17-10.37h-3.62a21,21,0,0,1-.26,8.93l3.62,1c.86-4.15,1.9-8.24,3.11-12.31l-3.68-.5a39.53,39.53,0,0,1-.38,9.89c-.39,2.33,3,3.39,3.62,1a71.68,71.68,0,0,1,6-16.2l-3.43-1.44L358,524.85l3.62,1c3-12.34,8.52-23.71,14.16-35a1.88,1.88,0,0,0-3.24-1.89,40.75,40.75,0,0,0-3.83,6.88,1.88,1.88,0,0,0,3.24,1.89,16.12,16.12,0,0,0,2.67-6.28c.4-1.95-2.49-3.49-3.43-1.44l-4.39,9.61L370.2,501a115.14,115.14,0,0,0,3.32-11,1.88,1.88,0,0,0-3.62-1,108.14,108.14,0,0,1-5.75,14.89l3.43,1.44,4.18-13.18c.73-2.31-2.89-3.29-3.62-1Z"/><path class="cls-6" d="M357.3,525.2l-1.14,6a1.9,1.9,0,0,0,1.81,2.37,4.15,4.15,0,0,0,2.25-.7l-2.75-2.12a5.52,5.52,0,0,1-1,2.12l2.12-.86c-3.08-1.26-5,1.64-5.49,4.28-.28,1.49,1.27,3.08,2.75,2.12,3.92-2.53,3.55-9.5,3.76-13.59.09-1.78-2.74-2.67-3.49-.95a49.7,49.7,0,0,0-2.5,7l3.68.5,0-4.73c0-2-3.34-2.64-3.68-.5a25,25,0,0,0-.34,4.45,1.88,1.88,0,0,0,3.68.5,28.32,28.32,0,0,0,1.42-8.16c.07-2.41-3.68-2.41-3.75,0a24.59,24.59,0,0,1-1.29,7.16l3.68.5a19,19,0,0,1,.21-3.45l-3.68-.5,0,4.73a1.88,1.88,0,0,0,3.68.5,43.27,43.27,0,0,1,2.12-6.14l-3.49-.95c-.1,2-.26,4-.54,5.95-.17,1.22-.18,3.64-1.36,4.4l2.75,2.12a1.8,1.8,0,0,1,.87-1.66,1.9,1.9,0,0,0,2.12-.86,8.18,8.18,0,0,0,1.4-3,1.9,1.9,0,0,0-2.75-2.12l-.36.19,1.81,2.37,1.14-6c.45-2.36-3.17-3.37-3.62-1Z"/><path class="cls-6" d="M334.37,491.36c1,1.59,2.62,3.53,4.51,4.05,2.76.76,3.5-2.55,3.4-4.55l-3.68.5,1.26,3.73a1.88,1.88,0,0,0,3.68-.5l.13-2.13c.12-2.12-3.17-2.53-3.68-.5l-.81,3.21c-.59,2.34,3,3.34,3.62,1l.81-3.21-3.68-.5-.13,2.13,3.68-.5-1.26-3.73c-.65-1.91-3.79-1.72-3.68.5a2.89,2.89,0,0,1-.22,1.67l.67-.67-.23.14.95-.26h-.33l.95.26a6.41,6.41,0,0,1-2.72-2.52c-1.27-2-4.51-.17-3.24,1.89Z"/><path class="cls-6" d="M408,405.23l-.25,1.9-2.27-2.94-1.81,2.32,2.94,2.27a4.33,4.33,0,0,1,2.71-2.43c2.31-.69,1.32-4.31-1-3.62a8,8,0,0,0-5,4.15,1.9,1.9,0,0,0,.48,2.42,1.85,1.85,0,0,0,2.46-.15l1.81-2.32a1.91,1.91,0,0,0,.15-2.46,1.88,1.88,0,0,0-2.42-.48,2.53,2.53,0,0,0-.51,4c1.73,1.69,4.38-1,2.65-2.65Z"/><path class="cls-6" d="M464.69,297.81c.09.21.25.46.07.66l3.13,1.82a2.49,2.49,0,0,1,1.07-1.22l-2.27-2.94a20,20,0,0,0-2.81,2.68l2.94,2.27a24.16,24.16,0,0,1,3.36-5c1.59-1.8-1-4.46-2.65-2.65a28.1,28.1,0,0,0-4,5.72c-.93,1.8,1.48,4,2.94,2.27a20,20,0,0,1,2.81-2.68c1.68-1.32-.49-4.06-2.27-2.94a6.73,6.73,0,0,0-2.79,3.46c-.67,1.74,1.94,3.2,3.13,1.82a4.14,4.14,0,0,0,.89-4.31A1.94,1.94,0,0,0,466,295.5a1.89,1.89,0,0,0-1.31,2.31Z"/><line class="cls-10" x1="54" x2="54" y2="36"/><line class="cls-10" y1="54" x2="36" y2="54"/><line class="cls-10" y1="659.67" x2="36" y2="659.67"/><line class="cls-10" x1="54" y1="713.67" x2="54" y2="677.67"/><line class="cls-10" x1="659.67" x2="659.67" y2="36"/><line class="cls-10" x1="713.67" y1="54" x2="677.67" y2="54"/><line class="cls-10" x1="713.67" y1="659.67" x2="677.67" y2="659.67"/><line class="cls-10" x1="659.67" y1="713.67" x2="659.67" y2="677.67"/></g></g></svg>